<svg xmlns="http://www.w3.org/2000/svg">
<defs>
<font id="FrutigerLTArabic55Roman" horiz-adv-x="1139" >
  <font-face 
    font-family="FrutigerLTArabic55Roman"
    font-weight="400"
    font-stretch="normal"
    units-per-em="2048"
    panose-1="1 0 0 0 0 0 0 0 0 0"
    ascent="1577"
    descent="-471"
    x-height="1044"
    cap-height="1430"
    bbox="-372 -876 2825 2302"
    underline-thickness="50"
    underline-position="-75"
    unicode-range="U+000D-FEFC"
  />
<missing-glyph horiz-adv-x="1021" 
d="M443 234v133h111v-133h-111zM449 466l-4 34q0 109 25 162q28 53 93 118q64 63 80 94q19 34 19 71q0 72 -45 120q-45 50 -107 50q-31 0 -58 -10.5t-48.5 -33.5t-36 -59t-20.5 -87l-100 16q13 141 88 207t181 66q105 0 176 -72q71 -71 71 -189q0 -62 -25 -117
q-26 -54 -100 -122q-73 -65 -86 -104q-12 -38 -12 -144h-91zM921 99v1231h-822v-1231h822zM1021 1431v-1431h-1021v1431h1021z" />
    <glyph glyph-name="uniFEF5" unicode="&#xfedf;&#xfe82;" horiz-adv-x="1449" arabic-form="isolated" 
d="M1289 1437v-1437h-1139v180h443v868h180v-868h336v1257h180zM321 1297q25 27 47 43.5t43.5 25.5t43 12t44.5 3q37 0 85.5 -17t98 -38t95 -38t76.5 -17q27 0 44.5 9t29.5 22.5t19.5 30t12.5 30.5l75 -35q-16 -39 -32 -69t-37.5 -50t-52 -30.5t-76.5 -10.5q-44 0 -90.5 17
t-93 37t-92.5 37t-90 17q-25 0 -47.5 -7t-48.5 -35z" />
    <glyph glyph-name="uniFEF6" unicode="&#xfee0;&#xfe82;" horiz-adv-x="1580" arabic-form="final" 
d="M150 180h443v868h179v-868h268q32 0 50.5 28t18.5 85v1144h181v-1171q48 -43 115.5 -64.5t166.5 -21.5h8q36 0 54 -12t18 -41v-69q0 -19 -5.5 -30.5t-15.5 -17.5t-23 -8t-28 -2h-10q-57 0 -103.5 8.5t-84 23.5t-67.5 35.5t-55 44.5q-23 -46 -68 -79t-115 -33h-927v180z
M326 1295q25 27 47 43.5t43.5 25.5t43 12t44.5 3q37 0 85.5 -17t98 -38t95 -38t76.5 -17q27 0 44.5 9t29.5 22.5t19.5 30t12.5 30.5l75 -35q-16 -39 -32 -69t-37.5 -50t-52 -30.5t-76.5 -10.5q-44 0 -90.5 17t-93 37t-92.5 37t-90 17q-25 0 -47.5 -7t-48.5 -35z" />
    <glyph glyph-name="uniFEF7" unicode="&#xfedf;&#xfe84;" horiz-adv-x="1449" arabic-form="isolated" 
d="M1289 1437v-1437h-1139v180h443v868h180v-868h336v1257h180zM817 1435q-8 2 -24 4t-35 2q-43 0 -71 -17t-28 -57q0 -19 9 -38t27 -34t45.5 -24.5t65.5 -9.5h29v-84h-310v84h114q-9 6 -20 17t-21 27.5t-17 37.5t-7 47t10.5 50.5t32.5 43.5t55.5 30.5t78.5 11.5
q17 0 36.5 -1t42.5 -5z" />
    <glyph glyph-name="uniFEF8" unicode="&#xfee0;&#xfe84;" horiz-adv-x="1580" arabic-form="final" 
d="M150 180h443v868h179v-868h268q32 0 50.5 28t18.5 85v1144h181v-1171q48 -43 115.5 -64.5t166.5 -21.5h8q36 0 54 -12t18 -41v-69q0 -19 -5.5 -30.5t-15.5 -17.5t-23 -8t-28 -2h-10q-57 0 -103.5 8.5t-84 23.5t-67.5 35.5t-55 44.5q-23 -46 -68 -79t-115 -33h-927v180z
M817 1435q-8 2 -24 4t-35 2q-43 0 -71 -17t-28 -57q0 -19 9 -38t27 -34t45.5 -24.5t65.5 -9.5h29v-84h-310v84h114q-9 6 -20 17t-21 27.5t-17 37.5t-7 47t10.5 50.5t32.5 43.5t55.5 30.5t78.5 11.5q17 0 36.5 -1t42.5 -5z" />
    <glyph glyph-name="uniFEF9" unicode="&#xfedf;&#xfe88;" horiz-adv-x="1449" arabic-form="isolated" 
d="M1289 1437v-1437h-1139v180h443v868h180v-868h336v1257h180zM813 -236q-8 2 -24 4t-35 2q-43 0 -71 -17t-28 -57q0 -19 9 -38t27 -34t45.5 -24.5t65.5 -9.5h29v-84h-310v84h114q-9 6 -20 17t-21 27.5t-17 37.5t-7 47t10.5 50.5t32.5 43.5t55.5 30.5t78.5 11.5
q17 0 36.5 -1t42.5 -5z" />
    <glyph glyph-name="uniFEFA" unicode="&#xfee0;&#xfe88;" horiz-adv-x="1580" arabic-form="final" 
d="M150 180h443v868h179v-868h268q32 0 50.5 28t18.5 85v1144h181v-1171q48 -43 115.5 -64.5t166.5 -21.5h8q36 0 54 -12t18 -41v-69q0 -19 -5.5 -30.5t-15.5 -17.5t-23 -8t-28 -2h-10q-57 0 -103.5 8.5t-84 23.5t-67.5 35.5t-55 44.5q-23 -46 -68 -79t-115 -33h-927v180z
M813 -236q-8 2 -24 4t-35 2q-43 0 -71 -17t-28 -57q0 -19 9 -38t27 -34t45.5 -24.5t65.5 -9.5h29v-84h-310v84h114q-9 6 -20 17t-21 27.5t-17 37.5t-7 47t10.5 50.5t32.5 43.5t55.5 30.5t78.5 11.5q17 0 36.5 -1t42.5 -5z" />
    <glyph glyph-name="uniFEFB" unicode="&#xfedf;&#xfe8e;" horiz-adv-x="1449" arabic-form="isolated" 
d="M1289 1437v-1437h-1139v180h443v868h180v-868h336v1257h180z" />
    <glyph glyph-name="uniFEFC" unicode="&#xfee0;&#xfe8e;" horiz-adv-x="1580" arabic-form="final" 
d="M150 180h443v868h179v-868h268q32 0 50.5 28t18.5 85v1144h181v-1171q48 -43 115.5 -64.5t166.5 -21.5h8q36 0 54 -12t18 -41v-69q0 -19 -5.5 -30.5t-15.5 -17.5t-23 -8t-28 -2h-10q-57 0 -103.5 8.5t-84 23.5t-67.5 35.5t-55 44.5q-23 -46 -68 -79t-115 -33h-927v180z
" />
    <glyph glyph-name="uni06440671" unicode="&#xfedf;&#xfb51;" horiz-adv-x="1449" 
d="M1289 1437v-1437h-1139v180h443v868h180v-868h336v1257h180zM820 1300q0 50 -20.5 69t-54.5 19q-19 0 -40.5 -6t-40 -19t-30.5 -33.5t-12 -49.5v-14h198v34zM470 1196v70h82v168h68v-50q24 32 60 51t73 19q66 0 100.5 -42t34.5 -107v-109h-418z" />
    <glyph glyph-name="uni06440671.fina" unicode="&#xfee0;&#xfb51;" horiz-adv-x="1580" 
d="M150 180h443v868h179v-868h268q32 0 50.5 28t18.5 85v1144h181v-1171q48 -43 115.5 -64.5t166.5 -21.5h8q36 0 54 -12t18 -41v-69q0 -19 -5.5 -30.5t-15.5 -17.5t-23 -8t-28 -2h-10q-57 0 -103.5 8.5t-84 23.5t-67.5 35.5t-55 44.5q-23 -46 -68 -79t-115 -33h-927v180z
M820 1300q0 50 -20.5 69t-54.5 19q-19 0 -40.5 -6t-40 -19t-30.5 -33.5t-12 -49.5v-14h198v34zM470 1196v70h82v168h68v-50q24 32 60 51t73 19q66 0 100.5 -42t34.5 -107v-109h-418z" />
    <glyph glyph-name="uni0621" unicode="&#x621;" horiz-adv-x="831" arabic-form="isolated" 
d="M678 506q-26 5 -58.5 9t-78.5 4q-37 0 -72.5 -9.5t-63 -29t-44 -49.5t-16.5 -70q0 -54 28 -92.5t72.5 -62.5t100 -35t110.5 -11h58v-160h-593v160h202q-24 15 -48 38t-43 52.5t-30.5 64.5t-11.5 74q0 75 30.5 129t78.5 89t107 51.5t116 16.5q46 0 84.5 -2.5t84.5 -10.5z
" />
    <glyph glyph-name="uni0622" unicode="&#x622;" horiz-adv-x="540" arabic-form="isolated" 
d="M180 1436h180v-1437h-180v1437zM-89 1633q25 27 47 43.5t43.5 25.5t43 12t44.5 3q37 0 85.5 -17t98 -38t95 -38t76.5 -17q27 0 44.5 9t29.5 22.5t19.5 30t12.5 30.5l75 -35q-16 -39 -32 -69t-37.5 -50t-52 -30.5t-76.5 -10.5q-44 0 -90.5 17t-93 37t-92.5 37t-90 17
q-25 0 -47.5 -7t-48.5 -35z" />
    <glyph glyph-name="uni0623" unicode="&#x623;" horiz-adv-x="540" arabic-form="isolated" 
d="M180 1436h180v-1437h-180v1437zM402 1819q-8 2 -24 4t-35 2q-43 0 -71 -17t-28 -57q0 -19 9 -38t27 -34t45.5 -24.5t65.5 -9.5h29v-84h-310v84h114q-9 6 -20 17t-21 27.5t-17 37.5t-7 47t10.5 50.5t32.5 43.5t55.5 30.5t78.5 11.5q17 0 36.5 -1t42.5 -5z" />
    <glyph glyph-name="uni0624" unicode="&#x624;" horiz-adv-x="1095" arabic-form="isolated" 
d="M592 176q25 0 51 2.5t49.5 7t43 10t30.5 10.5v87q0 107 -19.5 174.5t-51 105t-72 51t-81.5 13.5q-46 0 -86 -17t-69.5 -48t-46.5 -74.5t-17 -95.5q0 -45 15 -86t47.5 -72t83.5 -49.5t123 -18.5zM766 37q-24 -11 -51 -19t-54 -12.5t-52 -6.5t-46 -2q-114 0 -193 35.5
t-128.5 91.5t-72 126.5t-22.5 139.5q0 87 30 163t86 132.5t134.5 88.5t176.5 32q39 0 82 -7.5t84.5 -27t78.5 -52.5t65 -83.5t44.5 -121t16.5 -163.5v-168q0 -163 -48.5 -273t-135.5 -180.5t-207.5 -106.5t-264.5 -50l-19 173q111 8 196.5 32t147 61.5t99.5 87.5t53 110z
M700 1363q-11 2 -32 5t-47 3q-57 0 -94.5 -22.5t-37.5 -75.5q0 -25 12 -50.5t36 -45.5t61 -33t87 -13h39v-112h-414v112h152q-11 7 -26 22.5t-28.5 37t-23 50t-9.5 62.5q0 35 14 68t43.5 58.5t74 40.5t105.5 15q23 0 49 -1.5t57 -6.5z" />
    <glyph glyph-name="uni0625" unicode="&#x625;" horiz-adv-x="540" arabic-form="isolated" 
d="M180 1436h180v-1437h-180v1437zM387 -236q-8 2 -24 4t-35 2q-43 0 -71 -17t-28 -57q0 -19 9 -38t27 -34t45.5 -24.5t65.5 -9.5h29v-84h-310v84h114q-9 6 -20 17t-21 27.5t-17 37.5t-7 47t10.5 50.5t32.5 43.5t55.5 30.5t78.5 11.5q17 0 36.5 -1t42.5 -5z" />
    <glyph glyph-name="uni0626" unicode="&#x626;" horiz-adv-x="1537" arabic-form="isolated" 
d="M1154 -8q0 38 -24.5 70.5t-60.5 63.5t-79 64t-79 72t-60.5 85.5t-24.5 106.5q0 87 36.5 147.5t93 98.5t124.5 55t132 17q46 0 86.5 -6t71.5 -14q36 -9 67 -19l-46 -178q-26 11 -56 21q-26 8 -59.5 14.5t-68.5 6.5q-31 0 -66.5 -6.5t-65.5 -22t-50 -41.5t-20 -64
q0 -35 24.5 -66.5t61.5 -63t80 -64t80 -69t61.5 -78.5t24.5 -92q0 -53 -19 -108t-55.5 -106.5t-89 -97.5t-120.5 -80t-150.5 -53.5t-177.5 -19.5q-127 0 -226.5 24t-174 65t-126 94.5t-83.5 112.5t-46 119t-14 115q0 111 32.5 208.5t83.5 168.5l152 -85q-45 -57 -67 -130.5
t-22 -146.5q0 -75 28.5 -140.5t88.5 -114.5t152.5 -77t219.5 -28q88 0 166 19t137 52t93.5 77t34.5 94zM391 915q-11 2 -32 5t-47 3q-57 0 -94.5 -22.5t-37.5 -75.5q0 -25 12 -50.5t36 -45.5t61 -33t87 -13h39v-112h-414v112h152q-11 7 -26 22.5t-28.5 37t-23 50t-9.5 62.5
q0 35 14 68t43.5 58.5t74 40.5t105.5 15q23 0 49 -1.5t57 -6.5z" />
    <glyph glyph-name="uni0627" unicode="&#x627;" horiz-adv-x="540" arabic-form="isolated" 
d="M180 1436h180v-1437h-180v1437z" />
    <glyph glyph-name="uni0628" unicode="&#x628;" horiz-adv-x="1802" arabic-form="isolated" 
d="M542 0q-120 0 -207 13t-147 37t-97 57.5t-57 73.5t-27 86t-7 96q0 19 1.5 44t4.5 51.5t6.5 53t7.5 48.5l170 -16l-10 -70t-5 -70q0 -60 15 -102.5t64.5 -69.5t144.5 -39.5t255 -12.5h808v593h180v-773h-1100zM729 -300q0 22 8.5 41.5t22.5 34t33.5 23t41.5 8.5t41.5 -8.5
t34 -23t23 -34t8.5 -41.5t-8.5 -41.5t-23 -33.5t-34 -22.5t-41.5 -8.5q-45 0 -75.5 30.5t-30.5 75.5z" />
    <glyph glyph-name="uni0629" unicode="&#x629;" horiz-adv-x="895" arabic-form="isolated" 
d="M363 0q-87 0 -154.5 27.5t-114 75t-70.5 111.5t-24 136q0 120 36.5 211t93.5 152.5t125.5 92.5t132.5 31q67 0 134.5 -30t121.5 -90.5t87.5 -152t33.5 -214.5q0 -68 -25 -131.5t-71 -112t-111 -77.5t-145 -29h-50zM160 383q0 -102 60.5 -152.5t160.5 -50.5h20
q49 0 85.5 16t61 44t36.5 65t12 78q0 73 -19.5 128t-50.5 92t-68 55.5t-72 18.5q-42 0 -82.5 -18t-72.5 -54.5t-51.5 -92t-19.5 -129.5zM128 1132q0 22 8.5 41.5t22.5 34t33.5 23t41.5 8.5t41.5 -8.5t34 -23t23 -34t8.5 -41.5t-8.5 -41.5t-23 -33.5t-34 -22.5t-41.5 -8.5
q-45 0 -75.5 30.5t-30.5 75.5zM413 1132q0 22 8.5 41.5t22.5 34t33.5 23t41.5 8.5t41.5 -8.5t34 -23t23 -34t8.5 -41.5t-8.5 -41.5t-23 -33.5t-34 -22.5t-41.5 -8.5q-45 0 -75.5 30.5t-30.5 75.5z" />
    <glyph glyph-name="uni062A" unicode="&#x62a;" horiz-adv-x="1802" arabic-form="isolated" 
d="M542 0q-120 0 -207 13t-147 37t-97 57.5t-57 73.5t-27 86t-7 96q0 19 1.5 44t4.5 51.5t6.5 53t7.5 48.5l170 -16l-10 -70t-5 -70q0 -60 15 -102.5t64.5 -69.5t144.5 -39.5t255 -12.5h808v593h180v-773h-1100zM628 1132q0 22 8.5 41.5t22.5 34t33.5 23t41.5 8.5t41.5 -8.5
t34 -23t23 -34t8.5 -41.5t-8.5 -41.5t-23 -33.5t-34 -22.5t-41.5 -8.5q-45 0 -75.5 30.5t-30.5 75.5zM913 1132q0 22 8.5 41.5t22.5 34t33.5 23t41.5 8.5t41.5 -8.5t34 -23t23 -34t8.5 -41.5t-8.5 -41.5t-23 -33.5t-34 -22.5t-41.5 -8.5q-45 0 -75.5 30.5t-30.5 75.5z" />
    <glyph glyph-name="uni062B" unicode="&#x62b;" horiz-adv-x="1802" arabic-form="isolated" 
d="M542 0q-120 0 -207 13t-147 37t-97 57.5t-57 73.5t-27 86t-7 96q0 19 1.5 44t4.5 51.5t6.5 53t7.5 48.5l170 -16l-10 -70t-5 -70q0 -60 15 -102.5t64.5 -69.5t144.5 -39.5t255 -12.5h808v593h180v-773h-1100zM587 1132q0 22 8.5 41.5t22.5 34t33.5 23t41.5 8.5t41.5 -8.5
t34 -23t23 -34t8.5 -41.5t-8.5 -41.5t-23 -33.5t-34 -22.5t-41.5 -8.5q-45 0 -75.5 30.5t-30.5 75.5zM872 1132q0 22 8.5 41.5t22.5 34t33.5 23t41.5 8.5t41.5 -8.5t34 -23t23 -34t8.5 -41.5t-8.5 -41.5t-23 -33.5t-34 -22.5t-41.5 -8.5q-45 0 -75.5 30.5t-30.5 75.5z
M728 1400q0 22 8.5 41.5t22.5 34t33.5 23t41.5 8.5t41.5 -8.5t34 -23t23 -34t8.5 -41.5t-8.5 -41.5t-23 -33.5t-34 -22.5t-41.5 -8.5q-45 0 -75.5 30.5t-30.5 75.5z" />
    <glyph glyph-name="uni062C" unicode="&#x62c;" horiz-adv-x="1075" arabic-form="isolated" 
d="M496 -268.799q0 19.7119 7.66699 37.1836q7.66699 17.4727 20.2939 30.4639q12.6279 12.9922 30.2168 20.6084q17.5879 7.61523 37.4316 7.61523t37.4326 -7.61523q17.5879 -7.61621 30.667 -20.6084q13.0781 -12.9912 20.7451 -30.4639
q7.66699 -17.4717 7.66699 -37.1836t-7.66699 -37.1836q-7.66699 -17.4727 -20.7451 -30.0156q-13.0791 -12.5449 -30.667 -20.1602q-17.5889 -7.61621 -37.4326 -7.61621q-40.5889 0 -68.0986 27.3281q-27.5107 27.3271 -27.5107 67.6475zM753 180q-21 21 -34.5 57
t-22.5 99q-8 59 -20.5 117t-40 104.5t-75 75t-125.5 28.5q-22 0 -50 -3.5t-57 -9t-55 -12.5t-44 -15v163q59 17 119.5 30.5t136.5 13.5q77 0 137 -24t103.5 -66.5t69.5 -102t35 -130.5q8 -64 18 -122.5t26 -103.5t40 -72t61 -27v-180h-542q-53 0 -99.5 -19.5t-81.5 -56.5
t-55.5 -91t-20.5 -122q0 -53 18.5 -106t58 -95t101.5 -68.5t150 -26.5q45 0 96.5 7t98.5 16v-164q-29 -8 -54 -13t-49 -9t-47.5 -5.5t-50.5 -1.5q-87 0 -157.5 19t-126 52t-96 76.5t-66.5 93.5t-39 103t-13 104q0 120 40 211.5t107 152.5t153.5 92t179.5 31h273z" />
    <glyph glyph-name="uni062D" unicode="&#x62d;" horiz-adv-x="1075" arabic-form="isolated" 
d="M753 180q-21 21 -34.5 57t-22.5 99q-8 59 -20.5 117t-40 104.5t-75 75t-125.5 28.5q-22 0 -50 -3.5t-57 -9t-55 -12.5t-44 -15v163q59 17 119.5 30.5t136.5 13.5q77 0 137 -24t103.5 -66.5t69.5 -102t35 -130.5q8 -64 18 -122.5t26 -103.5t40 -72t61 -27v-180h-542
q-53 0 -99.5 -19.5t-81.5 -56.5t-55.5 -91t-20.5 -122q0 -53 18.5 -106t58 -95t101.5 -68.5t150 -26.5q45 0 96.5 7t98.5 16v-164q-29 -8 -54 -13t-49 -9t-47.5 -5.5t-50.5 -1.5q-87 0 -157.5 19t-126 52t-96 76.5t-66.5 93.5t-39 103t-13 104q0 120 40 211.5t107 152.5
t153.5 92t179.5 31h273z" />
    <glyph glyph-name="uni062E" unicode="&#x62e;" horiz-adv-x="1075" arabic-form="isolated" 
d="M353 1132q0 22 8.5 41.5t22.5 34t33.5 23t41.5 8.5t41.5 -8.5t34 -23t23 -34t8.5 -41.5t-8.5 -41.5t-23 -33.5t-34 -22.5t-41.5 -8.5q-45 0 -75.5 30.5t-30.5 75.5zM753 180q-21 21 -34.5 57t-22.5 99q-8 59 -20.5 117t-40 104.5t-75 75t-125.5 28.5q-22 0 -50 -3.5
t-57 -9t-55 -12.5t-44 -15v163q59 17 119.5 30.5t136.5 13.5q77 0 137 -24t103.5 -66.5t69.5 -102t35 -130.5q8 -64 18 -122.5t26 -103.5t40 -72t61 -27v-180h-542q-53 0 -99.5 -19.5t-81.5 -56.5t-55.5 -91t-20.5 -122q0 -53 18.5 -106t58 -95t101.5 -68.5t150 -26.5
q45 0 96.5 7t98.5 16v-164q-29 -8 -54 -13t-49 -9t-47.5 -5.5t-50.5 -1.5q-87 0 -157.5 19t-126 52t-96 76.5t-66.5 93.5t-39 103t-13 104q0 120 40 211.5t107 152.5t153.5 92t179.5 31h273z" />
    <glyph glyph-name="uni062F" unicode="&#x62f;" horiz-adv-x="940" arabic-form="isolated" 
d="M71 0v180h341q71 0 116.5 8.5t71.5 25t36 40t10 53.5q0 53 -28.5 111.5t-75 116.5t-104.5 113.5t-117 103.5l133 131q66 -57 129.5 -124.5t114 -140t81.5 -148.5t31 -150q0 -71 -21 -129.5t-66 -101t-116 -66t-172 -23.5h-364z" />
    <glyph glyph-name="uni0630" unicode="&#x630;" horiz-adv-x="910" arabic-form="isolated" 
d="M71 0v180h341q71 0 116.5 8.5t71.5 25t36 40t10 53.5q0 53 -28.5 111.5t-75 116.5t-104.5 113.5t-117 103.5l133 131q66 -57 129.5 -124.5t114 -140t81.5 -148.5t31 -150q0 -71 -21 -129.5t-66 -101t-116 -66t-172 -23.5h-364zM322 1132q0 22 8.5 41.5t22.5 34t33.5 23
t41.5 8.5t41.5 -8.5t34 -23t23 -34t8.5 -41.5t-8.5 -41.5t-23 -33.5t-34 -22.5t-41.5 -8.5q-45 0 -75.5 30.5t-30.5 75.5z" />
    <glyph glyph-name="uni0631" unicode="&#x631;" horiz-adv-x="641" arabic-form="isolated" 
d="M-19 -246q107 14 170.5 42.5t96.5 73t43 104.5t10 136v663h180v-612q0 -152 -29 -254.5t-88 -169t-150 -102.5t-215 -53z" />
    <glyph glyph-name="uni0632" unicode="&#x632;" horiz-adv-x="652" arabic-form="isolated" 
d="M-19 -246q107 14 170.5 42.5t96.5 73t43 104.5t10 136v663h180v-612q0 -152 -29 -254.5t-88 -169t-150 -102.5t-215 -53zM279 1132q0 22 8.5 41.5t22.5 34t33.5 23t41.5 8.5t41.5 -8.5t34 -23t23 -34t8.5 -41.5t-8.5 -41.5t-23 -33.5t-34 -22.5t-41.5 -8.5
q-45 0 -75.5 30.5t-30.5 75.5z" />
    <glyph glyph-name="uni0633" unicode="&#x633;" horiz-adv-x="2461" arabic-form="isolated" 
d="M986 179q0 28 -5 69.5t-14 87.5t-23 93t-32 86l177 50q12 -32 23.5 -72t21.5 -83.5t18 -89t11 -88.5q51 -31 112 -41.5t127 -10.5h69q32 0 50.5 28t18.5 85v371h181v-422q50 -35 115 -48.5t140 -13.5h144v593h181v-773h-327q-33 0 -71 4t-77 14.5t-76.5 28.5t-69.5 46
q-25 -40 -67 -66.5t-105 -26.5h-108q-63 0 -126 13.5t-118 45.5q-17 -108 -63.5 -198t-122 -154.5t-179.5 -100t-234 -35.5q-142 0 -246.5 43.5t-173.5 116.5t-103 168.5t-34 200.5q0 50 8.5 102.5t22.5 103t33.5 95.5t42.5 81l152 -85q-16 -26 -29 -58.5t-22 -68.5
t-14 -73.5t-5 -73.5q0 -78 25 -146.5t73.5 -119t120 -80t163.5 -29.5q99 0 176 29.5t130 85t81 135.5t28 181z" />
    <glyph glyph-name="uni0634" unicode="&#x634;" horiz-adv-x="2461" arabic-form="isolated" 
d="M986 179q0 28 -5 69.5t-14 87.5t-23 93t-32 86l177 50q12 -32 23.5 -72t21.5 -83.5t18 -89t11 -88.5q51 -31 112 -41.5t127 -10.5h69q32 0 50.5 28t18.5 85v371h181v-422q50 -35 115 -48.5t140 -13.5h144v593h181v-773h-327q-33 0 -71 4t-77 14.5t-76.5 28.5t-69.5 46
q-25 -40 -67 -66.5t-105 -26.5h-108q-63 0 -126 13.5t-118 45.5q-17 -108 -63.5 -198t-122 -154.5t-179.5 -100t-234 -35.5q-142 0 -246.5 43.5t-173.5 116.5t-103 168.5t-34 200.5q0 50 8.5 102.5t22.5 103t33.5 95.5t42.5 81l152 -85q-16 -26 -29 -58.5t-22 -68.5
t-14 -73.5t-5 -73.5q0 -78 25 -146.5t73.5 -119t120 -80t163.5 -29.5q99 0 176 29.5t130 85t81 135.5t28 181zM1378 1132q0 22 8.5 41.5t22.5 34t33.5 23t41.5 8.5t41.5 -8.5t34 -23t23 -34t8.5 -41.5t-8.5 -41.5t-23 -33.5t-34 -22.5t-41.5 -8.5q-45 0 -75.5 30.5
t-30.5 75.5zM1663 1132q0 22 8.5 41.5t22.5 34t33.5 23t41.5 8.5t41.5 -8.5t34 -23t23 -34t8.5 -41.5t-8.5 -41.5t-23 -33.5t-34 -22.5t-41.5 -8.5q-45 0 -75.5 30.5t-30.5 75.5zM1519 1400q0 22 8.5 41.5t22.5 34t33.5 23t41.5 8.5t41.5 -8.5t34 -23t23 -34t8.5 -41.5
t-8.5 -41.5t-23 -33.5t-34 -22.5t-41.5 -8.5q-45 0 -75.5 30.5t-30.5 75.5z" />
    <glyph glyph-name="uni0635" unicode="&#x635;" horiz-adv-x="2697" arabic-form="isolated" 
d="M1421 0q-69 0 -137.5 16.5t-125.5 54.5q-15 -111 -61.5 -203t-122 -158t-180.5 -102.5t-237 -36.5q-142 0 -246.5 43.5t-173.5 116.5t-103 168.5t-34 200.5q0 50 8.5 102.5t22.5 103t33.5 95.5t42.5 81l152 -85q-16 -26 -29 -58.5t-22 -68.5t-14 -73.5t-5 -73.5
q0 -78 25 -146.5t73.5 -119t120 -80t163.5 -29.5q99 0 176 29.5t130 85t81 135.5t28 181q0 28 -5 69.5t-14 87.5t-23 93t-32 86l177 50q11 -31 22 -68.5t21 -79t17.5 -84.5t11.5 -85q52 -37 118 -52.5t144 -15.5q18 59 50.5 131t77.5 146t103 144t129 124.5t154 87.5t178 33
q115 0 196.5 -38t134 -105t77 -157t24.5 -195v-351h-1126zM2367 331q0 97 -21.5 162t-58.5 104.5t-87 56t-107 16.5q-62 0 -119 -21.5t-107 -58.5t-92.5 -85.5t-76.5 -103t-59 -111.5t-39 -110h767v151z" />
    <glyph glyph-name="uni0636" unicode="&#x636;" horiz-adv-x="2697" arabic-form="isolated" 
d="M1421 0q-69 0 -137.5 16.5t-125.5 54.5q-15 -111 -61.5 -203t-122 -158t-180.5 -102.5t-237 -36.5q-142 0 -246.5 43.5t-173.5 116.5t-103 168.5t-34 200.5q0 50 8.5 102.5t22.5 103t33.5 95.5t42.5 81l152 -85q-16 -26 -29 -58.5t-22 -68.5t-14 -73.5t-5 -73.5
q0 -78 25 -146.5t73.5 -119t120 -80t163.5 -29.5q99 0 176 29.5t130 85t81 135.5t28 181q0 28 -5 69.5t-14 87.5t-23 93t-32 86l177 50q11 -31 22 -68.5t21 -79t17.5 -84.5t11.5 -85q52 -37 118 -52.5t144 -15.5q18 59 50.5 131t77.5 146t103 144t129 124.5t154 87.5t178 33
q115 0 196.5 -38t134 -105t77 -157t24.5 -195v-351h-1126zM2367 331q0 97 -21.5 162t-58.5 104.5t-87 56t-107 16.5q-62 0 -119 -21.5t-107 -58.5t-92.5 -85.5t-76.5 -103t-59 -111.5t-39 -110h767v151zM1741 1132q0 22 8.5 41.5t22.5 34t33.5 23t41.5 8.5t41.5 -8.5t34 -23
t23 -34t8.5 -41.5t-8.5 -41.5t-23 -33.5t-34 -22.5t-41.5 -8.5q-45 0 -75.5 30.5t-30.5 75.5z" />
    <glyph glyph-name="uni0637" unicode="&#x637;" horiz-adv-x="1525" arabic-form="isolated" 
d="M0 0v180h251q14 46 37 100.5t55 113.5v1043h180v-792q42 43 89 80t99.5 64t110.5 42t121 15q115 0 196.5 -38t134 -105t77 -157t24.5 -195v-351h-1375zM1195 331q0 97 -21.5 162t-58.5 104.5t-87 56t-107 16.5q-62 0 -119 -21.5t-107 -58.5t-92.5 -85.5t-76.5 -103
t-59 -111.5t-39 -110h767v151z" />
    <glyph glyph-name="uni0638" unicode="&#x638;" horiz-adv-x="1525" arabic-form="isolated" 
d="M0 0v180h251q14 46 37 100.5t55 113.5v1043h180v-792q42 43 89 80t99.5 64t110.5 42t121 15q115 0 196.5 -38t134 -105t77 -157t24.5 -195v-351h-1375zM1195 331q0 97 -21.5 162t-58.5 104.5t-87 56t-107 16.5q-62 0 -119 -21.5t-107 -58.5t-92.5 -85.5t-76.5 -103
t-59 -111.5t-39 -110h767v151zM836 1132q0 22 8.5 41.5t22.5 34t33.5 23t41.5 8.5t41.5 -8.5t34 -23t23 -34t8.5 -41.5t-8.5 -41.5t-23 -33.5t-34 -22.5t-41.5 -8.5q-45 0 -75.5 30.5t-30.5 75.5z" />
    <glyph glyph-name="uni0639" unicode="&#x639;" horiz-adv-x="983" arabic-form="isolated" 
d="M295 147q-26 33 -42.5 67.5t-26 67.5t-13 64t-3.5 58q0 85 29 160.5t81.5 132t126 89.5t161.5 33q21 0 48 -2t55 -5t52 -7.5t39 -10.5l-18 -188q-20 6 -46 11.5t-53.5 9t-54.5 6t-48 2.5q-34 0 -70 -9.5t-66 -33.5t-49.5 -64t-19.5 -100q0 -54 19 -99.5t54 -78.5
t83.5 -51.5t107.5 -18.5h242v-180h-450q-53 0 -99.5 -19.5t-81.5 -56.5t-55.5 -91t-20.5 -122q0 -53 18.5 -106t58 -95t101.5 -68.5t150 -26.5q45 0 96.5 7t98.5 16v-164q-29 -8 -54 -13t-49 -9t-47.5 -5.5t-50.5 -1.5q-87 0 -157.5 19t-126 52t-96 76.5t-66.5 93.5t-39 103
t-13 104q0 89 22.5 162.5t62.5 130.5t93.5 97t116.5 64z" />
    <glyph glyph-name="uni063A" unicode="&#x63a;" horiz-adv-x="983" arabic-form="isolated" 
d="M295 147q-26 33 -42.5 67.5t-26 67.5t-13 64t-3.5 58q0 85 29 160.5t81.5 132t126 89.5t161.5 33q21 0 48 -2t55 -5t52 -7.5t39 -10.5l-18 -188q-20 6 -46 11.5t-53.5 9t-54.5 6t-48 2.5q-34 0 -70 -9.5t-66 -33.5t-49.5 -64t-19.5 -100q0 -54 19 -99.5t54 -78.5
t83.5 -51.5t107.5 -18.5h242v-180h-450q-53 0 -99.5 -19.5t-81.5 -56.5t-55.5 -91t-20.5 -122q0 -53 18.5 -106t58 -95t101.5 -68.5t150 -26.5q45 0 96.5 7t98.5 16v-164q-29 -8 -54 -13t-49 -9t-47.5 -5.5t-50.5 -1.5q-87 0 -157.5 19t-126 52t-96 76.5t-66.5 93.5t-39 103
t-13 104q0 89 22.5 162.5t62.5 130.5t93.5 97t116.5 64zM463 1132q0 22 8.5 41.5t22.5 34t33.5 23t41.5 8.5t41.5 -8.5t34 -23t23 -34t8.5 -41.5t-8.5 -41.5t-23 -33.5t-34 -22.5t-41.5 -8.5q-45 0 -75.5 30.5t-30.5 75.5z" />
    <glyph glyph-name="uni0641" unicode="&#x641;" horiz-adv-x="2083" arabic-form="isolated" 
d="M1754 180v188q0 77 -17.5 129t-47 83t-68 44t-79.5 13q-46 0 -86 -17t-69.5 -47t-46.5 -72.5t-17 -93.5t18.5 -93t52.5 -71.5t83 -46t111 -16.5h166zM1219 186q-13 14 -24.5 36t-20.5 50.5t-14 61.5t-5 68q0 84 31 158.5t85.5 130t129.5 88t164 32.5q87 0 155 -27.5
t115.5 -79t72.5 -126.5t25 -169v-409h-1391q-120 0 -207 13t-147 37t-97 57.5t-57 73.5t-27 86t-7 96q0 19 1.5 44t4.5 51.5t6.5 53t7.5 48.5l170 -16l-10 -70t-5 -70q0 -60 15 -102.5t64.5 -69.5t144.5 -39.5t255 -12.5h565v6zM1465 1132q0 22 8.5 41.5t22.5 34t33.5 23
t41.5 8.5t41.5 -8.5t34 -23t23 -34t8.5 -41.5t-8.5 -41.5t-23 -33.5t-34 -22.5t-41.5 -8.5q-45 0 -75.5 30.5t-30.5 75.5z" />
    <glyph glyph-name="uni0642" unicode="&#x642;" horiz-adv-x="1456" arabic-form="isolated" 
d="M953 176q25 0 51 2.5t49.5 7t43 10t30.5 10.5v87q0 107 -19.5 174.5t-51 105t-72 51t-81.5 13.5q-46 0 -86 -17t-69.5 -48t-46.5 -74.5t-17 -95.5q0 -45 15 -86t47.5 -72t83.5 -49.5t123 -18.5zM1127 37q-24 -11 -51 -19t-54 -12.5t-52 -6.5t-46 -2q-114 0 -193 35.5
t-128.5 91.5t-72 126.5t-22.5 139.5q0 87 30 163t86 132.5t134.5 88.5t176.5 32q40 0 82.5 -7.5t84 -27t78.5 -52.5t65 -83.5t44.5 -121t16.5 -163.5v-288q0 -165 -52.5 -290.5t-144.5 -210t-217 -127.5t-270 -43q-154 0 -270.5 39t-194.5 109t-117.5 167t-39.5 214
q0 50 8.5 102.5t22.5 103t33.5 95.5t42.5 81l152 -85q-16 -26 -29 -58.5t-22 -68.5t-14 -73.5t-5 -73.5q0 -83 28.5 -151.5t84.5 -118.5t139.5 -77.5t194.5 -27.5q104 0 194 26.5t156 79.5t103.5 134t37.5 191v37zM645 1132q0 22 8.5 41.5t22.5 34t33.5 23t41.5 8.5
t41.5 -8.5t34 -23t23 -34t8.5 -41.5t-8.5 -41.5t-23 -33.5t-34 -22.5t-41.5 -8.5q-45 0 -75.5 30.5t-30.5 75.5zM930 1132q0 22 8.5 41.5t22.5 34t33.5 23t41.5 8.5t41.5 -8.5t34 -23t23 -34t8.5 -41.5t-8.5 -41.5t-23 -33.5t-34 -22.5t-41.5 -8.5q-45 0 -75.5 30.5
t-30.5 75.5z" />
    <glyph glyph-name="uni0643" unicode="&#x643;" horiz-adv-x="1802" arabic-form="isolated" 
d="M1006 852q-10 2 -28.5 4.5t-41.5 2.5q-51 0 -83.5 -20t-32.5 -67q0 -22 10.5 -44.5t32 -40.5t54 -29.5t76.5 -11.5h35v-99h-367v99h135q-10 7 -23.5 20t-25.5 32.5t-20 44.5t-8 55q0 31 12.5 60.5t38.5 52t65 36t93 13.5q21 0 44 -1t50 -6zM542 0q-120 0 -207 13t-147 37
t-97 57.5t-57 73.5t-27 86t-7 96q0 19 1.5 44t4.5 51.5t6.5 53t7.5 48.5l170 -16l-10 -70t-5 -70q0 -60 15 -102.5t64.5 -69.5t144.5 -39.5t255 -12.5h808v1257h180v-1437h-1100z" />
    <glyph glyph-name="uni0644" unicode="&#x644;" horiz-adv-x="1325" arabic-form="isolated" 
d="M986 1437h179v-1258q0 -132 -39.5 -243.5t-116.5 -192.5t-190.5 -126.5t-261.5 -45.5q-142 0 -246.5 43.5t-173.5 116.5t-103 168.5t-34 200.5q0 50 8.5 102.5t22.5 103t33.5 95.5t42.5 81l152 -85q-16 -26 -29 -58.5t-22 -68.5t-14 -73.5t-5 -73.5q0 -78 25 -146.5
t73.5 -119t120 -80t163.5 -29.5q99 0 176 29.5t130 85t81 135.5t28 181v1258z" />
    <glyph glyph-name="uni0645" unicode="&#x645;" horiz-adv-x="1304" arabic-form="isolated" 
d="M442 120q-47 -5 -94.5 -19.5t-85.5 -47t-62 -87.5t-24 -139q0 -51 7 -112.5t21 -129.5t35.5 -140t50.5 -145l-168 -56q-23 67 -45 146t-39 157t-27.5 149t-10.5 122q0 84 18 148t46.5 112t65.5 82.5t74.5 60t73 44t61.5 34.5q29 107 65 184.5t75.5 132t80.5 88t81 52.5
t76.5 25.5t67.5 6.5q67 0 122 -19t98 -51.5t75 -75.5t53 -89.5t31 -94.5t10 -91q0 -39 -10 -82.5t-30 -85t-51.5 -79.5t-74.5 -67t-98 -46t-123 -17q-60 0 -112 11t-95.5 29.5t-78 42t-59.5 47.5zM1012 346q0 37 -13.5 84t-42 89t-72.5 70.5t-105 28.5q-58 0 -106.5 -31
t-85.5 -81.5t-62 -115.5t-36 -134q10 -14 39 -29.5t67.5 -28t82 -20.5t83.5 -8q57 0 103.5 8t79.5 27.5t50.5 53.5t17.5 87z" />
    <glyph glyph-name="uni0646" unicode="&#x646;" horiz-adv-x="1309" arabic-form="isolated" 
d="M986 179q0 28 -5 69.5t-14 87.5t-23 93t-32 86l177 50q13 -37 27 -84t24.5 -98.5t17.5 -103.5t7 -100q0 -132 -39.5 -243.5t-116.5 -192.5t-190.5 -126.5t-261.5 -45.5q-142 0 -246.5 43.5t-173.5 116.5t-103 168.5t-34 200.5q0 50 8.5 102.5t22.5 103t33.5 95.5t42.5 81
l152 -85q-16 -26 -29 -58.5t-22 -68.5t-14 -73.5t-5 -73.5q0 -78 25 -146.5t73.5 -119t120 -80t163.5 -29.5q99 0 176 29.5t130 85t81 135.5t28 181zM549 913q0 22 8.5 41.5t22.5 34t33.5 23t41.5 8.5t41.5 -8.5t34 -23t23 -34t8.5 -41.5t-8.5 -41.5t-23 -33.5t-34 -22.5
t-41.5 -8.5q-45 0 -75.5 30.5t-30.5 75.5z" />
    <glyph glyph-name="uni0648" unicode="&#x648;" horiz-adv-x="1095" arabic-form="isolated" 
d="M592 176q25 0 51 2.5t49.5 7t43 10t30.5 10.5v87q0 107 -19.5 174.5t-51 105t-72 51t-81.5 13.5q-46 0 -86 -17t-69.5 -48t-46.5 -74.5t-17 -95.5q0 -45 15 -86t47.5 -72t83.5 -49.5t123 -18.5zM766 37q-24 -11 -51 -19t-54 -12.5t-52 -6.5t-46 -2q-114 0 -193 35.5
t-128.5 91.5t-72 126.5t-22.5 139.5q0 87 30 163t86 132.5t134.5 88.5t176.5 32q39 0 82 -7.5t84.5 -27t78.5 -52.5t65 -83.5t44.5 -121t16.5 -163.5v-168q0 -163 -48.5 -273t-135.5 -180.5t-207.5 -106.5t-264.5 -50l-19 173q111 8 196.5 32t147 61.5t99.5 87.5t53 110z
" />
    <glyph glyph-name="uni0649" unicode="&#x649;" horiz-adv-x="1482" arabic-form="isolated" 
d="M1099 -8q0 38 -24.5 70.5t-60.5 63.5t-79 64t-79 72t-60.5 85.5t-24.5 106.5q0 87 36.5 147.5t93 98.5t124.5 55t132 17q46 0 86.5 -6t71.5 -14q36 -9 67 -19l-46 -178q-26 11 -56 21q-26 8 -59.5 14.5t-68.5 6.5q-31 0 -66.5 -6.5t-65.5 -22t-50 -41.5t-20 -64
q0 -35 24.5 -66.5t61.5 -63t80 -64t80 -69t61.5 -78.5t24.5 -92q0 -53 -19 -108t-55.5 -106.5t-89 -97.5t-120.5 -80t-150.5 -53.5t-177.5 -19.5q-127 0 -226.5 24t-174 65t-126 94.5t-83.5 112.5t-46 119t-14 115q0 111 32.5 208.5t83.5 168.5l152 -85q-45 -57 -67 -130.5
t-22 -146.5q0 -75 28.5 -140.5t88.5 -114.5t152.5 -77t219.5 -28q88 0 166 19t137 52t93.5 77t34.5 94z" />
    <glyph glyph-name="uni064A" unicode="&#x64a;" horiz-adv-x="1482" arabic-form="isolated" 
d="M1099 -8q0 38 -24.5 70.5t-60.5 63.5t-79 64t-79 72t-60.5 85.5t-24.5 106.5q0 87 36.5 147.5t93 98.5t124.5 55t132 17q46 0 86.5 -6t71.5 -14q36 -9 67 -19l-46 -178q-26 11 -56 21q-26 8 -59.5 14.5t-68.5 6.5q-31 0 -66.5 -6.5t-65.5 -22t-50 -41.5t-20 -64
q0 -35 24.5 -66.5t61.5 -63t80 -64t80 -69t61.5 -78.5t24.5 -92q0 -53 -19 -108t-55.5 -106.5t-89 -97.5t-120.5 -80t-150.5 -53.5t-177.5 -19.5q-127 0 -226.5 24t-174 65t-126 94.5t-83.5 112.5t-46 119t-14 115q0 111 32.5 208.5t83.5 168.5l152 -85q-45 -57 -67 -130.5
t-22 -146.5q0 -75 28.5 -140.5t88.5 -114.5t152.5 -77t219.5 -28q88 0 166 19t137 52t93.5 77t34.5 94zM411 -677q0 22 8.5 41.5t22.5 34t33.5 23t41.5 8.5t41.5 -8.5t34 -23t23 -34t8.5 -41.5t-8.5 -41.5t-23 -33.5t-34 -22.5t-41.5 -8.5q-45 0 -75.5 30.5t-30.5 75.5z
M696 -677q0 22 8.5 41.5t22.5 34t33.5 23t41.5 8.5t41.5 -8.5t34 -23t23 -34t8.5 -41.5t-8.5 -41.5t-23 -33.5t-34 -22.5t-41.5 -8.5q-45 0 -75.5 30.5t-30.5 75.5z" />
    <glyph glyph-name="uni0671" unicode="&#x671;" horiz-adv-x="540" arabic-form="isolated" 
d="M180 1436h180v-1437h-180v1437zM405 1659q0 50 -20.5 69t-54.5 19q-19 0 -40.5 -6t-40 -19t-30.5 -33.5t-12 -49.5v-14h198v34zM55 1555v70h82v168h68v-50q24 32 60 51t73 19q66 0 100.5 -42t34.5 -107v-109h-418z" />
    <glyph glyph-name="uni0679" unicode="&#x679;" horiz-adv-x="1802" arabic-form="isolated" 
d="M542 0q-120 0 -207 13t-147 37t-97 57.5t-57 73.5t-27 86t-7 96q0 19 1.5 44t4.5 51.5t6.5 53t7.5 48.5l170 -16l-10 -70t-5 -70q0 -60 15 -102.5t64.5 -69.5t144.5 -39.5t255 -12.5h808v593h180v-773h-1100zM580 959h90v475h88v-318q32 45 79 69.5t95 24.5
q45 0 78.5 -15t56 -42t34 -63.5t11.5 -79.5v-142h-532v91zM1024 1006q0 66 -27.5 91t-72.5 25q-27 0 -54 -11.5t-49.5 -32.5t-39 -51.5t-21.5 -67.5h264v47z" />
    <glyph glyph-name="uni067E" unicode="&#x67e;" horiz-adv-x="1802" arabic-form="isolated" 
d="M542 0q-120 0 -207 13t-147 37t-97 57.5t-57 73.5t-27 86t-7 96q0 19 1.5 44t4.5 51.5t6.5 53t7.5 48.5l170 -16l-10 -70t-5 -70q0 -60 15 -102.5t64.5 -69.5t144.5 -39.5t255 -12.5h808v593h180v-773h-1100zM614 -300q0 22 8.5 41.5t22.5 34t33.5 23t41.5 8.5t41.5 -8.5
t34 -23t23 -34t8.5 -41.5t-8.5 -41.5t-23 -33.5t-34 -22.5t-41.5 -8.5q-45 0 -75.5 30.5t-30.5 75.5zM899 -300q0 22 8.5 41.5t22.5 34t33.5 23t41.5 8.5t41.5 -8.5t34 -23t23 -34t8.5 -41.5t-8.5 -41.5t-23 -33.5t-34 -22.5t-41.5 -8.5q-45 0 -75.5 30.5t-30.5 75.5z
M758 -556q0 22 8.5 41.5t22.5 34t33.5 23t41.5 8.5t41.5 -8.5t34 -23t23 -34t8.5 -41.5t-8.5 -41.5t-23 -33.5t-34 -22.5t-41.5 -8.5q-45 0 -75.5 30.5t-30.5 75.5z" />
    <glyph glyph-name="uni0686" unicode="&#x686;" horiz-adv-x="1075" arabic-form="isolated" 
d="M371 -207.799q0 19.7119 7.66699 37.1836q7.66699 17.4727 20.2939 30.4639q12.6279 12.9922 30.2168 20.6084q17.5879 7.61523 37.4316 7.61523t37.4326 -7.61523q17.5879 -7.61621 30.667 -20.6084q13.0781 -12.9912 20.7451 -30.4639
q7.66699 -17.4717 7.66699 -37.1836t-7.66699 -37.1836q-7.66699 -17.4727 -20.7451 -30.0156q-13.0791 -12.5449 -30.667 -20.1602q-17.5889 -7.61621 -37.4326 -7.61621q-40.5889 0 -68.0986 27.3281q-27.5107 27.3271 -27.5107 67.6475zM628.063 -207.799
q0 19.7119 7.66699 37.1836q7.66699 17.4727 20.2949 30.4639q12.627 12.9922 30.2158 20.6084q17.5889 7.61523 37.4316 7.61523q19.8438 0 37.4326 -7.61523q17.5879 -7.61621 30.667 -20.6084q13.0791 -12.9912 20.7451 -30.4639q7.66699 -17.4717 7.66699 -37.1836
t-7.66699 -37.1836q-7.66602 -17.4727 -20.7451 -30.0156q-13.0791 -12.5449 -30.667 -20.1602q-17.5889 -7.61621 -37.4326 -7.61621q-40.5889 0 -68.0986 27.3281q-27.5107 27.3271 -27.5107 67.6475zM500.885 -437.174q0 19.7119 7.66699 37.1836
q7.66699 17.4727 20.2939 30.4639q12.6279 12.9922 30.2168 20.6084q17.5879 7.61523 37.4316 7.61523t37.4326 -7.61523q17.5879 -7.61621 30.667 -20.6084q13.0781 -12.9912 20.7451 -30.4639q7.66699 -17.4717 7.66699 -37.1836t-7.66699 -37.1836
q-7.66699 -17.4727 -20.7451 -30.0156q-13.0791 -12.5449 -30.667 -20.1602q-17.5889 -7.61621 -37.4326 -7.61621q-40.5889 0 -68.0986 27.3281q-27.5107 27.3271 -27.5107 67.6475zM753 180q-21 21 -34.5 57t-22.5 99q-8 59 -20.5 117t-40 104.5t-75 75t-125.5 28.5
q-22 0 -50 -3.5t-57 -9t-55 -12.5t-44 -15v163q59 17 119.5 30.5t136.5 13.5q77 0 137 -24t103.5 -66.5t69.5 -102t35 -130.5q8 -64 18 -122.5t26 -103.5t40 -72t61 -27v-180h-542q-53 0 -99.5 -19.5t-81.5 -56.5t-55.5 -91t-20.5 -122q0 -53 18.5 -106t58 -95t101.5 -68.5
t150 -26.5q45 0 96.5 7t98.5 16v-164q-29 -8 -54 -13t-49 -9t-47.5 -5.5t-50.5 -1.5q-87 0 -157.5 19t-126 52t-96 76.5t-66.5 93.5t-39 103t-13 104q0 120 40 211.5t107 152.5t153.5 92t179.5 31h273z" />
    <glyph glyph-name="uni0688" unicode="&#x688;" horiz-adv-x="940" arabic-form="isolated" 
d="M71 0v180h341q71 0 116.5 8.5t71.5 25t36 40t10 53.5q0 53 -28.5 111.5t-75 116.5t-104.5 113.5t-117 103.5l133 131q66 -57 129.5 -124.5t114 -140t81.5 -148.5t31 -150q0 -71 -21 -129.5t-66 -101t-116 -66t-172 -23.5h-364zM151 1119h90v475h88v-318q32 45 79 69.5
t95 24.5q45 0 78.5 -15t56 -42t34 -63.5t11.5 -79.5v-142h-532v91zM595 1166q0 66 -27.5 91t-72.5 25q-27 0 -54 -11.5t-49.5 -32.5t-39 -51.5t-21.5 -67.5h264v47z" />
    <glyph glyph-name="uni0691" unicode="&#x691;" horiz-adv-x="762" arabic-form="isolated" 
d="M-19 -246q107 14 170.5 42.5t96.5 73t43 104.5t10 136v663h180v-612q0 -152 -29 -254.5t-88 -169t-150 -102.5t-215 -53zM70 1134h90v475h88v-318q32 45 79 69.5t95 24.5q45 0 78.5 -15t56 -42t34 -63.5t11.5 -79.5v-142h-532v91zM514 1181q0 66 -27.5 91t-72.5 25
q-27 0 -54 -11.5t-49.5 -32.5t-39 -51.5t-21.5 -67.5h264v47z" />
    <glyph glyph-name="uni0698" unicode="&#x698;" horiz-adv-x="805" arabic-form="isolated" 
d="M-19 -246q107 14 170.5 42.5t96.5 73t43 104.5t10 136v663h180v-612q0 -152 -29 -254.5t-88 -169t-150 -102.5t-215 -53zM147 1132q0 22 8.5 41.5t22.5 34t33.5 23t41.5 8.5t41.5 -8.5t34 -23t23 -34t8.5 -41.5t-8.5 -41.5t-23 -33.5t-34 -22.5t-41.5 -8.5
q-45 0 -75.5 30.5t-30.5 75.5zM432 1132q0 22 8.5 41.5t22.5 34t33.5 23t41.5 8.5t41.5 -8.5t34 -23t23 -34t8.5 -41.5t-8.5 -41.5t-23 -33.5t-34 -22.5t-41.5 -8.5q-45 0 -75.5 30.5t-30.5 75.5zM288 1400q0 22 8.5 41.5t22.5 34t33.5 23t41.5 8.5t41.5 -8.5t34 -23t23 -34
t8.5 -41.5t-8.5 -41.5t-23 -33.5t-34 -22.5t-41.5 -8.5q-45 0 -75.5 30.5t-30.5 75.5z" />
    <glyph glyph-name="uni06A4" unicode="&#x6a4;" horiz-adv-x="2083" arabic-form="isolated" 
d="M1754 180v188q0 77 -17.5 129t-47 83t-68 44t-79.5 13q-46 0 -86 -17t-69.5 -47t-46.5 -72.5t-17 -93.5t18.5 -93t52.5 -71.5t83 -46t111 -16.5h166zM1219 186q-13 14 -24.5 36t-20.5 50.5t-14 61.5t-5 68q0 84 31 158.5t85.5 130t129.5 88t164 32.5q87 0 155 -27.5
t115.5 -79t72.5 -126.5t25 -169v-409h-1391q-120 0 -207 13t-147 37t-97 57.5t-57 73.5t-27 86t-7 96q0 19 1.5 44t4.5 51.5t6.5 53t7.5 48.5l170 -16l-10 -70t-5 -70q0 -60 15 -102.5t64.5 -69.5t144.5 -39.5t255 -12.5h565v6zM1312 1132q0 22 8.5 41.5t22.5 34t33.5 23
t41.5 8.5t41.5 -8.5t34 -23t23 -34t8.5 -41.5t-8.5 -41.5t-23 -33.5t-34 -22.5t-41.5 -8.5q-45 0 -75.5 30.5t-30.5 75.5zM1597 1132q0 22 8.5 41.5t22.5 34t33.5 23t41.5 8.5t41.5 -8.5t34 -23t23 -34t8.5 -41.5t-8.5 -41.5t-23 -33.5t-34 -22.5t-41.5 -8.5
q-45 0 -75.5 30.5t-30.5 75.5zM1453 1400q0 22 8.5 41.5t22.5 34t33.5 23t41.5 8.5t41.5 -8.5t34 -23t23 -34t8.5 -41.5t-8.5 -41.5t-23 -33.5t-34 -22.5t-41.5 -8.5q-45 0 -75.5 30.5t-30.5 75.5z" />
    <glyph glyph-name="uni06A9" unicode="&#x6a9;" horiz-adv-x="1710" arabic-form="isolated" 
d="M1182 180q71 0 116.5 8.5t71.5 25t36 40t10 53.5q0 49 -27 98.5t-75.5 99.5t-116.5 100.5t-150 101.5l393 671l131 -92l-305 -534q69 -41 127 -89t99.5 -102.5t64.5 -114.5t23 -126q0 -71 -21 -129.5t-66 -101t-116 -66t-172 -23.5h-663q-120 0 -207 13t-147 37t-97 57.5
t-57 73.5t-27 86t-7 96q0 19 1.5 44t4.5 51.5t6.5 53t7.5 48.5l170 -16l-10 -70t-5 -70q0 -60 15 -102.5t64.5 -69.5t144.5 -39.5t255 -12.5h528z" />
    <glyph glyph-name="uni06AF" unicode="&#x6af;" horiz-adv-x="1710" arabic-form="isolated" 
d="M1182 180q71 0 116.5 8.5t71.5 25t36 40t10 53.5q0 49 -27 98.5t-75.5 99.5t-116.5 100.5t-150 101.5l393 671l131 -92l-305 -534q69 -41 127 -89t99.5 -102.5t64.5 -114.5t23 -126q0 -71 -21 -129.5t-66 -101t-116 -66t-172 -23.5h-663q-120 0 -207 13t-147 37t-97 57.5
t-57 73.5t-27 86t-7 96q0 19 1.5 44t4.5 51.5t6.5 53t7.5 48.5l170 -16l-10 -70t-5 -70q0 -60 15 -102.5t64.5 -69.5t144.5 -39.5t255 -12.5h528zM828 830l406 665l125 -73l-411 -663z" />
    <glyph glyph-name="uni06BA" unicode="&#x6ba;" horiz-adv-x="1295" arabic-form="isolated" 
d="M986 179q0 28 -5 69.5t-14 87.5t-23 93t-32 86l177 50q13 -37 27 -84t24.5 -98.5t17.5 -103.5t7 -100q0 -132 -39.5 -243.5t-116.5 -192.5t-190.5 -126.5t-261.5 -45.5q-142 0 -246.5 43.5t-173.5 116.5t-103 168.5t-34 200.5q0 50 8.5 102.5t22.5 103t33.5 95.5t42.5 81
l152 -85q-16 -26 -29 -58.5t-22 -68.5t-14 -73.5t-5 -73.5q0 -78 25 -146.5t73.5 -119t120 -80t163.5 -29.5q99 0 176 29.5t130 85t81 135.5t28 181z" />
    <glyph glyph-name="uni06BE" unicode="&#x6be;" horiz-adv-x="1470" arabic-form="isolated" 
d="M359 180q-32 60 -46.5 120t-14.5 120q0 105 44.5 195.5t129.5 148.5q-19 5 -33.5 8.5t-18.5 4.5q7 23 19 47t24 45t23 38t17 26q220 -44 375 -98t253 -130t143.5 -178.5t45.5 -243.5v-14t-1 -36.5t-3.5 -82t-6.5 -150.5h-1005q-50 0 -82.5 -14t-52.5 -39t-28.5 -61
t-10.5 -79h-87q-9 16 -16.5 35.5t-13.5 40.5t-9.5 41.5t-3.5 39.5q0 66 20 108t52.5 66t74 33t85.5 9h127zM455 437q0 -55 13 -98.5t32.5 -75.5t42 -53t42.5 -30h172q12 20 24.5 51.5t22 67t16 71t6.5 64.5q0 73 -16 122.5t-41.5 80.5t-56.5 44.5t-61 13.5
q-49 0 -85.5 -24.5t-61 -62.5t-37 -83.5t-12.5 -87.5zM1145 180q4 29 6.5 58.5t2.5 60.5q0 49 -10 98.5t-36 93t-72 79t-119 56.5q26 -42 37 -93t11 -105q0 -36 -4 -71t-11 -67.5t-16 -60.5t-19 -49h230z" />
    <glyph glyph-name="uni06C1" unicode="&#x6c1;" horiz-adv-x="895" arabic-form="isolated" 
d="M363 0q-87 0 -154.5 27.5t-114 75t-70.5 111.5t-24 136q0 120 36.5 211t93.5 152.5t125.5 92.5t132.5 31q67 0 134.5 -30t121.5 -90.5t87.5 -152t33.5 -214.5q0 -68 -25 -131.5t-71 -112t-111 -77.5t-145 -29h-50zM160 383q0 -102 60.5 -152.5t160.5 -50.5h20
q49 0 85.5 16t61 44t36.5 65t12 78q0 73 -19.5 128t-50.5 92t-68 55.5t-72 18.5q-42 0 -82.5 -18t-72.5 -54.5t-51.5 -92t-19.5 -129.5z" />
    <glyph glyph-name="uni06C2.fina" unicode="&#x6c2;" horiz-adv-x="777" 
d="M488 1040q-11 2 -32 5t-47 3q-57 0 -94.5 -22.5t-37.5 -75.5q0 -25 12 -50.5t36 -45.5t61 -33t87 -13h39v-112h-414v112h152q-11 7 -26 22.5t-28.5 37t-23 50t-9.5 62.5q0 35 14 68t43.5 58.5t74 40.5t105.5 15q23 0 49 -1.5t57 -6.5zM5 -57q-4 19 -4.5 35.5t-0.5 35.5
q0 106 28 191.5t74.5 145.5t105 92.5t120.5 32.5q45 0 81 -22t67 -55t59.5 -71t59.5 -71t66 -55t79 -22h37q36 0 54 -12t18 -41v-69q0 -19 -5.5 -30.5t-15.5 -17.5t-23 -8t-28 -2h-44q-59 0 -103.5 22.5t-80 56t-65 72.5t-57.5 72.5t-57 56t-65 22.5q-32 0 -62 -20
t-53.5 -59.5t-38 -98.5t-14.5 -137v-44h-132z" />
    <glyph glyph-name="uni06C3.fina" unicode="&#x6c3;" horiz-adv-x="998" 
d="M616 672q-100 -19 -182 -45t-141 -60.5t-91.5 -77.5t-32.5 -97q0 -44 18.5 -74t48.5 -48t67 -26t75 -8q71 0 130.5 18t107.5 50v368zM795 320q0 -40 4.5 -67t19 -43t40.5 -23t69 -7h70q36 0 54 -12t18 -41v-69q0 -19 -5.5 -30.5t-15.5 -17.5t-23 -8t-28 -2h-115
q-67 0 -113.5 12.5t-77 33t-47 48t-24.5 57.5q-74 -45 -141 -64t-136 -19q-60 0 -121 17t-110.5 53.5t-81 93.5t-31.5 137q0 75 31 134.5t81.5 106.5t115.5 82t133.5 61.5t134.5 45.5t120 34v106h179v-619zM295 1182q0 22 8.5 41.5t22.5 34t33.5 23t41.5 8.5t41.5 -8.5
t34 -23t23 -34t8.5 -41.5t-8.5 -41.5t-23 -33.5t-34 -22.5t-41.5 -8.5q-45 0 -75.5 30.5t-30.5 75.5zM580 1182q0 22 8.5 41.5t22.5 34t33.5 23t41.5 8.5t41.5 -8.5t34 -23t23 -34t8.5 -41.5t-8.5 -41.5t-23 -33.5t-34 -22.5t-41.5 -8.5q-45 0 -75.5 30.5t-30.5 75.5z" />
    <glyph glyph-name="uni06CC" unicode="&#x6cc;" horiz-adv-x="1482" arabic-form="isolated" 
d="M1099 -8q0 38 -24.5 70.5t-60.5 63.5t-79 64t-79 72t-60.5 85.5t-24.5 106.5q0 87 36.5 147.5t93 98.5t124.5 55t132 17q46 0 86.5 -6t71.5 -14q36 -9 67 -19l-46 -178q-26 11 -56 21q-26 8 -59.5 14.5t-68.5 6.5q-31 0 -66.5 -6.5t-65.5 -22t-50 -41.5t-20 -64
q0 -35 24.5 -66.5t61.5 -63t80 -64t80 -69t61.5 -78.5t24.5 -92q0 -53 -19 -108t-55.5 -106.5t-89 -97.5t-120.5 -80t-150.5 -53.5t-177.5 -19.5q-127 0 -226.5 24t-174 65t-126 94.5t-83.5 112.5t-46 119t-14 115q0 111 32.5 208.5t83.5 168.5l152 -85q-45 -57 -67 -130.5
t-22 -146.5q0 -75 28.5 -140.5t88.5 -114.5t152.5 -77t219.5 -28q88 0 166 19t137 52t93.5 77t34.5 94z" />
    <glyph glyph-name="uni06D2" unicode="&#x6d2;" horiz-adv-x="1823" arabic-form="isolated" 
d="M694 532l-323 -137q-91 -38 -135.5 -73t-44.5 -77q0 -41 34.5 -66.5t105 -39.5t178 -18.5t253.5 -4.5q78 0 164 3t174 8t174 12.5t164 16t145 18.5t117 20q-5 -47 -7 -94.5t-5 -89.5q-73 -14 -156.5 -25.5t-170 -20t-173.5 -15t-167.5 -10t-151 -5.5t-124.5 -2
q-217 0 -360.5 21.5t-229 59.5t-120.5 89.5t-35 111.5q0 69 30.5 123t80.5 96.5t114 76.5t132 62l285 119z" />
    <glyph glyph-name="uni06D3" unicode="&#x6d3;" horiz-adv-x="1823" arabic-form="isolated" 
d="M694 532l-323 -137q-91 -38 -135.5 -73t-44.5 -77q0 -41 34.5 -66.5t105 -39.5t178 -18.5t253.5 -4.5q78 0 164 3t174 8t174 12.5t164 16t145 18.5t117 20q-5 -47 -7 -94.5t-5 -89.5q-73 -14 -156.5 -25.5t-170 -20t-173.5 -15t-167.5 -10t-151 -5.5t-124.5 -2
q-217 0 -360.5 21.5t-229 59.5t-120.5 89.5t-35 111.5q0 69 30.5 123t80.5 96.5t114 76.5t132 62l285 119zM464 1162q-11 2 -32 5t-47 3q-57 0 -94.5 -22.5t-37.5 -75.5q0 -25 12 -50.5t36 -45.5t61 -33t87 -13h39v-112h-414v112h152q-11 7 -26 22.5t-28.5 37t-23 50
t-9.5 62.5q0 35 14 68t43.5 58.5t74 40.5t105.5 15q23 0 49 -1.5t57 -6.5z" />
    <glyph glyph-name="uni06D5.fina" unicode="&#x6d5;" horiz-adv-x="998" 
d="M616 672q-100 -19 -182 -45t-141 -60.5t-91.5 -77.5t-32.5 -97q0 -44 18.5 -74t48.5 -48t67 -26t75 -8q71 0 130.5 18t107.5 50v368zM795 320q0 -40 4.5 -67t19 -43t40.5 -23t69 -7h70q36 0 54 -12t18 -41v-69q0 -19 -5.5 -30.5t-15.5 -17.5t-23 -8t-28 -2h-115
q-67 0 -113.5 12.5t-77 33t-47 48t-24.5 57.5q-74 -45 -141 -64t-136 -19q-60 0 -121 17t-110.5 53.5t-81 93.5t-31.5 137q0 75 31 134.5t81.5 106.5t115.5 82t133.5 61.5t134.5 45.5t120 34v106h179v-619z" />
    <glyph glyph-name="uniFB51" unicode="&#x671;" horiz-adv-x="512" arabic-form="final" 
d="M163 1436h180v-1073q0 -54 4.5 -89.5t16 -56t31 -29t50.5 -8.5h67q36 0 54 -12t18 -41v-69q0 -19 -5.5 -30.5t-15.5 -17.5t-23 -8t-28 -2h-94q-66 0 -114 22t-79.5 61t-46.5 92t-15 115v1146zM385 1659q0 50 -20.5 69t-54.5 19q-19 0 -40.5 -6t-40 -19t-30.5 -33.5
t-12 -49.5v-14h198v34zM35 1555v70h82v168h68v-50q24 32 60 51t73 19q66 0 100.5 -42t34.5 -107v-109h-418z" />
    <glyph glyph-name="uniFB57" unicode="&#x67e;" horiz-adv-x="1840" arabic-form="final" 
d="M542 0q-120 0 -207 13t-147 37t-97 57.5t-57 73.5t-27 86t-7 96q0 19 1.5 44t4.5 51.5t6.5 53t7.5 48.5l170 -16l-10 -70t-5 -70q0 -60 15 -102.5t64.5 -69.5t144.5 -39.5t255 -12.5h674q32 0 50.5 28t18.5 85v479h181v-529q46 -32 107.5 -47.5t146.5 -15.5h8
q36 0 54 -12t18 -41v-69q0 -19 -5.5 -30.5t-15.5 -17.5t-23 -8t-28 -2h-10q-104 0 -173.5 27t-117.5 68q-25 -40 -67 -67.5t-107 -27.5h-823zM609 -300q0 22 8.5 41.5t22.5 34t33.5 23t41.5 8.5t41.5 -8.5t34 -23t23 -34t8.5 -41.5t-8.5 -41.5t-23 -33.5t-34 -22.5
t-41.5 -8.5q-45 0 -75.5 30.5t-30.5 75.5zM894 -300q0 22 8.5 41.5t22.5 34t33.5 23t41.5 8.5t41.5 -8.5t34 -23t23 -34t8.5 -41.5t-8.5 -41.5t-23 -33.5t-34 -22.5t-41.5 -8.5q-45 0 -75.5 30.5t-30.5 75.5zM753 -556q0 22 8.5 41.5t22.5 34t33.5 23t41.5 8.5t41.5 -8.5
t34 -23t23 -34t8.5 -41.5t-8.5 -41.5t-23 -33.5t-34 -22.5t-41.5 -8.5q-45 0 -75.5 30.5t-30.5 75.5z" />
    <glyph glyph-name="uniFB58" unicode="&#x67e;" horiz-adv-x="670" arabic-form="initial" 
d="M0 0q-36 0 -54 12t-18 41v69q0 19 5.5 30.5t15.5 17.5t23 8t28 2h329v593h181v-773h-510zM144 -300q0 22 8.5 41.5t22.5 34t33.5 23t41.5 8.5t41.5 -8.5t34 -23t23 -34t8.5 -41.5t-8.5 -41.5t-23 -33.5t-34 -22.5t-41.5 -8.5q-45 0 -75.5 30.5t-30.5 75.5zM429 -300
q0 22 8.5 41.5t22.5 34t33.5 23t41.5 8.5t41.5 -8.5t34 -23t23 -34t8.5 -41.5t-8.5 -41.5t-23 -33.5t-34 -22.5t-41.5 -8.5q-45 0 -75.5 30.5t-30.5 75.5zM288 -556q0 22 8.5 41.5t22.5 34t33.5 23t41.5 8.5t41.5 -8.5t34 -23t23 -34t8.5 -41.5t-8.5 -41.5t-23 -33.5
t-34 -22.5t-41.5 -8.5q-45 0 -75.5 30.5t-30.5 75.5z" />
    <glyph glyph-name="uniFB59" unicode="&#x67e;" horiz-adv-x="713" arabic-form="medial" 
d="M452 242q45 -31 106.5 -46.5t146.5 -15.5h8q36 0 54 -12t18 -41v-69q0 -19 -5.5 -30.5t-15.5 -17.5t-23 -8t-28 -2h-10q-104 0 -173 27t-118 68q-25 -40 -67 -67.5t-106 -27.5h-239q-36 0 -54 12t-18 41v69q0 19 5.5 30.5t15.5 17.5t23 8t28 2h202q32 0 50.5 28t18.5 85
v479h181v-530zM130 -300q0 22 8.5 41.5t22.5 34t33.5 23t41.5 8.5t41.5 -8.5t34 -23t23 -34t8.5 -41.5t-8.5 -41.5t-23 -33.5t-34 -22.5t-41.5 -8.5q-45 0 -75.5 30.5t-30.5 75.5zM415 -300q0 22 8.5 41.5t22.5 34t33.5 23t41.5 8.5t41.5 -8.5t34 -23t23 -34t8.5 -41.5
t-8.5 -41.5t-23 -33.5t-34 -22.5t-41.5 -8.5q-45 0 -75.5 30.5t-30.5 75.5zM274 -556q0 22 8.5 41.5t22.5 34t33.5 23t41.5 8.5t41.5 -8.5t34 -23t23 -34t8.5 -41.5t-8.5 -41.5t-23 -33.5t-34 -22.5t-41.5 -8.5q-45 0 -75.5 30.5t-30.5 75.5z" />
    <glyph glyph-name="uniFB67" unicode="&#x679;" horiz-adv-x="1840" arabic-form="final" 
d="M542 0q-120 0 -207 13t-147 37t-97 57.5t-57 73.5t-27 86t-7 96q0 19 1.5 44t4.5 51.5t6.5 53t7.5 48.5l170 -16l-10 -70t-5 -70q0 -60 15 -102.5t64.5 -69.5t144.5 -39.5t255 -12.5h674q32 0 50.5 28t18.5 85v479h181v-529q46 -32 107.5 -47.5t146.5 -15.5h8
q36 0 54 -12t18 -41v-69q0 -19 -5.5 -30.5t-15.5 -17.5t-23 -8t-28 -2h-10q-104 0 -173.5 27t-117.5 68q-25 -40 -67 -67.5t-107 -27.5h-823zM580 959h90v475h88v-318q32 45 79 69.5t95 24.5q45 0 78.5 -15t56 -42t34 -63.5t11.5 -79.5v-142h-532v91zM1024 1006
q0 66 -27.5 91t-72.5 25q-27 0 -54 -11.5t-49.5 -32.5t-39 -51.5t-21.5 -67.5h264v47z" />
    <glyph glyph-name="uniFB68" unicode="&#x679;" horiz-adv-x="792" arabic-form="initial" 
d="M0 0q-36 0 -54 12t-18 41v69q0 19 5.5 30.5t15.5 17.5t23 8t28 2h329v593h181v-773h-510zM100 1058h90v475h88v-318q32 45 79 69.5t95 24.5q45 0 78.5 -15t56 -42t34 -63.5t11.5 -79.5v-142h-532v91zM544 1105q0 66 -27.5 91t-72.5 25q-27 0 -54 -11.5t-49.5 -32.5
t-39 -51.5t-21.5 -67.5h264v47z" />
    <glyph glyph-name="uniFB69" unicode="&#x679;" horiz-adv-x="713" arabic-form="medial" 
d="M452 242q45 -31 106.5 -46.5t146.5 -15.5h8q36 0 54 -12t18 -41v-69q0 -19 -5.5 -30.5t-15.5 -17.5t-23 -8t-28 -2h-10q-104 0 -173 27t-118 68q-25 -40 -67 -67.5t-106 -27.5h-239q-36 0 -54 12t-18 41v69q0 19 5.5 30.5t15.5 17.5t23 8t28 2h202q32 0 50.5 28t18.5 85
v479h181v-530zM99 1058h90v475h88v-318q32 45 79 69.5t95 24.5q45 0 78.5 -15t56 -42t34 -63.5t11.5 -79.5v-142h-532v91zM543 1105q0 66 -27.5 91t-72.5 25q-27 0 -54 -11.5t-49.5 -32.5t-39 -51.5t-21.5 -67.5h264v47z" />
    <glyph glyph-name="uniFB6B" unicode="&#x6a4;" horiz-adv-x="2088" arabic-form="final" 
d="M542 0q-120 0 -207 13t-147 37t-97 57.5t-57 73.5t-27 86t-7 96q0 19 1.5 44t4.5 51.5t6.5 53t7.5 48.5l170 -16l-10 -70t-5 -70q0 -60 15 -102.5t64.5 -69.5t144.5 -39.5t255 -12.5h565l-1 4q-27 23 -46 53t-32 62t-19 63t-6 56q0 79 30 150.5t85.5 125.5t135.5 85.5
t179 31.5q87 0 153.5 -28t112 -76t68.5 -112.5t23 -137.5q0 -44 -7.5 -84.5t-18.5 -76.5t-23.5 -65.5t-21.5 -50.5h257q36 0 54 -12t18 -41v-69q0 -19 -5.5 -30.5t-15.5 -17.5t-23 -8t-28 -2h-108q-118 0 -214.5 8t-177.5 25q-38 -6 -96.5 -11t-128 -8.5t-144.5 -6t-146 -4
t-134 -2.5t-107 -1h-290zM1284 439q0 -59 23 -106.5t63 -81.5t93.5 -52.5t114.5 -18.5h63q12 17 26 43t25.5 57.5t19.5 68t8 75.5q0 55 -17.5 97t-46.5 70.5t-67 43t-79 14.5t-81.5 -12.5t-72.5 -38t-52 -65.5t-20 -94zM1258 1132q0 22 8.5 41.5t22.5 34t33.5 23t41.5 8.5
t41.5 -8.5t34 -23t23 -34t8.5 -41.5t-8.5 -41.5t-23 -33.5t-34 -22.5t-41.5 -8.5q-45 0 -75.5 30.5t-30.5 75.5zM1543 1132q0 22 8.5 41.5t22.5 34t33.5 23t41.5 8.5t41.5 -8.5t34 -23t23 -34t8.5 -41.5t-8.5 -41.5t-23 -33.5t-34 -22.5t-41.5 -8.5q-45 0 -75.5 30.5
t-30.5 75.5zM1399 1400q0 22 8.5 41.5t22.5 34t33.5 23t41.5 8.5t41.5 -8.5t34 -23t23 -34t8.5 -41.5t-8.5 -41.5t-23 -33.5t-34 -22.5t-41.5 -8.5q-45 0 -75.5 30.5t-30.5 75.5z" />
    <glyph glyph-name="uniFB6C" unicode="&#x6a4;" horiz-adv-x="1185" arabic-form="initial" 
d="M257 402q0 86 31 160.5t85.5 130t129.5 87t164 31.5q87 0 155 -27.5t115.5 -79t72.5 -126.5t25 -169v-409h-1035q-36 0 -54 12t-18 41v69q0 19 5.5 30.5t15.5 17.5t23 8t28 2h321v6q-13 14 -24.5 36t-20.5 50.5t-14 61.5t-5 68zM856 180v188q0 77 -17.5 129t-47 83
t-68 44t-79.5 13q-46 0 -86 -17t-69.5 -47t-46.5 -72.5t-17 -93.5t18.5 -93t52.5 -71.5t83 -46t111 -16.5h166zM387 1132q0 22 8.5 41.5t22.5 34t33.5 23t41.5 8.5t41.5 -8.5t34 -23t23 -34t8.5 -41.5t-8.5 -41.5t-23 -33.5t-34 -22.5t-41.5 -8.5q-45 0 -75.5 30.5
t-30.5 75.5zM672 1132q0 22 8.5 41.5t22.5 34t33.5 23t41.5 8.5t41.5 -8.5t34 -23t23 -34t8.5 -41.5t-8.5 -41.5t-23 -33.5t-34 -22.5t-41.5 -8.5q-45 0 -75.5 30.5t-30.5 75.5zM528 1400q0 22 8.5 41.5t22.5 34t33.5 23t41.5 8.5t41.5 -8.5t34 -23t23 -34t8.5 -41.5
t-8.5 -41.5t-23 -33.5t-34 -22.5t-41.5 -8.5q-45 0 -75.5 30.5t-30.5 75.5z" />
    <glyph glyph-name="uniFB6D" unicode="&#x6a4;" horiz-adv-x="1148" arabic-form="medial" 
d="M1040 0q-118 0 -214.5 8t-177.5 25q-57 -10 -123 -16t-136 -10t-142.5 -5.5t-142.5 -1.5h-104q-36 0 -54 12t-18 41v69q0 19 5.5 30.5t15.5 17.5t23 8t28 2h279l-1 4q-27 23 -46 53t-32 62t-19 63t-6 56q0 79 30 150.5t85.5 125.5t135.5 85.5t179 31.5q87 0 153.5 -28
t112 -76t68.5 -112.5t23 -137.5q0 -44 -7.5 -84.5t-18.5 -76.5t-23.5 -65.5t-21.5 -50.5h257q36 0 54 -12t18 -41v-69q0 -19 -5.5 -30.5t-15.5 -17.5t-23 -8t-28 -2h-108zM344 439q0 -59 23 -106.5t63 -81.5t93.5 -52.5t114.5 -18.5h63q12 17 26 43t25.5 57.5t19.5 68
t8 75.5q0 55 -17.5 97t-46.5 70.5t-67 43t-79 14.5t-81.5 -12.5t-72.5 -38t-52 -65.5t-20 -94zM306 1132q0 22 8.5 41.5t22.5 34t33.5 23t41.5 8.5t41.5 -8.5t34 -23t23 -34t8.5 -41.5t-8.5 -41.5t-23 -33.5t-34 -22.5t-41.5 -8.5q-45 0 -75.5 30.5t-30.5 75.5zM591 1132
q0 22 8.5 41.5t22.5 34t33.5 23t41.5 8.5t41.5 -8.5t34 -23t23 -34t8.5 -41.5t-8.5 -41.5t-23 -33.5t-34 -22.5t-41.5 -8.5q-45 0 -75.5 30.5t-30.5 75.5zM447 1400q0 22 8.5 41.5t22.5 34t33.5 23t41.5 8.5t41.5 -8.5t34 -23t23 -34t8.5 -41.5t-8.5 -41.5t-23 -33.5
t-34 -22.5t-41.5 -8.5q-45 0 -75.5 30.5t-30.5 75.5z" />
    <glyph glyph-name="uniFB7B" unicode="&#x686;" horiz-adv-x="1068" arabic-form="final" 
d="M753 180q-21 21 -34.5 57t-22.5 99q-8 59 -20.5 117t-40 104.5t-75 75t-125.5 28.5q-22 0 -50 -3.5t-57 -9t-55 -12.5t-44 -15v163q59 17 119.5 30.5t136.5 13.5q77 0 137 -24t103.5 -66.5t69.5 -102t35 -130.5q8 -64 18 -122.5t26 -103.5t40 -72t61 -27h93q36 0 54 -12
t18 -41v-69q0 -19 -5.5 -30.5t-15.5 -17.5t-23 -8t-28 -2h-635q-53 0 -99.5 -19.5t-81.5 -56.5t-55.5 -91t-20.5 -122q0 -53 18.5 -106t58 -95t101.5 -68.5t150 -26.5q45 0 96.5 7t98.5 16v-164q-29 -8 -54 -13t-49 -9t-47.5 -5.5t-50.5 -1.5q-87 0 -157.5 19t-126 52
t-96 76.5t-66.5 93.5t-39 103t-13 104q0 120 40 211.5t107 152.5t153.5 92t179.5 31h273zM371 -207.799q0 19.7119 7.66699 37.1836q7.66699 17.4727 20.2939 30.4639q12.6279 12.9922 30.2168 20.6084q17.5879 7.61523 37.4316 7.61523t37.4326 -7.61523
q17.5879 -7.61621 30.667 -20.6084q13.0781 -12.9912 20.7451 -30.4639q7.66699 -17.4717 7.66699 -37.1836t-7.66699 -37.1836q-7.66699 -17.4727 -20.7451 -30.0156q-13.0791 -12.5449 -30.667 -20.1602q-17.5889 -7.61621 -37.4326 -7.61621q-40.5889 0 -68.0986 27.3281
q-27.5107 27.3271 -27.5107 67.6475zM628.063 -207.799q0 19.7119 7.66699 37.1836q7.66699 17.4727 20.2949 30.4639q12.627 12.9922 30.2158 20.6084q17.5889 7.61523 37.4316 7.61523q19.8438 0 37.4326 -7.61523q17.5879 -7.61621 30.667 -20.6084
q13.0791 -12.9912 20.7451 -30.4639q7.66699 -17.4717 7.66699 -37.1836t-7.66699 -37.1836q-7.66602 -17.4727 -20.7451 -30.0156q-13.0791 -12.5449 -30.667 -20.1602q-17.5889 -7.61621 -37.4326 -7.61621q-40.5889 0 -68.0986 27.3281
q-27.5107 27.3271 -27.5107 67.6475zM500.885 -437.174q0 19.7119 7.66699 37.1836q7.66699 17.4727 20.2939 30.4639q12.6279 12.9922 30.2168 20.6084q17.5879 7.61523 37.4316 7.61523t37.4326 -7.61523q17.5879 -7.61621 30.667 -20.6084
q13.0781 -12.9912 20.7451 -30.4639q7.66699 -17.4717 7.66699 -37.1836t-7.66699 -37.1836q-7.66699 -17.4727 -20.7451 -30.0156q-13.0791 -12.5449 -30.667 -20.1602q-17.5889 -7.61621 -37.4326 -7.61621q-40.5889 0 -68.0986 27.3281
q-27.5107 27.3271 -27.5107 67.6475z" />
    <glyph glyph-name="uniFB7C" unicode="&#x686;" horiz-adv-x="1033" arabic-form="initial" 
d="M187 784q59 17 119.5 30.5t136.5 13.5q77 0 136.5 -24t102 -67t69 -102.5t37.5 -129.5q10 -64 20 -123t25.5 -104t39 -71.5t60.5 -26.5v-180h-933q-36 0 -54 12t-18 41v69q0 19 5.5 30.5t15.5 17.5t23 8t28 2h711q-21 21 -34.5 57t-22.5 99q-8 59 -20.5 117t-40 104.5
t-75 75t-125.5 28.5q-22 0 -50 -3.5t-57 -9t-55 -12.5t-44 -15v163zM243 -300q0 22 8.5 41.5t22.5 34t33.5 23t41.5 8.5t41.5 -8.5t34 -23t23 -34t8.5 -41.5t-8.5 -41.5t-23 -33.5t-34 -22.5t-41.5 -8.5q-45 0 -75.5 30.5t-30.5 75.5zM528 -300q0 22 8.5 41.5t22.5 34
t33.5 23t41.5 8.5t41.5 -8.5t34 -23t23 -34t8.5 -41.5t-8.5 -41.5t-23 -33.5t-34 -22.5t-41.5 -8.5q-45 0 -75.5 30.5t-30.5 75.5zM387 -556q0 22 8.5 41.5t22.5 34t33.5 23t41.5 8.5t41.5 -8.5t34 -23t23 -34t8.5 -41.5t-8.5 -41.5t-23 -33.5t-34 -22.5t-41.5 -8.5
q-45 0 -75.5 30.5t-30.5 75.5z" />
    <glyph glyph-name="uniFB7D" unicode="&#x686;" horiz-adv-x="1026" arabic-form="medial" 
d="M187 784q59 17 119.5 30.5t136.5 13.5q77 0 136.5 -24t102 -67t69 -102.5t37.5 -129.5q10 -64 20 -123t25.5 -104t39 -71.5t60.5 -26.5h93q36 0 54 -12t18 -41v-69q0 -19 -5.5 -30.5t-15.5 -17.5t-23 -8t-28 -2h-1026q-36 0 -54 12t-18 41v69q0 19 5.5 30.5t15.5 17.5
t23 8t28 2h711q-21 21 -34.5 57t-22.5 99q-8 59 -20.5 117t-40 104.5t-75 75t-125.5 28.5q-22 0 -50 -3.5t-57 -9t-55 -12.5t-44 -15v163zM243 -300q0 22 8.5 41.5t22.5 34t33.5 23t41.5 8.5t41.5 -8.5t34 -23t23 -34t8.5 -41.5t-8.5 -41.5t-23 -33.5t-34 -22.5t-41.5 -8.5
q-45 0 -75.5 30.5t-30.5 75.5zM528 -300q0 22 8.5 41.5t22.5 34t33.5 23t41.5 8.5t41.5 -8.5t34 -23t23 -34t8.5 -41.5t-8.5 -41.5t-23 -33.5t-34 -22.5t-41.5 -8.5q-45 0 -75.5 30.5t-30.5 75.5zM387 -556q0 22 8.5 41.5t22.5 34t33.5 23t41.5 8.5t41.5 -8.5t34 -23t23 -34
t8.5 -41.5t-8.5 -41.5t-23 -33.5t-34 -22.5t-41.5 -8.5q-45 0 -75.5 30.5t-30.5 75.5z" />
    <glyph glyph-name="uniFB89" unicode="&#x688;" horiz-adv-x="1099" arabic-form="final" 
d="M93 0v180h341q71 0 116.5 8.5t71.5 25t36 40t10 53.5q0 53 -28.5 111.5t-75 116.5t-104.5 113.5t-117 103.5l133 131q66 -57 129.5 -124.5t114 -140t81.5 -148.5t31 -150q0 -36 -6 -69q47 -36 111 -53.5t154 -17.5h8q36 0 54 -12t18 -41v-69q0 -19 -5.5 -30.5
t-15.5 -17.5t-23 -8t-28 -2h-10q-59 0 -107 9t-86 25t-68.5 38t-55.5 47q-44 -56 -120.5 -87.5t-194.5 -31.5h-364zM151 1119h90v475h88v-318q32 45 79 69.5t95 24.5q45 0 78.5 -15t56 -42t34 -63.5t11.5 -79.5v-142h-532v91zM595 1166q0 66 -27.5 91t-72.5 25
q-27 0 -54 -11.5t-49.5 -32.5t-39 -51.5t-21.5 -67.5h264v47z" />
    <glyph glyph-name="uniFB8B" unicode="&#x698;" horiz-adv-x="716" arabic-form="final" 
d="M-19 -246q107 14 170.5 42.5t96.5 73t43 104.5t10 136v663h180v-593h235q36 0 54 -12t18 -41v-69q0 -19 -5.5 -30.5t-15.5 -17.5t-23 -8t-28 -2h-245q-15 -105 -50.5 -177.5t-94 -121.5t-140 -76.5t-187.5 -42.5zM147 1132q0 22 8.5 41.5t22.5 34t33.5 23t41.5 8.5
t41.5 -8.5t34 -23t23 -34t8.5 -41.5t-8.5 -41.5t-23 -33.5t-34 -22.5t-41.5 -8.5q-45 0 -75.5 30.5t-30.5 75.5zM432 1132q0 22 8.5 41.5t22.5 34t33.5 23t41.5 8.5t41.5 -8.5t34 -23t23 -34t8.5 -41.5t-8.5 -41.5t-23 -33.5t-34 -22.5t-41.5 -8.5q-45 0 -75.5 30.5
t-30.5 75.5zM288 1400q0 22 8.5 41.5t22.5 34t33.5 23t41.5 8.5t41.5 -8.5t34 -23t23 -34t8.5 -41.5t-8.5 -41.5t-23 -33.5t-34 -22.5t-41.5 -8.5q-45 0 -75.5 30.5t-30.5 75.5z" />
    <glyph glyph-name="uniFB8D" unicode="&#x691;" horiz-adv-x="716" arabic-form="final" 
d="M-19 -246q107 14 170.5 42.5t96.5 73t43 104.5t10 136v663h180v-593h235q36 0 54 -12t18 -41v-69q0 -19 -5.5 -30.5t-15.5 -17.5t-23 -8t-28 -2h-245q-15 -105 -50.5 -177.5t-94 -121.5t-140 -76.5t-187.5 -42.5zM70 1134h90v475h88v-318q32 45 79 69.5t95 24.5
q45 0 78.5 -15t56 -42t34 -63.5t11.5 -79.5v-142h-532v91zM514 1181q0 66 -27.5 91t-72.5 25q-27 0 -54 -11.5t-49.5 -32.5t-39 -51.5t-21.5 -67.5h264v47z" />
    <glyph glyph-name="uniFB8F" unicode="&#x6a9;" horiz-adv-x="1853" arabic-form="final" 
d="M1182 180q71 0 116.5 8.5t71.5 25t36 40t10 53.5q0 49 -27 98.5t-75.5 99.5t-116.5 100.5t-150 101.5l393 671l131 -92l-305 -534q69 -41 127 -89t99.5 -102.5t64.5 -114.5t23 -126q0 -17 -1.5 -33t-3.5 -32q48 -38 113 -56.5t157 -18.5h8q36 0 54 -12t18 -41v-69
q0 -19 -5.5 -30.5t-15.5 -17.5t-23 -8t-28 -2h-10q-60 0 -108.5 9.5t-87 26t-69 38.5t-55.5 48q-43 -57 -120.5 -89.5t-197.5 -32.5h-663q-120 0 -207 13t-147 37t-97 57.5t-57 73.5t-27 86t-7 96q0 19 1.5 44t4.5 51.5t6.5 53t7.5 48.5l170 -16l-10 -70t-5 -70
q0 -60 15 -102.5t64.5 -69.5t144.5 -39.5t255 -12.5h528z" />
    <glyph glyph-name="uniFB90" unicode="&#x6a9;" horiz-adv-x="829" arabic-form="initial" 
d="M0 0q-36 0 -54 12t-18 41v69q0 19 5.5 30.5t15.5 17.5t23 8t28 2h301q71 0 116.5 8.5t71.5 25t36 40t10 53.5q0 49 -27.5 97.5t-77.5 97t-119 96t-151 94.5l399 686l131 -92l-305 -534q69 -41 127 -89t99.5 -102.5t64.5 -114.5t23 -126q0 -71 -21 -129.5t-66 -101
t-116 -66t-172 -23.5h-324z" />
    <glyph glyph-name="uniFB91" unicode="&#x6a9;" horiz-adv-x="956" arabic-form="medial" 
d="M0 0q-36 0 -54 12t-18 41v69q0 19 5.5 30.5t15.5 17.5t23 8t28 2h301q71 0 116.5 8.5t71.5 25t36 40t10 53.5q0 49 -27.5 97.5t-77.5 97t-119 96t-151 94.5l399 686l131 -92l-305 -534q69 -41 127 -89t99.5 -102.5t64.5 -114.5t23 -126q0 -42 -7 -76q46 -32 108.5 -48
t147.5 -16h8q36 0 54 -12t18 -41v-69q0 -19 -5.5 -30.5t-15.5 -17.5t-23 -8t-28 -2h-10q-58 0 -104.5 8.5t-84 24t-67.5 36t-55 44.5q-44 -54 -120 -83.5t-191 -29.5h-324z" />
    <glyph glyph-name="uniFB93" unicode="&#x6af;" horiz-adv-x="1856" arabic-form="final" 
d="M1182 180q71 0 116.5 8.5t71.5 25t36 40t10 53.5q0 49 -27 98.5t-75.5 99.5t-116.5 100.5t-150 101.5l393 671l131 -92l-305 -534q69 -41 127 -89t99.5 -102.5t64.5 -114.5t23 -126q0 -17 -1.5 -32.5t-3.5 -30.5q48 -38 113.5 -57.5t159.5 -19.5h8q36 0 54 -12t18 -41
v-69q0 -19 -5.5 -30.5t-15.5 -17.5t-23 -8t-28 -2h-10q-61 0 -109.5 9.5t-87.5 26t-69.5 39.5t-55.5 49q-43 -58 -120.5 -91t-198.5 -33h-663q-120 0 -207 13t-147 37t-97 57.5t-57 73.5t-27 86t-7 96q0 19 1.5 44t4.5 51.5t6.5 53t7.5 48.5l170 -16l-10 -70t-5 -70
q0 -60 15 -102.5t64.5 -69.5t144.5 -39.5t255 -12.5h528zM828 830l406 665l125 -73l-411 -663z" />
    <glyph glyph-name="uniFB94" unicode="&#x6af;" horiz-adv-x="829" arabic-form="initial" 
d="M-63 830l406 665l125 -73l-411 -663zM0 0q-36 0 -54 12t-18 41v69q0 19 5.5 30.5t15.5 17.5t23 8t28 2h301q71 0 116.5 8.5t71.5 25t36 40t10 53.5q0 49 -27.5 97.5t-77.5 97t-119 96t-151 94.5l399 686l131 -92l-305 -534q69 -41 127 -89t99.5 -102.5t64.5 -114.5
t23 -126q0 -71 -21 -129.5t-66 -101t-116 -66t-172 -23.5h-324z" />
    <glyph glyph-name="uniFB95" unicode="&#x6af;" horiz-adv-x="956" arabic-form="medial" 
d="M-63 830l406 665l125 -73l-411 -663zM0 0q-36 0 -54 12t-18 41v69q0 19 5.5 30.5t15.5 17.5t23 8t28 2h301q71 0 116.5 8.5t71.5 25t36 40t10 53.5q0 49 -27.5 97.5t-77.5 97t-119 96t-151 94.5l399 686l131 -92l-305 -534q69 -41 127 -89t99.5 -102.5t64.5 -114.5
t23 -126q0 -42 -7 -76q46 -32 108.5 -48t147.5 -16h8q36 0 54 -12t18 -41v-69q0 -19 -5.5 -30.5t-15.5 -17.5t-23 -8t-28 -2h-10q-58 0 -104.5 8.5t-84 24t-67.5 36t-55 44.5q-44 -54 -120 -83.5t-191 -29.5h-324z" />
    <glyph glyph-name="uniFB9F" unicode="&#x6ba;" horiz-adv-x="1437" arabic-form="final" 
d="M986 179q0 28 -5 69.5t-14 87.5t-23 93t-32 86l177 50q11 -30 22 -67t20.5 -77.5t17.5 -83t12 -83.5q47 -38 111.5 -56t156.5 -18h8q36 0 54 -12t18 -41v-69q0 -19 -5.5 -30.5t-15.5 -17.5t-23 -8t-28 -2h-10q-93 0 -157.5 21t-111.5 56q-14 -112 -60 -205t-121.5 -160
t-181 -104t-238.5 -37q-142 0 -246.5 43.5t-173.5 116.5t-103 168.5t-34 200.5q0 50 8.5 102.5t22.5 103t33.5 95.5t42.5 81l152 -85q-16 -26 -29 -58.5t-22 -68.5t-14 -73.5t-5 -73.5q0 -78 25 -146.5t73.5 -119t120 -80t163.5 -29.5q99 0 176 29.5t130 85t81 135.5t28 181
z" />
    <glyph glyph-name="uniFBA5" unicode="&#x6c0;" horiz-adv-x="998" arabic-form="final" 
d="M616 672q-100 -19 -182 -45t-141 -60.5t-91.5 -77.5t-32.5 -97q0 -44 18.5 -74t48.5 -48t67 -26t75 -8q71 0 130.5 18t107.5 50v368zM795 320q0 -40 4.5 -67t19 -43t40.5 -23t69 -7h70q36 0 54 -12t18 -41v-69q0 -19 -5.5 -30.5t-15.5 -17.5t-23 -8t-28 -2h-115
q-67 0 -113.5 12.5t-77 33t-47 48t-24.5 57.5q-74 -45 -141 -64t-136 -19q-60 0 -121 17t-110.5 53.5t-81 93.5t-31.5 137q0 75 31 134.5t81.5 106.5t115.5 82t133.5 61.5t134.5 45.5t120 34v106h179v-619zM616 1428q-11 2 -32 5t-47 3q-57 0 -94.5 -22.5t-37.5 -75.5
q0 -25 12 -50.5t36 -45.5t61 -33t87 -13h39v-112h-414v112h152q-11 7 -26 22.5t-28.5 37t-23 50t-9.5 62.5q0 35 14 68t43.5 58.5t74 40.5t105.5 15q23 0 49 -1.5t57 -6.5z" />
    <glyph glyph-name="uniFBA7" unicode="&#x6c1;" horiz-adv-x="777" arabic-form="final" 
d="M5 -57q-4 19 -4.5 35.5t-0.5 35.5q0 106 28 191.5t74.5 145.5t105 92.5t120.5 32.5q45 0 81 -22t67 -55t59.5 -71t59.5 -71t66 -55t79 -22h37q36 0 54 -12t18 -41v-69q0 -19 -5.5 -30.5t-15.5 -17.5t-23 -8t-28 -2h-44q-59 0 -103.5 22.5t-80 56t-65 72.5t-57.5 72.5
t-57 56t-65 22.5q-32 0 -62 -20t-53.5 -59.5t-38 -98.5t-14.5 -137v-44h-132z" />
    <glyph glyph-name="uniFBA8" unicode="&#x6c1;" horiz-adv-x="670" arabic-form="initial" 
d="M0 0q-36 0 -54 12t-18 41v69q0 19 5.5 30.5t15.5 17.5t23 8t28 2h329v593h181v-773h-73q-53 -68 -77.5 -123t-24.5 -108q0 -20 5.5 -38t17.5 -32.5t30 -23t43 -8.5h22q-17 -42 -47 -68.5t-76 -26.5q-26 0 -49.5 8.5t-41 27.5t-28 48t-10.5 71q0 18 4.5 45t16.5 61.5
t34 76.5t57 90h-313z" />
    <glyph glyph-name="uniFBA9" unicode="&#x6c1;" horiz-adv-x="1028" arabic-form="medial" 
d="M0 0q-36 0 -54 12t-18 41v69q0 19 5.5 30.5t15.5 17.5t23 8t28 2h412q-25 -98 -39 -180.5t-14 -139.5q0 -64 14 -111t38.5 -80.5t58 -55.5t72.5 -37q5 127 36 237.5t87.5 192t138.5 128t189 46.5h35q36 0 54 -12t18 -41v-69q0 -19 -5.5 -30.5t-15.5 -17.5t-23 -8t-28 -2
h-53q-83 0 -144 -49t-101.5 -137.5t-60.5 -210.5t-20 -267q-97 31 -176.5 78t-135.5 106t-87 128.5t-31 145.5q0 46 6 95.5t23 110.5h-248z" />
    <glyph glyph-name="uniFBAB" unicode="&#x6be;" horiz-adv-x="1300" arabic-form="final" 
d="M362 180q25 115 63 205.5t82 159t90.5 116t89 78t77 44t55.5 13.5q57 0 106.5 -32t86 -84t57.5 -117.5t21 -132.5q0 -76 -26 -138t-71 -107v-5h307q36 0 54 -12t18 -41v-69q0 -19 -5.5 -30.5t-15.5 -17.5t-23 -8t-28 -2h-329v-5q44 -40 74 -102t30 -149q0 -81 -28 -144
t-72 -105.5t-97.5 -65t-104.5 -22.5q-41 0 -88.5 11t-95.5 37.5t-93 71t-79.5 110t-55 155.5t-20.5 208h-37q-50 0 -82.5 -14t-52.5 -39t-28.5 -61t-10.5 -79h-87q-9 16 -16.5 35.5t-13.5 40.5t-9.5 41.5t-3.5 39.5q0 66 20 108t52.5 66t74 33t85.5 9h130zM931 392
q0 43 -13 82.5t-34 70t-47 49t-52 18.5q-15 0 -38 -16.5t-49.5 -45.5t-53.5 -69.5t-50 -88.5t-40 -102t-22 -110h169q51 0 93.5 16t73 44.5t47 67t16.5 84.5zM505 0q0 -113 27.5 -193t69 -130t90.5 -73t93 -23q28 0 51.5 15t40.5 40t26.5 57.5t9.5 67.5q0 46 -15.5 89
t-44 76.5t-69 53.5t-91.5 20h-188z" />
    <glyph glyph-name="uniFBAC" unicode="&#x6be;" horiz-adv-x="1392" arabic-form="initial" 
d="M281 180q-32 60 -46.5 120t-14.5 120q0 105 44.5 195.5t129.5 148.5q-19 5 -33.5 8.5t-18.5 4.5q7 23 19 47t24 45t23 38t17 26q220 -44 375 -98t253 -130t143.5 -178.5t45.5 -243.5v-14t-1 -36.5t-3.5 -82t-6.5 -150.5h-1231q-36 0 -54 12t-18 41v69q0 19 5.5 30.5
t15.5 17.5t23 8t28 2h281zM679 180q12 20 24.5 51.5t22 67t16 71t6.5 64.5q0 73 -16 122.5t-41.5 80.5t-56.5 44.5t-61 13.5q-49 0 -85.5 -24.5t-61 -62.5t-37 -83.5t-12.5 -87.5q0 -55 13 -98.5t32.5 -75.5t42 -53t42.5 -30h172zM1067 180q4 29 6.5 58.5t2.5 60.5
q0 49 -10 98.5t-36 93t-72 79t-119 56.5q26 -42 37 -93t11 -105q0 -36 -4 -71t-11 -67.5t-16 -60.5t-19 -49h230z" />
    <glyph glyph-name="uniFBAD" unicode="&#x6be;" horiz-adv-x="1179" arabic-form="medial" 
d="M0 0q-36 0 -54 12t-18 41v69q0 19 5.5 30.5t15.5 17.5t23 8t28 2h241q25 115 63 205.5t82 159t90.5 116t89 78t77 44t55.5 13.5q57 0 106.5 -32t86 -84t57.5 -117.5t21 -132.5q0 -76 -26 -138t-71 -107v-5h307q36 0 54 -12t18 -41v-69q0 -19 -5.5 -30.5t-15.5 -17.5
t-23 -8t-28 -2h-329v-5q44 -40 74 -102t30 -149q0 -81 -28 -144t-72 -105.5t-97.5 -65t-104.5 -22.5q-41 0 -88.5 11t-95.5 37.5t-93 71t-79.5 110t-55 155.5t-20.5 208h-220zM810 392q0 43 -13 82.5t-34 70t-47 49t-52 18.5q-15 0 -38 -16.5t-49.5 -45.5t-53.5 -69.5
t-50 -88.5t-40 -102t-22 -110h169q51 0 93.5 16t73 44.5t47 67t16.5 84.5zM384 0q0 -113 27.5 -193t69 -130t90.5 -73t93 -23q28 0 51.5 15t40.5 40t26.5 57.5t9.5 67.5q0 46 -15.5 89t-44 76.5t-69 53.5t-91.5 20h-188z" />
    <glyph glyph-name="uniFBAF" unicode="&#x6d2;" horiz-adv-x="920" arabic-form="final" 
d="M920 180q36 0 54 -12t18 -41v-69q0 -19 -5.5 -30.5t-15.5 -17.5t-23 -8t-28 -2h-361q-87 0 -149.5 -7.5t-106 -19.5t-69.5 -27t-40.5 -31t-19 -30.5t-4.5 -24.5q0 -33 21 -62.5t80 -52.5t165 -36.5t277 -13.5q133 0 252 4.5t232 13t224.5 21t229.5 29.5q-3 -45 -7.5 -87
t-7.5 -84q-180 -31 -423 -52t-537 -21q-188 0 -317 25t-208.5 69t-115 103.5t-35.5 127.5q0 86 47.5 149.5t135.5 105t212.5 61.5t278.5 20h246z" />
    <glyph glyph-name="uniFBB1" unicode="&#x6d3;" horiz-adv-x="920" arabic-form="final" 
d="M920 180q36 0 54 -12t18 -41v-69q0 -19 -5.5 -30.5t-15.5 -17.5t-23 -8t-28 -2h-361q-87 0 -149.5 -7.5t-106 -19.5t-69.5 -27t-40.5 -31t-19 -30.5t-4.5 -24.5q0 -33 21 -62.5t80 -52.5t165 -36.5t277 -13.5q133 0 252 4.5t232 13t224.5 21t229.5 29.5q-3 -45 -7.5 -87
t-7.5 -84q-180 -31 -423 -52t-537 -21q-188 0 -317 25t-208.5 69t-115 103.5t-35.5 127.5q0 86 47.5 149.5t135.5 105t212.5 61.5t278.5 20h246zM487 787q-11 2 -32 5t-47 3q-57 0 -94.5 -22.5t-37.5 -75.5q0 -25 12 -50.5t36 -45.5t61 -33t87 -13h39v-112h-414v112h152
q-11 7 -26 22.5t-28.5 37t-23 50t-9.5 62.5q0 35 14 68t43.5 58.5t74 40.5t105.5 15q23 0 49 -1.5t57 -6.5z" />
    <glyph glyph-name="uniFBE8" unicode="&#x649;" horiz-adv-x="670" arabic-form="initial" 
d="M0 0q-36 0 -54 12t-18 41v69q0 19 5.5 30.5t15.5 17.5t23 8t28 2h329v593h181v-773h-510z" />
    <glyph glyph-name="uniFBE9" unicode="&#x649;" horiz-adv-x="713" arabic-form="medial" 
d="M452 242q45 -31 106.5 -46.5t146.5 -15.5h8q36 0 54 -12t18 -41v-69q0 -19 -5.5 -30.5t-15.5 -17.5t-23 -8t-28 -2h-10q-104 0 -173 27t-118 68q-25 -40 -67 -67.5t-106 -27.5h-239q-36 0 -54 12t-18 41v69q0 19 5.5 30.5t15.5 17.5t23 8t28 2h202q32 0 50.5 28t18.5 85
v479h181v-530z" />
    <glyph glyph-name="uniFBFD" unicode="&#x6cc;" horiz-adv-x="1971" arabic-form="final" 
d="M1099 375q0 199 101 299t312 100h266v-411q0 -61 6.5 -97t20 -55t33.5 -25t47 -6h96q36 0 54 -12t18 -41v-69q0 -19 -5.5 -30.5t-15.5 -17.5t-23 -8t-28 -2h-126q-49 0 -95 15t-82 49t-58 89.5t-22 136.5v313h-36q-66 0 -118 -9t-89 -36t-56.5 -75.5t-19.5 -127.5v-295
q0 -93 -41.5 -182t-120 -158.5t-192 -112t-257.5 -42.5q-137 0 -239.5 27t-177 71.5t-123 101.5t-77 116t-40 115t-11.5 99q0 56 8.5 110t24 103t37 90.5t46.5 73.5l148 -81q-19 -26 -34.5 -59.5t-27 -70.5t-17.5 -75.5t-6 -75.5q0 -34 7.5 -74t27.5 -80t55 -77.5t89 -66
t130.5 -45.5t179.5 -17q101 0 181 24.5t135.5 65.5t85 93t29.5 108v334z" />
    <glyph glyph-name="uniFBFE" unicode="&#x6cc;" horiz-adv-x="784" arabic-form="initial" 
d="M0 0q-36 0 -54 12t-18 41v69q0 19 5.5 30.5t15.5 17.5t23 8t28 2h329v593h181v-773h-510zM126 -300q0 22 8.5 41.5t22.5 34t33.5 23t41.5 8.5t41.5 -8.5t34 -23t23 -34t8.5 -41.5t-8.5 -41.5t-23 -33.5t-34 -22.5t-41.5 -8.5q-45 0 -75.5 30.5t-30.5 75.5zM411 -300
q0 22 8.5 41.5t22.5 34t33.5 23t41.5 8.5t41.5 -8.5t34 -23t23 -34t8.5 -41.5t-8.5 -41.5t-23 -33.5t-34 -22.5t-41.5 -8.5q-45 0 -75.5 30.5t-30.5 75.5z" />
    <glyph glyph-name="uniFBFF" unicode="&#x6cc;" horiz-adv-x="713" arabic-form="medial" 
d="M452 242q45 -31 106.5 -46.5t146.5 -15.5h8q36 0 54 -12t18 -41v-69q0 -19 -5.5 -30.5t-15.5 -17.5t-23 -8t-28 -2h-10q-104 0 -173 27t-118 68q-25 -40 -67 -67.5t-106 -27.5h-239q-36 0 -54 12t-18 41v69q0 19 5.5 30.5t15.5 17.5t23 8t28 2h202q32 0 50.5 28t18.5 85
v479h181v-530zM117 -300q0 22 8.5 41.5t22.5 34t33.5 23t41.5 8.5t41.5 -8.5t34 -23t23 -34t8.5 -41.5t-8.5 -41.5t-23 -33.5t-34 -22.5t-41.5 -8.5q-45 0 -75.5 30.5t-30.5 75.5zM402 -300q0 22 8.5 41.5t22.5 34t33.5 23t41.5 8.5t41.5 -8.5t34 -23t23 -34t8.5 -41.5
t-8.5 -41.5t-23 -33.5t-34 -22.5t-41.5 -8.5q-45 0 -75.5 30.5t-30.5 75.5z" />
    <glyph glyph-name="uni064C0651" unicode="&#xfc5e;" horiz-adv-x="0" arabic-form="isolated" 
d="M0 1492q-20 -25 -51.5 -43t-66.5 -18q-72 0 -114 44t-42 117v147h77v-151q0 -41 23.5 -60.5t56.5 -19.5t56.5 23.5t23.5 56.5v129h72v-129q0 -33 23.5 -56.5t56.5 -23.5t56.5 19.5t23.5 60.5v152h77v-148q0 -36 -12 -66t-33 -51t-49.5 -32.5t-61.5 -11.5q-35 0 -66 18
t-50 43zM25 1935q17 0 36.5 4t40.5 12q-38 28 -56.5 64t-18.5 72q0 30 11 55.5t29.5 44.5t42.5 29.5t51 10.5q54 0 90.5 -32.5t36.5 -101.5q0 -54 -27 -96t-67.5 -71.5t-86.5 -44.5t-83 -15q-24 0 -48 4.5t-48 16.5t-46.5 32t-43.5 51l-86 -82l-42 46q34 35 66 66t63 63
q19 -26 40 -49t44 -40.5t48.5 -28t53.5 -10.5zM92 2089q0 -25 13 -52.5t51 -56.5q29 20 48.5 47t19.5 62t-20 53t-43 18q-29 0 -49 -19.5t-20 -51.5z" />
    <glyph glyph-name="uni064D0651" unicode="&#xfc5f;" horiz-adv-x="0" arabic-form="isolated" 
d="M0 1895q-20 -25 -51.5 -43t-66.5 -18q-72 0 -114 44t-42 117v147h77v-151q0 -41 23.5 -60.5t56.5 -19.5t56.5 23.5t23.5 56.5v129h72v-129q0 -33 23.5 -56.5t56.5 -23.5t56.5 19.5t23.5 60.5v152h77v-148q0 -36 -12 -66t-33 -51t-49.5 -32.5t-61.5 -11.5q-35 0 -66 18
t-50 43zM-219 1512h433v-81h-433v81zM-219 1699h433v-81h-433v81z" />
    <glyph glyph-name="uni064E0651" unicode="&#xfc60;" horiz-adv-x="0" arabic-form="isolated" 
d="M0 1492q-20 -25 -51.5 -43t-66.5 -18q-72 0 -114 44t-42 117v147h77v-151q0 -41 23.5 -60.5t56.5 -19.5t56.5 23.5t23.5 56.5v129h72v-129q0 -33 23.5 -56.5t56.5 -23.5t56.5 19.5t23.5 60.5v152h77v-148q0 -36 -12 -66t-33 -51t-49.5 -32.5t-61.5 -11.5q-35 0 -66 18
t-50 43zM-219 1937h433v-81h-433v81z" />
    <glyph glyph-name="uni064F0651" unicode="&#xfc61;" horiz-adv-x="0" arabic-form="isolated" 
d="M0 1492q-20 -25 -51.5 -43t-66.5 -18q-72 0 -114 44t-42 117v147h77v-151q0 -41 23.5 -60.5t56.5 -19.5t56.5 23.5t23.5 56.5v129h72v-129q0 -33 23.5 -56.5t56.5 -23.5t56.5 19.5t23.5 60.5v152h77v-148q0 -36 -12 -66t-33 -51t-49.5 -32.5t-61.5 -11.5q-35 0 -66 18
t-50 43zM-9 1935q18 0 39 4t42 12q-38 29 -56 64.5t-18 71.5q0 30 11 55.5t29.5 44.5t42.5 29.5t51 10.5q54 0 90.5 -32.5t36.5 -101.5q0 -54 -27.5 -96t-68 -71.5t-88.5 -44.5t-88 -15q-57 0 -107.5 8.5t-95.5 23.5l16 68q46 -15 90 -23t101 -8zM63 2089q0 -25 13 -52.5
t51 -56.5q29 20 48.5 47t19.5 62t-20 53t-43 18q-29 0 -49 -19.5t-20 -51.5z" />
    <glyph glyph-name="uni06500651" unicode="&#xfc62;" horiz-adv-x="0" arabic-form="isolated" 
d="M0 1697q-20 -25 -51.5 -43t-66.5 -18q-72 0 -114 44t-42 117v147h77v-151q0 -41 23.5 -60.5t56.5 -19.5t56.5 23.5t23.5 56.5v129h72v-129q0 -33 23.5 -56.5t56.5 -23.5t56.5 19.5t23.5 60.5v152h77v-148q0 -36 -12 -66t-33 -51t-49.5 -32.5t-61.5 -11.5q-35 0 -66 18
t-50 43zM-219 1512h433v-81h-433v81z" />
    <glyph glyph-name="uni06510670" unicode="&#xfc63;" horiz-adv-x="302" arabic-form="isolated" 
d="M0 1492q-20 -25 -51.5 -43t-66.5 -18q-72 0 -114 44t-42 117v147h77v-151q0 -41 23.5 -60.5t56.5 -19.5t56.5 23.5t23.5 56.5v129h72v-129q0 -33 23.5 -56.5t56.5 -23.5t56.5 19.5t23.5 60.5v152h77v-148q0 -36 -12 -66t-33 -51t-49.5 -32.5t-61.5 -11.5q-35 0 -66 18
t-50 43zM-47 2217h87v-356h-87v356z" />
    <glyph glyph-name="uniFDF2" unicode="&#xfdf2;" horiz-adv-x="2879" arabic-form="isolated" 
d="M1470 244q46 -32 108 -48t148 -16h297v1257h180v-1437h-479q-105 0 -174.5 27t-118.5 69q-24 -41 -66.5 -68.5t-107.5 -27.5h-374q-67 0 -113.5 12.5t-77 33t-47 48t-24.5 57.5q-74 -45 -141 -64t-136 -19q-60 0 -121 17t-110.5 53.5t-81 93.5t-31.5 137q0 75 31 134.5
t81.5 106.5t115.5 82t133.5 61.5t134.5 45.5t120 34v106h179v-619q0 -40 4.5 -67t19 -43t40.5 -23t69 -7h292q32 0 50.5 28t18.5 85v1144h181v-1193zM616 672q-100 -19 -182 -45t-141 -60.5t-91.5 -77.5t-32.5 -97q0 -44 18.5 -74t48.5 -48t67 -26t75 -8q71 0 130.5 18
t107.5 50v368zM2519 1436h180v-1437h-180v1437z" />
    <glyph glyph-name="uniFDFA" unicode="&#xfdfa;" horiz-adv-x="2165" arabic-form="isolated" 
d="M2083 895q0 -29 -32 -79t-64 -64q-93 -43 -238 -43q-23 0 -47.5 1t-50.5 3q-49 -97 -78 -97q-8 0 -8 13q0 30 45 96q-85 33 -99 53q-80 -53 -102 -53q14 -288 51 -361q38 -74 172 -81l4 4q-43 31 -43 88q0 69 66 155q49 66 125 66q58 0 108 -35q50 -33 50 -63
q-53 18 -107 18q-73 0 -133 -29q-53 -29 -53 -55q0 -29 51 -80q52 -52 90 -59q37 4 139 36q103 33 137 52l-34 -76q-207 -108 -392 -108q-196 0 -243 149q-61 -133 -117 -133q-53 0 -137 90q-130 -115 -404 -115q-42 0 -77 3t-66 8q8 -68 18 -107q19 -74 48 -102
q90 -90 360 -90q232 0 338 65q31 76 57 76q8 0 8 -16q0 -30 -24 -91q12 -26 55 -26q53 0 100 24q43 136 68 136q8 0 8 -23q0 -36 -20 -88q63 -27 90 -27q15 0 16 7q2 7 -16 79l35 74q24 -74 24 -106q0 -138 -90 -138q-47 0 -98 39q-32 -53 -121 -53q-98 0 -98 53
q-38 -28 -131 -49q-103 -22 -248 -22q-199 0 -293 57q-119 72 -123 258l-45 -66q-35 -51 -53 -53q24 -44 24 -84q0 -51 -32 -86q-16 -16 -43 -16q-40 0 -125 47q-27 -64 -86 -96q-15 -8 -49 -9q-34 -2 -44 -6l-22 -8q-12 0 -12 10q0 12 49 31q31 13 50.5 22.5t29.5 16.5
l69 53q-20 38 -20 82t37 85q37 42 69 42q6 0 13 -4q38 -20 59 -20q36 0 74 47l47 86q-80 24 -113 55q-60 54 -80 174h-4q-59 -102 -162 -102q-41 0 -79 16q-33 13 -33 25q0 51 88 118q83 64 174 91l-4 34l41 68q8 -111 19 -182.5t25 -105.5q28 -66 114 -93l-27 270l39 88
l35 -368q108 -12 194 -12q213 0 363 81q25 78 39 78q8 0 8 -18q0 -17 -8 -51q73 -72 120 -72q55 0 86 88l-26 330q-152 -6 -180 151h-4q-8 -31 -15.5 -52t-13.5 -34q-22 -50 -55 -61l4 -4q143 11 143 -80q0 -60 -51 -94q-173 -121 -328 -121q-94 0 -151.5 47.5t-57.5 134.5
q0 63 33 137q-57 16 -78 88h-4q-32 -104 -113 -104q-101 0 -96 158l-55 -50q-17 -14 -80 -14q-100 0 -100 37q0 20 27 64q28 45 50 55l156 76v20l35 74l8 -246q5 -86 66 -86q30 0 60 21q30 22 34 47l-33 233l37 80l57 -330q19 -43 68 -43q47 0 47 27q0 41 -33 151l-20 66
t-21 67l27 68q82 -256 82 -321q0 -42 -21 -91q-23 -57 -51 -57q-11 0 -18 6q-15 -44 -15 -80q0 -153 187 -153q145 0 291 98q4 4 4 6q0 11 -78 25l-125 20q-25 19 27 82q122 51 131 109q1 5 1.5 12t0.5 16q0 100 -10.5 217.5t-30.5 255.5l34 115q50 -434 78 -524
q38 -117 148 -135l-10 196l43 92l16 -286q29 10 60 28.5t63 44.5l61 -43q39 -24 80 -30q22 23 55 51.5t78 60.5q105 78 144 78q37 0 84 -28q53 -32 53 -68zM2064 4q0 -100 -79 -221q-87 -131 -183 -131q-45 0 -121 33q-75 31 -75 47q0 8 10 8q8 0 55 -15q45 -16 72 -16
q138 -4 287 217l-15 45q-38 -53 -76 -53q-14 0 -26.5 7.5t-22.5 19.5t-16.5 27t-7.5 30q-2 48 31 110q34 64 57 64q26 0 65 -49q45 -56 45 -123zM1987 1309q-70 -25 -238 -105q-197 -96 -197 -125q0 -24 54 -51l-19 -49q-67 22 -67 82q0 61 53 90q131 75 238 127t194 82z
M975 915q-6 -136 -27 -149l-51 496l45 116zM1233 76l-53 -64l-99 72l-57 -74l-102 74l59 72l96 -72l56 68zM2025 860q0 14 -36 32q-34 19 -54 19q-44 0 -123 -49q-63 -39 -96 -69q7 -1 17 -1.5t24 -0.5q42 0 84 4t84 12q100 19 100 53zM1294 -248q0 -49 -4 -61
q-12 -27 -51 -27q-18 0 -29 8q-30 -32 -61 -32q-15 0 -34 17q-17 17 -25 17q-16 0 -77 -35q-59 -36 -143 -36q-90 0 -90 16q0 14 66 14q36 0 59.5 1.5t34.5 3.5q27 6 72 32q61 39 82 39q16 0 38 -16q23 -17 27 -17q31 0 37 35q4 27 23 27q8 0 8 -12q0 -5 -0.5 -9.5
t-1.5 -9.5q5 -8 22 -12q25 0 25 24q0 33 22 33zM1669 1444l-12 -45l-400 -197l9 51zM346 539q-180 -72 -180 -107q0 -20 63 -20q69 0 121 49zM664 1362q0 -66 -43 -66q-26 0 -43 17q-37 -31 -62 -31q-43 0 -43 55q0 41 6 56l13 12q-4 -76 34 -76q22 0 39 33l-4 47l19 29
l8 -62q4 -33 30 -33q27 0 23 31l-6 45l14 21q15 -39 15 -78zM387 997q-20 -9 -41 -17.5t-43 -16.5q-67 -31 -70 -50q-1 -22 52 -22q57 0 104 27zM438 -78q-8 41 -49 70q-37 28 -70 28q-28 0 -28 -24q0 -26 53 -55q49 -31 80 -31q15 0 14 12zM2005 20q-12 66 -53 66
q-31 0 -41 -51q7 -37 63 -37q27 0 31 22z" />
    <glyph glyph-name="uniFE82" unicode="&#x622;" horiz-adv-x="527" arabic-form="final" 
d="M151 1436h180v-1073q0 -54 4.5 -89.5t16 -56t31 -29t50.5 -8.5h67q36 0 54 -12t18 -41v-69q0 -19 -5.5 -30.5t-15.5 -17.5t-23 -8t-28 -2h-94q-66 0 -114 22t-79.5 61t-46.5 92t-15 115v1146zM-115 1633q25 27 47 43.5t43.5 25.5t43 12t44.5 3q37 0 85.5 -17t98 -38
t95 -38t76.5 -17q27 0 44.5 9t29.5 22.5t19.5 30t12.5 30.5l75 -35q-16 -39 -32 -69t-37.5 -50t-52 -30.5t-76.5 -10.5q-44 0 -90.5 17t-93 37t-92.5 37t-90 17q-25 0 -47.5 -7t-48.5 -35z" />
    <glyph glyph-name="uniFE84" unicode="&#x623;" horiz-adv-x="512" arabic-form="final" 
d="M163 1436h180v-1073q0 -54 4.5 -89.5t16 -56t31 -29t50.5 -8.5h67q36 0 54 -12t18 -41v-69q0 -19 -5.5 -30.5t-15.5 -17.5t-23 -8t-28 -2h-94q-66 0 -114 22t-79.5 61t-46.5 92t-15 115v1146zM382 1819q-8 2 -24 4t-35 2q-43 0 -71 -17t-28 -57q0 -19 9 -38t27 -34
t45.5 -24.5t65.5 -9.5h29v-84h-310v84h114q-9 6 -20 17t-21 27.5t-17 37.5t-7 47t10.5 50.5t32.5 43.5t55.5 30.5t78.5 11.5q17 0 36.5 -1t42.5 -5z" />
    <glyph glyph-name="uniFE86" unicode="&#x624;" horiz-adv-x="1161" arabic-form="final" 
d="M589 0q-123 0 -207.5 35t-136.5 90.5t-75 125.5t-23 139q0 87 30 163t86 132.5t134.5 88.5t176.5 32q39 0 82 -7.5t84.5 -27t78.5 -52.5t65 -83.5t44.5 -121t16.5 -163.5v-171h216q36 0 54 -12t18 -41v-69q0 -19 -5.5 -30.5t-15.5 -17.5t-23 -8t-28 -2h-229
q-26 -109 -84 -185t-141.5 -125.5t-190 -77t-227.5 -39.5l-19 173q204 14 327.5 79.5t155.5 174.5h-164zM766 180v113q0 107 -19.5 174.5t-51 105t-72 51t-81.5 13.5q-46 0 -86 -17t-69.5 -48t-46.5 -74.5t-17 -95.5q0 -45 14.5 -85.5t46.5 -70.5t82 -48t122 -18h178z
M703 1363q-11 2 -32 5t-47 3q-57 0 -94.5 -22.5t-37.5 -75.5q0 -25 12 -50.5t36 -45.5t61 -33t87 -13h39v-112h-414v112h152q-11 7 -26 22.5t-28.5 37t-23 50t-9.5 62.5q0 35 14 68t43.5 58.5t74 40.5t105.5 15q23 0 49 -1.5t57 -6.5z" />
    <glyph glyph-name="uniFE88" unicode="&#x625;" horiz-adv-x="499" arabic-form="final" 
d="M151 1436h180v-1073q0 -54 4.5 -89.5t16 -56t31 -29t50.5 -8.5h67q36 0 54 -12t18 -41v-69q0 -19 -5.5 -30.5t-15.5 -17.5t-23 -8t-28 -2h-94q-66 0 -114 22t-79.5 61t-46.5 92t-15 115v1146zM367 -236q-8 2 -24 4t-35 2q-43 0 -71 -17t-28 -57q0 -19 9 -38t27 -34
t45.5 -24.5t65.5 -9.5h29v-84h-310v84h114q-9 6 -20 17t-21 27.5t-17 37.5t-7 47t10.5 50.5t32.5 43.5t55.5 30.5t78.5 11.5q17 0 36.5 -1t42.5 -5z" />
    <glyph glyph-name="uniFE8A" unicode="&#x626;" horiz-adv-x="2033" arabic-form="final" 
d="M1151 375q0 199 101 299t312 100h266v-411q0 -61 6.5 -97t20 -55t33.5 -25t47 -6h96q36 0 54 -12t18 -41v-69q0 -19 -5.5 -30.5t-15.5 -17.5t-23 -8t-28 -2h-126q-49 0 -95 15t-82 49t-58 89.5t-22 136.5v313h-36q-66 0 -118 -9t-89 -36t-56.5 -75.5t-19.5 -127.5v-295
q0 -93 -41.5 -182t-120 -158.5t-192 -112t-257.5 -42.5q-137 0 -239.5 27t-177 71.5t-123 101.5t-77 116t-40 115t-11.5 99q0 56 8.5 110t24 103t37 90.5t46.5 73.5l148 -81q-19 -26 -34.5 -59.5t-27 -70.5t-17.5 -75.5t-6 -75.5q0 -34 7.5 -74t27.5 -80t55 -77.5t89 -66
t130.5 -45.5t179.5 -17q101 0 181 24.5t135.5 65.5t85 93t29.5 108v334zM391 947q-11 2 -32 5t-47 3q-57 0 -94.5 -22.5t-37.5 -75.5q0 -25 12 -50.5t36 -45.5t61 -33t87 -13h39v-112h-414v112h152q-11 7 -26 22.5t-28.5 37t-23 50t-9.5 62.5q0 35 14 68t43.5 58.5t74 40.5
t105.5 15q23 0 49 -1.5t57 -6.5z" />
    <glyph glyph-name="uniFE8B" unicode="&#x626;" horiz-adv-x="670" arabic-form="initial" 
d="M0 0q-36 0 -54 12t-18 41v69q0 19 5.5 30.5t15.5 17.5t23 8t28 2h329v593h181v-773h-510zM572 1273q-11 2 -32 5t-47 3q-57 0 -94.5 -22.5t-37.5 -75.5q0 -25 12 -50.5t36 -45.5t61 -33t87 -13h39v-112h-414v112h152q-11 7 -26 22.5t-28.5 37t-23 50t-9.5 62.5
q0 35 14 68t43.5 58.5t74 40.5t105.5 15q23 0 49 -1.5t57 -6.5z" />
    <glyph glyph-name="uniFE8C" unicode="&#x626;" horiz-adv-x="713" arabic-form="medial" 
d="M452 242q45 -31 106.5 -46.5t146.5 -15.5h8q36 0 54 -12t18 -41v-69q0 -19 -5.5 -30.5t-15.5 -17.5t-23 -8t-28 -2h-10q-104 0 -173 27t-118 68q-25 -40 -67 -67.5t-106 -27.5h-239q-36 0 -54 12t-18 41v69q0 19 5.5 30.5t15.5 17.5t23 8t28 2h202q32 0 50.5 28t18.5 85
v479h181v-530zM530 1273q-11 2 -32 5t-47 3q-57 0 -94.5 -22.5t-37.5 -75.5q0 -25 12 -50.5t36 -45.5t61 -33t87 -13h39v-112h-414v112h152q-11 7 -26 22.5t-28.5 37t-23 50t-9.5 62.5q0 35 14 68t43.5 58.5t74 40.5t105.5 15q23 0 49 -1.5t57 -6.5z" />
    <glyph glyph-name="uniFE8E" unicode="&#x627;" horiz-adv-x="509" arabic-form="final" 
d="M160 1436h180v-1073q0 -54 4.5 -89.5t16 -56t31 -29t50.5 -8.5h67q36 0 54 -12t18 -41v-69q0 -19 -5.5 -30.5t-15.5 -17.5t-23 -8t-28 -2h-94q-66 0 -114 22t-79.5 61t-46.5 92t-15 115v1146z" />
    <glyph glyph-name="uniFE90" unicode="&#x628;" horiz-adv-x="1840" arabic-form="final" 
d="M542 0q-120 0 -207 13t-147 37t-97 57.5t-57 73.5t-27 86t-7 96q0 19 1.5 44t4.5 51.5t6.5 53t7.5 48.5l170 -16l-10 -70t-5 -70q0 -60 15 -102.5t64.5 -69.5t144.5 -39.5t255 -12.5h674q32 0 50.5 28t18.5 85v479h181v-529q46 -32 107.5 -47.5t146.5 -15.5h8
q36 0 54 -12t18 -41v-69q0 -19 -5.5 -30.5t-15.5 -17.5t-23 -8t-28 -2h-10q-104 0 -173.5 27t-117.5 68q-25 -40 -67 -67.5t-107 -27.5h-823zM716 -300q0 22 8.5 41.5t22.5 34t33.5 23t41.5 8.5t41.5 -8.5t34 -23t23 -34t8.5 -41.5t-8.5 -41.5t-23 -33.5t-34 -22.5
t-41.5 -8.5q-45 0 -75.5 30.5t-30.5 75.5z" />
    <glyph glyph-name="uniFE91" unicode="&#x628;" horiz-adv-x="687" arabic-form="initial" 
d="M0 0q-36 0 -54 12t-18 41v69q0 19 5.5 30.5t15.5 17.5t23 8t28 2h329v593h181v-773h-510zM314 -300q0 22 8.5 41.5t22.5 34t33.5 23t41.5 8.5t41.5 -8.5t34 -23t23 -34t8.5 -41.5t-8.5 -41.5t-23 -33.5t-34 -22.5t-41.5 -8.5q-45 0 -75.5 30.5t-30.5 75.5z" />
    <glyph glyph-name="uniFE92" unicode="&#x628;" horiz-adv-x="713" arabic-form="medial" 
d="M452 242q45 -31 106.5 -46.5t146.5 -15.5h8q36 0 54 -12t18 -41v-69q0 -19 -5.5 -30.5t-15.5 -17.5t-23 -8t-28 -2h-10q-104 0 -173 27t-118 68q-25 -40 -67 -67.5t-106 -27.5h-239q-36 0 -54 12t-18 41v69q0 19 5.5 30.5t15.5 17.5t23 8t28 2h202q32 0 50.5 28t18.5 85
v479h181v-530zM253 -300q0 22 8.5 41.5t22.5 34t33.5 23t41.5 8.5t41.5 -8.5t34 -23t23 -34t8.5 -41.5t-8.5 -41.5t-23 -33.5t-34 -22.5t-41.5 -8.5q-45 0 -75.5 30.5t-30.5 75.5z" />
    <glyph glyph-name="uniFE94" unicode="&#x629;" horiz-adv-x="998" arabic-form="final" 
d="M616 672q-100 -19 -182 -45t-141 -60.5t-91.5 -77.5t-32.5 -97q0 -44 18.5 -74t48.5 -48t67 -26t75 -8q71 0 130.5 18t107.5 50v368zM795 320q0 -40 4.5 -67t19 -43t40.5 -23t69 -7h70q36 0 54 -12t18 -41v-69q0 -19 -5.5 -30.5t-15.5 -17.5t-23 -8t-28 -2h-115
q-67 0 -113.5 12.5t-77 33t-47 48t-24.5 57.5q-74 -45 -141 -64t-136 -19q-60 0 -121 17t-110.5 53.5t-81 93.5t-31.5 137q0 75 31 134.5t81.5 106.5t115.5 82t133.5 61.5t134.5 45.5t120 34v106h179v-619zM295 1182q0 22 8.5 41.5t22.5 34t33.5 23t41.5 8.5t41.5 -8.5
t34 -23t23 -34t8.5 -41.5t-8.5 -41.5t-23 -33.5t-34 -22.5t-41.5 -8.5q-45 0 -75.5 30.5t-30.5 75.5zM580 1182q0 22 8.5 41.5t22.5 34t33.5 23t41.5 8.5t41.5 -8.5t34 -23t23 -34t8.5 -41.5t-8.5 -41.5t-23 -33.5t-34 -22.5t-41.5 -8.5q-45 0 -75.5 30.5t-30.5 75.5z" />
    <glyph glyph-name="uniFE96" unicode="&#x62a;" horiz-adv-x="1840" arabic-form="final" 
d="M542 0q-120 0 -207 13t-147 37t-97 57.5t-57 73.5t-27 86t-7 96q0 19 1.5 44t4.5 51.5t6.5 53t7.5 48.5l170 -16l-10 -70t-5 -70q0 -60 15 -102.5t64.5 -69.5t144.5 -39.5t255 -12.5h674q32 0 50.5 28t18.5 85v479h181v-529q46 -32 107.5 -47.5t146.5 -15.5h8
q36 0 54 -12t18 -41v-69q0 -19 -5.5 -30.5t-15.5 -17.5t-23 -8t-28 -2h-10q-104 0 -173.5 27t-117.5 68q-25 -40 -67 -67.5t-107 -27.5h-823zM597 1132q0 22 8.5 41.5t22.5 34t33.5 23t41.5 8.5t41.5 -8.5t34 -23t23 -34t8.5 -41.5t-8.5 -41.5t-23 -33.5t-34 -22.5
t-41.5 -8.5q-45 0 -75.5 30.5t-30.5 75.5zM882 1132q0 22 8.5 41.5t22.5 34t33.5 23t41.5 8.5t41.5 -8.5t34 -23t23 -34t8.5 -41.5t-8.5 -41.5t-23 -33.5t-34 -22.5t-41.5 -8.5q-45 0 -75.5 30.5t-30.5 75.5z" />
    <glyph glyph-name="uniFE97" unicode="&#x62a;" horiz-adv-x="670" arabic-form="initial" 
d="M0 0q-36 0 -54 12t-18 41v69q0 19 5.5 30.5t15.5 17.5t23 8t28 2h329v593h181v-773h-510zM151 1132q0 22 8.5 41.5t22.5 34t33.5 23t41.5 8.5t41.5 -8.5t34 -23t23 -34t8.5 -41.5t-8.5 -41.5t-23 -33.5t-34 -22.5t-41.5 -8.5q-45 0 -75.5 30.5t-30.5 75.5zM436 1132
q0 22 8.5 41.5t22.5 34t33.5 23t41.5 8.5t41.5 -8.5t34 -23t23 -34t8.5 -41.5t-8.5 -41.5t-23 -33.5t-34 -22.5t-41.5 -8.5q-45 0 -75.5 30.5t-30.5 75.5z" />
    <glyph glyph-name="uniFE98" unicode="&#x62a;" horiz-adv-x="713" arabic-form="medial" 
d="M452 242q45 -31 106.5 -46.5t146.5 -15.5h8q36 0 54 -12t18 -41v-69q0 -19 -5.5 -30.5t-15.5 -17.5t-23 -8t-28 -2h-10q-104 0 -173 27t-118 68q-25 -40 -67 -67.5t-106 -27.5h-239q-36 0 -54 12t-18 41v69q0 19 5.5 30.5t15.5 17.5t23 8t28 2h202q32 0 50.5 28t18.5 85
v479h181v-530zM107 1132q0 22 8.5 41.5t22.5 34t33.5 23t41.5 8.5t41.5 -8.5t34 -23t23 -34t8.5 -41.5t-8.5 -41.5t-23 -33.5t-34 -22.5t-41.5 -8.5q-45 0 -75.5 30.5t-30.5 75.5zM392 1132q0 22 8.5 41.5t22.5 34t33.5 23t41.5 8.5t41.5 -8.5t34 -23t23 -34t8.5 -41.5
t-8.5 -41.5t-23 -33.5t-34 -22.5t-41.5 -8.5q-45 0 -75.5 30.5t-30.5 75.5z" />
    <glyph glyph-name="uniFE9A" unicode="&#x62b;" horiz-adv-x="1840" arabic-form="final" 
d="M542 0q-120 0 -207 13t-147 37t-97 57.5t-57 73.5t-27 86t-7 96q0 19 1.5 44t4.5 51.5t6.5 53t7.5 48.5l170 -16l-10 -70t-5 -70q0 -60 15 -102.5t64.5 -69.5t144.5 -39.5t255 -12.5h674q32 0 50.5 28t18.5 85v479h181v-529q46 -32 107.5 -47.5t146.5 -15.5h8
q36 0 54 -12t18 -41v-69q0 -19 -5.5 -30.5t-15.5 -17.5t-23 -8t-28 -2h-10q-104 0 -173.5 27t-117.5 68q-25 -40 -67 -67.5t-107 -27.5h-823zM553 1132q0 22 8.5 41.5t22.5 34t33.5 23t41.5 8.5t41.5 -8.5t34 -23t23 -34t8.5 -41.5t-8.5 -41.5t-23 -33.5t-34 -22.5
t-41.5 -8.5q-45 0 -75.5 30.5t-30.5 75.5zM838 1132q0 22 8.5 41.5t22.5 34t33.5 23t41.5 8.5t41.5 -8.5t34 -23t23 -34t8.5 -41.5t-8.5 -41.5t-23 -33.5t-34 -22.5t-41.5 -8.5q-45 0 -75.5 30.5t-30.5 75.5zM694 1400q0 22 8.5 41.5t22.5 34t33.5 23t41.5 8.5t41.5 -8.5
t34 -23t23 -34t8.5 -41.5t-8.5 -41.5t-23 -33.5t-34 -22.5t-41.5 -8.5q-45 0 -75.5 30.5t-30.5 75.5z" />
    <glyph glyph-name="uniFE9B" unicode="&#x62b;" horiz-adv-x="670" arabic-form="initial" 
d="M0 0q-36 0 -54 12t-18 41v69q0 19 5.5 30.5t15.5 17.5t23 8t28 2h329v593h181v-773h-510zM148 1132q0 22 8.5 41.5t22.5 34t33.5 23t41.5 8.5t41.5 -8.5t34 -23t23 -34t8.5 -41.5t-8.5 -41.5t-23 -33.5t-34 -22.5t-41.5 -8.5q-45 0 -75.5 30.5t-30.5 75.5zM433 1132
q0 22 8.5 41.5t22.5 34t33.5 23t41.5 8.5t41.5 -8.5t34 -23t23 -34t8.5 -41.5t-8.5 -41.5t-23 -33.5t-34 -22.5t-41.5 -8.5q-45 0 -75.5 30.5t-30.5 75.5zM289 1400q0 22 8.5 41.5t22.5 34t33.5 23t41.5 8.5t41.5 -8.5t34 -23t23 -34t8.5 -41.5t-8.5 -41.5t-23 -33.5
t-34 -22.5t-41.5 -8.5q-45 0 -75.5 30.5t-30.5 75.5z" />
    <glyph glyph-name="uniFE9C" unicode="&#x62b;" horiz-adv-x="713" arabic-form="medial" 
d="M452 242q45 -31 106.5 -46.5t146.5 -15.5h8q36 0 54 -12t18 -41v-69q0 -19 -5.5 -30.5t-15.5 -17.5t-23 -8t-28 -2h-10q-104 0 -173 27t-118 68q-25 -40 -67 -67.5t-106 -27.5h-239q-36 0 -54 12t-18 41v69q0 19 5.5 30.5t15.5 17.5t23 8t28 2h202q32 0 50.5 28t18.5 85
v479h181v-530zM99 1132q0 22 8.5 41.5t22.5 34t33.5 23t41.5 8.5t41.5 -8.5t34 -23t23 -34t8.5 -41.5t-8.5 -41.5t-23 -33.5t-34 -22.5t-41.5 -8.5q-45 0 -75.5 30.5t-30.5 75.5zM384 1132q0 22 8.5 41.5t22.5 34t33.5 23t41.5 8.5t41.5 -8.5t34 -23t23 -34t8.5 -41.5
t-8.5 -41.5t-23 -33.5t-34 -22.5t-41.5 -8.5q-45 0 -75.5 30.5t-30.5 75.5zM240 1400q0 22 8.5 41.5t22.5 34t33.5 23t41.5 8.5t41.5 -8.5t34 -23t23 -34t8.5 -41.5t-8.5 -41.5t-23 -33.5t-34 -22.5t-41.5 -8.5q-45 0 -75.5 30.5t-30.5 75.5z" />
    <glyph glyph-name="uniFE9E" unicode="&#x62c;" horiz-adv-x="1068" arabic-form="final" 
d="M753 180q-21 21 -34.5 57t-22.5 99q-8 59 -20.5 117t-40 104.5t-75 75t-125.5 28.5q-22 0 -50 -3.5t-57 -9t-55 -12.5t-44 -15v163q59 17 119.5 30.5t136.5 13.5q77 0 137 -24t103.5 -66.5t69.5 -102t35 -130.5q8 -64 18 -122.5t26 -103.5t40 -72t61 -27h93q36 0 54 -12
t18 -41v-69q0 -19 -5.5 -30.5t-15.5 -17.5t-23 -8t-28 -2h-635q-53 0 -99.5 -19.5t-81.5 -56.5t-55.5 -91t-20.5 -122q0 -53 18.5 -106t58 -95t101.5 -68.5t150 -26.5q45 0 96.5 7t98.5 16v-164q-29 -8 -54 -13t-49 -9t-47.5 -5.5t-50.5 -1.5q-87 0 -157.5 19t-126 52
t-96 76.5t-66.5 93.5t-39 103t-13 104q0 120 40 211.5t107 152.5t153.5 92t179.5 31h273zM457 -268.799q0 19.7119 7.66699 37.1836q7.66699 17.4727 20.2939 30.4639q12.6279 12.9922 30.2168 20.6084q17.5879 7.61523 37.4316 7.61523t37.4326 -7.61523
q17.5879 -7.61621 30.667 -20.6084q13.0781 -12.9912 20.7451 -30.4639q7.66699 -17.4717 7.66699 -37.1836t-7.66699 -37.1836q-7.66699 -17.4727 -20.7451 -30.0156q-13.0791 -12.5449 -30.667 -20.1602q-17.5889 -7.61621 -37.4326 -7.61621q-40.5889 0 -68.0986 27.3281
q-27.5107 27.3271 -27.5107 67.6475z" />
    <glyph glyph-name="uniFE9F" unicode="&#x62c;" horiz-adv-x="1033" arabic-form="initial" 
d="M187 784q59 17 119.5 30.5t136.5 13.5q77 0 136.5 -24t102 -67t69 -102.5t37.5 -129.5q10 -64 20 -123t25.5 -104t39 -71.5t60.5 -26.5v-180h-933q-36 0 -54 12t-18 41v69q0 19 5.5 30.5t15.5 17.5t23 8t28 2h711q-21 21 -34.5 57t-22.5 99q-8 59 -20.5 117t-40 104.5
t-75 75t-125.5 28.5q-22 0 -50 -3.5t-57 -9t-55 -12.5t-44 -15v163zM390 -300q0 22 8.5 41.5t22.5 34t33.5 23t41.5 8.5t41.5 -8.5t34 -23t23 -34t8.5 -41.5t-8.5 -41.5t-23 -33.5t-34 -22.5t-41.5 -8.5q-45 0 -75.5 30.5t-30.5 75.5z" />
    <glyph glyph-name="uniFEA0" unicode="&#x62c;" horiz-adv-x="1026" arabic-form="medial" 
d="M187 784q59 17 119.5 30.5t136.5 13.5q77 0 136.5 -24t102 -67t69 -102.5t37.5 -129.5q10 -64 20 -123t25.5 -104t39 -71.5t60.5 -26.5h93q36 0 54 -12t18 -41v-69q0 -19 -5.5 -30.5t-15.5 -17.5t-23 -8t-28 -2h-1026q-36 0 -54 12t-18 41v69q0 19 5.5 30.5t15.5 17.5
t23 8t28 2h711q-21 21 -34.5 57t-22.5 99q-8 59 -20.5 117t-40 104.5t-75 75t-125.5 28.5q-22 0 -50 -3.5t-57 -9t-55 -12.5t-44 -15v163zM353 -300q0 22 8.5 41.5t22.5 34t33.5 23t41.5 8.5t41.5 -8.5t34 -23t23 -34t8.5 -41.5t-8.5 -41.5t-23 -33.5t-34 -22.5t-41.5 -8.5
q-45 0 -75.5 30.5t-30.5 75.5z" />
    <glyph glyph-name="uniFEA2" unicode="&#x62d;" horiz-adv-x="1068" arabic-form="final" 
d="M753 180q-21 21 -34.5 57t-22.5 99q-8 59 -20.5 117t-40 104.5t-75 75t-125.5 28.5q-22 0 -50 -3.5t-57 -9t-55 -12.5t-44 -15v163q59 17 119.5 30.5t136.5 13.5q77 0 137 -24t103.5 -66.5t69.5 -102t35 -130.5q8 -64 18 -122.5t26 -103.5t40 -72t61 -27h93q36 0 54 -12
t18 -41v-69q0 -19 -5.5 -30.5t-15.5 -17.5t-23 -8t-28 -2h-635q-53 0 -99.5 -19.5t-81.5 -56.5t-55.5 -91t-20.5 -122q0 -53 18.5 -106t58 -95t101.5 -68.5t150 -26.5q45 0 96.5 7t98.5 16v-164q-29 -8 -54 -13t-49 -9t-47.5 -5.5t-50.5 -1.5q-87 0 -157.5 19t-126 52
t-96 76.5t-66.5 93.5t-39 103t-13 104q0 120 40 211.5t107 152.5t153.5 92t179.5 31h273z" />
    <glyph glyph-name="uniFEA3" unicode="&#x62d;" horiz-adv-x="1033" arabic-form="initial" 
d="M187 784q59 17 119.5 30.5t136.5 13.5q77 0 136.5 -24t102 -67t69 -102.5t37.5 -129.5q10 -64 20 -123t25.5 -104t39 -71.5t60.5 -26.5v-180h-933q-36 0 -54 12t-18 41v69q0 19 5.5 30.5t15.5 17.5t23 8t28 2h711q-21 21 -34.5 57t-22.5 99q-8 59 -20.5 117t-40 104.5
t-75 75t-125.5 28.5q-22 0 -50 -3.5t-57 -9t-55 -12.5t-44 -15v163z" />
    <glyph glyph-name="uniFEA4" unicode="&#x62d;" horiz-adv-x="1026" arabic-form="medial" 
d="M187 784q59 17 119.5 30.5t136.5 13.5q77 0 136.5 -24t102 -67t69 -102.5t37.5 -129.5q10 -64 20 -123t25.5 -104t39 -71.5t60.5 -26.5h93q36 0 54 -12t18 -41v-69q0 -19 -5.5 -30.5t-15.5 -17.5t-23 -8t-28 -2h-1026q-36 0 -54 12t-18 41v69q0 19 5.5 30.5t15.5 17.5
t23 8t28 2h711q-21 21 -34.5 57t-22.5 99q-8 59 -20.5 117t-40 104.5t-75 75t-125.5 28.5q-22 0 -50 -3.5t-57 -9t-55 -12.5t-44 -15v163z" />
    <glyph glyph-name="uniFEA6" unicode="&#x62e;" horiz-adv-x="1068" arabic-form="final" 
d="M753 180q-21 21 -34.5 57t-22.5 99q-8 59 -20.5 117t-40 104.5t-75 75t-125.5 28.5q-22 0 -50 -3.5t-57 -9t-55 -12.5t-44 -15v163q59 17 119.5 30.5t136.5 13.5q77 0 137 -24t103.5 -66.5t69.5 -102t35 -130.5q8 -64 18 -122.5t26 -103.5t40 -72t61 -27h93q36 0 54 -12
t18 -41v-69q0 -19 -5.5 -30.5t-15.5 -17.5t-23 -8t-28 -2h-635q-53 0 -99.5 -19.5t-81.5 -56.5t-55.5 -91t-20.5 -122q0 -53 18.5 -106t58 -95t101.5 -68.5t150 -26.5q45 0 96.5 7t98.5 16v-164q-29 -8 -54 -13t-49 -9t-47.5 -5.5t-50.5 -1.5q-87 0 -157.5 19t-126 52
t-96 76.5t-66.5 93.5t-39 103t-13 104q0 120 40 211.5t107 152.5t153.5 92t179.5 31h273zM417 1132q0 22 8.5 41.5t22.5 34t33.5 23t41.5 8.5t41.5 -8.5t34 -23t23 -34t8.5 -41.5t-8.5 -41.5t-23 -33.5t-34 -22.5t-41.5 -8.5q-45 0 -75.5 30.5t-30.5 75.5z" />
    <glyph glyph-name="uniFEA7" unicode="&#x62e;" horiz-adv-x="1033" arabic-form="initial" 
d="M187 784q59 17 119.5 30.5t136.5 13.5q77 0 136.5 -24t102 -67t69 -102.5t37.5 -129.5q10 -64 20 -123t25.5 -104t39 -71.5t60.5 -26.5v-180h-933q-36 0 -54 12t-18 41v69q0 19 5.5 30.5t15.5 17.5t23 8t28 2h711q-21 21 -34.5 57t-22.5 99q-8 59 -20.5 117t-40 104.5
t-75 75t-125.5 28.5q-22 0 -50 -3.5t-57 -9t-55 -12.5t-44 -15v163zM314 1132q0 22 8.5 41.5t22.5 34t33.5 23t41.5 8.5t41.5 -8.5t34 -23t23 -34t8.5 -41.5t-8.5 -41.5t-23 -33.5t-34 -22.5t-41.5 -8.5q-45 0 -75.5 30.5t-30.5 75.5z" />
    <glyph glyph-name="uniFEA8" unicode="&#x62e;" horiz-adv-x="1026" arabic-form="medial" 
d="M187 784q59 17 119.5 30.5t136.5 13.5q77 0 136.5 -24t102 -67t69 -102.5t37.5 -129.5q10 -64 20 -123t25.5 -104t39 -71.5t60.5 -26.5h93q36 0 54 -12t18 -41v-69q0 -19 -5.5 -30.5t-15.5 -17.5t-23 -8t-28 -2h-1026q-36 0 -54 12t-18 41v69q0 19 5.5 30.5t15.5 17.5
t23 8t28 2h711q-21 21 -34.5 57t-22.5 99q-8 59 -20.5 117t-40 104.5t-75 75t-125.5 28.5q-22 0 -50 -3.5t-57 -9t-55 -12.5t-44 -15v163zM308 1132q0 22 8.5 41.5t22.5 34t33.5 23t41.5 8.5t41.5 -8.5t34 -23t23 -34t8.5 -41.5t-8.5 -41.5t-23 -33.5t-34 -22.5t-41.5 -8.5
q-45 0 -75.5 30.5t-30.5 75.5z" />
    <glyph glyph-name="uniFEAA" unicode="&#x62f;" horiz-adv-x="1077" arabic-form="final" 
d="M71 0v180h341q71 0 116.5 8.5t71.5 25t36 40t10 53.5q0 53 -28.5 111.5t-75 116.5t-104.5 113.5t-117 103.5l133 131q66 -57 129.5 -124.5t114 -140t81.5 -148.5t31 -150q0 -36 -6 -69q47 -36 111 -53.5t154 -17.5h8q36 0 54 -12t18 -41v-69q0 -19 -5.5 -30.5
t-15.5 -17.5t-23 -8t-28 -2h-10q-59 0 -107 9t-86 25t-68.5 38t-55.5 47q-44 -56 -120.5 -87.5t-194.5 -31.5h-364z" />
    <glyph glyph-name="uniFEAC" unicode="&#x630;" horiz-adv-x="1099" arabic-form="final" 
d="M93 0v180h341q71 0 116.5 8.5t71.5 25t36 40t10 53.5q0 53 -28.5 111.5t-75 116.5t-104.5 113.5t-117 103.5l133 131q66 -57 129.5 -124.5t114 -140t81.5 -148.5t31 -150q0 -36 -6 -69q47 -36 111 -53.5t154 -17.5h8q36 0 54 -12t18 -41v-69q0 -19 -5.5 -30.5
t-15.5 -17.5t-23 -8t-28 -2h-10q-59 0 -107 9t-86 25t-68.5 38t-55.5 47q-44 -56 -120.5 -87.5t-194.5 -31.5h-364zM365 1132q0 22 8.5 41.5t22.5 34t33.5 23t41.5 8.5t41.5 -8.5t34 -23t23 -34t8.5 -41.5t-8.5 -41.5t-23 -33.5t-34 -22.5t-41.5 -8.5q-45 0 -75.5 30.5
t-30.5 75.5z" />
    <glyph glyph-name="uniFEAE" unicode="&#x631;" horiz-adv-x="716" arabic-form="final" 
d="M-19 -246q107 14 170.5 42.5t96.5 73t43 104.5t10 136v663h180v-593h235q36 0 54 -12t18 -41v-69q0 -19 -5.5 -30.5t-15.5 -17.5t-23 -8t-28 -2h-245q-15 -105 -50.5 -177.5t-94 -121.5t-140 -76.5t-187.5 -42.5z" />
    <glyph glyph-name="uniFEB0" unicode="&#x632;" horiz-adv-x="716" arabic-form="final" 
d="M-19 -246q107 14 170.5 42.5t96.5 73t43 104.5t10 136v663h180v-593h235q36 0 54 -12t18 -41v-69q0 -19 -5.5 -30.5t-15.5 -17.5t-23 -8t-28 -2h-245q-15 -105 -50.5 -177.5t-94 -121.5t-140 -76.5t-187.5 -42.5zM276 1132q0 22 8.5 41.5t22.5 34t33.5 23t41.5 8.5
t41.5 -8.5t34 -23t23 -34t8.5 -41.5t-8.5 -41.5t-23 -33.5t-34 -22.5t-41.5 -8.5q-45 0 -75.5 30.5t-30.5 75.5z" />
    <glyph glyph-name="uniFEB2" unicode="&#x633;" horiz-adv-x="2582" arabic-form="final" 
d="M986 179q0 28 -5 69.5t-14 87.5t-23 93t-32 86l177 50q12 -32 23.5 -72t21.5 -83.5t18 -89t11 -88.5q51 -31 112 -41.5t127 -10.5h69q32 0 50.5 28t18.5 85v371h181v-415q50 -37 117 -53t145 -16h69q32 0 50.5 28t18.5 85v480h181v-516q47 -39 112.5 -58t159.5 -19h8
q36 0 54 -12t18 -41v-69q0 -19 -5.5 -30.5t-15.5 -17.5t-23 -8t-28 -2h-10q-55 0 -100 8t-82 22t-67 33t-54 42q-24 -44 -68 -74.5t-112 -30.5h-108q-79 0 -157.5 22t-139.5 77q-25 -42 -67.5 -70.5t-108.5 -28.5h-108q-63 0 -126 13.5t-118 45.5q-17 -108 -63.5 -198
t-122 -154.5t-179.5 -100t-234 -35.5q-142 0 -246.5 43.5t-173.5 116.5t-103 168.5t-34 200.5q0 50 8.5 102.5t22.5 103t33.5 95.5t42.5 81l152 -85q-16 -26 -29 -58.5t-22 -68.5t-14 -73.5t-5 -73.5q0 -78 25 -146.5t73.5 -119t120 -80t163.5 -29.5q99 0 176 29.5t130 85
t81 135.5t28 181z" />
    <glyph glyph-name="uniFEB3" unicode="&#x633;" horiz-adv-x="1857" arabic-form="initial" 
d="M543 243q53 -37 118 -50t137 -13h69q32 0 50.5 28t18.5 85v371h181v-422q50 -35 115 -48.5t140 -13.5h144v593h181v-773h-327q-33 0 -71 4t-77 14.5t-76.5 28.5t-69.5 46q-25 -40 -67 -66.5t-105 -26.5h-108q-39 0 -78 5t-77 16t-73 29t-65 44q-25 -40 -67 -67t-106 -27
h-330q-36 0 -54 12t-18 41v69q0 19 5.5 30.5t15.5 17.5t23 8t28 2h293q32 0 50.5 28t18.5 85v286h181v-336z" />
    <glyph glyph-name="uniFEB4" unicode="&#x633;" horiz-adv-x="1969" arabic-form="medial" 
d="M543 237q52 -34 115 -45.5t132 -11.5h69q32 0 50.5 28t18.5 85v371h181v-415q50 -37 117 -53t145 -16h69q32 0 50.5 28t18.5 85v480h181v-517q47 -38 112 -57t159 -19h8q36 0 54 -12t18 -41v-69q0 -19 -5.5 -30.5t-15.5 -17.5t-23 -8t-28 -2h-10q-110 0 -181.5 29.5
t-120.5 75.5q-24 -44 -68 -74.5t-112 -30.5h-108q-79 0 -157.5 22t-139.5 77q-25 -42 -67.5 -70.5t-108.5 -28.5h-108q-38 0 -76.5 5t-75.5 15.5t-71.5 27.5t-64.5 42q-25 -38 -66 -64t-104 -26h-330q-36 0 -54 12t-18 41v69q0 19 5.5 30.5t15.5 17.5t23 8t28 2h293
q32 0 50.5 28t18.5 85v286h181v-342z" />
    <glyph glyph-name="uniFEB6" unicode="&#x634;" horiz-adv-x="2582" arabic-form="final" 
d="M986 179q0 28 -5 69.5t-14 87.5t-23 93t-32 86l177 50q12 -32 23.5 -72t21.5 -83.5t18 -89t11 -88.5q51 -31 112 -41.5t127 -10.5h69q32 0 50.5 28t18.5 85v371h181v-415q50 -37 117 -53t145 -16h69q32 0 50.5 28t18.5 85v480h181v-516q47 -39 112.5 -58t159.5 -19h8
q36 0 54 -12t18 -41v-69q0 -19 -5.5 -30.5t-15.5 -17.5t-23 -8t-28 -2h-10q-55 0 -100 8t-82 22t-67 33t-54 42q-24 -44 -68 -74.5t-112 -30.5h-108q-79 0 -157.5 22t-139.5 77q-25 -42 -67.5 -70.5t-108.5 -28.5h-108q-63 0 -126 13.5t-118 45.5q-17 -108 -63.5 -198
t-122 -154.5t-179.5 -100t-234 -35.5q-142 0 -246.5 43.5t-173.5 116.5t-103 168.5t-34 200.5q0 50 8.5 102.5t22.5 103t33.5 95.5t42.5 81l152 -85q-16 -26 -29 -58.5t-22 -68.5t-14 -73.5t-5 -73.5q0 -78 25 -146.5t73.5 -119t120 -80t163.5 -29.5q99 0 176 29.5t130 85
t81 135.5t28 181zM1377 1132q0 22 8.5 41.5t22.5 34t33.5 23t41.5 8.5t41.5 -8.5t34 -23t23 -34t8.5 -41.5t-8.5 -41.5t-23 -33.5t-34 -22.5t-41.5 -8.5q-45 0 -75.5 30.5t-30.5 75.5zM1662 1132q0 22 8.5 41.5t22.5 34t33.5 23t41.5 8.5t41.5 -8.5t34 -23t23 -34t8.5 -41.5
t-8.5 -41.5t-23 -33.5t-34 -22.5t-41.5 -8.5q-45 0 -75.5 30.5t-30.5 75.5zM1518 1400q0 22 8.5 41.5t22.5 34t33.5 23t41.5 8.5t41.5 -8.5t34 -23t23 -34t8.5 -41.5t-8.5 -41.5t-23 -33.5t-34 -22.5t-41.5 -8.5q-45 0 -75.5 30.5t-30.5 75.5z" />
    <glyph glyph-name="uniFEB7" unicode="&#x634;" horiz-adv-x="1857" arabic-form="initial" 
d="M543 243q53 -37 118 -50t137 -13h69q32 0 50.5 28t18.5 85v371h181v-422q50 -35 115 -48.5t140 -13.5h144v593h181v-773h-327q-33 0 -71 4t-77 14.5t-76.5 28.5t-69.5 46q-25 -40 -67 -66.5t-105 -26.5h-108q-39 0 -78 5t-77 16t-73 29t-65 44q-25 -40 -67 -67t-106 -27
h-330q-36 0 -54 12t-18 41v69q0 19 5.5 30.5t15.5 17.5t23 8t28 2h293q32 0 50.5 28t18.5 85v286h181v-336zM778 1132q0 22 8.5 41.5t22.5 34t33.5 23t41.5 8.5t41.5 -8.5t34 -23t23 -34t8.5 -41.5t-8.5 -41.5t-23 -33.5t-34 -22.5t-41.5 -8.5q-45 0 -75.5 30.5t-30.5 75.5z
M1063 1132q0 22 8.5 41.5t22.5 34t33.5 23t41.5 8.5t41.5 -8.5t34 -23t23 -34t8.5 -41.5t-8.5 -41.5t-23 -33.5t-34 -22.5t-41.5 -8.5q-45 0 -75.5 30.5t-30.5 75.5zM919 1400q0 22 8.5 41.5t22.5 34t33.5 23t41.5 8.5t41.5 -8.5t34 -23t23 -34t8.5 -41.5t-8.5 -41.5
t-23 -33.5t-34 -22.5t-41.5 -8.5q-45 0 -75.5 30.5t-30.5 75.5z" />
    <glyph glyph-name="uniFEB8" unicode="&#x634;" horiz-adv-x="1969" arabic-form="medial" 
d="M543 237q52 -34 115 -45.5t132 -11.5h69q32 0 50.5 28t18.5 85v371h181v-415q50 -37 117 -53t145 -16h69q32 0 50.5 28t18.5 85v480h181v-517q47 -38 112 -57t159 -19h8q36 0 54 -12t18 -41v-69q0 -19 -5.5 -30.5t-15.5 -17.5t-23 -8t-28 -2h-10q-110 0 -181.5 29.5
t-120.5 75.5q-24 -44 -68 -74.5t-112 -30.5h-108q-79 0 -157.5 22t-139.5 77q-25 -42 -67.5 -70.5t-108.5 -28.5h-108q-38 0 -76.5 5t-75.5 15.5t-71.5 27.5t-64.5 42q-25 -38 -66 -64t-104 -26h-330q-36 0 -54 12t-18 41v69q0 19 5.5 30.5t15.5 17.5t23 8t28 2h293
q32 0 50.5 28t18.5 85v286h181v-342zM781 1132q0 22 8.5 41.5t22.5 34t33.5 23t41.5 8.5t41.5 -8.5t34 -23t23 -34t8.5 -41.5t-8.5 -41.5t-23 -33.5t-34 -22.5t-41.5 -8.5q-45 0 -75.5 30.5t-30.5 75.5zM1066 1132q0 22 8.5 41.5t22.5 34t33.5 23t41.5 8.5t41.5 -8.5t34 -23
t23 -34t8.5 -41.5t-8.5 -41.5t-23 -33.5t-34 -22.5t-41.5 -8.5q-45 0 -75.5 30.5t-30.5 75.5zM922 1400q0 22 8.5 41.5t22.5 34t33.5 23t41.5 8.5t41.5 -8.5t34 -23t23 -34t8.5 -41.5t-8.5 -41.5t-23 -33.5t-34 -22.5t-41.5 -8.5q-45 0 -75.5 30.5t-30.5 75.5z" />
    <glyph glyph-name="uniFEBA" unicode="&#x635;" horiz-adv-x="2753" arabic-form="final" 
d="M2825 58q0 -19 -5.5 -30.5t-15.5 -17.5t-23 -8t-28 -2h-1332q-69 0 -137.5 16.5t-125.5 54.5q-15 -111 -61.5 -203t-122 -158t-180.5 -102.5t-237 -36.5q-142 0 -246.5 43.5t-173.5 116.5t-103 168.5t-34 200.5q0 50 8.5 102.5t22.5 103t33.5 95.5t42.5 81l152 -85
q-16 -26 -29 -58.5t-22 -68.5t-14 -73.5t-5 -73.5q0 -78 25 -146.5t73.5 -119t120 -80t163.5 -29.5q99 0 176 29.5t130 85t81 135.5t28 181q0 28 -5 69.5t-14 87.5t-23 93t-32 86l177 50q11 -31 22 -68.5t21 -79t17.5 -84.5t11.5 -85q52 -37 118 -52.5t144 -15.5
q18 59 50.5 131t77.5 146t103 144t129 124.5t154 87.5t178 33q115 0 196.5 -38t134 -105t77 -157t24.5 -195v-171h206q36 0 54 -12t18 -41v-69zM2367 180v151q0 97 -21.5 162t-58.5 104.5t-87 56t-107 16.5q-62 0 -119 -21.5t-107 -58.5t-92.5 -85.5t-76.5 -103t-59 -111.5
t-39 -110h767z" />
    <glyph glyph-name="uniFEBB" unicode="&#x635;" horiz-adv-x="1989" arabic-form="initial" 
d="M713 0q-41 0 -81.5 5.5t-79.5 17.5t-74.5 31t-64.5 46q-25 -42 -68 -71t-109 -29h-236q-36 0 -54 12t-18 41v69q0 19 5.5 30.5t15.5 17.5t23 8t28 2h199q32 0 50.5 28t18.5 85v286h181v-328q52 -39 119 -55t147 -16q19 59 51 131t77 146t103 144t129 124.5t154 87.5
t178 33q115 0 196.5 -38t134 -105t77 -157t24.5 -195v-351h-1126zM1659 331q0 97 -21.5 162t-58.5 104.5t-87 56t-107 16.5q-62 0 -119 -21.5t-107 -58.5t-92.5 -85.5t-76.5 -103t-59 -111.5t-39 -110h767v151z" />
    <glyph glyph-name="uniFEBC" unicode="&#x635;" horiz-adv-x="2045" arabic-form="medial" 
d="M449 251q52 -39 119 -55t147 -16q19 59 51 131t77 146t103 144t129 124.5t154 87.5t178 33q115 0 196.5 -38t134 -105t77 -157t24.5 -195v-171h206q36 0 54 -12t18 -41v-69q0 -19 -5.5 -30.5t-15.5 -17.5t-23 -8t-28 -2h-1332q-41 0 -81.5 5.5t-79.5 17.5t-74.5 31
t-64.5 46q-25 -42 -68 -71t-109 -29h-236q-36 0 -54 12t-18 41v69q0 19 5.5 30.5t15.5 17.5t23 8t28 2h199q32 0 50.5 28t18.5 85v286h181v-328zM1659 331q0 97 -21.5 162t-58.5 104.5t-87 56t-107 16.5q-62 0 -119 -21.5t-107 -58.5t-92.5 -85.5t-76.5 -103t-59 -111.5
t-39 -110h767v151z" />
    <glyph glyph-name="uniFEBE" unicode="&#x636;" horiz-adv-x="2753" arabic-form="final" 
d="M2825 58q0 -19 -5.5 -30.5t-15.5 -17.5t-23 -8t-28 -2h-1332q-69 0 -137.5 16.5t-125.5 54.5q-15 -111 -61.5 -203t-122 -158t-180.5 -102.5t-237 -36.5q-142 0 -246.5 43.5t-173.5 116.5t-103 168.5t-34 200.5q0 50 8.5 102.5t22.5 103t33.5 95.5t42.5 81l152 -85
q-16 -26 -29 -58.5t-22 -68.5t-14 -73.5t-5 -73.5q0 -78 25 -146.5t73.5 -119t120 -80t163.5 -29.5q99 0 176 29.5t130 85t81 135.5t28 181q0 28 -5 69.5t-14 87.5t-23 93t-32 86l177 50q11 -31 22 -68.5t21 -79t17.5 -84.5t11.5 -85q52 -37 118 -52.5t144 -15.5
q18 59 50.5 131t77.5 146t103 144t129 124.5t154 87.5t178 33q115 0 196.5 -38t134 -105t77 -157t24.5 -195v-171h206q36 0 54 -12t18 -41v-69zM2367 180v151q0 97 -21.5 162t-58.5 104.5t-87 56t-107 16.5q-62 0 -119 -21.5t-107 -58.5t-92.5 -85.5t-76.5 -103t-59 -111.5
t-39 -110h767zM1747 1132q0 22 8.5 41.5t22.5 34t33.5 23t41.5 8.5t41.5 -8.5t34 -23t23 -34t8.5 -41.5t-8.5 -41.5t-23 -33.5t-34 -22.5t-41.5 -8.5q-45 0 -75.5 30.5t-30.5 75.5z" />
    <glyph glyph-name="uniFEBF" unicode="&#x636;" horiz-adv-x="1989" arabic-form="initial" 
d="M713 0q-41 0 -81.5 5.5t-79.5 17.5t-74.5 31t-64.5 46q-25 -42 -68 -71t-109 -29h-236q-36 0 -54 12t-18 41v69q0 19 5.5 30.5t15.5 17.5t23 8t28 2h199q32 0 50.5 28t18.5 85v286h181v-328q52 -39 119 -55t147 -16q19 59 51 131t77 146t103 144t129 124.5t154 87.5
t178 33q115 0 196.5 -38t134 -105t77 -157t24.5 -195v-351h-1126zM1659 331q0 97 -21.5 162t-58.5 104.5t-87 56t-107 16.5q-62 0 -119 -21.5t-107 -58.5t-92.5 -85.5t-76.5 -103t-59 -111.5t-39 -110h767v151zM1048 1132q0 22 8.5 41.5t22.5 34t33.5 23t41.5 8.5t41.5 -8.5
t34 -23t23 -34t8.5 -41.5t-8.5 -41.5t-23 -33.5t-34 -22.5t-41.5 -8.5q-45 0 -75.5 30.5t-30.5 75.5z" />
    <glyph glyph-name="uniFEC0" unicode="&#x636;" horiz-adv-x="2045" arabic-form="medial" 
d="M449 251q52 -39 119 -55t147 -16q19 59 51 131t77 146t103 144t129 124.5t154 87.5t178 33q115 0 196.5 -38t134 -105t77 -157t24.5 -195v-171h206q36 0 54 -12t18 -41v-69q0 -19 -5.5 -30.5t-15.5 -17.5t-23 -8t-28 -2h-1332q-41 0 -81.5 5.5t-79.5 17.5t-74.5 31
t-64.5 46q-25 -42 -68 -71t-109 -29h-236q-36 0 -54 12t-18 41v69q0 19 5.5 30.5t15.5 17.5t23 8t28 2h199q32 0 50.5 28t18.5 85v286h181v-328zM1659 331q0 97 -21.5 162t-58.5 104.5t-87 56t-107 16.5q-62 0 -119 -21.5t-107 -58.5t-92.5 -85.5t-76.5 -103t-59 -111.5
t-39 -110h767v151zM1034 1132q0 22 8.5 41.5t22.5 34t33.5 23t41.5 8.5t41.5 -8.5t34 -23t23 -34t8.5 -41.5t-8.5 -41.5t-23 -33.5t-34 -22.5t-41.5 -8.5q-45 0 -75.5 30.5t-30.5 75.5z" />
    <glyph glyph-name="uniFEC2" unicode="&#x637;" horiz-adv-x="1580" arabic-form="final" 
d="M0 180h251q14 46 37 100.5t55 113.5v1043h180v-792q42 43 89 80t99.5 64t110.5 42t121 15q115 0 196.5 -38t134 -105t77 -157t24.5 -195v-171h205q36 0 54 -12t18 -41v-69q0 -19 -5.5 -30.5t-15.5 -17.5t-23 -8t-28 -2h-1580v180zM1195 331q0 97 -21.5 162t-58.5 104.5
t-87 56t-107 16.5q-62 0 -119 -21.5t-107 -58.5t-92.5 -85.5t-76.5 -103t-59 -111.5t-39 -110h767v151z" />
    <glyph glyph-name="uniFEC3" unicode="&#x637;" horiz-adv-x="1515" arabic-form="initial" 
d="M0 0q-36 0 -54 12t-18 41v69q0 19 5.5 30.5t15.5 17.5t23 8t28 2h241q14 46 37 100.5t55 113.5v1043h180v-792q42 43 89 80t99.5 64t110.5 42t121 15q115 0 196.5 -38t134 -105t77 -157t24.5 -195v-351h-1365zM1185 331q0 97 -21.5 162t-58.5 104.5t-87 56t-107 16.5
q-62 0 -119 -21.5t-107 -58.5t-92.5 -85.5t-76.5 -103t-59 -111.5t-39 -110h767v151z" />
    <glyph glyph-name="uniFEC4" unicode="&#x637;" horiz-adv-x="1570" arabic-form="medial" 
d="M0 0q-36 0 -54 12t-18 41v69q0 19 5.5 30.5t15.5 17.5t23 8t28 2h241q14 46 37 100.5t55 113.5v1043h180v-792q42 43 89 80t99.5 64t110.5 42t121 15q115 0 196.5 -38t134 -105t77 -157t24.5 -195v-171h205q36 0 54 -12t18 -41v-69q0 -19 -5.5 -30.5t-15.5 -17.5t-23 -8
t-28 -2h-1570zM1185 331q0 97 -21.5 162t-58.5 104.5t-87 56t-107 16.5q-62 0 -119 -21.5t-107 -58.5t-92.5 -85.5t-76.5 -103t-59 -111.5t-39 -110h767v151z" />
    <glyph glyph-name="uniFEC6" unicode="&#x638;" horiz-adv-x="1580" arabic-form="final" 
d="M0 180h251q14 46 37 100.5t55 113.5v1043h180v-792q42 43 89 80t99.5 64t110.5 42t121 15q115 0 196.5 -38t134 -105t77 -157t24.5 -195v-171h205q36 0 54 -12t18 -41v-69q0 -19 -5.5 -30.5t-15.5 -17.5t-23 -8t-28 -2h-1580v180zM1195 331q0 97 -21.5 162t-58.5 104.5
t-87 56t-107 16.5q-62 0 -119 -21.5t-107 -58.5t-92.5 -85.5t-76.5 -103t-59 -111.5t-39 -110h767v151zM836 1132q0 22 8.5 41.5t22.5 34t33.5 23t41.5 8.5t41.5 -8.5t34 -23t23 -34t8.5 -41.5t-8.5 -41.5t-23 -33.5t-34 -22.5t-41.5 -8.5q-45 0 -75.5 30.5t-30.5 75.5z" />
    <glyph glyph-name="uniFEC7" unicode="&#x638;" horiz-adv-x="1515" arabic-form="initial" 
d="M0 0q-36 0 -54 12t-18 41v69q0 19 5.5 30.5t15.5 17.5t23 8t28 2h241q14 46 37 100.5t55 113.5v1043h180v-792q42 43 89 80t99.5 64t110.5 42t121 15q115 0 196.5 -38t134 -105t77 -157t24.5 -195v-351h-1365zM1185 331q0 97 -21.5 162t-58.5 104.5t-87 56t-107 16.5
q-62 0 -119 -21.5t-107 -58.5t-92.5 -85.5t-76.5 -103t-59 -111.5t-39 -110h767v151zM826 1132q0 22 8.5 41.5t22.5 34t33.5 23t41.5 8.5t41.5 -8.5t34 -23t23 -34t8.5 -41.5t-8.5 -41.5t-23 -33.5t-34 -22.5t-41.5 -8.5q-45 0 -75.5 30.5t-30.5 75.5z" />
    <glyph glyph-name="uniFEC8" unicode="&#x638;" horiz-adv-x="1570" arabic-form="medial" 
d="M0 0q-36 0 -54 12t-18 41v69q0 19 5.5 30.5t15.5 17.5t23 8t28 2h241q14 46 37 100.5t55 113.5v1043h180v-792q42 43 89 80t99.5 64t110.5 42t121 15q115 0 196.5 -38t134 -105t77 -157t24.5 -195v-171h205q36 0 54 -12t18 -41v-69q0 -19 -5.5 -30.5t-15.5 -17.5t-23 -8
t-28 -2h-1570zM1185 331q0 97 -21.5 162t-58.5 104.5t-87 56t-107 16.5q-62 0 -119 -21.5t-107 -58.5t-92.5 -85.5t-76.5 -103t-59 -111.5t-39 -110h767v151zM824 1132q0 22 8.5 41.5t22.5 34t33.5 23t41.5 8.5t41.5 -8.5t34 -23t23 -34t8.5 -41.5t-8.5 -41.5t-23 -33.5
t-34 -22.5t-41.5 -8.5q-45 0 -75.5 30.5t-30.5 75.5z" />
    <glyph glyph-name="uniFECA" unicode="&#x639;" horiz-adv-x="1086" arabic-form="final" 
d="M377 228q-44 32 -87 81t-79.5 98.5t-65 90t-43.5 54.5q3 19 10.5 46t17 52.5t21 45.5t21.5 25q25 12 65.5 30.5t95 35t122 28.5t146.5 12q56 0 111.5 -10t100 -31t72 -53t27.5 -77q0 -31 -9 -79t-33.5 -105.5t-69 -120.5t-114.5 -124q23 -11 57 -19.5t75 -14.5t88 -9.5
t97 -3.5h83q36 0 54 -12t18 -41v-69q0 -19 -5.5 -30.5t-15.5 -17.5t-23 -8t-28 -2h-135q-81 0 -150.5 13t-125.5 31t-97 38t-64 34q-78 -29 -141 -70t-106.5 -93t-67 -113t-23.5 -129q0 -53 18.5 -106t58 -95t101.5 -68.5t150 -26.5q45 0 96.5 7t98.5 16v-164
q-29 -8 -54 -13t-49 -9t-47.5 -5.5t-50.5 -1.5q-87 0 -157.5 19t-126 52t-96 76.5t-66.5 93.5t-39 103t-13 104q0 89 27 170t76 149.5t118.5 123t155.5 92.5zM737 558q0 21 -14 41.5t-39.5 36.5t-63 25.5t-83.5 9.5q-55 0 -126 -14.5t-150 -49.5q12 -25 41 -66t66.5 -85
t81 -85.5t84.5 -67.5q47 28 84.5 64.5t64 72t40.5 67t14 51.5z" />
    <glyph glyph-name="uniFECB" unicode="&#x639;" horiz-adv-x="987" arabic-form="initial" 
d="M788 606q-20 6 -46 11.5t-53.5 9t-54.5 6t-48 2.5q-34 0 -70 -9.5t-66 -33.5t-49.5 -64t-19.5 -100q0 -54 19 -99.5t54 -78.5t83.5 -51.5t107.5 -18.5h242v-180h-887q-36 0 -54 12t-18 41v69q0 19 5.5 30.5t15.5 17.5t23 8t28 2h267q-27 57 -40 113.5t-13 110.5
q0 85 29 160.5t81.5 132t126 89.5t161.5 33q21 0 48 -2t55 -5t52 -7.5t39 -10.5z" />
    <glyph glyph-name="uniFECC" unicode="&#x639;" horiz-adv-x="1137" arabic-form="medial" 
d="M428 228q-44 32 -85.5 79t-77.5 94.5t-65 89t-47 61.5q4 21 12 47.5t17.5 52t20 44.5t20.5 25q31 17 75 36t98.5 34.5t119 26t136.5 10.5q54 0 109 -10.5t100 -31.5t73.5 -53.5t28.5 -76.5q0 -31 -7.5 -73.5t-31 -96t-68 -118.5t-119.5 -141q23 -11 57 -19.5t75 -14.5
t88 -9.5t97 -3.5h83q36 0 54 -12t18 -41v-69q0 -19 -5.5 -30.5t-15.5 -17.5t-23 -8t-28 -2h-135q-81 0 -150.5 13t-125.5 31t-97 38t-64 34q-41 -23 -89 -44t-103 -37t-116.5 -25.5t-127.5 -9.5h-129q-36 0 -54 12t-18 41v69q0 19 5.5 30.5t15.5 17.5t23 8t28 2h141
q55 0 103 4.5t85.5 11t62.5 15t36 17.5zM788 558q0 22 -14 42t-41 36t-65.5 25.5t-87.5 9.5q-56 0 -123 -14.5t-145 -49.5q13 -25 41.5 -66t66.5 -85t81 -85.5t84 -67.5q47 28 84.5 64.5t64 72t40.5 67t14 51.5z" />
    <glyph glyph-name="uniFECE" unicode="&#x63a;" horiz-adv-x="1086" arabic-form="final" 
d="M377 228q-44 32 -87 81t-79.5 98.5t-65 90t-43.5 54.5q3 19 10.5 46t17 52.5t21 45.5t21.5 25q25 12 65.5 30.5t95 35t122 28.5t146.5 12q56 0 111.5 -10t100 -31t72 -53t27.5 -77q0 -31 -9 -79t-33.5 -105.5t-69 -120.5t-114.5 -124q23 -11 57 -19.5t75 -14.5t88 -9.5
t97 -3.5h83q36 0 54 -12t18 -41v-69q0 -19 -5.5 -30.5t-15.5 -17.5t-23 -8t-28 -2h-135q-81 0 -150.5 13t-125.5 31t-97 38t-64 34q-78 -29 -141 -70t-106.5 -93t-67 -113t-23.5 -129q0 -53 18.5 -106t58 -95t101.5 -68.5t150 -26.5q45 0 96.5 7t98.5 16v-164
q-29 -8 -54 -13t-49 -9t-47.5 -5.5t-50.5 -1.5q-87 0 -157.5 19t-126 52t-96 76.5t-66.5 93.5t-39 103t-13 104q0 89 27 170t76 149.5t118.5 123t155.5 92.5zM737 558q0 21 -14 41.5t-39.5 36.5t-63 25.5t-83.5 9.5q-55 0 -126 -14.5t-150 -49.5q12 -25 41 -66t66.5 -85
t81 -85.5t84.5 -67.5q47 28 84.5 64.5t64 72t40.5 67t14 51.5zM419 1132q0 22 8.5 41.5t22.5 34t33.5 23t41.5 8.5t41.5 -8.5t34 -23t23 -34t8.5 -41.5t-8.5 -41.5t-23 -33.5t-34 -22.5t-41.5 -8.5q-45 0 -75.5 30.5t-30.5 75.5z" />
    <glyph glyph-name="uniFECF" unicode="&#x63a;" horiz-adv-x="987" arabic-form="initial" 
d="M788 606q-20 6 -46 11.5t-53.5 9t-54.5 6t-48 2.5q-34 0 -70 -9.5t-66 -33.5t-49.5 -64t-19.5 -100q0 -54 19 -99.5t54 -78.5t83.5 -51.5t107.5 -18.5h242v-180h-887q-36 0 -54 12t-18 41v69q0 19 5.5 30.5t15.5 17.5t23 8t28 2h267q-27 57 -40 113.5t-13 110.5
q0 85 29 160.5t81.5 132t126 89.5t161.5 33q21 0 48 -2t55 -5t52 -7.5t39 -10.5zM460 1132q0 22 8.5 41.5t22.5 34t33.5 23t41.5 8.5t41.5 -8.5t34 -23t23 -34t8.5 -41.5t-8.5 -41.5t-23 -33.5t-34 -22.5t-41.5 -8.5q-45 0 -75.5 30.5t-30.5 75.5z" />
    <glyph glyph-name="uniFED0" unicode="&#x63a;" horiz-adv-x="1137" arabic-form="medial" 
d="M428 228q-44 32 -85.5 79t-77.5 94.5t-65 89t-47 61.5q4 21 12 47.5t17.5 52t20 44.5t20.5 25q31 17 75 36t98.5 34.5t119 26t136.5 10.5q54 0 109 -10.5t100 -31.5t73.5 -53.5t28.5 -76.5q0 -31 -7.5 -73.5t-31 -96t-68 -118.5t-119.5 -141q23 -11 57 -19.5t75 -14.5
t88 -9.5t97 -3.5h83q36 0 54 -12t18 -41v-69q0 -19 -5.5 -30.5t-15.5 -17.5t-23 -8t-28 -2h-135q-81 0 -150.5 13t-125.5 31t-97 38t-64 34q-41 -23 -89 -44t-103 -37t-116.5 -25.5t-127.5 -9.5h-129q-36 0 -54 12t-18 41v69q0 19 5.5 30.5t15.5 17.5t23 8t28 2h141
q55 0 103 4.5t85.5 11t62.5 15t36 17.5zM788 558q0 22 -14 42t-41 36t-65.5 25.5t-87.5 9.5q-56 0 -123 -14.5t-145 -49.5q13 -25 41.5 -66t66.5 -85t81 -85.5t84 -67.5q47 28 84.5 64.5t64 72t40.5 67t14 51.5zM459 1132q0 22 8.5 41.5t22.5 34t33.5 23t41.5 8.5t41.5 -8.5
t34 -23t23 -34t8.5 -41.5t-8.5 -41.5t-23 -33.5t-34 -22.5t-41.5 -8.5q-45 0 -75.5 30.5t-30.5 75.5z" />
    <glyph glyph-name="uniFED2" unicode="&#x641;" horiz-adv-x="2088" arabic-form="final" 
d="M542 0q-120 0 -207 13t-147 37t-97 57.5t-57 73.5t-27 86t-7 96q0 19 1.5 44t4.5 51.5t6.5 53t7.5 48.5l170 -16l-10 -70t-5 -70q0 -60 15 -102.5t64.5 -69.5t144.5 -39.5t255 -12.5h565l-1 4q-27 23 -46 53t-32 62t-19 63t-6 56q0 79 30 150.5t85.5 125.5t135.5 85.5
t179 31.5q87 0 153.5 -28t112 -76t68.5 -112.5t23 -137.5q0 -44 -7.5 -84.5t-18.5 -76.5t-23.5 -65.5t-21.5 -50.5h257q36 0 54 -12t18 -41v-69q0 -19 -5.5 -30.5t-15.5 -17.5t-23 -8t-28 -2h-108q-118 0 -214.5 8t-177.5 25q-38 -6 -96.5 -11t-128 -8.5t-144.5 -6t-146 -4
t-134 -2.5t-107 -1h-290zM1284 439q0 -59 23 -106.5t63 -81.5t93.5 -52.5t114.5 -18.5h63q12 17 26 43t25.5 57.5t19.5 68t8 75.5q0 55 -17.5 97t-46.5 70.5t-67 43t-79 14.5t-81.5 -12.5t-72.5 -38t-52 -65.5t-20 -94zM1396 1132q0 22 8.5 41.5t22.5 34t33.5 23t41.5 8.5
t41.5 -8.5t34 -23t23 -34t8.5 -41.5t-8.5 -41.5t-23 -33.5t-34 -22.5t-41.5 -8.5q-45 0 -75.5 30.5t-30.5 75.5z" />
    <glyph glyph-name="uniFED3" unicode="&#x641;" horiz-adv-x="1185" arabic-form="initial" 
d="M257 402q0 86 31 160.5t85.5 130t129.5 87t164 31.5q87 0 155 -27.5t115.5 -79t72.5 -126.5t25 -169v-409h-1035q-36 0 -54 12t-18 41v69q0 19 5.5 30.5t15.5 17.5t23 8t28 2h321v6q-13 14 -24.5 36t-20.5 50.5t-14 61.5t-5 68zM856 180v188q0 77 -17.5 129t-47 83
t-68 44t-79.5 13q-46 0 -86 -17t-69.5 -47t-46.5 -72.5t-17 -93.5t18.5 -93t52.5 -71.5t83 -46t111 -16.5h166zM559 1132q0 22 8.5 41.5t22.5 34t33.5 23t41.5 8.5t41.5 -8.5t34 -23t23 -34t8.5 -41.5t-8.5 -41.5t-23 -33.5t-34 -22.5t-41.5 -8.5q-45 0 -75.5 30.5
t-30.5 75.5z" />
    <glyph glyph-name="uniFED4" unicode="&#x641;" horiz-adv-x="1148" arabic-form="medial" 
d="M453 1132q0 22 8.5 41.5t22.5 34t33.5 23t41.5 8.5t41.5 -8.5t34 -23t23 -34t8.5 -41.5t-8.5 -41.5t-23 -33.5t-34 -22.5t-41.5 -8.5q-45 0 -75.5 30.5t-30.5 75.5zM1040 0q-118 0 -214.5 8t-177.5 25q-57 -10 -123 -16t-136 -10t-142.5 -5.5t-142.5 -1.5h-104
q-36 0 -54 12t-18 41v69q0 19 5.5 30.5t15.5 17.5t23 8t28 2h279l-1 4q-27 23 -46 53t-32 62t-19 63t-6 56q0 79 30 150.5t85.5 125.5t135.5 85.5t179 31.5q87 0 153.5 -28t112 -76t68.5 -112.5t23 -137.5q0 -44 -7.5 -84.5t-18.5 -76.5t-23.5 -65.5t-21.5 -50.5h257
q36 0 54 -12t18 -41v-69q0 -19 -5.5 -30.5t-15.5 -17.5t-23 -8t-28 -2h-108zM344 439q0 -59 23 -106.5t63 -81.5t93.5 -52.5t114.5 -18.5h63q12 17 26 43t25.5 57.5t19.5 68t8 75.5q0 55 -17.5 97t-46.5 70.5t-67 43t-79 14.5t-81.5 -12.5t-72.5 -38t-52 -65.5t-20 -94z" />
    <glyph glyph-name="uniFED6" unicode="&#x642;" horiz-adv-x="1512" arabic-form="final" 
d="M921 0q-114 0 -192.5 35t-127.5 90.5t-71 125.5t-22 139q0 87 30 163t86 132.5t134.5 88.5t176.5 32q40 0 82.5 -7.5t84 -27t78.5 -52.5t65 -83.5t44.5 -121t16.5 -163.5v-171h206q36 0 54 -12t18 -41v-69q0 -19 -5.5 -30.5t-15.5 -17.5t-23 -8t-28 -2h-206
q-13 -154 -67 -268.5t-143 -190t-209 -112.5t-265 -37q-154 0 -270.5 39t-194.5 109t-117.5 167t-39.5 214q0 50 8.5 102.5t22.5 103t33.5 95.5t42.5 81l152 -85q-16 -26 -29 -58.5t-22 -68.5t-14 -73.5t-5 -73.5q0 -83 28.5 -151.5t84.5 -118.5t139.5 -77.5t194.5 -27.5
q104 0 194 26.5t156 79.5t103.5 134t37.5 191h-206zM1127 180v113q0 107 -19.5 174.5t-51 105t-72 51t-81.5 13.5q-46 0 -86 -17t-69.5 -48t-46.5 -74.5t-17 -95.5q0 -45 15 -85.5t47.5 -70.5t83.5 -48t123 -18h174zM665 1132q0 22 8.5 41.5t22.5 34t33.5 23t41.5 8.5
t41.5 -8.5t34 -23t23 -34t8.5 -41.5t-8.5 -41.5t-23 -33.5t-34 -22.5t-41.5 -8.5q-45 0 -75.5 30.5t-30.5 75.5zM950 1132q0 22 8.5 41.5t22.5 34t33.5 23t41.5 8.5t41.5 -8.5t34 -23t23 -34t8.5 -41.5t-8.5 -41.5t-23 -33.5t-34 -22.5t-41.5 -8.5q-45 0 -75.5 30.5
t-30.5 75.5z" />
    <glyph glyph-name="uniFED7" unicode="&#x642;" horiz-adv-x="1185" arabic-form="initial" 
d="M257 402q0 86 31 160.5t85.5 130t129.5 87t164 31.5q87 0 155 -27.5t115.5 -79t72.5 -126.5t25 -169v-409h-1035q-36 0 -54 12t-18 41v69q0 19 5.5 30.5t15.5 17.5t23 8t28 2h321v6q-13 14 -24.5 36t-20.5 50.5t-14 61.5t-5 68zM856 180v188q0 77 -17.5 129t-47 83
t-68 44t-79.5 13q-46 0 -86 -17t-69.5 -47t-46.5 -72.5t-17 -93.5t18.5 -93t52.5 -71.5t83 -46t111 -16.5h166zM388 1132q0 22 8.5 41.5t22.5 34t33.5 23t41.5 8.5t41.5 -8.5t34 -23t23 -34t8.5 -41.5t-8.5 -41.5t-23 -33.5t-34 -22.5t-41.5 -8.5q-45 0 -75.5 30.5
t-30.5 75.5zM673 1132q0 22 8.5 41.5t22.5 34t33.5 23t41.5 8.5t41.5 -8.5t34 -23t23 -34t8.5 -41.5t-8.5 -41.5t-23 -33.5t-34 -22.5t-41.5 -8.5q-45 0 -75.5 30.5t-30.5 75.5z" />
    <glyph glyph-name="uniFED8" unicode="&#x642;" horiz-adv-x="1148" arabic-form="medial" 
d="M315 1132q0 22 8.5 41.5t22.5 34t33.5 23t41.5 8.5t41.5 -8.5t34 -23t23 -34t8.5 -41.5t-8.5 -41.5t-23 -33.5t-34 -22.5t-41.5 -8.5q-45 0 -75.5 30.5t-30.5 75.5zM600 1132q0 22 8.5 41.5t22.5 34t33.5 23t41.5 8.5t41.5 -8.5t34 -23t23 -34t8.5 -41.5t-8.5 -41.5
t-23 -33.5t-34 -22.5t-41.5 -8.5q-45 0 -75.5 30.5t-30.5 75.5zM1040 0q-118 0 -214.5 8t-177.5 25q-57 -10 -123 -16t-136 -10t-142.5 -5.5t-142.5 -1.5h-104q-36 0 -54 12t-18 41v69q0 19 5.5 30.5t15.5 17.5t23 8t28 2h279l-1 4q-27 23 -46 53t-32 62t-19 63t-6 56
q0 79 30 150.5t85.5 125.5t135.5 85.5t179 31.5q87 0 153.5 -28t112 -76t68.5 -112.5t23 -137.5q0 -44 -7.5 -84.5t-18.5 -76.5t-23.5 -65.5t-21.5 -50.5h257q36 0 54 -12t18 -41v-69q0 -19 -5.5 -30.5t-15.5 -17.5t-23 -8t-28 -2h-108zM344 439q0 -59 23 -106.5t63 -81.5
t93.5 -52.5t114.5 -18.5h63q12 17 26 43t25.5 57.5t19.5 68t8 75.5q0 55 -17.5 97t-46.5 70.5t-67 43t-79 14.5t-81.5 -12.5t-72.5 -38t-52 -65.5t-20 -94z" />
    <glyph glyph-name="uniFEDA" unicode="&#x643;" horiz-adv-x="1870" arabic-form="final" 
d="M542 0q-120 0 -207 13t-147 37t-97 57.5t-57 73.5t-27 86t-7 96q0 19 1.5 44t4.5 51.5t6.5 53t7.5 48.5l170 -16l-10 -70t-5 -70q0 -60 15 -102.5t64.5 -69.5t144.5 -39.5t255 -12.5h674q32 0 50.5 28t18.5 85v1144h181v-1170q48 -44 116 -65.5t168 -21.5h8q36 0 54 -12
t18 -41v-69q0 -19 -5.5 -30.5t-15.5 -17.5t-23 -8t-28 -2h-10q-58 0 -104.5 8.5t-84 24t-67.5 36t-55 44.5q-12 -23 -28.5 -43.5t-39.5 -36t-51.5 -24.5t-64.5 -9h-823zM1006 852q-10 2 -28.5 4.5t-41.5 2.5q-51 0 -83.5 -20t-32.5 -67q0 -22 10.5 -44.5t32 -40.5t54 -29.5
t76.5 -11.5h35v-99h-367v99h135q-10 7 -23.5 20t-25.5 32.5t-20 44.5t-8 55q0 31 12.5 60.5t38.5 52t65 36t93 13.5q21 0 44 -1t50 -6z" />
    <glyph glyph-name="uniFEDB" unicode="&#x643;" horiz-adv-x="829" arabic-form="initial" 
d="M0 0q-36 0 -54 12t-18 41v69q0 19 5.5 30.5t15.5 17.5t23 8t28 2h301q71 0 116.5 8.5t71.5 25t36 40t10 53.5q0 49 -27.5 97.5t-77.5 97t-119 96t-151 94.5l399 686l131 -92l-305 -534q69 -41 127 -89t99.5 -102.5t64.5 -114.5t23 -126q0 -71 -21 -129.5t-66 -101
t-116 -66t-172 -23.5h-324z" />
    <glyph glyph-name="uniFEDC" unicode="&#x643;" horiz-adv-x="956" arabic-form="medial" 
d="M0 0q-36 0 -54 12t-18 41v69q0 19 5.5 30.5t15.5 17.5t23 8t28 2h301q71 0 116.5 8.5t71.5 25t36 40t10 53.5q0 49 -27.5 97.5t-77.5 97t-119 96t-151 94.5l399 686l131 -92l-305 -534q69 -41 127 -89t99.5 -102.5t64.5 -114.5t23 -126q0 -42 -7 -76q46 -32 108.5 -48
t147.5 -16h8q36 0 54 -12t18 -41v-69q0 -19 -5.5 -30.5t-15.5 -17.5t-23 -8t-28 -2h-10q-58 0 -104.5 8.5t-84 24t-67.5 36t-55 44.5q-44 -54 -120 -83.5t-191 -29.5h-324z" />
    <glyph glyph-name="uniFEDE" unicode="&#x644;" horiz-adv-x="1451" arabic-form="final" 
d="M986 1437h179v-1175q48 -42 114.5 -62t163.5 -20h8q36 0 54 -12t18 -41v-69q0 -19 -5.5 -30.5t-15.5 -17.5t-23 -8t-28 -2h-10q-100 0 -166.5 24.5t-114.5 62.5q-13 -114 -58.5 -209t-121.5 -163t-182 -106t-241 -38q-142 0 -246.5 43.5t-173.5 116.5t-103 168.5
t-34 200.5q0 50 8.5 102.5t22.5 103t33.5 95.5t42.5 81l152 -85q-16 -26 -29 -58.5t-22 -68.5t-14 -73.5t-5 -73.5q0 -78 25 -146.5t73.5 -119t120 -80t163.5 -29.5q99 0 176 29.5t130 85t81 135.5t28 181v1258z" />
    <glyph glyph-name="uniFEDF" unicode="&#x644;" horiz-adv-x="612" arabic-form="initial" 
d="M0 0q-36 0 -54 12t-18 41v69q0 19 5.5 30.5t15.5 17.5t23 8t28 2h272v1257h180v-1437h-452z" />
    <glyph glyph-name="uniFEE0" unicode="&#x644;" horiz-adv-x="716" arabic-form="medial" 
d="M452 244q46 -32 108 -48t148 -16h8q36 0 54 -12t18 -41v-69q0 -19 -5.5 -30.5t-15.5 -17.5t-23 -8t-28 -2h-10q-105 0 -174.5 27t-118.5 69q-24 -41 -66.5 -68.5t-107.5 -27.5h-239q-36 0 -54 12t-18 41v69q0 19 5.5 30.5t15.5 17.5t23 8t28 2h202q32 0 50.5 28t18.5 85
v1144h181v-1193z" />
    <glyph glyph-name="uniFEE2" unicode="&#x645;" horiz-adv-x="1404" arabic-form="final" 
d="M442 120q-47 -5 -94.5 -19.5t-85.5 -47t-62 -87.5t-24 -139q0 -51 7 -112.5t21 -129.5t35.5 -140t50.5 -145l-168 -56q-23 67 -45 146t-39 157t-27.5 149t-10.5 122q0 84 18 148t46.5 112t65.5 82.5t74.5 60t73 44t61.5 34.5q29 107 65 184.5t75.5 132t80.5 88t81 52.5
t76.5 25.5t67.5 6.5q67 0 122 -19t98 -51.5t75 -75.5t53 -89.5t31 -94.5t10 -91q0 -63 -24 -129q45 -29 105 -43.5t141 -14.5h8q36 0 54 -12t18 -41v-69q0 -19 -5.5 -30.5t-15.5 -17.5t-23 -8t-28 -2h-10q-59 0 -106 9t-85 24.5t-68 36.5t-55 46q-48 -55 -120 -90.5
t-173 -35.5q-60 0 -112 11t-95.5 29.5t-78 42t-59.5 47.5zM1012 346q0 37 -13.5 84t-42 89t-72.5 70.5t-105 28.5q-58 0 -106.5 -31t-85.5 -81.5t-62 -115.5t-36 -134q10 -14 39 -29.5t67.5 -28t82 -20.5t83.5 -8q57 0 103.5 8t79.5 27.5t50.5 53.5t17.5 87z" />
    <glyph glyph-name="uniFEE3" unicode="&#x645;" horiz-adv-x="1188" arabic-form="initial" 
d="M308 138q-21 -39 -44.5 -65.5t-51 -42.5t-60.5 -23t-74 -7h-78q-36 0 -54 12t-18 41v69q0 19 5.5 30.5t15.5 17.5t23 8t28 2h47q62 0 110.5 28.5t65.5 90.5q29 107 65 184.5t75.5 132t80.5 88t81 52.5t76.5 25.5t67.5 6.5q67 0 122 -19t98 -51.5t75 -75.5t53 -89.5
t31 -94.5t10 -91q0 -39 -10 -82.5t-30 -85t-51.5 -79.5t-74.5 -67t-98 -46t-123 -17q-65 0 -121.5 13.5t-102 34.5t-81 47.5t-58.5 52.5zM896 346q0 37 -13.5 84t-42 89t-72.5 70.5t-105 28.5q-58 0 -106.5 -31t-85.5 -81.5t-62 -115.5t-36 -134q10 -14 39 -29.5t67.5 -28
t82 -20.5t83.5 -8q57 0 103.5 8t79.5 27.5t50.5 53.5t17.5 87z" />
    <glyph glyph-name="uniFEE4" unicode="&#x645;" horiz-adv-x="1310" arabic-form="medial" 
d="M308 138q-21 -39 -44.5 -65.5t-51 -42.5t-60.5 -23t-74 -7h-78q-36 0 -54 12t-18 41v69q0 19 5.5 30.5t15.5 17.5t23 8t28 2h47q62 0 110.5 28.5t65.5 90.5q29 107 65 184.5t75.5 132t80.5 88t81 52.5t76.5 25.5t67.5 6.5q67 0 122 -19t98 -51.5t75 -75.5t53 -89.5
t31 -94.5t10 -91q0 -55 -20 -117q47 -35 110.5 -52.5t153.5 -17.5h8q36 0 54 -12t18 -41v-69q0 -19 -5.5 -30.5t-15.5 -17.5t-23 -8t-28 -2h-10q-62 0 -111.5 10t-88.5 27.5t-70 41t-56 50.5q-48 -60 -122.5 -99.5t-180.5 -39.5q-65 0 -121.5 13.5t-102 34.5t-81 47.5
t-58.5 52.5zM896 346q0 37 -13.5 84t-42 89t-72.5 70.5t-105 28.5q-58 0 -106.5 -31t-85.5 -81.5t-62 -115.5t-36 -134q10 -14 39 -29.5t67.5 -28t82 -20.5t83.5 -8q57 0 103.5 8t79.5 27.5t50.5 53.5t17.5 87z" />
    <glyph glyph-name="uniFEE6" unicode="&#x646;" horiz-adv-x="1437" arabic-form="final" 
d="M986 179q0 28 -5 69.5t-14 87.5t-23 93t-32 86l177 50q11 -30 22 -67t20.5 -77.5t17.5 -83t12 -83.5q47 -38 111.5 -56t156.5 -18h8q36 0 54 -12t18 -41v-69q0 -19 -5.5 -30.5t-15.5 -17.5t-23 -8t-28 -2h-10q-93 0 -157.5 21t-111.5 56q-14 -112 -60 -205t-121.5 -160
t-181 -104t-238.5 -37q-142 0 -246.5 43.5t-173.5 116.5t-103 168.5t-34 200.5q0 50 8.5 102.5t22.5 103t33.5 95.5t42.5 81l152 -85q-16 -26 -29 -58.5t-22 -68.5t-14 -73.5t-5 -73.5q0 -78 25 -146.5t73.5 -119t120 -80t163.5 -29.5q99 0 176 29.5t130 85t81 135.5t28 181
zM586 931q0 22 8.5 41.5t22.5 34t33.5 23t41.5 8.5t41.5 -8.5t34 -23t23 -34t8.5 -41.5t-8.5 -41.5t-23 -33.5t-34 -22.5t-41.5 -8.5q-45 0 -75.5 30.5t-30.5 75.5z" />
    <glyph glyph-name="uniFEE7" unicode="&#x646;" horiz-adv-x="694" arabic-form="initial" 
d="M321 1132q0 22 8.5 41.5t22.5 34t33.5 23t41.5 8.5t41.5 -8.5t34 -23t23 -34t8.5 -41.5t-8.5 -41.5t-23 -33.5t-34 -22.5t-41.5 -8.5q-45 0 -75.5 30.5t-30.5 75.5zM0 0q-36 0 -54 12t-18 41v69q0 19 5.5 30.5t15.5 17.5t23 8t28 2h329v593h181v-773h-510z" />
    <glyph glyph-name="uniFEE8" unicode="&#x646;" horiz-adv-x="713" arabic-form="medial" 
d="M452 242q45 -31 106.5 -46.5t146.5 -15.5h8q36 0 54 -12t18 -41v-69q0 -19 -5.5 -30.5t-15.5 -17.5t-23 -8t-28 -2h-10q-104 0 -173 27t-118 68q-25 -40 -67 -67.5t-106 -27.5h-239q-36 0 -54 12t-18 41v69q0 19 5.5 30.5t15.5 17.5t23 8t28 2h202q32 0 50.5 28t18.5 85
v479h181v-530zM247 1132q0 22 8.5 41.5t22.5 34t33.5 23t41.5 8.5t41.5 -8.5t34 -23t23 -34t8.5 -41.5t-8.5 -41.5t-23 -33.5t-34 -22.5t-41.5 -8.5q-45 0 -75.5 30.5t-30.5 75.5z" />
    <glyph glyph-name="uniFEE9" unicode="&#x647;" horiz-adv-x="1470" arabic-form="isolated" 
d="M359 180q-32 60 -46.5 120t-14.5 120q0 105 44.5 195.5t129.5 148.5q-19 5 -33.5 8.5t-18.5 4.5q7 23 19 47t24 45t23 38t17 26q220 -44 375 -98t253 -130t143.5 -178.5t45.5 -243.5v-14t-1 -36.5t-3.5 -82t-6.5 -150.5h-1005q-50 0 -82.5 -14t-52.5 -39t-28.5 -61
t-10.5 -79h-87q-9 16 -16.5 35.5t-13.5 40.5t-9.5 41.5t-3.5 39.5q0 66 20 108t52.5 66t74 33t85.5 9h127zM455 437q0 -55 13 -98.5t32.5 -75.5t42 -53t42.5 -30h172q12 20 24.5 51.5t22 67t16 71t6.5 64.5q0 73 -16 122.5t-41.5 80.5t-56.5 44.5t-61 13.5
q-49 0 -85.5 -24.5t-61 -62.5t-37 -83.5t-12.5 -87.5zM1145 180q4 29 6.5 58.5t2.5 60.5q0 49 -10 98.5t-36 93t-72 79t-119 56.5q26 -42 37 -93t11 -105q0 -36 -4 -71t-11 -67.5t-16 -60.5t-19 -49h230z" />
    <glyph glyph-name="uniFEEA" unicode="&#x647;" horiz-adv-x="998" arabic-form="final" 
d="M616 672q-100 -19 -182 -45t-141 -60.5t-91.5 -77.5t-32.5 -97q0 -44 18.5 -74t48.5 -48t67 -26t75 -8q71 0 130.5 18t107.5 50v368zM795 320q0 -40 4.5 -67t19 -43t40.5 -23t69 -7h70q36 0 54 -12t18 -41v-69q0 -19 -5.5 -30.5t-15.5 -17.5t-23 -8t-28 -2h-115
q-67 0 -113.5 12.5t-77 33t-47 48t-24.5 57.5q-74 -45 -141 -64t-136 -19q-60 0 -121 17t-110.5 53.5t-81 93.5t-31.5 137q0 75 31 134.5t81.5 106.5t115.5 82t133.5 61.5t134.5 45.5t120 34v106h179v-619z" />
    <glyph glyph-name="uniFEEB" unicode="&#x647;" horiz-adv-x="1392" arabic-form="initial" 
d="M281 180q-32 60 -46.5 120t-14.5 120q0 105 44.5 195.5t129.5 148.5q-19 5 -33.5 8.5t-18.5 4.5q7 23 19 47t24 45t23 38t17 26q220 -44 375 -98t253 -130t143.5 -178.5t45.5 -243.5v-14t-1 -36.5t-3.5 -82t-6.5 -150.5h-1231q-36 0 -54 12t-18 41v69q0 19 5.5 30.5
t15.5 17.5t23 8t28 2h281zM679 180q12 20 24.5 51.5t22 67t16 71t6.5 64.5q0 73 -16 122.5t-41.5 80.5t-56.5 44.5t-61 13.5q-49 0 -85.5 -24.5t-61 -62.5t-37 -83.5t-12.5 -87.5q0 -55 13 -98.5t32.5 -75.5t42 -53t42.5 -30h172zM1067 180q4 29 6.5 58.5t2.5 60.5
q0 49 -10 98.5t-36 93t-72 79t-119 56.5q26 -42 37 -93t11 -105q0 -36 -4 -71t-11 -67.5t-16 -60.5t-19 -49h230z" />
    <glyph glyph-name="uniFEEC" unicode="&#x647;" horiz-adv-x="1179" arabic-form="medial" 
d="M0 0q-36 0 -54 12t-18 41v69q0 19 5.5 30.5t15.5 17.5t23 8t28 2h241q25 115 63 205.5t82 159t90.5 116t89 78t77 44t55.5 13.5q57 0 106.5 -32t86 -84t57.5 -117.5t21 -132.5q0 -76 -26 -138t-71 -107v-5h307q36 0 54 -12t18 -41v-69q0 -19 -5.5 -30.5t-15.5 -17.5
t-23 -8t-28 -2h-329v-5q44 -40 74 -102t30 -149q0 -81 -28 -144t-72 -105.5t-97.5 -65t-104.5 -22.5q-41 0 -88.5 11t-95.5 37.5t-93 71t-79.5 110t-55 155.5t-20.5 208h-220zM810 392q0 43 -13 82.5t-34 70t-47 49t-52 18.5q-15 0 -38 -16.5t-49.5 -45.5t-53.5 -69.5
t-50 -88.5t-40 -102t-22 -110h169q51 0 93.5 16t73 44.5t47 67t16.5 84.5zM384 0q0 -113 27.5 -193t69 -130t90.5 -73t93 -23q28 0 51.5 15t40.5 40t26.5 57.5t9.5 67.5q0 46 -15.5 89t-44 76.5t-69 53.5t-91.5 20h-188z" />
    <glyph glyph-name="uniFEEE" unicode="&#x648;" horiz-adv-x="1161" arabic-form="final" 
d="M589 0q-123 0 -207.5 35t-136.5 90.5t-75 125.5t-23 139q0 87 30 163t86 132.5t134.5 88.5t176.5 32q39 0 82 -7.5t84.5 -27t78.5 -52.5t65 -83.5t44.5 -121t16.5 -163.5v-171h216q36 0 54 -12t18 -41v-69q0 -19 -5.5 -30.5t-15.5 -17.5t-23 -8t-28 -2h-229
q-26 -109 -84 -185t-141.5 -125.5t-190 -77t-227.5 -39.5l-19 173q204 14 327.5 79.5t155.5 174.5h-164zM766 180v113q0 107 -19.5 174.5t-51 105t-72 51t-81.5 13.5q-46 0 -86 -17t-69.5 -48t-46.5 -74.5t-17 -95.5q0 -45 14.5 -85.5t46.5 -70.5t82 -48t122 -18h178z" />
    <glyph glyph-name="uniFEF0" unicode="&#x649;" horiz-adv-x="1981" arabic-form="final" 
d="M1099 375q0 199 101 299t312 100h266v-411q0 -61 6.5 -97t20 -55t33.5 -25t47 -6h96q36 0 54 -12t18 -41v-69q0 -19 -5.5 -30.5t-15.5 -17.5t-23 -8t-28 -2h-126q-49 0 -95 15t-82 49t-58 89.5t-22 136.5v313h-36q-66 0 -118 -9t-89 -36t-56.5 -75.5t-19.5 -127.5v-295
q0 -93 -41.5 -182t-120 -158.5t-192 -112t-257.5 -42.5q-137 0 -239.5 27t-177 71.5t-123 101.5t-77 116t-40 115t-11.5 99q0 56 8.5 110t24 103t37 90.5t46.5 73.5l148 -81q-19 -26 -34.5 -59.5t-27 -70.5t-17.5 -75.5t-6 -75.5q0 -34 7.5 -74t27.5 -80t55 -77.5t89 -66
t130.5 -45.5t179.5 -17q101 0 181 24.5t135.5 65.5t85 93t29.5 108v334z" />
    <glyph glyph-name="uniFEF2" unicode="&#x64a;" horiz-adv-x="1981" arabic-form="final" 
d="M1099 375q0 199 101 299t312 100h266v-411q0 -61 6.5 -97t20 -55t33.5 -25t47 -6h96q36 0 54 -12t18 -41v-69q0 -19 -5.5 -30.5t-15.5 -17.5t-23 -8t-28 -2h-126q-49 0 -95 15t-82 49t-58 89.5t-22 136.5v313h-36q-66 0 -118 -9t-89 -36t-56.5 -75.5t-19.5 -127.5v-295
q0 -93 -41.5 -182t-120 -158.5t-192 -112t-257.5 -42.5q-137 0 -239.5 27t-177 71.5t-123 101.5t-77 116t-40 115t-11.5 99q0 56 8.5 110t24 103t37 90.5t46.5 73.5l148 -81q-19 -26 -34.5 -59.5t-27 -70.5t-17.5 -75.5t-6 -75.5q0 -34 7.5 -74t27.5 -80t55 -77.5t89 -66
t130.5 -45.5t179.5 -17q101 0 181 24.5t135.5 65.5t85 93t29.5 108v334zM425 -681q0 22 8.5 41.5t22.5 34t33.5 23t41.5 8.5t41.5 -8.5t34 -23t23 -34t8.5 -41.5t-8.5 -41.5t-23 -33.5t-34 -22.5t-41.5 -8.5q-45 0 -75.5 30.5t-30.5 75.5zM710 -681q0 22 8.5 41.5t22.5 34
t33.5 23t41.5 8.5t41.5 -8.5t34 -23t23 -34t8.5 -41.5t-8.5 -41.5t-23 -33.5t-34 -22.5t-41.5 -8.5q-45 0 -75.5 30.5t-30.5 75.5z" />
    <glyph glyph-name="uniFEF3" unicode="&#x64a;" horiz-adv-x="784" arabic-form="initial" 
d="M0 0q-36 0 -54 12t-18 41v69q0 19 5.5 30.5t15.5 17.5t23 8t28 2h329v593h181v-773h-510zM126 -300q0 22 8.5 41.5t22.5 34t33.5 23t41.5 8.5t41.5 -8.5t34 -23t23 -34t8.5 -41.5t-8.5 -41.5t-23 -33.5t-34 -22.5t-41.5 -8.5q-45 0 -75.5 30.5t-30.5 75.5zM411 -300
q0 22 8.5 41.5t22.5 34t33.5 23t41.5 8.5t41.5 -8.5t34 -23t23 -34t8.5 -41.5t-8.5 -41.5t-23 -33.5t-34 -22.5t-41.5 -8.5q-45 0 -75.5 30.5t-30.5 75.5z" />
    <glyph glyph-name="uniFEF4" unicode="&#x64a;" horiz-adv-x="713" arabic-form="medial" 
d="M452 242q45 -31 106.5 -46.5t146.5 -15.5h8q36 0 54 -12t18 -41v-69q0 -19 -5.5 -30.5t-15.5 -17.5t-23 -8t-28 -2h-10q-104 0 -173 27t-118 68q-25 -40 -67 -67.5t-106 -27.5h-239q-36 0 -54 12t-18 41v69q0 19 5.5 30.5t15.5 17.5t23 8t28 2h202q32 0 50.5 28t18.5 85
v479h181v-530zM101 -300q0 22 8.5 41.5t22.5 34t33.5 23t41.5 8.5t41.5 -8.5t34 -23t23 -34t8.5 -41.5t-8.5 -41.5t-23 -33.5t-34 -22.5t-41.5 -8.5q-45 0 -75.5 30.5t-30.5 75.5zM386 -300q0 22 8.5 41.5t22.5 34t33.5 23t41.5 8.5t41.5 -8.5t34 -23t23 -34t8.5 -41.5
t-8.5 -41.5t-23 -33.5t-34 -22.5t-41.5 -8.5q-45 0 -75.5 30.5t-30.5 75.5z" />
    <glyph glyph-name=".notdef" horiz-adv-x="1021" 
d="M443 234v133h111v-133h-111zM449 466l-4 34q0 109 25 162q28 53 93 118q64 63 80 94q19 34 19 71q0 72 -45 120q-45 50 -107 50q-31 0 -58 -10.5t-48.5 -33.5t-36 -59t-20.5 -87l-100 16q13 141 88 207t181 66q105 0 176 -72q71 -71 71 -189q0 -62 -25 -117
q-26 -54 -100 -122q-73 -65 -86 -104q-12 -38 -12 -144h-91zM921 99v1231h-822v-1231h822zM1021 1431v-1431h-1021v1431h1021z" />
    <glyph glyph-name=".null" horiz-adv-x="1024" 
 />
    <glyph glyph-name=".null" horiz-adv-x="1024" 
 />
    <glyph glyph-name="nonmarkingreturn" unicode="&#xd;" horiz-adv-x="0" 
 />
    <glyph glyph-name="space" unicode=" " horiz-adv-x="569" 
 />
    <glyph glyph-name="space" unicode="&#xa0;" horiz-adv-x="569" 
 />
    <glyph glyph-name="exclam" unicode="!" horiz-adv-x="797" 
d="M285 229h229v-229h-229v229zM487 401h-176l-26 1029h229z" />
    <glyph glyph-name="quotedbl" unicode="&#x22;" 
d="M326 1430h180v-502h-180v502zM633 1430h180v-502h-180v502z" />
    <glyph glyph-name="numbersign" unicode="#" 
d="M709 848h-242l-37 -266h242zM252 426h-195v156h217l37 266h-196v156h219l59 426h156l-60 -426h242l60 426h155l-59 -426h194v-156h-217l-37 -266h195v-156h-217l-60 -426h-155l59 426h-241l-60 -426h-155z" />
    <glyph glyph-name="dollar" unicode="$" 
d="M506 -25h-25q-90 0 -164.5 15.5t-146.5 44.5l25 196q57 -41 124.5 -58t157.5 -17h29v497l-70 35q-60 31 -111.5 66t-89.5 79t-59.5 100.5t-21.5 131.5q0 78 27 142.5t74.5 113.5t112 81t138.5 44v205h119v-197q155 -5 293 -51l-29 -189q-101 60 -244 60h-20v-445l118 -65
q58 -31 103 -65.5t76 -77.5t47 -97.5t16 -124.5q0 -83 -25.5 -153t-72.5 -123.5t-113.5 -88t-148.5 -46.5v-205h-119v192zM625 178q65 21 104 80q39 58 39 129q0 83 -41 129q-41 45 -102 78v-416zM506 1257q-66 -24 -100.5 -66t-34.5 -120q0 -65 43 -107q44 -42 92 -73v366z
" />
    <glyph glyph-name="percent" unicode="%" horiz-adv-x="2048" 
d="M532 778q30 0 51.5 14t35.5 36.5t22 51.5t12 58.5t5 57t1 48.5v51.5t-2.5 58.5t-10 58t-21.5 50t-36.5 35.5t-56.5 13.5q-31 0 -52.5 -14t-35.5 -36.5t-22 -51t-11.5 -58.5t-4 -58t-0.5 -49q0 -20 0.5 -48t4 -57.5t11.5 -58.5t22 -51.5t35.5 -36.5t52.5 -14zM1516 -25
q-89 0 -148 35t-94.5 92.5t-50.5 131t-15 151.5q1 82 14 156.5t47 131t93.5 89.5t153.5 33q93 0 152.5 -33.5t94 -90.5t47.5 -131t13 -155q0 -78 -15 -151.5t-50.5 -131t-94.5 -92.5t-147 -35zM1393 1475h147l-887 -1520h-147zM1516 119q30 0 51 13.5t35 36t22 51.5t12 58.5
t5 57.5t1 49q0 35 -1 81t-12 87t-37 69.5t-76 28.5q-32 0 -53.5 -13.5t-35.5 -36t-22 -51t-11.5 -58t-4 -58t-0.5 -49.5t0.5 -49t4 -57.5t11.5 -58.5t22 -51.5t35.5 -36t53.5 -13.5zM532 635q-88 0 -147 35t-94.5 92.5t-50.5 131t-15 150.5q1 82 13.5 157t46.5 131.5
t93.5 89.5t153.5 32q93 0 152.5 -33.5t94 -90t48 -131t13.5 -155.5q0 -77 -15 -150.5t-50.5 -131t-95 -92.5t-147.5 -35z" />
    <glyph glyph-name="ampersand" unicode="&#x26;" horiz-adv-x="1479" 
d="M535 1114q0 -73 39 -131q20 -29 42 -57t46 -54q31 15 69 39t70 56t54 71t22 84q0 100 -49 137q-48 39 -121 39t-122 -46q-50 -47 -50 -138zM387 389q0 -58 23 -105.5t61.5 -81.5t89.5 -52.5t107 -18.5q51 0 92 14.5t73 35.5t56.5 45t42.5 42l-344 404
q-40 -29 -76.5 -56.5t-64 -60.5t-44 -73t-16.5 -93zM1327 772q-6 -87 -21 -157t-36.5 -128.5t-49 -108t-57.5 -95.5l250 -283h-256l-117 139q-39 -44 -82 -75t-92.5 -51t-107.5 -29t-127 -9q-107 0 -192.5 28.5t-145 81t-91.5 126.5t-32 164q0 162 87 260q88 99 232 158
q-56 68 -102 146q-45 76 -45 179q0 86 29.5 149.5t80 105t118.5 61.5t145 20q70 0 134 -19t113 -58.5t78 -100.5t29 -146q0 -67 -27.5 -124.5t-72 -104.5t-100.5 -83t-113 -60l291 -332q20 33 34.5 69t24.5 75q10 40 17 90t12 112h192z" />
    <glyph glyph-name="quotesingle" unicode="'" horiz-adv-x="569" 
d="M195 1430h180v-502h-180v502z" />
    <glyph glyph-name="parenleft" unicode="(" horiz-adv-x="682" 
d="M469 -287q-70 105 -131 212.5t-106.5 221t-72 234t-26.5 250.5t26.5 250t72 233t107 221t130.5 213h184q-59 -104 -116 -214.5t-101 -225.5t-71 -234.5t-27 -242.5q0 -124 26.5 -243.5t70 -234.5t100.5 -225t118 -215h-184z" />
    <glyph glyph-name="parenright" unicode=")" horiz-adv-x="682" 
d="M213 1548q70 -104 131.5 -212.5t107 -222.5t71.5 -234t26 -248q0 -131 -26.5 -250.5t-72 -232.5t-107 -221t-130.5 -214h-184q59 105 115.5 215.5t101 225t71.5 234t27 243.5q0 123 -26.5 243t-70 235t-100.5 225t-118 214h184z" />
    <glyph glyph-name="asterisk" unicode="*" 
d="M569 918l-168 -283l-151 102l225 252l-328 68l58 174l309 -127l-33 326h187l-31 -326l299 127l55 -174l-321 -68l219 -252l-154 -102z" />
    <glyph glyph-name="plus" unicode="+" horiz-adv-x="1229" 
d="M96 608h428v428h181v-428h428v-180h-428v-428h-181v428h-428v180z" />
    <glyph glyph-name="comma" unicode="," horiz-adv-x="668" 
d="M219 229h229l-174 -501h-184z" />
    <glyph glyph-name="hyphen" unicode="-" horiz-adv-x="682" 
d="M78 629h526v-156h-526v156z" />
    <glyph glyph-name="hyphen" unicode="&#x2010;" horiz-adv-x="682" 
d="M78 629h526v-156h-526v156z" />
    <glyph glyph-name="hyphen" unicode="&#xad;" horiz-adv-x="682" 
d="M78 629h526v-156h-526v156z" />
    <glyph glyph-name="period" unicode="." horiz-adv-x="669" 
d="M220 229h229v-229h-229v229z" />
    <glyph glyph-name="slash" unicode="/" horiz-adv-x="569" 
d="M440 1454h181l-492 -1479h-180z" />
    <glyph glyph-name="zero" unicode="0" 
d="M301 715q0 -44 3 -104t12 -123.5t27 -125.5t47.5 -110.5t73.5 -78.5t105 -30t105 30t74 78.5t48 110.5t27 125.5t12 123t3 104.5q0 34 -2.5 74.5t-7.5 89.5q-9 100 -37 189q-27 91 -81 154q-52 64 -141 64t-141 -64q-53 -63 -81 -154q-28 -89 -37 -189q-9 -98 -9 -164z
M84 715q0 58 5 119.5t15 127.5q21 130 74 240q52 108 148 180t243 72q148 0 243 -72q96 -72 148 -180q55 -109 74 -240q21 -131 21 -247q0 -118 -21 -248q-19 -129 -74 -240q-52 -107 -148 -180q-95 -72 -243 -72q-147 0 -243 72q-96 73 -148 180q-53 111 -74 240
q-10 66 -15 127.5t-5 120.5z" />
    <glyph glyph-name="one" unicode="1" 
d="M551 1194l-219 -188l-109 137l350 287h183v-1430h-205v1194z" />
    <glyph glyph-name="two" unicode="2" 
d="M102 219q57 49 123 107.5t133 122.5q40 36 86 79.5t91.5 92t88 101.5t75 108.5t52 113t19.5 115.5q0 50 -21.5 91.5t-58.5 71.5t-87 47t-107 17q-98 0 -183 -30q-86 -29 -145 -62l-21 176q91 39 183.5 61.5t191.5 22.5q96 0 180.5 -26t148 -77t100 -127t36.5 -177
q0 -68 -24.5 -136t-64 -133.5t-90.5 -127.5t-104 -118q-35 -38 -68 -71.5t-63 -63.5q-29 -29 -61.5 -59.5t-67.5 -61.5l-122 -108h686v-168h-906v219z" />
    <glyph glyph-name="three" unicode="3" 
d="M297 827h115q37 0 77.5 5t79.5 15.5t75 28.5t63 44t43 61t16 80q0 61 -23 104t-61.5 70t-89.5 39t-107 12q-99 0 -175 -22.5t-142 -55.5l-12 183q35 13 77 24t91 20q49 10 96.5 14.5t93.5 4.5q94 0 179 -23t149.5 -70.5t102.5 -121t38 -174.5q0 -69 -25 -123.5t-67.5 -95
t-98 -67.5t-116.5 -40v-4q142 -29 231 -114q88 -85 88 -240q0 -82 -22 -144t-61 -107t-92 -75t-115.5 -47.5t-132 -25t-140.5 -7.5q-87 0 -173 17.5t-155 38.5l13 190q28 -14 62 -27t76 -26q81 -25 175 -25q58 0 119.5 12.5t112.5 41t83.5 75.5t32.5 115q0 80 -29.5 132.5
t-78.5 83.5t-113.5 43.5t-134.5 12.5h-125v168z" />
    <glyph glyph-name="four" unicode="4" 
d="M705 326h-666v168l577 936h293v-936h181v-168h-181v-326h-204v326zM705 1262h-5l-446 -768h451v768z" />
    <glyph glyph-name="five" unicode="5" 
d="M979 1262h-594l-12 -383q28 8 75.5 14t108.5 6q94 0 178 -33.5t147.5 -92.5t100.5 -140t37 -176q0 -117 -44 -207t-119 -151t-174 -92.5t-210 -31.5q-117 0 -192.5 16.5t-114.5 31.5l6 192q33 -18 66 -31.5t68.5 -22.5t75.5 -13.5t87 -4.5q63 0 123 18.5t107 54.5
t75.5 89t28.5 121q0 76 -27 133t-74 95.5t-110 57.5t-135 19q-46 0 -84.5 -4t-71.5 -10.5t-62.5 -16.5t-58.5 -22l13 752h786v-168z" />
    <glyph glyph-name="six" unicode="6" 
d="M829 444q0 50 -14.5 101t-44 92.5t-74.5 67.5t-106 26q-65 0 -114.5 -22.5t-83.5 -61.5t-51 -91t-17 -112q0 -51 15.5 -104t46.5 -97t78.5 -72t110.5 -28q64 0 112 26t79.5 68t47 96t15.5 111zM952 1227q-113 59 -254 59q-100 0 -174 -43t-123.5 -115t-74.5 -166
t-27 -196l4 2q72 72 147.5 101.5t165.5 29.5q104 0 184.5 -34.5t135 -95t83 -143t28.5 -177.5q0 -111 -35 -198.5t-96.5 -149t-145.5 -94t-182 -32.5q-150 0 -244 61t-147 160q-52 100 -71.5 221t-19.5 245q0 144 27 287t93 254q67 112 178 181q112 70 282 70q36 0 80 -4
t85.5 -10.5t76.5 -14.5t53 -16z" />
    <glyph glyph-name="seven" unicode="7" 
d="M1006 1262l-529 -1262h-225l545 1262h-697v168h906v-168z" />
    <glyph glyph-name="eight" unicode="8" 
d="M317 1083q0 -73 75 -131q76 -58 220 -129q63 48 100.5 84.5t57 68.5t25.5 62.5t6 67.5q0 51 -23.5 85.5t-59.5 55.5t-78.5 30t-80.5 9q-35 0 -77 -12.5t-78.5 -37.5t-61.5 -63.5t-25 -89.5zM844 369q1 51 -11 88t-34 65t-52 48.5t-65 37.5t-73.5 33t-76.5 35
q-44 -32 -86 -57t-76 -55.5t-54.5 -72t-20.5 -104.5q0 -58 25 -103.5t65.5 -76.5t92.5 -47.5t106 -16.5q104 0 180 58q75 58 80 168zM565 -25q-91 0 -178.5 25.5t-156 76t-110.5 125.5t-42 173q0 142 87 237q88 95 216 140v4q-79 26 -130.5 66.5t-82 88t-43 99.5t-12.5 102
q0 69 31.5 131t91 109t145.5 74.5t194 27.5q106 0 188.5 -28t139 -73.5t86 -103t29.5 -116.5q0 -61 -13.5 -111.5t-44 -94.5t-80 -84t-120.5 -79q130 -45 215 -141q86 -95 86 -238q0 -108 -40 -185.5t-107.5 -127.5t-158 -73.5t-190.5 -23.5z" />
    <glyph glyph-name="nine" unicode="9" 
d="M309 985q0 -49 14.5 -100t44 -92.5t74.5 -68t107 -26.5q64 0 113.5 22.5t83.5 61.5t51.5 91.5t17.5 111.5q0 51 -15.5 104.5t-47 97t-78.5 71.5t-111 28q-65 0 -112.5 -25.5t-79 -67.5t-47 -96.5t-15.5 -111.5zM186 203q112 -60 254 -60q100 0 174.5 43t124 115t74.5 166
t27 197l-4 -2q-72 -72 -148 -102t-166 -30q-104 0 -184 34.5t-134.5 95.5t-83 143.5t-28.5 177.5q0 111 35 199t96.5 148.5t145.5 93t182 32.5q148 0 243 -62q94 -62 147 -159q26 -49 43.5 -104t27.5 -116t15 -122t5 -123q0 -146 -27 -288q-25 -141 -93 -254
q-66 -111 -178 -181q-110 -70 -281 -70q-36 0 -80 4t-85.5 10.5t-76.5 14.5t-53 16z" />
    <glyph glyph-name="colon" unicode=":" horiz-adv-x="669" 
d="M220 229h229v-229h-229v229zM449 815h-229v229h229v-229z" />
    <glyph glyph-name="semicolon" unicode=";" horiz-adv-x="668" 
d="M448 815h-229v229h229v-229zM219 229h229l-174 -501h-184z" />
    <glyph glyph-name="less" unicode="&#x3c;" horiz-adv-x="1229" 
d="M1135 872l-807 -354l807 -354v-180l-1041 456v156l1041 457v-181z" />
    <glyph glyph-name="equal" unicode="=" horiz-adv-x="1229" 
d="M96 393h1037v-180h-1037v180zM96 823h1037v-180h-1037v180z" />
    <glyph glyph-name="greater" unicode="&#x3e;" horiz-adv-x="1229" 
d="M94 164l807 354l-807 354v181l1041 -457v-156l-1041 -456v180z" />
    <glyph glyph-name="question" unicode="?" horiz-adv-x="1024" 
d="M399 229h230v-229h-230v229zM418 444q0 49 6 87.5t21 73t39.5 69t60.5 76.5q27 33 57 68t55.5 73.5t42.5 82t17 93.5q0 53 -21 92t-55.5 64.5t-79 38t-92.5 12.5q-103 0 -177.5 -22.5t-125.5 -59.5l-14 194q67 29 150.5 48.5t189.5 19.5q84 0 163.5 -23.5t141.5 -70.5
t99.5 -116.5t37.5 -162.5q0 -54 -13 -100t-35 -87t-51 -78.5t-60 -74t-62.5 -74.5t-59.5 -79q-24 -37 -33.5 -72t-9.5 -78v-37h-192v43z" />
    <glyph glyph-name="at" unicode="@" horiz-adv-x="1638" 
d="M1122 569q-6 -22 -11 -44.5t-5 -41.5q2 -22 8 -36.5t29 -14.5q44 0 88.5 30.5t80.5 83t58.5 122t22.5 147.5q0 120 -43 212.5t-117 155.5t-172.5 95.5t-210.5 32.5q-130 0 -236.5 -46.5t-183 -127.5t-118.5 -190.5t-42 -235.5q0 -146 45 -256.5t125 -185t190 -112.5
t240 -38q128 0 247 48q118 48 198 134h155q-101 -155 -261 -240q-161 -86 -347 -86q-157 0 -296.5 49.5t-242.5 144.5q-103 96 -162 232.5t-59 313.5q0 111 27 209.5t76 180.5t118 147t152.5 109.5t178.5 68.5t198 24q90 0 175.5 -20t161.5 -57.5t140 -91t110 -121
t71.5 -148t25.5 -170.5q0 -147 -55 -254q-55 -109 -130 -178q-73 -69 -159 -104q-83 -34 -141 -34q-48 0 -81.5 29t-37.5 86h-4q-39 -42 -101 -79q-59 -36 -122 -36q-64 0 -119.5 26.5t-96.5 71.5t-64.5 104.5t-23.5 125.5q0 96 31.5 188.5t89.5 165t139.5 116.5t180.5 44
q72 0 130 -31.5t103 -103.5l31 107h154zM750 444q57 0 105 32t83 81.5t54.5 108t19.5 112.5q0 74 -46 123t-112 49q-62 0 -112 -30t-85.5 -76.5t-55 -103t-19.5 -109.5q0 -41 11.5 -75.5t33.5 -59t53 -38.5t70 -14z" />
    <glyph glyph-name="A" unicode="A" horiz-adv-x="1479" 
d="M735 1237l-284 -709h569zM635 1430h215l604 -1430h-223l-146 360h-700l-145 -360h-215z" />
    <glyph glyph-name="B" unicode="B" horiz-adv-x="1251" 
d="M375 819h112q74 0 140.5 6.5t117 29.5t80 69t29.5 125q0 63 -24.5 104t-63 65.5t-85.5 34t-91 9.5h-215v-443zM375 168h153q70 0 133.5 9.5t112 35t77 70.5t28.5 116q0 83 -33 133t-86.5 76.5t-119.5 34.5t-132 8h-133v-483zM170 1430h387q111 0 203.5 -19.5t159 -62.5
t103 -112t36.5 -167q0 -146 -80 -226q-79 -79 -215 -114v-4q73 -6 134 -32t105 -70.5t68.5 -105.5t24.5 -136q0 -115 -44 -189t-119 -116.5t-174 -59t-208 -16.5h-381v1430z" />
    <glyph glyph-name="C" unicode="C" horiz-adv-x="1251" 
d="M1169 1194q-136 80 -295 80q-123 0 -224 -42t-173 -116.5t-111.5 -177t-39.5 -223.5q0 -126 42.5 -229.5t115.5 -176.5t171 -113t209 -40q38 0 81.5 4.5t85.5 13.5t80 22t65 29l12 -198q-42 -17 -84.5 -28t-87.5 -15q-90 -9 -154 -9q-170 0 -309 52.5t-237.5 150
t-152.5 235t-54 308.5q0 166 56.5 301t157 231t239 148.5t302.5 52.5q85 0 164.5 -13.5t157.5 -47.5z" />
    <glyph glyph-name="D" unicode="D" horiz-adv-x="1479" 
d="M375 180h215q132 0 234 32.5t171.5 99t105.5 168t36 239.5q0 125 -40 223.5t-110.5 166.5t-166 104t-206.5 36h-239v-1069zM170 1430h422q159 0 297.5 -48t242 -138.5t163 -221t59.5 -295.5q0 -180 -53 -316.5t-152 -227.5t-240 -137t-317 -46h-422v1430z" />
    <glyph glyph-name="E" unicode="E" 
d="M193 1430h800v-181h-596v-418h543v-180h-543v-471h596v-180h-800v1430z" />
    <glyph glyph-name="F" unicode="F" horiz-adv-x="1024" 
d="M170 1430h760v-181h-555v-418h530v-180h-530v-651h-205v1430z" />
    <glyph glyph-name="G" unicode="G" horiz-adv-x="1479" 
d="M1268 1176q-75 49 -165 73q-87 25 -229 25q-122 1 -223.5 -42t-174 -118.5t-112.5 -178t-38 -220.5q0 -126 42.5 -229.5t115.5 -176.5t171 -113t209 -40q53 0 88.5 2t60.5 5.5t43.5 8t37.5 8.5v434h-301v168h505v-743q-58 -21 -164 -42q-52 -11 -119.5 -16.5t-152.5 -5.5
q-170 0 -309 52.5t-237.5 150t-152.5 235t-54 308.5q0 166 56.5 301t157 231t239 148.5t302.5 52.5q79 0 137.5 -5.5t106 -15.5t89.5 -23t87 -28z" />
    <glyph glyph-name="H" unicode="H" horiz-adv-x="1479" 
d="M193 1430h204v-599h684v599h205v-1430h-205v651h-684v-651h-204v1430z" />
    <glyph glyph-name="I" unicode="I" horiz-adv-x="569" 
d="M182 1430h205v-1430h-205v1430z" />
    <glyph glyph-name="J" unicode="J" horiz-adv-x="797" 
d="M43 176q35 -12 67.5 -16t61.5 -4q70 0 115 19t71.5 55t37 87.5t10.5 116.5v996h204v-1061q0 -75 -19 -146t-65.5 -126t-123.5 -88.5t-193 -33.5q-104 0 -166 25v176z" />
    <glyph glyph-name="K" unicode="K" horiz-adv-x="1366" 
d="M193 1430h204v-629l611 629h272l-672 -676l725 -754h-299l-637 700v-700h-204v1430z" />
    <glyph glyph-name="L" unicode="L" horiz-adv-x="1024" 
d="M180 1430h205v-1250h598v-180h-803v1430z" />
    <glyph glyph-name="M" unicode="M" horiz-adv-x="1933" 
d="M184 1430h338l449 -1188l440 1188h338v-1430h-205v1237h-4l-473 -1237h-201l-473 1237h-4v-1237h-205v1430z" />
    <glyph glyph-name="N" unicode="N" horiz-adv-x="1479" 
d="M180 1430h279l631 -1151h4v1151h204v-1430h-262l-647 1176h-4v-1176h-205v1430z" />
    <glyph glyph-name="O" unicode="O" horiz-adv-x="1593" 
d="M109 715q0 159 46.5 294t134.5 234t216 155t291 56q162 0 289.5 -56t216 -155t135.5 -234t47 -294q0 -163 -46 -299t-134 -234t-216 -152.5t-292 -54.5t-292 54.5t-216 152.5t-134 234t-46 299zM326 715q0 -107 27.5 -207.5t85 -178.5t146.5 -125.5t212 -47.5t211.5 47.5
t146.5 125.5t85.5 178.5t27.5 207.5q-1 108 -30 209.5t-87.5 179.5t-147 124.5t-206.5 45.5q-119 1 -207 -45.5t-146.5 -124.5t-88 -179.5t-29.5 -209.5z" />
    <glyph glyph-name="P" unicode="P" 
d="M170 1430h375q110 0 207.5 -21.5t170.5 -71.5t115.5 -132t42.5 -204q0 -118 -43 -200t-113.5 -133t-161.5 -74t-188 -23h-200v-571h-205v1430zM375 752h203q48 0 98.5 12.5t92 42t68.5 78t27 119.5q0 67 -31.5 114t-79 76t-102.5 42t-102 13h-174v-497z" />
    <glyph glyph-name="Q" unicode="Q" horiz-adv-x="1593" 
d="M911 -16q-28 -4 -56 -6.5t-58 -2.5q-164 0 -292 54.5t-216 152.5t-134 234t-46 299q0 159 46.5 294t134.5 234t216 155t291 56q162 0 289.5 -56t216 -155t135.5 -234t47 -294q0 -243 -100 -419q-99 -176 -285 -259l332 -301h-254zM326 715q0 -107 27.5 -207.5t85 -178.5
t146.5 -125.5t212 -47.5t211.5 47.5t146.5 125.5t85.5 178.5t27.5 207.5q-1 108 -30 209.5t-87.5 179.5t-147 124.5t-206.5 45.5q-119 1 -207 -45.5t-146.5 -124.5t-88 -179.5t-29.5 -209.5z" />
    <glyph glyph-name="R" unicode="R" horiz-adv-x="1251" 
d="M375 815h174q148 0 228.5 59t80.5 164q0 100 -72 155.5t-215 55.5h-196v-434zM170 1430h350q54 0 105.5 -2.5t100.5 -10t93.5 -20t83.5 -33.5t70.5 -49.5t54 -67.5t35 -90t12.5 -115q0 -65 -23 -120.5t-62.5 -97.5t-93.5 -69.5t-116 -37.5v-4q23 -10 42.5 -22t33.5 -27
q30 -30 64 -95l270 -569h-234l-219 496q-24 51 -49 79.5t-53.5 41.5t-61.5 15.5t-75 2.5h-123v-635h-205v1430z" />
    <glyph glyph-name="S" unicode="S" horiz-adv-x="1024" 
d="M831 1214q-38 15 -70 26t-62.5 18.5t-63 11.5t-72.5 4q-43 0 -87.5 -9t-80.5 -31t-59 -59t-23 -92q0 -70 45 -113q45 -45 114 -81.5t148 -72.5q58 -28 113.5 -63.5t99 -84.5t69.5 -114t26 -153q0 -114 -41.5 -195t-113 -132t-166.5 -75t-201 -24q-76 0 -148.5 18.5
t-144.5 41.5l20 190q27 -10 61.5 -22t73.5 -22.5t80.5 -17.5t81.5 -7q43 0 92.5 13t91.5 41t69.5 72t27.5 107q0 60 -26 102.5t-69.5 75t-99 59t-113 54t-113 60t-99 77t-69.5 105t-26 143.5q0 94 35.5 167t98 122t146 74.5t179.5 25.5q72 0 151 -12t154 -39z" />
    <glyph glyph-name="T" unicode="T" 
d="M467 1249h-444v181h1093v-181h-444v-1249h-205v1249z" />
    <glyph glyph-name="U" unicode="U" horiz-adv-x="1479" 
d="M1294 592q0 -152 -36.5 -267t-107.5 -193t-174.5 -117.5t-236.5 -39.5q-266 0 -411 157q-144 157 -144 460v838h205v-812q0 -102 17.5 -187t58.5 -146t108 -95t166 -34t166.5 34t108.5 95t58.5 146t17.5 187v812h204v-838z" />
    <glyph glyph-name="V" unicode="V" horiz-adv-x="1366" 
d="M807 0h-256l-539 1430h230l440 -1250h4l453 1250h215z" />
    <glyph glyph-name="W" unicode="W" horiz-adv-x="2048" 
d="M4 1430h225l342 -1225h4l306 1225h290l310 -1225h4l342 1225h217l-440 -1430h-265l-311 1249h-4l-313 -1249h-275z" />
    <glyph glyph-name="X" unicode="X" horiz-adv-x="1366" 
d="M543 743l-480 687h246l381 -549l379 549h234l-482 -682l529 -748h-258l-422 606l-408 -606h-246z" />
    <glyph glyph-name="Y" unicode="Y" horiz-adv-x="1366" 
d="M582 598l-559 832h239l426 -642l416 642h239l-557 -832v-598h-204v598z" />
    <glyph glyph-name="Z" unicode="Z" 
d="M66 184l741 1065h-717v181h952v-185l-739 -1065h752v-180h-989v184z" />
    <glyph glyph-name="bracketleft" unicode="[" horiz-adv-x="682" 
d="M195 1548h387v-143h-207v-1548h207v-144h-387v1835z" />
    <glyph glyph-name="backslash" unicode="\" horiz-adv-x="569" 
d="M-51 1454h180l492 -1479h-181z" />
    <glyph glyph-name="bracketright" unicode="]" horiz-adv-x="682" 
d="M487 -287h-387v144h207v1548h-207v143h387v-1835z" />
    <glyph glyph-name="asciicircum" unicode="^" horiz-adv-x="1229" 
d="M530 1430h168l408 -828h-184l-308 639l-307 -639h-184z" />
    <glyph glyph-name="underscore" unicode="_" horiz-adv-x="1024" 
d="M1024 -154v-102h-1024v102h1024z" />
    <glyph glyph-name="grave" unicode="`" horiz-adv-x="569" 
d="M420 1190h-137l-269 295h224z" />
    <glyph glyph-name="a" unicode="a" 
d="M784 498q-30 0 -61 2t-61 2q-20 0 -45 -1.5t-56 -3.5q-60 -4 -120 -26q-58 -19 -100 -60t-42 -110q0 -41 18 -72.5t46.5 -53t63 -33t67.5 -11.5q143 0 216 79q74 80 74 196v92zM213 971q72 43 158 70.5t186 27.5q225 0 322 -109q98 -109 98 -323v-432q0 -90 2 -136t6 -69
h-180v135h-4q-17 -24 -45 -52t-68.5 -52t-93 -40t-117.5 -16q-84 0 -154.5 18.5t-121.5 58.5t-79 101.5t-28 147.5q0 49 12.5 90t35 74t53.5 59t67 46q72 40 158 57q85 18 160 18h102q23 0 48 -1t54 -3q0 135 -56 203q-56 69 -202 69q-82 0 -162.5 -28.5t-140.5 -77.5z" />
    <glyph glyph-name="b" unicode="b" horiz-adv-x="1251" 
d="M952 526q2 70 -13.5 139.5t-50 124.5t-89.5 89t-133 34q-79 0 -137 -33.5t-96.5 -89t-57.5 -126t-19 -144.5q0 -65 17.5 -134t54.5 -125.5t95.5 -93t140.5 -36.5q77 0 132 38.5t90.5 97.5t51 128t14.5 131zM164 1536h192v-635h4q46 71 127 120q82 48 220 48
q113 0 197.5 -43t140.5 -116t84 -168.5t28 -200.5q0 -109 -25.5 -210.5t-80 -180.5t-139.5 -126.5t-203 -48.5q-71 0 -128 16.5t-101.5 41.5t-76.5 55.5t-51 58.5h-4v-147h-184v1536z" />
    <glyph glyph-name="c" unicode="c" horiz-adv-x="909" 
d="M827 868q-55 23 -108 34t-101 11q-80 0 -142 -33t-105 -88t-65.5 -125t-22.5 -145q0 -69 19.5 -139t61.5 -126t108 -91t159 -35q49 0 105.5 15.5t101.5 43.5l14 -172q-60 -28 -124 -35.5t-118 -7.5q-118 0 -215.5 43.5t-168 118t-109.5 174t-39 211.5q0 119 38.5 219.5
t108 173t167.5 113.5t218 41q62 0 126 -13q70 -12 108 -28z" />
    <glyph glyph-name="d" unicode="d" horiz-adv-x="1251" 
d="M299 526q-1 -41 5.5 -86t21.5 -89t38.5 -84t56 -70t74 -48t93.5 -18q82 0 140 36.5t95 93t54.5 125.5t17.5 134q0 74 -19 144.5t-57.5 126t-96.5 89t-136 33.5t-133.5 -33.5t-90 -88t-50 -124t-13.5 -141.5zM903 147h-4q-18 -29 -50.5 -59t-77.5 -55.5t-102 -41.5
t-126 -16q-119 0 -204 48.5t-139.5 128t-80 181t-25.5 208.5q0 105 27.5 200.5t84 168.5t141 116t198.5 43q136 0 219 -48q82 -48 127 -120h4v635h192v-1536h-184v147z" />
    <glyph glyph-name="e" unicode="e" 
d="M840 623q0 60 -17.5 112.5t-50.5 92t-81.5 62.5t-110.5 23q-72 0 -122.5 -26.5t-83.5 -68.5t-51 -93.5t-24 -101.5h541zM965 43q-29 -10 -59.5 -21.5t-69.5 -22t-88 -17.5t-113 -7q-138 0 -240 41t-169 115t-99.5 178.5t-32.5 231.5q0 115 35 212t99.5 167.5t154.5 109.5
t201 39q130 0 218.5 -45t142 -124.5t76.5 -187t23 -233.5h-745q0 -77 28 -141t75.5 -110t110 -71.5t130.5 -25.5q49 0 98.5 11t93 27t78 34t52.5 33v-193z" />
    <glyph glyph-name="f" unicode="f" horiz-adv-x="797" 
d="M289 889h-246v155h246v97q0 95 14.5 172.5t53 132.5t106.5 85t176 30q37 0 68.5 -4.5t60.5 -8.5l-8 -155q-17 6 -42.5 9t-49.5 3q-62 0 -99 -19t-56.5 -52t-25.5 -78.5t-6 -98.5v-113h277v-155h-277v-889h-192v889z" />
    <glyph glyph-name="g" unicode="g" horiz-adv-x="1251" 
d="M590 156q67 0 123.5 27.5t96.5 75.5t62.5 112.5t22.5 138.5q0 81 -19 154.5t-57.5 128.5t-95.5 87.5t-133 32.5q-73 0 -127.5 -35.5t-91 -92t-54.5 -125.5t-18 -136q0 -74 20 -140.5t57.5 -117t91.5 -80.5t122 -30zM1087 45q0 -239 -129 -369q-129 -131 -409 -131
q-41 0 -81 3t-84.5 10.5t-96 21.5t-113.5 37l21 178q56 -24 101.5 -42t88.5 -29.5t87.5 -17t98.5 -5.5q154 0 239 97q85 95 85 261v103h-4q-60 -81 -156 -122q-93 -40 -194 -40q-113 0 -197 42t-139.5 113t-83 164t-27.5 195q0 67 13 134t38.5 129t64 115t90.5 92.5t117 62
t144 22.5q69 0 123.5 -12t96.5 -35t72.5 -56.5t51.5 -76.5h4v155h178v-999z" />
    <glyph glyph-name="h" unicode="h" horiz-adv-x="1251" 
d="M164 1536h192v-641h4q54 85 139.5 129.5t196.5 44.5q202 0 297 -119q94 -118 94 -329v-621h-192v541q0 183 -47 274t-174 98q-83 0 -143 -31.5t-99 -88.5t-57.5 -136t-18.5 -174v-483h-192v1536z" />
    <glyph glyph-name="i" unicode="i" horiz-adv-x="569" 
d="M393 1278h-217v217h217v-217zM188 1044h193v-1044h-193v1044z" />
    <glyph glyph-name="j" unicode="j" horiz-adv-x="569" 
d="M393 1278h-217v217h217v-217zM-27 -281q19 -4 34.5 -5t43.5 -1q68 0 102.5 59.5t34.5 161.5v1110h193v-1081q0 -29 -1.5 -61t-3.5 -68t-11 -70t-23 -66q-29 -65 -88 -109t-168 -44q-31 0 -64.5 2t-54.5 7z" />
    <glyph glyph-name="k" unicode="k" 
d="M164 1536h192v-915l420 423h262l-485 -462l547 -582h-277l-467 537v-537h-192v1536z" />
    <glyph glyph-name="l" unicode="l" horiz-adv-x="569" 
d="M188 1536h193v-1536h-193v1536z" />
    <glyph glyph-name="m" unicode="m" horiz-adv-x="1821" 
d="M162 1044h180v-151h4q55 92 135 134t197 42q90 0 173 -48q84 -49 124 -155q26 56 67 95t86.5 63t90.5 34.5t79 10.5q100 0 169 -30.5t112 -84t62.5 -126.5t19.5 -158v-670h-193v623q0 48 -7.5 99.5t-27.5 94t-56.5 69.5t-94.5 27q-74 0 -126 -33t-85 -87t-48 -123.5
t-15 -143.5v-526h-193v623q0 48 -7.5 99.5t-27.5 94t-56.5 69.5t-94.5 27q-74 0 -126 -33t-85 -87t-48.5 -123.5t-15.5 -143.5v-526h-192v1044z" />
    <glyph glyph-name="n" unicode="n" horiz-adv-x="1251" 
d="M164 1044h186v-165h4q44 91 137 140q95 50 205 50q202 0 297 -119q94 -118 94 -329v-621h-192v541q0 183 -47 274t-174 98q-83 0 -143 -31.5t-99 -88.5t-57.5 -136t-18.5 -174v-483h-192v1044z" />
    <glyph glyph-name="o" unicode="o" horiz-adv-x="1251" 
d="M299 522q0 -69 19.5 -139t59.5 -126t102 -91t147 -35q84 0 145.5 35t101 91t59 126t19.5 139q0 75 -22 145t-64 125t-102.5 88t-136.5 33q-77 0 -138 -33t-103 -88t-64.5 -125t-22.5 -145zM94 522q0 119 38.5 219.5t108 173t168 113.5t218.5 41q119 0 217 -41
t167.5 -113.5t107.5 -173t38 -219.5q0 -112 -39 -211.5t-109 -174t-167.5 -118t-214.5 -43.5q-118 0 -216 43.5t-168.5 118t-109.5 174t-39 211.5z" />
    <glyph glyph-name="p" unicode="p" horiz-adv-x="1251" 
d="M952 526q2 70 -13.5 139.5t-50 124.5t-89.5 89t-133 34q-79 0 -137 -33.5t-96.5 -89t-57.5 -126t-19 -144.5q0 -65 17.5 -134t54.5 -125.5t95.5 -93t140.5 -36.5q51 0 92.5 18t74 48t56 70t38.5 84t21.5 89t5.5 86zM164 1044h184v-147h4q19 29 50.5 59.5t76 55.5t102 41
t126.5 16q113 0 197.5 -43t140.5 -116t84 -168.5t28 -200.5q0 -109 -25.5 -210.5t-80 -180.5t-139.5 -126.5t-203 -48.5q-140 0 -222 48q-80 49 -127 120h-4v-573h-192v1474z" />
    <glyph glyph-name="q" unicode="q" horiz-adv-x="1251" 
d="M299 526q-1 -41 5.5 -86t21.5 -89t38.5 -84t56 -70t74 -48t93.5 -18q82 0 140 36.5t95 93t54.5 125.5t17.5 134q0 74 -19 144.5t-57.5 126t-96.5 89t-136 33.5t-133.5 -33.5t-90 -88t-50 -124t-13.5 -141.5zM1087 -430h-192v567h-4q-46 -75 -139 -118q-94 -44 -209 -44
q-119 0 -204 48.5t-139.5 128t-80 181t-25.5 208.5q0 105 27.5 200.5t84 168.5t141 116t198.5 43q68 0 125 -16t102 -41t77 -56t50 -61h4v149h184v-1474z" />
    <glyph glyph-name="r" unicode="r" horiz-adv-x="797" 
d="M164 1044h180v-161h4q38 81 114 134q74 52 159 52q43 0 69.5 -4t57.5 -10v-172q-27 10 -54.5 14t-52.5 4q-129 0 -207 -115q-78 -114 -78 -311v-475h-192v1044z" />
    <glyph glyph-name="s" unicode="s" horiz-adv-x="797" 
d="M86 205q29 -19 62 -33t65.5 -23t62 -13.5t50.5 -4.5q32 0 67 7t63.5 24.5t47 46t18.5 72.5q0 35 -19.5 62t-51 49.5t-72.5 42t-83 41t-83 46t-72.5 56.5t-51 73.5t-19.5 96.5q0 81 28 141.5t77.5 100.5t117 59.5t145.5 19.5q69 0 126 -12.5t114 -28.5l-16 -168
q-17 10 -44.5 19.5t-57.5 17t-57.5 12t-43.5 4.5q-75 0 -130 -31q-55 -30 -55 -96q0 -40 19.5 -68.5t51.5 -50t72.5 -40t82.5 -39.5q42 -20 83 -43.5t72.5 -56.5t51.5 -78.5t20 -108.5q0 -84 -31 -145.5t-82 -101.5t-116.5 -59.5t-135.5 -19.5q-73 0 -146.5 11.5
t-139.5 46.5z" />
    <glyph glyph-name="t" unicode="t" horiz-adv-x="797" 
d="M719 889h-277v-572q0 -93 48 -139q50 -47 114 -47q45 0 77 11.5t54 25.5v-164q-33 -10 -74.5 -19.5t-89.5 -9.5q-150 0 -235 73q-86 74 -86 231v610h-236v155h236v242l192 62v-304h277v-155z" />
    <glyph glyph-name="u" unicode="u" horiz-adv-x="1251" 
d="M1087 0h-186v166h-4q-44 -91 -137 -141q-95 -50 -205 -50q-202 0 -297 119q-94 118 -94 330v620h192v-540q0 -184 47 -275q48 -91 175 -98q82 0 142 31.5t99 88.5t57.5 136t18.5 174v483h192v-1044z" />
    <glyph glyph-name="v" unicode="v" horiz-adv-x="1024" 
d="M627 0h-230l-374 1044h210l283 -851h4l289 851h192z" />
    <glyph glyph-name="w" unicode="w" horiz-adv-x="1706" 
d="M1346 0h-224l-270 877h-4l-264 -877h-224l-335 1044h211l239 -864h4l266 864h228l262 -864h4l254 864h188z" />
    <glyph glyph-name="x" unicode="x" horiz-adv-x="1024" 
d="M397 547l-340 497h240l227 -372l232 372h215l-336 -497l369 -547h-238l-258 410l-258 -410h-230z" />
    <glyph glyph-name="y" unicode="y" horiz-adv-x="1024" 
d="M86 -283q18 -6 42 -11t48 -5q64 0 108 38q45 38 71 84q28 46 39 87q12 40 12 49q0 14 -14 50l-23 61l-355 974h211l281 -864h4l287 864h194l-385 -1067q-26 -75 -56.5 -152t-75.5 -139.5t-110 -101.5t-159 -39q-47 0 -76 5.5t-55 9.5z" />
    <glyph glyph-name="z" unicode="z" horiz-adv-x="1024" 
d="M88 168l602 721h-573v155h796v-167l-602 -721h625v-156h-848v168z" />
    <glyph glyph-name="braceleft" unicode="{" horiz-adv-x="682" 
d="M643 1405h-108q-32 0 -52 -13.5t-31.5 -36t-15.5 -50.5t-4 -56v-370q0 -68 -22 -113t-52 -73.5t-62 -42t-52 -17.5v-4q20 -2 52 -14t62 -40t52 -76t22 -122v-365q0 -29 4 -56.5t15.5 -49.5t31.5 -35.5t52 -13.5h108v-144h-160q-37 0 -77.5 16.5t-74.5 49.5t-56.5 81
t-22.5 111v373q0 52 -16 92t-41.5 67.5t-57 41.5t-61.5 14v143q30 0 61.5 14t57 40t41.5 64.5t16 86.5v383q0 64 22.5 112t56.5 80.5t74.5 49t77.5 16.5h160v-143z" />
    <glyph glyph-name="bar" unicode="|" horiz-adv-x="455" 
d="M317 1536v-2048h-180v2048h180z" />
    <glyph glyph-name="braceright" unicode="}" horiz-adv-x="682" 
d="M39 -143h108q32 0 52 13.5t31.5 35.5t15.5 49.5t4 56.5v371q0 67 22 112.5t52 74t62 42t52 17.5v4q-20 2 -52 13.5t-62 40t-52 76.5t-22 122v364q0 28 -4 56t-15.5 50.5t-31.5 36t-52 13.5h-108v143h160q37 0 77.5 -16.5t74.5 -49t56.5 -80.5t22.5 -112v-372
q0 -53 16 -93.5t41.5 -67.5t56.5 -41t62 -14v-143q-31 0 -62 -14t-56.5 -40t-41.5 -64.5t-16 -86.5v-383q0 -63 -22.5 -111t-56.5 -81t-74.5 -49.5t-77.5 -16.5h-160v144z" />
    <glyph glyph-name="asciitilde" unicode="~" horiz-adv-x="1229" 
d="M1087 539q-16 -33 -38.5 -64.5t-54 -55.5t-72 -39t-91.5 -15q-54 0 -110.5 18t-116.5 45q-29 13 -57 25t-56 25q-57 26 -96 26q-31 0 -56 -13.5t-47 -35t-40.5 -48t-36.5 -53.5l-74 144q17 32 40 63t54 56t71 40t91 15q54 0 111 -18.5t117 -45.5q29 -12 56.5 -24.5
t55.5 -25.5q57 -26 97 -26q31 0 56 13.5t46 35t40 48t38 53.5z" />
    <glyph glyph-name="exclamdown" unicode="&#xa1;" horiz-adv-x="797" 
d="M285 1044h229v-229h-229v229zM514 -385h-229l26 1028h176z" />
    <glyph glyph-name="cent" unicode="&#xa2;" 
d="M449 47q-126 71 -197 197q-70 124 -70 278q0 119 38.5 219.5t108 173t168 113.5t218.5 41h12q6 0 16 -2l68 231h117l-72 -243q29 -6 52.5 -12.5t39.5 -14.5l-16 -160q-63 28 -119 35l-215 -747q29 -11 63.5 -18t73.5 -7q49 0 105.5 15.5t101.5 43.5l14 -172
q-60 -28 -123.5 -35.5t-117.5 -7.5q-90 0 -162 25l-80 -272h-117zM698 911q-75 -6 -132.5 -40.5t-97.5 -88t-60.5 -121t-20.5 -139.5q0 -81 26.5 -160t86.5 -139z" />
    <glyph glyph-name="sterling" unicode="&#xa3;" 
d="M121 180h186v533h-162v118h162v115q0 111 32 204t94.5 160.5t155 105.5t214.5 38q78 0 135.5 -11t105.5 -28l-16 -190q-42 18 -91.5 33.5t-113.5 15.5q-80 0 -138.5 -23.5t-96.5 -67.5t-57 -107.5t-19 -143.5v-101h330v-118h-330v-533h506v-180h-897v180z" />
    <glyph glyph-name="currency" unicode="&#xa4;" 
d="M242 715q0 -71 26 -133t70.5 -108t104 -72.5t126.5 -26.5q71 0 131 27.5t104 74.5t68.5 108.5t24.5 129.5q0 67 -24.5 128.5t-68.5 108.5t-104 75t-131 28q-68 0 -128 -27t-104 -73.5t-69.5 -108t-25.5 -131.5zM164 416q-51 60 -77 136t-26 163q0 84 25 163.5t78 139.5
l-115 110l105 107l112 -113q60 48 140.5 74.5t162.5 26.5q87 0 166 -26.5t142 -74.5l110 113l103 -107l-111 -110q49 -55 73.5 -135.5t24.5 -167.5q0 -85 -24.5 -162t-73.5 -137l111 -117l-103 -104l-110 116q-60 -51 -140 -77.5t-168 -26.5q-87 0 -165 25t-138 79
l-112 -116l-105 104z" />
    <glyph glyph-name="yen" unicode="&#xa5;" 
d="M469 332h-289v119h289v147l-16 33h-273v119h207l-375 680h228l335 -642l324 642h227l-370 -680h207v-119h-273l-16 -33v-147h289v-119h-289v-332h-205v332z" />
    <glyph glyph-name="brokenbar" unicode="&#xa6;" horiz-adv-x="455" 
d="M317 358v-716h-180v716h180zM317 1382v-716h-180v716h180z" />
    <glyph glyph-name="section" unicode="&#xa7;" 
d="M352 664q0 -63 45 -103q23 -20 49 -38t57 -32q61 -29 126 -48q32 -10 59 -19t47 -18q15 17 28 34t23.5 35t16.5 39t6 45q0 64 -44 105t-106 68q-62 28 -126 48q-32 11 -58.5 21.5t-46.5 21.5q-76 -57 -76 -159zM201 -14q73 -39 160 -55.5t178 -16.5q44 0 87.5 11t78 34
t56 58t21.5 83q0 41 -26 69t-69 50t-97.5 40.5t-112.5 39.5q-40 14 -77 30.5t-71 36.5q-68 41 -112 101q-45 61 -45 158q0 88 37.5 148.5t112.5 105.5q-70 39 -106 100.5t-36 142.5q-1 86 38.5 148.5t102 103.5t139 60.5t150.5 19.5q76 0 148 -10t147 -29l-18 -186
q-57 24 -123.5 40.5t-126.5 16.5q-37 0 -83 -6t-86 -22.5t-67.5 -47.5t-27.5 -80q0 -61 46 -98t113.5 -64.5t148.5 -53.5q82 -26 148 -64q67 -39 114 -99q46 -58 46 -153q0 -93 -39 -148q-38 -54 -106 -110q60 -39 95.5 -100.5t35.5 -133.5q0 -65 -20 -117t-54.5 -92
t-80.5 -68.5t-97.5 -47t-105.5 -27t-105 -8.5q-81 0 -162 10.5t-168 40.5z" />
    <glyph glyph-name="dieresis" unicode="&#xa8;" horiz-adv-x="569" 
d="M356 1409h193v-205h-193v205zM20 1409h193v-205h-193v205z" />
    <glyph glyph-name="copyright" unicode="&#xa9;" horiz-adv-x="1638" 
d="M260 715q0 -130 44 -239t119.5 -188.5t177.5 -124t218 -44.5t218 44.5t177.5 124t119.5 188.5t44 239t-44 239t-119.5 188.5t-177.5 124t-218 44.5t-218 -44.5t-177.5 -124t-119.5 -188.5t-44 -239zM80 715q0 102 26.5 196.5t74.5 176.5t115.5 149.5t149.5 115.5
t176.5 74.5t196.5 26.5t196.5 -26.5t177 -74.5t149.5 -115.5t115.5 -149.5t75 -176.5t26.5 -196.5t-26.5 -196.5t-74.5 -176.5t-116 -150t-150 -116t-176.5 -74.5t-196.5 -26.5t-196.5 26.5t-176.5 75t-149.5 115.5t-115.5 149.5t-74.5 177t-26.5 196.5zM1192 584
q-26 -155 -124 -237q-100 -83 -230 -83q-97 0 -174.5 34.5t-132 95.5t-84 143t-29.5 178t28 178t81 141.5t129.5 93t174.5 33.5q68 0 129.5 -20.5t109.5 -59.5t80 -96.5t42 -130.5h-150q-16 76 -72.5 120t-135.5 44q-65 0 -114 -22.5t-81.5 -62.5t-49 -95t-16.5 -119
q0 -67 18.5 -124t52.5 -98.5t83 -65t111 -23.5q85 0 139.5 45.5t64.5 130.5h150z" />
    <glyph glyph-name="ordfeminine" unicode="&#xaa;" horiz-adv-x="739" 
d="M434 1096q-30 0 -68 -3.5t-71.5 -15t-56.5 -33.5t-23 -59t39 -55q40 -17 82 -17q87 0 133.5 28.5t46.5 94.5v56q-14 0 -33.5 2t-48.5 2zM129 1397q60 30 120 43.5t120 13.5q71 0 129 -10.5t99.5 -39.5t64 -79.5t22.5 -130.5v-262q0 -54 4 -81.5t2 -39.5h-172v78h-4
q-35 -53 -87 -73.5t-114 -20.5q-38 0 -84.5 8.5t-87 30.5t-67.5 60t-27 97q0 44 17 76.5t45.5 56t64.5 39t74.5 24t75.5 12t67 3.5h66q14 0 28.5 -1t30.5 -3q0 41 -12 67.5t-33.5 42t-51 21.5t-63.5 6q-63 0 -116.5 -15t-104.5 -52z" />
    <glyph glyph-name="guillemotleft" unicode="&#xab;" 
d="M518 551l293 414h180l-266 -414l266 -414h-180zM104 551l293 414h181l-267 -414l267 -414h-181z" />
    <glyph glyph-name="logicalnot" unicode="&#xac;" horiz-adv-x="1229" 
d="M96 823h1037v-610h-181v430h-856v180z" />
    <glyph glyph-name="registered" unicode="&#xae;" horiz-adv-x="1638" 
d="M690 778h137q34 0 65.5 3.5t55 16.5t37.5 38t14 67q0 37 -15 59.5t-39 35t-54.5 16.5t-61.5 4h-139v-240zM535 1137h311q75 0 133 -13.5t97 -43t59 -76.5t20 -113q0 -109 -57 -162t-162 -63l225 -367h-160l-217 360h-94v-360h-155v838zM819 119q116 0 218 44.5t177.5 124
t119.5 188.5t44 239t-44 239t-119.5 188.5t-177.5 124t-218 44.5t-218 -44.5t-177.5 -124t-119.5 -188.5t-44 -239t44 -239t119.5 -188.5t177.5 -124t218 -44.5zM819 -25q-102 0 -196.5 26.5t-176.5 75t-149.5 115.5t-115.5 149.5t-74.5 177t-26.5 196.5t26.5 196.5
t74.5 176.5t115.5 149.5t149.5 115.5t176.5 74.5t196.5 26.5t196.5 -26.5t177 -74.5t149.5 -115.5t115.5 -149.5t75 -176.5t26.5 -196.5t-26.5 -196.5t-74.5 -176.5t-116 -150t-150 -116t-176.5 -74.5t-196.5 -26.5z" />
    <glyph glyph-name="macron" unicode="&#xaf;" horiz-adv-x="569" 
d="M-18 1378h606v-118h-606v118z" />
    <glyph glyph-name="degree" unicode="&#xb0;" horiz-adv-x="819" 
d="M248 1161q0 -66 47 -115q47 -47 115 -47q67 0 114 47q47 49 47 115q0 68 -47 115t-114 47q-68 0 -115 -47t-47 -115zM117 1161q0 61 22.5 114.5t62.5 93.5t93 62.5t115 22.5q61 0 114.5 -22.5t93 -62.5t62 -93.5t22.5 -114.5q0 -62 -22.5 -115t-62 -93t-93 -62.5
t-114.5 -22.5q-62 0 -115 22.5t-93 62.5t-62.5 93t-22.5 115z" />
    <glyph glyph-name="plusminus" unicode="&#xb1;" horiz-adv-x="1229" 
d="M96 180h1037v-180h-1037v180zM96 735h428v301h181v-301h428v-180h-428v-301h-181v301h-428v180z" />
    <glyph glyph-name="twosuperior" unicode="&#xb2;" horiz-adv-x="739" 
d="M63 733q21 17 60.5 47.5t86 69.5t94.5 84t87.5 91t64.5 90.5t25 82.5q0 31 -16.5 52.5t-41 35t-53 19.5t-53.5 6q-54 0 -109.5 -15.5t-103.5 -44.5l-12 152q121 51 256 51q59 0 115.5 -13.5t100.5 -43t71 -77t27 -114.5q0 -63 -49 -139q-24 -38 -52.5 -74.5t-60.5 -71.5
q-64 -69 -130 -124q-65 -54 -102 -72v-4h408v-143h-613v155z" />
    <glyph glyph-name="threesuperior" unicode="&#xb3;" horiz-adv-x="739" 
d="M190 1098h95q28 0 63 6.5t66 21t52 36.5t21 52q0 29 -18.5 47.5t-45.5 29.5t-59 15.5t-59 4.5q-57 0 -105.5 -13.5t-93.5 -31.5l-8 147q48 17 114 29t138 12q60 0 117.5 -13t102 -41t71.5 -72t27 -105q0 -42 -18 -75.5t-47.5 -58t-66 -40t-73.5 -21.5v-4q92 -12 152 -66
q61 -52 61 -149q0 -78 -34 -125.5t-88 -74t-122 -35.5t-135 -9q-70 0 -128 10.5t-103 22.5l20 156q8 -9 27.5 -17t46.5 -14.5t58 -10t61 -3.5q28 0 65 4t71 16t57.5 33t23.5 55q0 35 -20 60.5t-50 42.5t-66 25.5t-69 8.5h-101v144z" />
    <glyph glyph-name="acute" unicode="&#xb4;" horiz-adv-x="569" 
d="M332 1485h223l-268 -295h-137z" />
    <glyph glyph-name="uni00B5" unicode="&#xb5;" horiz-adv-x="1251" 
d="M1087 0h-186v166h-4q-44 -91 -137 -141q-95 -50 -205 -50q-60 0 -108.5 9.5t-90.5 31.5v-446h-192v1474h192v-540q0 -184 47 -275q48 -91 175 -98q82 0 142 31.5t99 88.5t57.5 136t18.5 174v483h192v-1044z" />
    <glyph glyph-name="paragraph" unicode="&#xb6;" horiz-adv-x="1229" 
d="M483 682q-102 0 -184 27t-139.5 76t-88 116t-30.5 148q0 104 35 176.5t99 118t153 66t196 20.5h555v-1659h-180v1515h-235v-1515h-181v911z" />
    <glyph glyph-name="periodcentered" unicode="&#xb7;" horiz-adv-x="569" 
d="M164 623q1 48 38 83t85 35t85 -35q35 -34 34 -83q2 -50 -34 -87q-36 -36 -85 -36t-85 36q-37 38 -38 87z" />
    <glyph glyph-name="cedilla" unicode="&#xb8;" horiz-adv-x="569" 
d="M506 0l-94 -123l4 -4q24 10 61 10q70 0 120 -39t50 -110q0 -51 -24.5 -87t-63.5 -58.5t-86.5 -33t-93.5 -10.5q-45 0 -89 10.5t-83 32.5l37 70q35 -14 63.5 -22.5t69.5 -8.5q39 0 77 20t38 74q0 41 -29 60.5t-66 19.5q-22 0 -44.5 -5t-39.5 -11l-34 39l131 176h96z" />
    <glyph glyph-name="onesuperior" unicode="&#xb9;" horiz-adv-x="739" 
d="M315 1286l-143 -112l-70 94l228 174h166v-864h-181v708z" />
    <glyph glyph-name="ordmasculine" unicode="&#xba;" horiz-adv-x="813" 
d="M221 1124q0 -41 9 -79t31 -67t57 -47t88 -18t88.5 18t56.5 47t30 67t9 79q0 86 -44 148q-44 63 -140 63q-98 0 -141 -63q-44 -62 -44 -148zM406 795q-79 0 -144 26t-111.5 71t-72 104.5t-25.5 127.5q0 72 25 132.5t71 104.5t111 68.5t146 24.5q80 0 145 -24.5t111 -68.5
t71 -104.5t25 -132.5q0 -68 -25.5 -127.5t-72 -104.5t-111 -71t-143.5 -26z" />
    <glyph glyph-name="guillemotright" unicode="&#xbb;" 
d="M621 551l-293 -414h-181l267 414l-267 414h181zM1034 551l-293 -414h-180l266 414l-266 414h180z" />
    <glyph glyph-name="onequarter" unicode="&#xbc;" horiz-adv-x="1708" 
d="M1354 170h-434v125l376 569h238v-551h106v-143h-106v-170h-180v170zM1354 721h-4l-263 -408h267v408zM281 1286l-144 -112l-69 94l227 174h166v-864h-180v708zM1180 1475h147l-887 -1520h-147z" />
    <glyph glyph-name="onehalf" unicode="&#xbd;" horiz-adv-x="1708" 
d="M1028 156q21 17 60 47.5t85.5 69.5t95 84t88 91t64.5 90.5t25 82.5q0 30 -16.5 51.5t-41 35t-53 19.5t-53.5 6q-54 0 -109.5 -15.5t-103.5 -43.5l-12 151q120 52 256 52q59 0 115.5 -13.5t100.5 -43t70.5 -77t26.5 -114.5q0 -64 -48 -140q-24 -38 -52.5 -74t-60.5 -71
q-64 -70 -130 -124q-63 -53 -102 -73v-4h407v-143h-612v156zM281 1286l-144 -112l-69 94l227 174h166v-864h-180v708zM1116 1475h148l-887 -1520h-148z" />
    <glyph glyph-name="threequarters" unicode="&#xbe;" horiz-adv-x="1708" 
d="M1354 170h-434v125l376 569h238v-551h106v-143h-106v-170h-180v170zM1354 721h-4l-263 -408h267v408zM190 1098h95q28 0 63 6.5t66 21t52 36.5t21 52q0 29 -18.5 47.5t-45.5 29.5t-59 15.5t-59 4.5q-57 0 -105.5 -13.5t-93.5 -31.5l-8 147q48 17 114 29t138 12
q60 0 117.5 -13t102 -41t71.5 -72t27 -105q0 -42 -18 -75.5t-47.5 -58t-66 -40t-73.5 -21.5v-4q92 -12 152 -66q61 -52 61 -149q0 -78 -34 -125.5t-88 -74t-122 -35.5t-135 -9q-70 0 -128 10.5t-103 22.5l20 156q8 -9 27.5 -17t46.5 -14.5t58 -10t61 -3.5q28 0 65 4t71 16
t57.5 33t23.5 55q0 35 -20 60.5t-50 42.5t-66 25.5t-69 8.5h-101v144zM1268 1475h147l-887 -1520h-147z" />
    <glyph glyph-name="questiondown" unicode="&#xbf;" horiz-adv-x="1024" 
d="M625 815h-230v229h230v-229zM606 600q0 -49 -6 -87t-21 -72.5t-39.5 -69t-60.5 -76.5q-28 -33 -58 -67.5t-55.5 -73.5t-42 -83t-16.5 -94q0 -53 20.5 -92t55 -64.5t79.5 -37.5t93 -12q103 0 177.5 22.5t125.5 59.5l14 -195q-67 -29 -150.5 -48.5t-189.5 -19.5
q-84 0 -163.5 24t-141.5 71t-99.5 116.5t-37.5 161.5q0 54 13 100t35 86.5t51 78.5t60 74.5t62.5 74.5t59.5 80q24 37 33.5 71.5t9.5 77.5v37h192v-43z" />
    <glyph glyph-name="Agrave" unicode="&#xc0;" horiz-adv-x="1479" 
d="M735 1237l-284 -709h569zM635 1430h215l604 -1430h-223l-146 360h-700l-145 -360h-215zM875 1534h-137l-269 295h224z" />
    <glyph glyph-name="Aacute" unicode="&#xc1;" horiz-adv-x="1479" 
d="M735 1237l-284 -709h569zM635 1430h215l604 -1430h-223l-146 360h-700l-145 -360h-215zM787 1829h223l-268 -295h-137z" />
    <glyph glyph-name="Acircumflex" unicode="&#xc2;" horiz-adv-x="1479" 
d="M735 1237l-284 -709h569zM635 1430h215l604 -1430h-223l-146 360h-700l-145 -360h-215zM645 1829h187l205 -295h-164l-135 201l-133 -201h-162z" />
    <glyph glyph-name="Atilde" unicode="&#xc3;" horiz-adv-x="1479" 
d="M735 1237l-284 -709h569zM635 1430h215l604 -1430h-223l-146 360h-700l-145 -360h-215zM392 1544q4 33 15 73t32.5 75t56.5 58.5t88 23.5q40 -1 82 -16t83.5 -32.5t79.5 -32t70 -14.5q47 -4 69 28q21 30 26 67h94q-4 -33 -15 -73t-33.5 -75t-57.5 -58.5t-87 -23.5
q-41 1 -83 16t-82.5 32.5t-78.5 31.5t-71 14q-46 4 -69 -28q-20 -31 -25 -66h-94z" />
    <glyph glyph-name="Adieresis" unicode="&#xc4;" horiz-adv-x="1479" 
d="M735 1237l-284 -709h569zM635 1430h215l604 -1430h-223l-146 360h-700l-145 -360h-215zM811 1753h193v-205h-193v205zM475 1753h193v-205h-193v205z" />
    <glyph glyph-name="Aring" unicode="&#xc5;" horiz-adv-x="1479" 
d="M735 1237l-284 -709h569zM635 1430h215l604 -1430h-223l-146 360h-700l-145 -360h-215zM740 1833q-52 0 -90 -38q-37 -37 -37 -89t37 -89q38 -38 90 -38q49 0 88 39t39 88q0 51 -38 89t-89 38zM740 1915q42 0 80 -16.5t66.5 -45t45.5 -66.5t17 -81t-17 -81t-45.5 -66.5
t-66.5 -45t-80 -16.5q-43 0 -81 16.5t-66.5 45t-45 66.5t-16.5 81t16.5 81t45 66.5t66.5 45t81 16.5z" />
    <glyph glyph-name="AE" unicode="&#xc6;" horiz-adv-x="1933" 
d="M868 1430h899v-181h-567l27 -418h504v-180h-494l29 -471h522v-180h-711l-22 360h-609l-215 -360h-227zM999 1286h-4l-450 -758h499z" />
    <glyph glyph-name="Ccedilla" unicode="&#xc7;" horiz-adv-x="1251" 
d="M1169 1194q-136 80 -295 80q-123 0 -224 -42t-173 -116.5t-111.5 -177t-39.5 -223.5q0 -126 42.5 -229.5t115.5 -176.5t171 -113t209 -40q38 0 81.5 4.5t85.5 13.5t80 22t65 29l12 -198q-42 -17 -84.5 -28t-87.5 -15q-90 -9 -154 -9h-24q-10 0 -23 5l-78 -103l4 -4
q26 10 62 10q69 0 119 -39q51 -39 51 -110q0 -51 -24.5 -87t-63.5 -58.5t-86.5 -33t-93.5 -10.5t-90 10.5t-83 32.5l37 70q35 -14 64 -22.5t69 -8.5q39 0 77 20t38 74q0 41 -28.5 60.5t-65.5 19.5q-23 0 -45.5 -5t-38.5 -11l-35 39l119 162q-141 20 -255 80.5t-193.5 155.5
t-122.5 221t-43 278q0 166 56.5 301t157 231t239 148.5t302.5 52.5q85 0 164.5 -13.5t157.5 -47.5z" />
    <glyph glyph-name="Egrave" unicode="&#xc8;" 
d="M193 1430h800v-181h-596v-418h543v-180h-543v-471h596v-180h-800v1430zM705 1534h-137l-269 295h224z" />
    <glyph glyph-name="Eacute" unicode="&#xc9;" 
d="M193 1430h800v-181h-596v-418h543v-180h-543v-471h596v-180h-800v1430zM617 1829h223l-268 -295h-137z" />
    <glyph glyph-name="Ecircumflex" unicode="&#xca;" 
d="M193 1430h800v-181h-596v-418h543v-180h-543v-471h596v-180h-800v1430zM475 1829h187l205 -295h-164l-135 201l-133 -201h-162z" />
    <glyph glyph-name="Edieresis" unicode="&#xcb;" 
d="M193 1430h800v-181h-596v-418h543v-180h-543v-471h596v-180h-800v1430zM641 1753h193v-205h-193v205zM305 1753h193v-205h-193v205z" />
    <glyph glyph-name="Igrave" unicode="&#xcc;" horiz-adv-x="569" 
d="M182 1430h205v-1430h-205v1430zM420 1534h-137l-269 295h224z" />
    <glyph glyph-name="Iacute" unicode="&#xcd;" horiz-adv-x="569" 
d="M182 1430h205v-1430h-205v1430zM332 1829h223l-268 -295h-137z" />
    <glyph glyph-name="Icircumflex" unicode="&#xce;" horiz-adv-x="569" 
d="M182 1430h205v-1430h-205v1430zM190 1829h187l205 -295h-164l-135 201l-133 -201h-162z" />
    <glyph glyph-name="Idieresis" unicode="&#xcf;" horiz-adv-x="569" 
d="M182 1430h205v-1430h-205v1430zM356 1753h193v-205h-193v205zM20 1753h193v-205h-193v205z" />
    <glyph glyph-name="Eth" unicode="&#xd0;" horiz-adv-x="1479" 
d="M170 700h-139v131h139v599h422q159 0 297.5 -48t242 -138.5t163 -221t59.5 -295.5q0 -180 -53 -316.5t-152 -227.5t-240 -137t-317 -46h-422v700zM375 831h375v-131h-375v-520h215q132 0 234 32.5t171.5 99t105.5 168t36 239.5q0 115 -38 212t-107.5 167.5t-166.5 110.5
t-215 40h-235v-418z" />
    <glyph glyph-name="Ntilde" unicode="&#xd1;" horiz-adv-x="1479" 
d="M180 1430h279l631 -1151h4v1151h204v-1430h-262l-647 1176h-4v-1176h-205v1430zM392 1544q4 33 15 73t32.5 75t56.5 58.5t88 23.5q40 -1 82 -16t83.5 -32.5t79.5 -32t70 -14.5q47 -4 69 28q21 30 26 67h94q-4 -33 -15 -73t-33.5 -75t-57.5 -58.5t-87 -23.5q-41 1 -83 16
t-82.5 32.5t-78.5 31.5t-71 14q-46 4 -69 -28q-20 -31 -25 -66h-94z" />
    <glyph glyph-name="Ograve" unicode="&#xd2;" horiz-adv-x="1593" 
d="M109 715q0 159 46.5 294t134.5 234t216 155t291 56q162 0 289.5 -56t216 -155t135.5 -234t47 -294q0 -163 -46 -299t-134 -234t-216 -152.5t-292 -54.5t-292 54.5t-216 152.5t-134 234t-46 299zM326 715q0 -107 27.5 -207.5t85 -178.5t146.5 -125.5t212 -47.5t211.5 47.5
t146.5 125.5t85.5 178.5t27.5 207.5q-1 108 -30 209.5t-87.5 179.5t-147 124.5t-206.5 45.5q-119 1 -207 -45.5t-146.5 -124.5t-88 -179.5t-29.5 -209.5zM932 1534h-137l-269 295h224z" />
    <glyph glyph-name="Oacute" unicode="&#xd3;" horiz-adv-x="1593" 
d="M109 715q0 159 46.5 294t134.5 234t216 155t291 56q162 0 289.5 -56t216 -155t135.5 -234t47 -294q0 -163 -46 -299t-134 -234t-216 -152.5t-292 -54.5t-292 54.5t-216 152.5t-134 234t-46 299zM326 715q0 -107 27.5 -207.5t85 -178.5t146.5 -125.5t212 -47.5t211.5 47.5
t146.5 125.5t85.5 178.5t27.5 207.5q-1 108 -30 209.5t-87.5 179.5t-147 124.5t-206.5 45.5q-119 1 -207 -45.5t-146.5 -124.5t-88 -179.5t-29.5 -209.5zM844 1829h223l-268 -295h-137z" />
    <glyph glyph-name="Ocircumflex" unicode="&#xd4;" horiz-adv-x="1593" 
d="M109 715q0 159 46.5 294t134.5 234t216 155t291 56q162 0 289.5 -56t216 -155t135.5 -234t47 -294q0 -163 -46 -299t-134 -234t-216 -152.5t-292 -54.5t-292 54.5t-216 152.5t-134 234t-46 299zM326 715q0 -107 27.5 -207.5t85 -178.5t146.5 -125.5t212 -47.5t211.5 47.5
t146.5 125.5t85.5 178.5t27.5 207.5q-1 108 -30 209.5t-87.5 179.5t-147 124.5t-206.5 45.5q-119 1 -207 -45.5t-146.5 -124.5t-88 -179.5t-29.5 -209.5zM702 1829h187l205 -295h-164l-135 201l-133 -201h-162z" />
    <glyph glyph-name="Otilde" unicode="&#xd5;" horiz-adv-x="1593" 
d="M109 715q0 159 46.5 294t134.5 234t216 155t291 56q162 0 289.5 -56t216 -155t135.5 -234t47 -294q0 -163 -46 -299t-134 -234t-216 -152.5t-292 -54.5t-292 54.5t-216 152.5t-134 234t-46 299zM326 715q0 -107 27.5 -207.5t85 -178.5t146.5 -125.5t212 -47.5t211.5 47.5
t146.5 125.5t85.5 178.5t27.5 207.5q-1 108 -30 209.5t-87.5 179.5t-147 124.5t-206.5 45.5q-119 1 -207 -45.5t-146.5 -124.5t-88 -179.5t-29.5 -209.5zM449 1544q4 33 15 73t32.5 75t56.5 58.5t88 23.5q40 -1 82 -16t83.5 -32.5t79.5 -32t70 -14.5q47 -4 69 28
q21 30 26 67h94q-4 -33 -15 -73t-33.5 -75t-57.5 -58.5t-87 -23.5q-41 1 -83 16t-82.5 32.5t-78.5 31.5t-71 14q-46 4 -69 -28q-20 -31 -25 -66h-94z" />
    <glyph glyph-name="Odieresis" unicode="&#xd6;" horiz-adv-x="1593" 
d="M109 715q0 159 46.5 294t134.5 234t216 155t291 56q162 0 289.5 -56t216 -155t135.5 -234t47 -294q0 -163 -46 -299t-134 -234t-216 -152.5t-292 -54.5t-292 54.5t-216 152.5t-134 234t-46 299zM326 715q0 -107 27.5 -207.5t85 -178.5t146.5 -125.5t212 -47.5t211.5 47.5
t146.5 125.5t85.5 178.5t27.5 207.5q-1 108 -30 209.5t-87.5 179.5t-147 124.5t-206.5 45.5q-119 1 -207 -45.5t-146.5 -124.5t-88 -179.5t-29.5 -209.5zM868 1753h193v-205h-193v205zM532 1753h193v-205h-193v205z" />
    <glyph glyph-name="multiply" unicode="&#xd7;" horiz-adv-x="1229" 
d="M139 866l127 127l348 -350l349 350l127 -127l-351 -348l351 -348l-127 -127l-349 350l-348 -350l-127 127l348 348z" />
    <glyph glyph-name="Oslash" unicode="&#xd8;" horiz-adv-x="1593" 
d="M504 258q54 -48 127 -75t166 -27q123 0 211.5 47.5t146.5 125.5t85.5 178.5t27.5 207.5q0 109 -29 208t-86 177zM309 162q-99 99 -149.5 238.5t-50.5 314.5q0 159 46.5 294t134.5 234t216 155t291 56q124 0 226 -33.5t187 -93.5l109 141l74 -57l-111 -145
q100 -103 151.5 -242.5t51.5 -308.5q0 -163 -46 -299t-134 -234t-216 -152.5t-292 -54.5q-247 0 -416 125l-111 -143l-77 53zM1090 1171q-57 48 -128.5 76.5t-164.5 26.5q-119 1 -207 -45.5t-146.5 -124.5t-88 -179.5t-29.5 -209.5q0 -107 26.5 -208t85.5 -179z" />
    <glyph glyph-name="Ugrave" unicode="&#xd9;" horiz-adv-x="1479" 
d="M1294 592q0 -152 -36.5 -267t-107.5 -193t-174.5 -117.5t-236.5 -39.5q-266 0 -411 157q-144 157 -144 460v838h205v-812q0 -102 17.5 -187t58.5 -146t108 -95t166 -34t166.5 34t108.5 95t58.5 146t17.5 187v812h204v-838zM875 1534h-137l-269 295h224z" />
    <glyph glyph-name="Uacute" unicode="&#xda;" horiz-adv-x="1479" 
d="M1294 592q0 -152 -36.5 -267t-107.5 -193t-174.5 -117.5t-236.5 -39.5q-266 0 -411 157q-144 157 -144 460v838h205v-812q0 -102 17.5 -187t58.5 -146t108 -95t166 -34t166.5 34t108.5 95t58.5 146t17.5 187v812h204v-838zM787 1829h223l-268 -295h-137z" />
    <glyph glyph-name="Ucircumflex" unicode="&#xdb;" horiz-adv-x="1479" 
d="M1294 592q0 -152 -36.5 -267t-107.5 -193t-174.5 -117.5t-236.5 -39.5q-266 0 -411 157q-144 157 -144 460v838h205v-812q0 -102 17.5 -187t58.5 -146t108 -95t166 -34t166.5 34t108.5 95t58.5 146t17.5 187v812h204v-838zM645 1829h187l205 -295h-164l-135 201
l-133 -201h-162z" />
    <glyph glyph-name="Udieresis" unicode="&#xdc;" horiz-adv-x="1479" 
d="M1294 592q0 -152 -36.5 -267t-107.5 -193t-174.5 -117.5t-236.5 -39.5q-266 0 -411 157q-144 157 -144 460v838h205v-812q0 -102 17.5 -187t58.5 -146t108 -95t166 -34t166.5 34t108.5 95t58.5 146t17.5 187v812h204v-838zM811 1753h193v-205h-193v205zM475 1753h193
v-205h-193v205z" />
    <glyph glyph-name="Yacute" unicode="&#xdd;" horiz-adv-x="1366" 
d="M582 598l-559 832h239l426 -642l416 642h239l-557 -832v-598h-204v598zM731 1829h223l-268 -295h-137z" />
    <glyph glyph-name="Thorn" unicode="&#xde;" 
d="M375 543h203q48 0 98.5 12.5t92 42t68.5 78t27 119.5q0 67 -31.5 114t-79 76t-102.5 42t-102 13h-174v-497zM170 1430h205v-209h170q110 0 207.5 -21.5t170.5 -71t115.5 -132t42.5 -203.5q0 -119 -43 -201t-113.5 -133t-161.5 -74t-188 -23h-200v-362h-205v1430z" />
    <glyph glyph-name="germandbls" unicode="&#xdf;" horiz-adv-x="1251" 
d="M164 0v971q0 139 26.5 248.5t86 185.5t155 116t234.5 40q73 0 147.5 -25t133.5 -75t96.5 -125.5t37.5 -176.5q0 -260 -239 -334v-4q73 -8 129.5 -43t95.5 -87t59.5 -116t20.5 -131q0 -94 -30 -177t-88 -145t-142 -98t-193 -36q-51 0 -97.5 6t-100.5 22v162
q81 -35 161 -35q58 0 110 19.5t91 56.5t61.5 91.5t22.5 125.5q0 89 -28.5 146t-80 90t-122 46t-154.5 13v156q72 0 131 12.5t101 42.5t65 81.5t23 129.5q0 49 -15.5 94.5t-44.5 80.5t-72 56t-98 21q-86 0 -142 -37t-89 -95.5t-46.5 -130t-13.5 -141.5v-1001h-192z" />
    <glyph glyph-name="agrave" unicode="&#xe0;" 
d="M784 498q-30 0 -61 2t-61 2q-20 0 -45 -1.5t-56 -3.5q-60 -4 -120 -26q-58 -19 -100 -60t-42 -110q0 -41 18 -72.5t46.5 -53t63 -33t67.5 -11.5q143 0 216 79q74 80 74 196v92zM213 971q72 43 158 70.5t186 27.5q225 0 322 -109q98 -109 98 -323v-432q0 -90 2 -136t6 -69
h-180v135h-4q-17 -24 -45 -52t-68.5 -52t-93 -40t-117.5 -16q-84 0 -154.5 18.5t-121.5 58.5t-79 101.5t-28 147.5q0 49 12.5 90t35 74t53.5 59t67 46q72 40 158 57q85 18 160 18h102q23 0 48 -1t54 -3q0 135 -56 203q-56 69 -202 69q-82 0 -162.5 -28.5t-140.5 -77.5z
M705 1190h-137l-269 295h224z" />
    <glyph glyph-name="aacute" unicode="&#xe1;" 
d="M784 498q-30 0 -61 2t-61 2q-20 0 -45 -1.5t-56 -3.5q-60 -4 -120 -26q-58 -19 -100 -60t-42 -110q0 -41 18 -72.5t46.5 -53t63 -33t67.5 -11.5q143 0 216 79q74 80 74 196v92zM213 971q72 43 158 70.5t186 27.5q225 0 322 -109q98 -109 98 -323v-432q0 -90 2 -136t6 -69
h-180v135h-4q-17 -24 -45 -52t-68.5 -52t-93 -40t-117.5 -16q-84 0 -154.5 18.5t-121.5 58.5t-79 101.5t-28 147.5q0 49 12.5 90t35 74t53.5 59t67 46q72 40 158 57q85 18 160 18h102q23 0 48 -1t54 -3q0 135 -56 203q-56 69 -202 69q-82 0 -162.5 -28.5t-140.5 -77.5z
M617 1485h223l-268 -295h-137z" />
    <glyph glyph-name="acircumflex" unicode="&#xe2;" 
d="M784 498q-30 0 -61 2t-61 2q-20 0 -45 -1.5t-56 -3.5q-60 -4 -120 -26q-58 -19 -100 -60t-42 -110q0 -41 18 -72.5t46.5 -53t63 -33t67.5 -11.5q143 0 216 79q74 80 74 196v92zM213 971q72 43 158 70.5t186 27.5q225 0 322 -109q98 -109 98 -323v-432q0 -90 2 -136t6 -69
h-180v135h-4q-17 -24 -45 -52t-68.5 -52t-93 -40t-117.5 -16q-84 0 -154.5 18.5t-121.5 58.5t-79 101.5t-28 147.5q0 49 12.5 90t35 74t53.5 59t67 46q72 40 158 57q85 18 160 18h102q23 0 48 -1t54 -3q0 135 -56 203q-56 69 -202 69q-82 0 -162.5 -28.5t-140.5 -77.5z
M475 1485h187l205 -295h-164l-135 201l-133 -201h-162z" />
    <glyph glyph-name="atilde" unicode="&#xe3;" 
d="M784 498q-30 0 -61 2t-61 2q-20 0 -45 -1.5t-56 -3.5q-60 -4 -120 -26q-58 -19 -100 -60t-42 -110q0 -41 18 -72.5t46.5 -53t63 -33t67.5 -11.5q143 0 216 79q74 80 74 196v92zM213 971q72 43 158 70.5t186 27.5q225 0 322 -109q98 -109 98 -323v-432q0 -90 2 -136t6 -69
h-180v135h-4q-17 -24 -45 -52t-68.5 -52t-93 -40t-117.5 -16q-84 0 -154.5 18.5t-121.5 58.5t-79 101.5t-28 147.5q0 49 12.5 90t35 74t53.5 59t67 46q72 40 158 57q85 18 160 18h102q23 0 48 -1t54 -3q0 135 -56 203q-56 69 -202 69q-82 0 -162.5 -28.5t-140.5 -77.5z
M222 1200q4 33 15 73t32.5 75t56.5 58.5t88 23.5q40 -1 82 -16t83.5 -32.5t79.5 -32t70 -14.5q47 -4 69 28q21 30 26 67h94q-4 -33 -15 -73t-33.5 -75t-57.5 -58.5t-87 -23.5q-41 1 -83 16t-82.5 32.5t-78.5 31.5t-71 14q-46 4 -69 -28q-20 -31 -25 -66h-94z" />
    <glyph glyph-name="adieresis" unicode="&#xe4;" 
d="M784 498q-30 0 -61 2t-61 2q-20 0 -45 -1.5t-56 -3.5q-60 -4 -120 -26q-58 -19 -100 -60t-42 -110q0 -41 18 -72.5t46.5 -53t63 -33t67.5 -11.5q143 0 216 79q74 80 74 196v92zM213 971q72 43 158 70.5t186 27.5q225 0 322 -109q98 -109 98 -323v-432q0 -90 2 -136t6 -69
h-180v135h-4q-17 -24 -45 -52t-68.5 -52t-93 -40t-117.5 -16q-84 0 -154.5 18.5t-121.5 58.5t-79 101.5t-28 147.5q0 49 12.5 90t35 74t53.5 59t67 46q72 40 158 57q85 18 160 18h102q23 0 48 -1t54 -3q0 135 -56 203q-56 69 -202 69q-82 0 -162.5 -28.5t-140.5 -77.5z
M641 1409h193v-205h-193v205zM305 1409h193v-205h-193v205z" />
    <glyph glyph-name="aring" unicode="&#xe5;" 
d="M784 498q-30 0 -61 2t-61 2q-20 0 -45 -1.5t-56 -3.5q-60 -4 -120 -26q-58 -19 -100 -60t-42 -110q0 -41 18 -72.5t46.5 -53t63 -33t67.5 -11.5q143 0 216 79q74 80 74 196v92zM213 971q72 43 158 70.5t186 27.5q225 0 322 -109q98 -109 98 -323v-432q0 -90 2 -136t6 -69
h-180v135h-4q-17 -24 -45 -52t-68.5 -52t-93 -40t-117.5 -16q-84 0 -154.5 18.5t-121.5 58.5t-79 101.5t-28 147.5q0 49 12.5 90t35 74t53.5 59t67 46q72 40 158 57q85 18 160 18h102q23 0 48 -1t54 -3q0 135 -56 203q-56 69 -202 69q-82 0 -162.5 -28.5t-140.5 -77.5z
M570 1489q-52 0 -90 -38q-37 -37 -37 -89t37 -89q38 -38 90 -38q49 0 88 39t39 88q0 51 -38 89t-89 38zM570 1571q42 0 80 -16.5t66.5 -45t45.5 -66.5t17 -81t-17 -81t-45.5 -66.5t-66.5 -45t-80 -16.5q-43 0 -81 16.5t-66.5 45t-45 66.5t-16.5 81t16.5 81t45 66.5t66.5 45
t81 16.5z" />
    <glyph glyph-name="ae" unicode="&#xe6;" horiz-adv-x="1821" 
d="M1532 623q0 51 -18 102.5t-51 93.5t-80.5 68t-106.5 26q-63 0 -114.5 -23t-88 -62t-56.5 -92t-20 -113h535zM289 303q0 -44 17.5 -76t46 -53.5t65.5 -32t76 -10.5q69 0 126.5 29.5t98.5 80t63.5 116.5t22.5 139q-23 0 -69 3t-115 3q-27 0 -62 -2.5t-72 -10t-72.5 -21
t-63.5 -35.5t-45 -54t-17 -76zM209 969q67 43 155 71.5t191 28.5q52 0 104.5 -10t100.5 -31.5t88.5 -56.5t66.5 -84q56 98 154 140q97 42 209 42q133 0 221 -49t141 -131t75 -188.5t22 -221.5h-740q0 -71 25.5 -134.5t71.5 -111t108.5 -75t136.5 -27.5q77 0 156 32
q76 31 133 77v-195q-67 -31 -144 -50.5t-155 -19.5q-66 0 -135.5 12t-131 40.5t-110.5 75t-73 116.5h-5q-16 -62 -54.5 -108t-91 -76t-115 -45t-126.5 -15q-73 0 -145 22t-129.5 64.5t-93 105t-35.5 142.5q0 109 53 174q52 66 131 102q78 36 165 48t155 12q84 0 136 -6
t81 -4q0 76 -23.5 129t-63.5 86t-93.5 48t-114.5 15q-38 0 -77 -8.5t-76.5 -23t-72.5 -34t-65 -40.5z" />
    <glyph glyph-name="ccedilla" unicode="&#xe7;" horiz-adv-x="909" 
d="M827 868q-55 23 -108 34t-101 11q-80 0 -142 -33t-105 -88t-65.5 -125t-22.5 -145q0 -69 19.5 -139t61.5 -126t108 -91t159 -35q49 0 105.5 15.5t101.5 43.5l14 -172q-60 -28 -124 -35.5t-118 -7.5h-8l-76 -98l4 -4q26 10 62 10q70 0 120 -39t50 -110q0 -51 -24.5 -87
t-63.5 -58.5t-86.5 -33t-93.5 -10.5q-45 0 -89.5 10.5t-82.5 32.5l36 70q35 -14 64 -22.5t70 -8.5q38 0 76 20t38 74q0 41 -28.5 60.5t-65.5 19.5q-23 0 -45.5 -5t-38.5 -11l-35 39l121 162q-99 16 -179.5 64.5t-137.5 119.5t-88 161.5t-31 190.5q0 119 38.5 219.5t108 173
t167.5 113.5t218 41q62 0 126 -13q70 -12 108 -28z" />
    <glyph glyph-name="egrave" unicode="&#xe8;" 
d="M840 623q0 60 -17.5 112.5t-50.5 92t-81.5 62.5t-110.5 23q-72 0 -122.5 -26.5t-83.5 -68.5t-51 -93.5t-24 -101.5h541zM965 43q-29 -10 -59.5 -21.5t-69.5 -22t-88 -17.5t-113 -7q-138 0 -240 41t-169 115t-99.5 178.5t-32.5 231.5q0 115 35 212t99.5 167.5t154.5 109.5
t201 39q130 0 218.5 -45t142 -124.5t76.5 -187t23 -233.5h-745q0 -77 28 -141t75.5 -110t110 -71.5t130.5 -25.5q49 0 98.5 11t93 27t78 34t52.5 33v-193zM705 1190h-137l-269 295h224z" />
    <glyph glyph-name="eacute" unicode="&#xe9;" 
d="M840 623q0 60 -17.5 112.5t-50.5 92t-81.5 62.5t-110.5 23q-72 0 -122.5 -26.5t-83.5 -68.5t-51 -93.5t-24 -101.5h541zM965 43q-29 -10 -59.5 -21.5t-69.5 -22t-88 -17.5t-113 -7q-138 0 -240 41t-169 115t-99.5 178.5t-32.5 231.5q0 115 35 212t99.5 167.5t154.5 109.5
t201 39q130 0 218.5 -45t142 -124.5t76.5 -187t23 -233.5h-745q0 -77 28 -141t75.5 -110t110 -71.5t130.5 -25.5q49 0 98.5 11t93 27t78 34t52.5 33v-193zM617 1485h223l-268 -295h-137z" />
    <glyph glyph-name="ecircumflex" unicode="&#xea;" 
d="M840 623q0 60 -17.5 112.5t-50.5 92t-81.5 62.5t-110.5 23q-72 0 -122.5 -26.5t-83.5 -68.5t-51 -93.5t-24 -101.5h541zM965 43q-29 -10 -59.5 -21.5t-69.5 -22t-88 -17.5t-113 -7q-138 0 -240 41t-169 115t-99.5 178.5t-32.5 231.5q0 115 35 212t99.5 167.5t154.5 109.5
t201 39q130 0 218.5 -45t142 -124.5t76.5 -187t23 -233.5h-745q0 -77 28 -141t75.5 -110t110 -71.5t130.5 -25.5q49 0 98.5 11t93 27t78 34t52.5 33v-193zM475 1485h187l205 -295h-164l-135 201l-133 -201h-162z" />
    <glyph glyph-name="edieresis" unicode="&#xeb;" 
d="M840 623q0 60 -17.5 112.5t-50.5 92t-81.5 62.5t-110.5 23q-72 0 -122.5 -26.5t-83.5 -68.5t-51 -93.5t-24 -101.5h541zM965 43q-29 -10 -59.5 -21.5t-69.5 -22t-88 -17.5t-113 -7q-138 0 -240 41t-169 115t-99.5 178.5t-32.5 231.5q0 115 35 212t99.5 167.5t154.5 109.5
t201 39q130 0 218.5 -45t142 -124.5t76.5 -187t23 -233.5h-745q0 -77 28 -141t75.5 -110t110 -71.5t130.5 -25.5q49 0 98.5 11t93 27t78 34t52.5 33v-193zM641 1409h193v-205h-193v205zM305 1409h193v-205h-193v205z" />
    <glyph glyph-name="igrave" unicode="&#xec;" horiz-adv-x="569" 
d="M188 1044h193v-1044h-193v1044zM420 1190h-137l-269 295h224z" />
    <glyph glyph-name="iacute" unicode="&#xed;" horiz-adv-x="569" 
d="M188 1044h193v-1044h-193v1044zM332 1485h223l-268 -295h-137z" />
    <glyph glyph-name="icircumflex" unicode="&#xee;" horiz-adv-x="569" 
d="M188 1044h193v-1044h-193v1044zM190 1485h187l205 -295h-164l-135 201l-133 -201h-162z" />
    <glyph glyph-name="idieresis" unicode="&#xef;" horiz-adv-x="569" 
d="M188 1044h193v-1044h-193v1044zM356 1409h193v-205h-193v205zM20 1409h193v-205h-193v205z" />
    <glyph glyph-name="eth" unicode="&#xf0;" horiz-adv-x="1251" 
d="M446 1333q-63 39 -128 68t-128 51l148 109q72 -27 143 -60.5t137 -75.5l250 136l95 -109l-213 -115q85 -65 159.5 -149.5t129.5 -187.5t86.5 -223t31.5 -255q0 -112 -39 -211.5t-109 -174t-167.5 -118t-214.5 -43.5q-118 0 -216 43.5t-168.5 118t-109.5 174t-39 211.5
q0 119 38.5 219.5t108 173t168 113.5t218.5 41q54 0 97.5 -13.5t74.5 -31.5h4q-97 131 -223 221l-265 -141l-94 108zM299 522q0 -69 19.5 -139t59.5 -126t102 -91t147 -35q84 0 145.5 35t101 91t59 126t19.5 139q0 75 -22 145t-64 125t-102.5 88t-136.5 33q-77 0 -138 -33
t-103 -88t-64.5 -125t-22.5 -145z" />
    <glyph glyph-name="ntilde" unicode="&#xf1;" horiz-adv-x="1251" 
d="M164 1044h186v-165h4q44 91 137 140q95 50 205 50q202 0 297 -119q94 -118 94 -329v-621h-192v541q0 183 -47 274t-174 98q-83 0 -143 -31.5t-99 -88.5t-57.5 -136t-18.5 -174v-483h-192v1044zM279 1200q4 33 15 73t32.5 75t56.5 58.5t88 23.5q40 -1 82 -16t83.5 -32.5
t79.5 -32t70 -14.5q47 -4 69 28q21 30 26 67h94q-4 -33 -15 -73t-33.5 -75t-57.5 -58.5t-87 -23.5q-41 1 -83 16t-82.5 32.5t-78.5 31.5t-71 14q-46 4 -69 -28q-20 -31 -25 -66h-94z" />
    <glyph glyph-name="ograve" unicode="&#xf2;" horiz-adv-x="1251" 
d="M299 522q0 -69 19.5 -139t59.5 -126t102 -91t147 -35q84 0 145.5 35t101 91t59 126t19.5 139q0 75 -22 145t-64 125t-102.5 88t-136.5 33q-77 0 -138 -33t-103 -88t-64.5 -125t-22.5 -145zM94 522q0 119 38.5 219.5t108 173t168 113.5t218.5 41q119 0 217 -41
t167.5 -113.5t107.5 -173t38 -219.5q0 -112 -39 -211.5t-109 -174t-167.5 -118t-214.5 -43.5q-118 0 -216 43.5t-168.5 118t-109.5 174t-39 211.5zM762 1190h-137l-269 295h224z" />
    <glyph glyph-name="oacute" unicode="&#xf3;" horiz-adv-x="1251" 
d="M299 522q0 -69 19.5 -139t59.5 -126t102 -91t147 -35q84 0 145.5 35t101 91t59 126t19.5 139q0 75 -22 145t-64 125t-102.5 88t-136.5 33q-77 0 -138 -33t-103 -88t-64.5 -125t-22.5 -145zM94 522q0 119 38.5 219.5t108 173t168 113.5t218.5 41q119 0 217 -41
t167.5 -113.5t107.5 -173t38 -219.5q0 -112 -39 -211.5t-109 -174t-167.5 -118t-214.5 -43.5q-118 0 -216 43.5t-168.5 118t-109.5 174t-39 211.5zM674 1485h223l-268 -295h-137z" />
    <glyph glyph-name="ocircumflex" unicode="&#xf4;" horiz-adv-x="1251" 
d="M299 522q0 -69 19.5 -139t59.5 -126t102 -91t147 -35q84 0 145.5 35t101 91t59 126t19.5 139q0 75 -22 145t-64 125t-102.5 88t-136.5 33q-77 0 -138 -33t-103 -88t-64.5 -125t-22.5 -145zM94 522q0 119 38.5 219.5t108 173t168 113.5t218.5 41q119 0 217 -41
t167.5 -113.5t107.5 -173t38 -219.5q0 -112 -39 -211.5t-109 -174t-167.5 -118t-214.5 -43.5q-118 0 -216 43.5t-168.5 118t-109.5 174t-39 211.5zM532 1485h187l205 -295h-164l-135 201l-133 -201h-162z" />
    <glyph glyph-name="otilde" unicode="&#xf5;" horiz-adv-x="1251" 
d="M299 522q0 -69 19.5 -139t59.5 -126t102 -91t147 -35q84 0 145.5 35t101 91t59 126t19.5 139q0 75 -22 145t-64 125t-102.5 88t-136.5 33q-77 0 -138 -33t-103 -88t-64.5 -125t-22.5 -145zM94 522q0 119 38.5 219.5t108 173t168 113.5t218.5 41q119 0 217 -41
t167.5 -113.5t107.5 -173t38 -219.5q0 -112 -39 -211.5t-109 -174t-167.5 -118t-214.5 -43.5q-118 0 -216 43.5t-168.5 118t-109.5 174t-39 211.5zM279 1200q4 33 15 73t32.5 75t56.5 58.5t88 23.5q40 -1 82 -16t83.5 -32.5t79.5 -32t70 -14.5q47 -4 69 28q21 30 26 67h94
q-4 -33 -15 -73t-33.5 -75t-57.5 -58.5t-87 -23.5q-41 1 -83 16t-82.5 32.5t-78.5 31.5t-71 14q-46 4 -69 -28q-20 -31 -25 -66h-94z" />
    <glyph glyph-name="odieresis" unicode="&#xf6;" horiz-adv-x="1251" 
d="M299 522q0 -69 19.5 -139t59.5 -126t102 -91t147 -35q84 0 145.5 35t101 91t59 126t19.5 139q0 75 -22 145t-64 125t-102.5 88t-136.5 33q-77 0 -138 -33t-103 -88t-64.5 -125t-22.5 -145zM94 522q0 119 38.5 219.5t108 173t168 113.5t218.5 41q119 0 217 -41
t167.5 -113.5t107.5 -173t38 -219.5q0 -112 -39 -211.5t-109 -174t-167.5 -118t-214.5 -43.5q-118 0 -216 43.5t-168.5 118t-109.5 174t-39 211.5zM698 1409h193v-205h-193v205zM362 1409h193v-205h-193v205z" />
    <glyph glyph-name="divide" unicode="&#xf7;" horiz-adv-x="1229" 
d="M459 94q0 66 46 111t111 45q63 0 109 -46q47 -47 47 -110q0 -30 -12.5 -58t-33.5 -50t-49 -35.5t-59 -13.5q-33 0 -62 13t-50.5 34.5t-34 50t-12.5 59.5zM459 942q0 66 46 112t111 46q30 0 58 -13t50 -35t35 -50.5t13 -59.5q0 -30 -12.5 -58t-33.5 -49.5t-49 -35
t-59 -13.5q-33 0 -62 12.5t-50.5 34t-34 49.5t-12.5 60zM96 608h1037v-180h-1037v180z" />
    <glyph glyph-name="oslash" unicode="&#xf8;" horiz-adv-x="1251" 
d="M248 133q-75 76 -114.5 175t-39.5 214q0 119 38.5 219.5t108 173t168 113.5t218.5 41q185 0 313 -94l109 133l61 -51l-109 -133q76 -75 116 -176.5t40 -225.5q0 -112 -39 -211.5t-109 -174t-167.5 -118t-214.5 -43.5q-96 0 -175 27.5t-143 75.5l-116 -141l-62 51z
M418 211q39 -37 91 -58.5t118 -21.5q84 0 145.5 35t101 91t59 126t19.5 139q0 145 -73 252zM825 836q-39 36 -88 56.5t-110 20.5q-77 0 -138 -33t-103 -88t-64.5 -125t-22.5 -145q0 -63 16.5 -127.5t51.5 -118.5z" />
    <glyph glyph-name="ugrave" unicode="&#xf9;" horiz-adv-x="1251" 
d="M1087 0h-186v166h-4q-44 -91 -137 -141q-95 -50 -205 -50q-202 0 -297 119q-94 118 -94 330v620h192v-540q0 -184 47 -275q48 -91 175 -98q82 0 142 31.5t99 88.5t57.5 136t18.5 174v483h192v-1044zM762 1190h-137l-269 295h224z" />
    <glyph glyph-name="uacute" unicode="&#xfa;" horiz-adv-x="1251" 
d="M1087 0h-186v166h-4q-44 -91 -137 -141q-95 -50 -205 -50q-202 0 -297 119q-94 118 -94 330v620h192v-540q0 -184 47 -275q48 -91 175 -98q82 0 142 31.5t99 88.5t57.5 136t18.5 174v483h192v-1044zM674 1485h223l-268 -295h-137z" />
    <glyph glyph-name="ucircumflex" unicode="&#xfb;" horiz-adv-x="1251" 
d="M1087 0h-186v166h-4q-44 -91 -137 -141q-95 -50 -205 -50q-202 0 -297 119q-94 118 -94 330v620h192v-540q0 -184 47 -275q48 -91 175 -98q82 0 142 31.5t99 88.5t57.5 136t18.5 174v483h192v-1044zM532 1485h187l205 -295h-164l-135 201l-133 -201h-162z" />
    <glyph glyph-name="udieresis" unicode="&#xfc;" horiz-adv-x="1251" 
d="M1087 0h-186v166h-4q-44 -91 -137 -141q-95 -50 -205 -50q-202 0 -297 119q-94 118 -94 330v620h192v-540q0 -184 47 -275q48 -91 175 -98q82 0 142 31.5t99 88.5t57.5 136t18.5 174v483h192v-1044zM698 1409h193v-205h-193v205zM362 1409h193v-205h-193v205z" />
    <glyph glyph-name="yacute" unicode="&#xfd;" horiz-adv-x="1024" 
d="M86 -283q18 -6 42 -11t48 -5q64 0 108 38q45 38 71 84q28 46 39 87q12 40 12 49q0 14 -14 50l-23 61l-355 974h211l281 -864h4l287 864h194l-385 -1067q-26 -75 -56.5 -152t-75.5 -139.5t-110 -101.5t-159 -39q-47 0 -76 5.5t-55 9.5zM559 1485h223l-268 -295h-137z" />
    <glyph glyph-name="thorn" unicode="&#xfe;" horiz-adv-x="1251" 
d="M952 526q2 70 -13.5 139.5t-50 124.5t-89.5 89t-133 34q-79 0 -137 -33.5t-96.5 -89t-57.5 -126t-19 -144.5q0 -65 17.5 -134t54.5 -125.5t95.5 -93t140.5 -36.5q51 0 92.5 18t74 48t56 70t38.5 84t21.5 89t5.5 86zM164 1536h192v-635h4q47 72 127 120q82 48 220 48
q113 0 197.5 -43t140.5 -116t84 -168.5t28 -200.5q0 -109 -25.5 -210.5t-80 -180.5t-139.5 -126.5t-203 -48.5q-140 0 -222 48q-80 49 -127 120h-4v-573h-192v1966z" />
    <glyph glyph-name="ydieresis" unicode="&#xff;" horiz-adv-x="1024" 
d="M86 -283q18 -6 42 -11t48 -5q64 0 108 38q45 38 71 84q28 46 39 87q12 40 12 49q0 14 -14 50l-23 61l-355 974h211l281 -864h4l287 864h194l-385 -1067q-26 -75 -56.5 -152t-75.5 -139.5t-110 -101.5t-159 -39q-47 0 -76 5.5t-55 9.5zM583 1409h193v-205h-193v205z
M247 1409h193v-205h-193v205z" />
    <glyph glyph-name="dotlessi" unicode="&#x131;" horiz-adv-x="569" 
d="M188 1044h193v-1044h-193v1044z" />
    <glyph glyph-name="Lslash" unicode="&#x141;" horiz-adv-x="1024" 
d="M180 483l-131 -77v147l131 78v799h205v-680l401 235v-147l-401 -236v-422h598v-180h-803v483z" />
    <glyph glyph-name="lslash" unicode="&#x142;" horiz-adv-x="569" 
d="M188 696l-131 -104v145l131 105v694h193v-543l131 105v-146l-131 -104v-848h-193v696z" />
    <glyph glyph-name="OE" unicode="&#x152;" horiz-adv-x="1933" 
d="M1792 1249h-578v-418h537v-180h-537v-471h592v-180h-594q-79 0 -158.5 -6t-160.5 -6q-171 0 -315 50t-248 145.5t-162.5 234t-58.5 315.5q0 162 57.5 293t161 223.5t248.5 142.5t321 50q76 0 150 -6t149 -6h596v-181zM1010 1249q-31 4 -63 8.5t-62 4.5
q-129 0 -232.5 -34.5t-176 -101.5t-111.5 -166t-39 -227q0 -135 41 -240t115.5 -177.5t177.5 -110t227 -37.5q31 0 61.5 2t61.5 10v1069z" />
    <glyph glyph-name="oe" unicode="&#x153;" horiz-adv-x="1933" 
d="M1645 623q0 51 -18 102.5t-51 93.5t-80.5 68t-106.5 26q-63 0 -114.5 -23t-88 -62t-56.5 -92t-20 -113h535zM289 522q0 -76 17 -146.5t54.5 -125t97.5 -87t146 -32.5q76 0 134.5 35t98.5 91t60.5 126t20.5 139q0 43 -8.5 88.5t-25 89t-42.5 82.5t-60.5 68t-79 46
t-98.5 17q-56 0 -100.5 -17t-79.5 -46t-60.5 -68t-42 -82.5t-24.5 -89t-8 -88.5zM1741 45q-69 -31 -145 -50.5t-154 -19.5q-75 0 -141.5 13.5t-122 41t-97.5 70t-69 101.5q-29 -62 -75 -105t-101.5 -70t-116 -39t-117.5 -12q-121 0 -217 41.5t-163 115t-102.5 173.5
t-35.5 217q0 105 35.5 204t102.5 175t163 122t217 46q144 0 252.5 -51t163.5 -154q49 105 147.5 155t225.5 50q133 0 221.5 -49t141 -131t74 -188.5t21.5 -221.5h-739q0 -71 25.5 -134.5t70.5 -111t108 -75t138 -27.5q77 0 156 32q76 31 133 77v-195z" />
    <glyph glyph-name="Scaron" unicode="&#x160;" horiz-adv-x="1024" 
d="M831 1214q-38 15 -70 26t-62.5 18.5t-63 11.5t-72.5 4q-43 0 -87.5 -9t-80.5 -31t-59 -59t-23 -92q0 -70 45 -113q45 -45 114 -81.5t148 -72.5q58 -28 113.5 -63.5t99 -84.5t69.5 -114t26 -153q0 -114 -41.5 -195t-113 -132t-166.5 -75t-201 -24q-76 0 -148.5 18.5
t-144.5 41.5l20 190q27 -10 61.5 -22t73.5 -22.5t80.5 -17.5t81.5 -7q43 0 92.5 13t91.5 41t69.5 72t27.5 107q0 60 -26 102.5t-69.5 75t-99 59t-113 54t-113 60t-99 77t-69.5 105t-26 143.5q0 94 35.5 167t98 122t146 74.5t179.5 25.5q72 0 151 -12t154 -39zM606 1534h-186
l-205 295h164l135 -201l133 201h162z" />
    <glyph glyph-name="scaron" unicode="&#x161;" horiz-adv-x="797" 
d="M86 205q29 -19 62 -33t65.5 -23t62 -13.5t50.5 -4.5q32 0 67 7t63.5 24.5t47 46t18.5 72.5q0 35 -19.5 62t-51 49.5t-72.5 42t-83 41t-83 46t-72.5 56.5t-51 73.5t-19.5 96.5q0 81 28 141.5t77.5 100.5t117 59.5t145.5 19.5q69 0 126 -12.5t114 -28.5l-16 -168
q-17 10 -44.5 19.5t-57.5 17t-57.5 12t-43.5 4.5q-75 0 -130 -31q-55 -30 -55 -96q0 -40 19.5 -68.5t51.5 -50t72.5 -40t82.5 -39.5q42 -20 83 -43.5t72.5 -56.5t51.5 -78.5t20 -108.5q0 -84 -31 -145.5t-82 -101.5t-116.5 -59.5t-135.5 -19.5q-73 0 -146.5 11.5
t-139.5 46.5zM494 1190h-186l-205 295h164l135 -201l133 201h162z" />
    <glyph glyph-name="Ydieresis" unicode="&#x178;" horiz-adv-x="1366" 
d="M582 598l-559 832h239l426 -642l416 642h239l-557 -832v-598h-204v598zM755 1755h193v-205h-193v205zM419 1755h193v-205h-193v205z" />
    <glyph glyph-name="Zcaron" unicode="&#x17d;" 
d="M66 184l741 1065h-717v181h952v-185l-739 -1065h752v-180h-989v184zM664 1534h-186l-205 295h164l135 -201l133 201h162z" />
    <glyph glyph-name="zcaron" unicode="&#x17e;" horiz-adv-x="1024" 
d="M88 168l602 721h-573v155h796v-167l-602 -721h625v-156h-848v168zM606 1190h-186l-205 295h164l135 -201l133 201h162z" />
    <glyph glyph-name="florin" unicode="&#x192;" 
d="M944 705h-258l-141 -754q-17 -87 -38 -161.5t-60 -129t-104.5 -85t-170.5 -30.5q-37 0 -59.5 3t-44.5 8l32 165q15 -4 27 -6t35 -2q48 0 79 18.5t50.5 49.5t30 69.5t18.5 79.5l145 775h-229l27 143h229l43 223q14 75 36.5 144.5t63 122.5t105 84.5t162.5 31.5
q39 0 75.5 -6t73.5 -10l-29 -164q-22 4 -41.5 8t-42.5 4q-56 0 -90.5 -17t-55.5 -47t-32.5 -71t-21.5 -90l-43 -213h258z" />
    <glyph glyph-name="circumflex" unicode="&#x2c6;" horiz-adv-x="569" 
d="M190 1485h187l205 -295h-164l-135 201l-133 -201h-162z" />
    <glyph glyph-name="caron" unicode="&#x2c7;" horiz-adv-x="569" 
d="M379 1190h-186l-205 295h164l135 -201l133 201h162z" />
    <glyph glyph-name="breve" unicode="&#x2d8;" horiz-adv-x="569" 
d="M70 1479q16 -86 73.5 -123t141.5 -37t141 37t74 123h100q-14 -133 -97 -206t-218 -73q-136 0 -218.5 72.5t-97.5 206.5h101z" />
    <glyph glyph-name="dotaccent" unicode="&#x2d9;" horiz-adv-x="569" 
d="M188 1409h193v-205h-193v205z" />
    <glyph glyph-name="ring" unicode="&#x2da;" horiz-adv-x="569" 
d="M285 1489q-52 0 -90 -38q-37 -37 -37 -89t37 -89q38 -38 90 -38q49 0 88 39t39 88q0 51 -38 89t-89 38zM285 1571q42 0 80 -16.5t66.5 -45t45.5 -66.5t17 -81t-17 -81t-45.5 -66.5t-66.5 -45t-80 -16.5q-43 0 -81 16.5t-66.5 45t-45 66.5t-16.5 81t16.5 81t45 66.5
t66.5 45t81 16.5z" />
    <glyph glyph-name="ogonek" unicode="&#x2db;" horiz-adv-x="569" 
d="M471 0q-54 -44 -88.5 -79t-54 -65t-26.5 -56.5t-7 -53.5q0 -49 19.5 -71.5t47.5 -22.5q68 0 115 59l64 -16q-23 -33 -47 -56.5t-52 -39t-61 -22.5t-74 -7q-18 0 -46.5 2.5t-55.5 18.5t-46.5 50t-19.5 97q0 14 7.5 40t32 60.5t70.5 75.5t124 86h98z" />
    <glyph glyph-name="tilde" unicode="&#x2dc;" horiz-adv-x="569" 
d="M-63 1200q4 33 15 73t32.5 75t56.5 58.5t88 23.5q40 -1 82 -16t83.5 -32.5t79.5 -32t70 -14.5q47 -4 69 28q21 30 26 67h94q-4 -33 -15 -73t-33.5 -75t-57.5 -58.5t-87 -23.5q-41 1 -83 16t-82.5 32.5t-78.5 31.5t-71 14q-46 4 -69 -28q-20 -31 -25 -66h-94z" />
    <glyph glyph-name="hungarumlaut" unicode="&#x2dd;" horiz-adv-x="569" 
d="M518 1485h223l-268 -295h-137zM147 1485h224l-269 -295h-137z" />
    <glyph glyph-name="pi" unicode="&#x3c0;" horiz-adv-x="1167" 
d="M1120 23q-35 -17 -67 -26t-74 -9q-62 0 -97.5 19.5t-53 53t-21.5 78t-4 94.5v607h-504v-840h-154v840h-141v141h1108v-141h-156v-613q0 -46 12 -77q13 -31 66 -31q40 0 86 20v-116z" />
    <glyph glyph-name="uni060C" unicode="&#x60c;" horiz-adv-x="710" 
d="M381 0h-229l174 501h184z" />
    <glyph glyph-name="uni0615" unicode="&#x615;" horiz-adv-x="0" 
d="M-63 1176h90v475h88v-318q32 45 79 69.5t95 24.5q45 0 78.5 -15t56 -42t34 -63.5t11.5 -79.5v-142h-532v91zM381 1223q0 66 -27.5 91t-72.5 25q-27 0 -54 -11.5t-49.5 -32.5t-39 -51.5t-21.5 -67.5h264v47z" />
    <glyph glyph-name="uni061B" unicode="&#x61b;" horiz-adv-x="708" 
d="M182 229h229v-229h-229v229zM411 433h-229l174 501h184z" />
    <glyph glyph-name="uni061F" unicode="&#x61f;" horiz-adv-x="864" 
d="M544 354h-160v32q0 39 -8 70t-28 63q-35 55 -75.5 103t-76 98t-59 106.5t-23.5 127.5q0 81 31.5 142.5t83 103t117.5 62.5t136 21q87 0 157 -17t127 -43l-12 -171q-42 32 -105 52t-148 20q-40 0 -77.5 -10.5t-66 -33t-45.5 -57t-17 -81.5q0 -44 14 -82.5t35 -73t46 -65.5
t48 -59q30 -38 50.5 -68.5t32.5 -61t17.5 -64t5.5 -76.5v-38zM560 0h-192v202h192v-202z" />
    <glyph glyph-name="uni0640" unicode="&#x640;" horiz-adv-x="317" 
d="M389 58q0 -19 -5.5 -30.5t-15.5 -17.5t-23 -8t-28 -2h-317q-15 0 -28 2t-23 8t-15.5 17.5t-5.5 30.5v69q0 29 18 41t54 12h317q36 0 54 -12t18 -41v-69z" />
    <glyph glyph-name="uni0647" unicode="&#x647;" horiz-adv-x="895" 
d="M363 0q-87 0 -154.5 27.5t-114 75t-70.5 111.5t-24 136q0 120 36.5 211t93.5 152.5t125.5 92.5t132.5 31q67 0 134.5 -30t121.5 -90.5t87.5 -152t33.5 -214.5q0 -68 -25 -131.5t-71 -112t-111 -77.5t-145 -29h-50zM160 383q0 -102 60.5 -152.5t160.5 -50.5h20
q49 0 85.5 16t61 44t36.5 65t12 78q0 73 -19.5 128t-50.5 92t-68 55.5t-72 18.5q-42 0 -82.5 -18t-72.5 -54.5t-51.5 -92t-19.5 -129.5z" />
    <glyph glyph-name="uni064B" unicode="&#x64b;" horiz-adv-x="0" 
d="M-219 1512h433v-81h-433v81zM-219 1699h433v-81h-433v81z" />
    <glyph glyph-name="uni064C" unicode="&#x64c;" horiz-adv-x="0" 
d="M-19 1510q17 0 36.5 4t40.5 12q-38 28 -56.5 64t-18.5 72q0 30 11 55.5t29.5 44.5t42.5 29.5t51 10.5q54 0 90.5 -32.5t36.5 -101.5q0 -54 -27 -96t-67.5 -71.5t-86.5 -44.5t-83 -15q-24 0 -48 4.5t-48 16.5t-46.5 32t-43.5 51l-86 -82l-42 46q34 35 66 66t63 63
q19 -26 40 -49t44 -40.5t48.5 -28t53.5 -10.5zM48 1664q0 -25 13 -52.5t51 -56.5q29 20 48.5 47t19.5 62t-20 53t-43 18q-29 0 -49 -19.5t-20 -51.5z" />
    <glyph glyph-name="uni064D" unicode="&#x64d;" horiz-adv-x="0" 
d="M-219 -501h433v-81h-433v81zM-219 -314h433v-81h-433v81z" />
    <glyph glyph-name="uni064E" unicode="&#x64e;" horiz-adv-x="0" 
d="M-219 1512h433v-81h-433v81z" />
    <glyph glyph-name="uni064F" unicode="&#x64f;" horiz-adv-x="0" 
d="M-9 1510q18 0 39 4t42 12q-38 29 -56 64.5t-18 71.5q0 30 11 55.5t29.5 44.5t42.5 29.5t51 10.5q54 0 90.5 -32.5t36.5 -101.5q0 -54 -27.5 -96t-68 -71.5t-88.5 -44.5t-88 -15q-57 0 -107.5 8.5t-95.5 23.5l16 68q46 -15 90 -23t101 -8zM63 1664q0 -25 13 -52.5
t51 -56.5q29 20 48.5 47t19.5 62t-20 53t-43 18q-29 0 -49 -19.5t-20 -51.5z" />
    <glyph glyph-name="uni0650" unicode="&#x650;" horiz-adv-x="0" 
d="M-219 -314h433v-81h-433v81z" />
    <glyph glyph-name="uni0651" unicode="&#x651;" horiz-adv-x="0" 
d="M0 1492q-20 -25 -51.5 -43t-66.5 -18q-72 0 -114 44t-42 117v147h77v-151q0 -41 23.5 -60.5t56.5 -19.5t56.5 23.5t23.5 56.5v129h72v-129q0 -33 23.5 -56.5t56.5 -23.5t56.5 19.5t23.5 60.5v152h77v-148q0 -36 -12 -66t-33 -51t-49.5 -32.5t-61.5 -11.5q-35 0 -66 18
t-50 43z" />
    </font>
</defs>
</svg>
