<?xml version="1.0" standalone="no"?>
<!DOCTYPE svg PUBLIC "-//W3C//DTD SVG 1.1//EN" "http://www.w3.org/Graphics/SVG/1.1/DTD/svg11.dtd" >
<svg>
<metadata>
Created by FontForge 20090914 at Fri Dec  7 17:43:24 2012
 By www-data
KACST holds the copyright of the included Arabic font which is donated under GPL by KACST. 
URW Design and Development holds the copyright of the included Latin font which is donated under GPL by URW. 
</metadata>
<defs>
<font id="KacstTitle" horiz-adv-x="1269" >
  <font-face 
    font-family="KacstTitle"
    font-weight="500"
    font-stretch="normal"
    units-per-em="2048"
    panose-1="2 0 0 0 0 0 0 0 0 0"
    ascent="1638"
    descent="-410"
    x-height="992.999"
    cap-height="1395"
    bbox="-337 -1025 3414 2164"
    underline-thickness="100"
    underline-position="-800"
    unicode-range="U+0020-U+FEFF"
  />
<missing-glyph horiz-adv-x="1024" 
d="M128 0v1450h768v-1450h-768zM256 128h512v1194h-512v-1194z" />
    <glyph glyph-name="shaddawithfathatanisolated" unicode="&#x651;&#x64b;" horiz-adv-x="414" 
d="M408 1954c-10 -44 -30.667 -72.667 -62 -86l-280 -115c12 42.667 33.667 70.667 65 84zM408 1845c-6.66699 -40.667 -23 -66 -49 -76l-295 -116c18 46 46.667 76.667 86 92zM414 1673c0 -23.333 -2.66895 -44.832 -8.00195 -64.499s-12.666 -36.834 -21.999 -51.501
s-20.5 -26 -33.5 -34s-27.167 -12 -42.5 -12c-12 0 -32.667 7.66699 -62 23l-4 2c-25.333 -57.333 -60 -86 -104 -86c-52 0 -78 32.667 -78 98c0 -3.33301 2 17 6 61l29 19c6.66699 -52 24.334 -78 53.001 -78c36.667 0 66 44.333 88 133l22 6c16.667 -48.667 36 -73 58 -73
c38 0 59.667 40.667 65 122l27 9c4 -22 6 -46.667 6 -74z" />
    <glyph glyph-name="shaddawithdammatanisolated" unicode="&#x651;&#x64c;" horiz-adv-x="482" arabic-form="isolated" 
d="M482 1788c0 -6 -2.33301 -12.332 -7 -18.999c-16 4 -47.333 14.333 -94 31c-88.667 -46.667 -157.667 -70 -207 -70c-28 0 -55.333 4.33301 -82 13c42.667 22.667 64 47.667 64 75c0 36 -16.667 54 -50 54c4.66699 0 4 -0.5 -2 -1.5l-34 -5.5c16 50.667 39.667 76 71 76
c16.667 0 31.167 -7.33301 43.5 -22s18.5 -32.667 18.5 -54c0 -16 -5.66699 -40.333 -17 -73c48 5.33301 92.333 20.333 133 45c-35.333 24 -53 50 -53 78c0 24 14.333 48.333 43 73c28.667 26 56.667 39 84 39c14.667 0 29.667 -8 45 -24c15.333 -17.333 23 -34 23 -50
c0 -18.667 -8.33301 -45 -25 -79c30.667 -18.667 46 -47.334 46 -86.001zM455 1677c0 -24.667 -2.66895 -47.332 -8.00195 -67.999s-12.666 -38.334 -21.999 -53.001s-20.5 -26.167 -33.5 -34.5s-26.833 -12.5 -41.5 -12.5c-13.333 0 -36 7.66699 -68 23l-4 2
c-30 -56 -64.667 -84 -104 -84c-53.333 0 -80 34.667 -80 104c0 19.333 7.66699 51.333 23 96l20 2c2.66699 -66.667 19 -100 49 -100c31.333 0 60 45 86 135l19 2c10.667 -48.667 32.334 -73 65.001 -73c34 0 58.667 36.667 74 110h20c1.33301 -7.33301 2.5 -15 3.5 -23
s1.5 -16.667 1.5 -26zM394.998 1941c0 27.333 -10.333 41 -31 41c-20 0 -30 -8 -30 -24s15.667 -34.667 47 -56c9.33301 17.333 14 30.333 14 39z" />
    <glyph glyph-name="shaddawithkasratanisolated" unicode="&#x651;&#x64d;" horiz-adv-x="420" arabic-form="isolated" 
d="M420 1940c0 -112 -34.666 -168.001 -103.999 -168.001c-24 0 -45.333 7 -64 21c-5.33301 -23.333 -18.333 -43.333 -39 -60c-21.333 -17.333 -43 -26 -65 -26c-54.667 0 -82 36 -82 108c0 16.667 7.33301 50.334 22 101.001l23 4c0 -74 13 -111 39 -111
c42.667 0 72.667 54 90 162l18 6c15.333 -65.333 34.666 -98 57.999 -98c38.667 0 61 49 67 147l23 10c9.33301 -40.667 14 -72.667 14 -96zM412.001 1773c-10 -44 -29.668 -72.667 -59.001 -86l-283 -127c18.667 48.667 47.334 81.667 86.001 99zM412 1656
c-10 -41.333 -32 -69.334 -66 -84.001l-276 -122c13.333 46.667 37.333 77.334 72 92.001z" />
    <glyph glyph-name="shaddawithfathaisolated" unicode="&#x651;&#x64e;" horiz-adv-x="414" arabic-form="isolated" 
d="M408 1845c-6.66699 -40.667 -23 -66 -49 -76l-295 -116c18 46 46.667 76.667 86 92zM414 1673c0 -23.333 -2.66895 -44.832 -8.00195 -64.499s-12.666 -36.834 -21.999 -51.501s-20.5 -26 -33.5 -34s-27.167 -12 -42.5 -12c-12 0 -32.667 7.66699 -62 23l-4 2
c-25.333 -57.333 -60 -86 -104 -86c-52 0 -78 32.667 -78 98c0 -3.33301 2 17 6 61l29 19c6.66699 -52 24.334 -78 53.001 -78c36.667 0 66 44.333 88 133l22 6c16.667 -48.667 36 -73 58 -73c38 0 59.667 40.667 65 122l27 9c4 -22 6 -46.667 6 -74z" />
    <glyph glyph-name="shaddawithdammaisolated" unicode="&#x651;&#x64f;" horiz-adv-x="424" arabic-form="isolated" 
d="M424 1763c-28.667 4 -65.332 13.668 -109.999 29.001c-81.333 -65.333 -143 -98 -185 -98c-14.667 0 -36.334 6.66699 -65.001 20c44 14.667 83.5 30 118.5 46s65.167 33.333 90.5 52c-32.667 24.667 -49 52.667 -49 84c0 28 12.667 55.667 38 83
c26 26.667 53.333 40 82 40c14.667 0 30.667 -8 48 -24c17.333 -15.333 26 -29.666 26 -42.999c0 -30 -12 -59.333 -36 -88c5.33301 -2.66699 11 -5.83398 17 -9.50098s12 -7.83398 18 -12.501c4.66699 -4.66699 7 -18.667 7 -42v-37zM418.002 1720
c0 -143.333 -36 -215 -108 -215c-28 0 -51.333 8.33301 -70 25c-21.333 -53.333 -56 -80 -104 -80c-52 0 -78 32.667 -78 98c0 29.333 7.33301 57.333 22 84l21 2c4 -54.667 19.667 -82 47 -82c30.667 0 60 39.667 88 119l24 6c8 -44.667 26 -67 54 -67
c37.333 0 64 34.667 80 104zM353.002 1927c0 32.667 -14.333 49 -43 49c-16.667 0 -25 -10 -25 -30c0 -16 19.667 -36.667 59 -62c6 16 9 30.333 9 43z" />
    <glyph glyph-name="shaddawithkasraisolated" unicode="&#x651;&#x650;" horiz-adv-x="420" arabic-form="isolated" 
d="M420 1830c0 -112 -34.666 -168.001 -103.999 -168.001c-24 0 -45.333 7 -64 21c-5.33301 -23.333 -18.333 -43.333 -39 -60c-21.333 -17.333 -43 -26 -65 -26c-54.667 0 -82 36 -82 108c0 16.667 7.33301 50.334 22 101.001l23 4c0 -74 13 -111 39 -111
c42.667 0 72.667 54 90 162l18 6c15.333 -65.333 34.666 -98 57.999 -98c38.667 0 61 49 67 147l23 10c9.33301 -40.667 14 -72.667 14 -96zM412.001 1663c-10 -44 -29.668 -72.667 -59.001 -86l-283 -127c18.667 48.667 47.334 81.667 86.001 99z" />
    <glyph glyph-name="shaddawithfathamedial" unicode="&#x640;&#x651;&#x64e;" horiz-adv-x="1284" arabic-form="medial" 
d="M807 1552c0 -44 -11.667 -72.667 -35 -86l-303 -172c2 25.333 6.66699 45 14 59c8 13.333 25.333 27.333 52 42zM819 1263c0 -112 -34.666 -168.001 -103.999 -168.001c-24 0 -45.333 7 -64 21c-5.33301 -23.333 -18.333 -43.333 -39 -60
c-21.333 -17.333 -43 -26 -65 -26c-54.667 0 -82 36 -82 108c0 16.667 7.33301 50.334 22 101.001l23 4c0 -74 13 -111 39 -111c42.667 0 72.667 54 90 162l18 6c15.333 -65.333 34.666 -98 57.999 -98c38.667 0 61 49 67 147l23 10c9.33301 -40.667 14 -72.667 14 -96z
M1354 128.999h-1354v121h1354v-121z" />
    <glyph glyph-name="shaddawithdammamedial" unicode="&#x640;&#x651;&#x64f;" horiz-adv-x="1284" arabic-form="medial" 
d="M813 1503l-7.99902 -99l-80 52c-80 -96 -145.667 -144 -197 -144c-12.667 0 -32.334 4 -59.001 12c68 38 139 90 213 156c-40.667 30 -61 60 -61 90c0 40 15 81.667 45 125c20 28.667 43.667 43 71 43c45.333 0 68 -29.333 68 -88c0 -34 -10.333 -73 -31 -117
c8.66699 -7.33301 21.667 -17.333 39 -30zM819.001 1263c0 -112 -34.666 -168.001 -103.999 -168.001c-24 0 -45.333 7 -64 21c-5.33301 -23.333 -18.333 -43.333 -39 -60c-21.333 -17.333 -43 -26 -65 -26c-54.667 0 -82 36 -82 108c0 16.667 7.33301 50.334 22 101.001
l23 4c0 -74 13 -111 39 -111c42.667 0 72.667 54 90 162l18 6c15.333 -65.333 34.666 -98 57.999 -98c38.667 0 61 49 67 147l23 10c9.33301 -40.667 14 -72.667 14 -96zM743.002 1591c0 15.333 -5.33301 29.333 -16 42s-23 19 -37 19c-12 0 -18 -6.66699 -18 -20
c0 -20.667 21.667 -45.667 65 -75c4 12.667 6 24 6 34zM1354 128.999h-1354v121h1354v-121z" />
    <glyph glyph-name="shaddawithkasramedial" unicode="&#x640;&#x651;&#x650;" horiz-adv-x="1284" arabic-form="medial" 
d="M819 1491c0 -112 -34.666 -168.001 -103.999 -168.001c-24 0 -45.333 7 -64 21c-5.33301 -23.333 -18.333 -43.333 -39 -60c-21.333 -17.333 -43 -26 -65 -26c-54.667 0 -82 36 -82 108c0 16.667 7.33301 50.334 22 101.001l23 4c0 -74 13 -111 39 -111
c42.667 0 72.667 54 90 162l18 6c15.333 -65.333 34.666 -98 57.999 -98c38.667 0 61 49 67 147l23 10c9.33301 -40.667 14 -72.667 14 -96zM807.001 1288c0 -44 -11.667 -72.667 -35 -86l-303 -172c2 25.333 6.66699 45 14 59c8 13.333 25.333 27.333 52 42zM1354 128.999
h-1354v121h1354v-121z" />
    <glyph glyph-name="allahisolated" unicode="&#xfedf;&#xfee0;&#xfeea;" horiz-adv-x="2566" arabic-form="isolated" 
d="M2279 313c0 -43.333 -8.83008 -84.502 -26.4971 -123.502s-41.5 -72.833 -71.5 -101.5s-65.167 -51.167 -105.5 -67.5s-82.5 -24.5 -126.5 -24.5c-21.333 1.33301 -41.666 3.66602 -60.999 6.99902s-38.333 8.33301 -57 15c-45.333 19.333 -81 42 -107 68l-14 16l-17 -16
c-17.333 -18 -34.333 -31 -51 -39c-14.667 -10.667 -32.334 -20.334 -53.001 -29.001c-20.667 -6.66699 -40.167 -11.667 -58.5 -15s-37.166 -5.66602 -56.499 -6.99902c-43.333 0 -84.5 7.83301 -123.5 23.5s-74.167 37.834 -105.5 66.501l-16 18l-17 -16
c-27.333 -27.333 -61.5 -49.166 -102.5 -65.499s-82.5 -24.5 -124.5 -24.5h-658c-43.333 0 -84 7.33301 -122 22c-19.333 8.66699 -37.5 18 -54.5 28s-34.5 23.333 -52.5 40c-28.667 30 -51.834 64.833 -69.501 104.5s-26.5 79.834 -26.5 120.501v678
c0 44 8.16699 85 24.5 123s39.5 70.667 69.5 98s66.167 50 108.5 68s83.166 27 122.499 27h658c42 0 82.833 -7.83301 122.5 -23.5s74.5 -37.5 104.5 -65.5s53.833 -61.5 71.5 -100.5s26.5 -81.167 26.5 -126.5v-678c0 -18.667 4.16699 -37.667 12.5 -57
s20.166 -35.666 35.499 -48.999c31.333 -30 66.666 -45.667 105.999 -47v2c48 0 87 15 117 45c14.667 13.333 26.167 29.666 34.5 48.999s12.5 38.333 12.5 57v1323h164v-1323c0 -42 16.333 -77.333 49 -106c28.667 -28.667 64.667 -43.667 108 -45h7
c20 1.33301 40.333 6 61 14s37 18.333 49 31c31.333 28.667 47 64 47 106v1323h166v-1323zM203.003 1098c-31.333 -28.667 -46.999 -64.334 -46.999 -107.001v-678c0 -39.333 15.667 -74.333 47 -105s69.333 -46 114 -46h658c24.667 0 45.5 3.33301 62.5 10
s34.5 18.334 52.5 35.001c14.667 13.333 26.167 30 34.5 50s12.5 38.667 12.5 56v678c0 42.667 -15.833 78.667 -47.5 108s-69.834 44 -114.501 44h-658c-21.333 0 -42 -3.5 -62 -10.5s-37.333 -18.5 -52 -34.5z" />
    <glyph glyph-name="tatweelwithfathatanabove" unicode="&#x640;&#x64b;" horiz-adv-x="1284" arabic-form="medial" 
d="M811 1434c0 -44 -11.667 -72.667 -35 -86l-303 -172c2 25.333 6.66699 45 14 59c8 13.333 25.333 27.333 52 42zM811 1288c0 -44 -11.667 -72.667 -35 -86l-303 -172c2 25.333 6.66699 45 14 59c8 13.333 25.333 27.333 52 42zM1354 129h-1354v121h1354v-121z" />
    <glyph glyph-name="fathamedial" unicode="&#x640;&#x64e;" horiz-adv-x="1284" arabic-form="medial" 
d="M811 1288c0 -44 -11.667 -72.667 -35 -86l-303 -172c2 25.333 6.66699 45 14 59c8 13.333 25.333 27.333 52 42zM1354 129h-1354v121h1354v-121z" />
    <glyph glyph-name="dammamedial" unicode="&#x640;&#x64f;" horiz-adv-x="1284" arabic-form="medial" 
d="M814 1221l-7.99902 -99l-80 52c-80 -96 -145.667 -144 -197 -144c-12.667 0 -32.334 4 -59.001 12c68 38 139 90 213 156c-40.667 30 -61 60 -61 90c0 40 15 81.667 45 125c20 28.667 43.667 43 71 43c45.333 0 68 -29.333 68 -88c0 -34 -10.333 -73 -31 -117
c8.66699 -7.33301 21.667 -17.333 39 -30zM744.001 1309c0 15.333 -5.33301 29.333 -16 42s-23 19 -37 19c-12 0 -18 -6.66699 -18 -20c0 -20.667 21.667 -45.667 65 -75c4 12.667 6 24 6 34zM1354 129h-1354v121h1354v-121z" />
    <glyph glyph-name="kasramedial" unicode="&#x640;&#x650;" horiz-adv-x="1284" arabic-form="medial" 
d="M811 -71c0 -44 -11.667 -72.667 -35 -86l-303 -172c2 25.333 6.66699 45.333 14 60c8.66699 12 26 25.667 52 41zM1354 129h-1354v121h1354v-121z" />
    <glyph glyph-name="shaddamedial" unicode="&#x640;&#x651;" horiz-adv-x="1284" arabic-form="medial" 
d="M819 1263c0 -112 -34.666 -168.001 -103.999 -168.001c-24 0 -45.333 7 -64 21c-5.33301 -23.333 -18.333 -43.333 -39 -60c-21.333 -17.333 -43 -26 -65 -26c-54.667 0 -82 36 -82 108c0 16.667 7.33301 50.334 22 101.001l23 4c0 -74 13 -111 39 -111
c42.667 0 72.667 54 90 162l18 6c15.333 -65.333 34.666 -98 57.999 -98c38.667 0 61 49 67 147l23 10c9.33301 -40.667 14 -72.667 14 -96zM1354 128.999h-1354v121h1354v-121z" />
    <glyph glyph-name="sukunmedial" unicode="&#x640;&#x652;" horiz-adv-x="1284" arabic-form="medial" 
d="M771 1194c0 -43.333 -15.333 -81.333 -46 -114c-31.333 -33.333 -66.333 -50 -105 -50c-71.333 0 -107 40.333 -107 121c0 56 12.667 101.667 38 137c24.667 36 57.667 54 99 54c31.333 0 59.333 -15.333 84 -46c24.667 -28.667 37 -62.667 37 -102zM716 1170
c0 17.333 -14.333 36.333 -43 57c-27.333 19.333 -50 29 -68 29c-39.333 0 -59 -22.667 -59 -68c0 -39.333 30.667 -59 92 -59c52 0 78 13.667 78 41zM1354 129h-1354v121h1354v-121z" />
    <glyph glyph-name="lamwithalefmaddaaboveisolatedd" unicode="&#xfedf;&#xfe82;" horiz-adv-x="1277" arabic-form="isolated" 
d="M765 1505h-471v127h471v-127zM634 1437v-1275h176c15.333 -0.666992 33.833 3.5 55.5 12.5s38.834 19.833 51.501 32.5c31.333 28.667 47 64 47 106v1324h166v-1324c0 -43.333 -9 -84.5 -27 -123.5s-42 -73.5 -72 -103.5c-18 -17.333 -34.833 -31 -50.5 -41
s-33.834 -19 -54.501 -27c-36.667 -15.333 -78.667 -23 -126 -23h-5h5h-645h4h-4v167h4h-4h315v1275h164z" />
    <glyph glyph-name="lamwithalefmaddaabovefinal" unicode="&#xfee0;&#xfe82;" horiz-adv-x="1326" arabic-form="final" 
d="M670 1418l0.000976562 -1255h165c49.333 -0.666992 88.666 14.333 117.999 45c31.333 28.667 47 64 47 106v1324h166v-1324c0 -41.333 15.333 -77 46 -107s69.667 -45 117 -45h-4h4v-163c-44 -2 -86 5 -126 21c-43.333 20.667 -78.333 43.334 -105 68.001l-15 16l-16 -16
c-34 -30 -69.333 -52.833 -106 -68.5s-78.667 -23.5 -126 -23.5h-4h4h4h-4h-675v167h345v1255h165zM815.001 1506h-471v127h471v-127z" />
    <glyph glyph-name="lamwithalefhamzaaboveisolatedd" unicode="&#xfedf;&#xfe84;" horiz-adv-x="1284" arabic-form="isolated" 
d="M568 1468c0 -11.333 4.5 -20.167 13.5 -26.5s18.167 -9.5 27.5 -9.5h121v-123h-367v123h82v102v22c3.33301 24 11.666 43.333 24.999 58c16.667 14.667 35.667 22 57 22h123c22.667 -2.66699 41.334 -10 56.001 -22c16 -16 24 -35.333 24 -58v-63l-41 -2l-10 14
c-5.33301 5.33301 -15 8 -29 8h-41c-10 0 -20 -4 -30 -12c-3.33301 -2.66699 -6 -6 -8 -10l-3 -16v-7zM634 1247v-1085h166c22 -0.666992 43.833 3.5 65.5 12.5s38.834 19.833 51.501 32.5c31.333 28.667 47 64 47 106v1324h166v-1324c0 -43.333 -9 -84.5 -27 -123.5
s-42 -73.5 -72 -103.5c-18 -17.333 -34.833 -31 -50.5 -41s-33.834 -19 -54.501 -27c-36.667 -15.333 -78.667 -23 -126 -23h-5h5h-645h4h-4v167h4h-4h315v1085h164z" />
    <glyph glyph-name="lamwithalefhamzaabovefinal" unicode="&#xfee0;&#xfe84;" horiz-adv-x="1314" arabic-form="final" 
d="M660 1248l0.000976562 -1085h165c49.333 -0.666992 88.666 14.333 117.999 45c31.333 28.667 47 64 47 106v1324h166v-1324c0 -41.333 15.333 -77 46 -107s69.667 -45 117 -45h-4h4v-162c-44 -2.66699 -86 4 -126 20c-43.333 20.667 -78.333 43.334 -105 68.001l-15 16
l-16 -16c-34 -30 -69.333 -52.833 -106 -68.5s-78.667 -23.5 -126 -23.5h-4h4h4h-4h-675v167h345v1085h165zM578.001 1469c0 -11.333 4.5 -20.167 13.5 -26.5s18.167 -9.5 27.5 -9.5h121v-123h-367v123h82v102v22c3.33301 24 11.666 43.333 24.999 58
c16.667 14.667 35.667 22 57 22h123c22.667 -2.66699 41.334 -10 56.001 -22c16 -16 24 -35.333 24 -58v-63l-41 -2l-10 14c-5.33301 5.33301 -15 8 -29 8h-41c-10 0 -20 -4 -30 -12c-3.33301 -2.66699 -6 -6 -8 -10l-3 -16v-7z" />
    <glyph glyph-name="lamwithalefhamzabelowisolated" unicode="&#xfedf;&#xfe88;" horiz-adv-x="1299" arabic-form="isolated" 
d="M527 -194c0 -9.33301 4.33301 -16.834 13 -22.501s18 -8.5 28 -8.5h121v-104h-367v104h82v87v18c3.33301 20.667 11.666 37 24.999 49c16.667 12.667 35.667 19 57 19h123c22.667 -2 41.334 -8.33301 56.001 -19c16 -13.333 24 -29.666 24 -48.999v-53h-41l-10 10
c-5.33301 4.66699 -15 7 -29 7h-41c-10 0 -20 -3.33301 -30 -10c-3.33301 -2.66699 -6 -5.66699 -8 -9l-3 -13v-6zM634 1307v-1145h166c22 -0.666992 43.833 3.5 65.5 12.5s38.834 19.833 51.501 32.5c31.333 28.667 47 64 47 106v1324h166v-1324
c0 -43.333 -9 -84.5 -27 -123.5s-42 -73.5 -72 -103.5c-18 -17.333 -34.833 -31 -50.5 -41s-33.834 -19 -54.501 -27c-36.667 -15.333 -78.667 -23 -126 -23h-5h5h-645h4h-4v167h4h-4h315v1145h164z" />
    <glyph glyph-name="lamwithalefhamzabelowfinal" unicode="&#xfee0;&#xfe88;" horiz-adv-x="1323" arabic-form="final" 
d="M670 1308l0.000976562 -1145h165c49.333 -0.666992 88.666 14.333 117.999 45c31.333 28.667 47 64 47 106v1324h166v-1324c0 -41.333 15.333 -77 46 -107s69.667 -45 117 -45h-4h4v-163c-44 -2 -86 5 -126 21c-43.333 20.667 -78.333 43.334 -105 68.001l-15 16l-16 -16
c-34 -30 -69.333 -52.833 -106 -68.5s-78.667 -23.5 -126 -23.5h-4h4h4h-4h-675v167h345v1145h165zM527.001 -193.001c0 -9.33301 4.33301 -16.834 13 -22.501s18 -8.5 28 -8.5h121v-104h-367v104h82v87v18c3.33301 20.667 11.666 37 24.999 49
c16.667 12.667 35.667 19 57 19h123c22.667 -2 41.334 -8.33301 56.001 -19c16 -13.333 24 -29.666 24 -48.999v-53h-41l-10 10c-5.33301 4.66699 -15 7 -29 7h-41c-10 0 -20 -3.33301 -30 -10c-3.33301 -2.66699 -6 -5.66699 -8 -9l-3 -13v-6z" />
    <glyph glyph-name="lamwithalefisolated" unicode="&#xfedf;&#xfe8e;" horiz-adv-x="1281" arabic-form="isolated" 
d="M634 1397v-1235h166c22 -0.666992 43.833 3.5 65.5 12.5s38.834 19.833 51.501 32.5c31.333 28.667 47 64 47 106v1324h166v-1324c0 -43.333 -9 -84.5 -27 -123.5s-42 -73.5 -72 -103.5c-18 -17.333 -34.833 -31 -50.5 -41s-33.834 -19 -54.501 -27
c-36.667 -15.333 -78.667 -23 -126 -23h-5h5h-645h4h-4v167h4h-4h315v1235h164z" />
    <glyph glyph-name="lamwithaleffinal" unicode="&#xfee0;&#xfe8e;" horiz-adv-x="1321" arabic-form="final" 
d="M670 1398l0.000976562 -1235h165c49.333 -0.666992 88.666 14.333 117.999 45c31.333 28.667 47 64 47 106v1324h166v-1324c0 -41.333 15.333 -77 46 -107s69.667 -45 117 -45h-4h4v-164c-44 -1.33301 -86 6 -126 22c-43.333 20.667 -78.333 43.334 -105 68.001l-15 16
l-16 -16c-34 -30 -69.333 -52.833 -106 -68.5s-78.667 -23.5 -126 -23.5h-4h4h4h-4h-675v167h345v1235h165z" />
    <glyph glyph-name="fathatanisolated" unicode="&#xfe70;" horiz-adv-x="408" arabic-form="isolated" 
d="M408 2054c0 -44 -11.667 -72.667 -35 -86l-303 -172c2 25.333 6.66699 45 14 59c8 13.333 25.333 27.333 52 42zM408 1908c0 -44 -11.667 -72.667 -35 -86l-303 -172c2 25.333 6.66699 45 14 59c8 13.333 25.333 27.333 52 42z" />
    <glyph glyph-name="dammatanisolated" unicode="&#xfe72;" horiz-adv-x="463" arabic-form="isolated" 
d="M463 1582c0 -11.333 -0.167969 -21.999 -0.500977 -31.999s-0.833008 -19 -1.5 -27c-13.333 7.33301 -27.666 15.833 -42.999 25.5s-31.666 20.834 -48.999 33.501c-84 -86 -164 -134.333 -240 -145c28.667 59.333 43 102.333 43 129c0 36.667 -16.333 55 -49 55
c-28 0 -44.333 -25.333 -49 -76c-6.66699 19.333 -10 36.666 -10 51.999s2.16699 29.666 6.5 42.999s10.333 25 18 35s16.5 17.833 26.5 23.5s21 8.5 33 8.5c44.667 0 67 -33.333 67 -100l-6 -92c43.333 16.667 84.666 46.667 123.999 90c-44 28.667 -66 60 -66 94
c0 35.333 13.333 68.333 40 99c26.667 32 54 48 82 48c14.667 0 29.667 -9 45 -27c15.333 -17.333 23 -35 23 -53c0 -20 -3.66699 -39.333 -11 -58l-22 -56c26 -20 39 -43.333 39 -70zM386.999 1726c0 35.333 -13.667 53 -41 53c-17.333 0 -26 -7.66699 -26 -23
c0 -17.333 21 -40.333 63 -69c2.66699 6 4 19 4 39z" />
    <glyph glyph-name="kasratanisolated" unicode="&#xfe74;" horiz-adv-x="408" arabic-form="isolated" 
d="M408 -620c0 -44 -11.667 -72.667 -35 -86l-303 -172c2 25.333 6.66699 45.333 14 60c8.66699 12 26 25.667 52 41zM408 -767c0 -44 -11.667 -72.667 -35 -86l-303 -172c2 25.333 6.66699 45.333 14 60c8.66699 12 26 25.667 52 41z" />
    <glyph glyph-name="fathaisolated" unicode="&#xfe76;" horiz-adv-x="408" arabic-form="isolated" 
d="M408 1708c0 -44 -11.667 -72.667 -35 -86l-303 -172c2 25.333 6.66699 45 14 59c8 13.333 25.333 27.333 52 42z" />
    <glyph glyph-name="dammaisolated" unicode="&#xfe78;" horiz-adv-x="414" arabic-form="isolated" 
d="M414 1641l-7.99902 -99l-80 52c-80 -96 -145.667 -144 -197 -144c-12.667 0 -32.334 4 -59.001 12c68 38 139 90 213 156c-40.667 30 -61 60 -61 90c0 40 15 81.667 45 125c20 28.667 43.667 43 71 43c45.333 0 68 -29.333 68 -88c0 -34 -10.333 -73 -31 -117
c8.66699 -7.33301 21.667 -17.333 39 -30zM344.001 1729c0 15.333 -5.33301 29.333 -16 42s-23 19 -37 19c-12 0 -18 -6.66699 -18 -20c0 -20.667 21.667 -45.667 65 -75c4 12.667 6 24 6 34z" />
    <glyph glyph-name="kasraisolated" unicode="&#xfe7a;" horiz-adv-x="408" arabic-form="isolated" 
d="M408 -620c0 -44 -11.667 -72.667 -35 -86l-303 -172c2 25.333 6.66699 45.333 14 60c8.66699 12 26 25.667 52 41z" />
    <glyph glyph-name="shaddaisolated" unicode="&#xfe7c;" horiz-adv-x="420" arabic-form="isolated" 
d="M420 1683c0 -112 -34.666 -168.001 -103.999 -168.001c-24 0 -45.333 7 -64 21c-5.33301 -23.333 -18.333 -43.333 -39 -60c-21.333 -17.333 -43 -26 -65 -26c-54.667 0 -82 36 -82 108c0 16.667 7.33301 50.334 22 101.001l23 4c0 -74 13 -111 39 -111
c42.667 0 72.667 54 90 162l18 6c15.333 -65.333 34.666 -98 57.999 -98c38.667 0 61 49 67 147l23 10c9.33301 -40.667 14 -72.667 14 -96z" />
    <glyph glyph-name="sukunisolated" unicode="&#xfe7e;" horiz-adv-x="332" arabic-form="isolated" 
d="M332 1614c0 -43.333 -15.333 -81.333 -46 -114c-31.333 -33.333 -66.333 -50 -105 -50c-71.333 0 -107 40.333 -107 121c0 56 12.667 101.667 38 137c24.667 36 57.667 54 99 54c31.333 0 59.333 -15.333 84 -46c24.667 -28.667 37 -62.667 37 -102zM277 1590
c0 17.333 -14.333 36.333 -43 57c-27.333 19.333 -50 29 -68 29c-39.333 0 -59 -22.667 -59 -68c0 -39.333 30.667 -59 92 -59c52 0 78 13.667 78 41z" />
    <glyph glyph-name="hamzaisolated" unicode="&#x621;" horiz-adv-x="759" arabic-form="isolated" 
d="M455 254c0 -16.667 6.83398 -30.334 20.501 -41.001s28.5 -16 44.5 -16h191v-194h-579v194h129v161v35c5.33301 38 18.666 68.333 39.999 91c26 23.333 56 35 90 35h194c35.333 -4 64.666 -15.667 87.999 -35c25.333 -25.333 38 -55.666 38 -90.999v-100h-65l-15 19
c-8.66699 8.66699 -24 13 -46 13h-65c-16 0 -31.667 -6.33301 -47 -19c-5.33301 -4 -9.66602 -9.33301 -12.999 -16l-5 -25v-11z" />
    <glyph glyph-name="alefwithmaddaaboveisolated" unicode="&#x622;" horiz-adv-x="497" arabic-form="isolated" 
d="M170 -1h163v1435h-163v-1435zM486 1496h-472v125h472v-125z" />
    <glyph glyph-name="alefwithmaddaabovefinal" unicode="&#x622;" horiz-adv-x="497" arabic-form="final" 
d="M337 1436v-1123c0 -11.333 0.666992 -21.166 2 -29.499s4.33301 -17.833 9 -28.5c8 -16.667 19.667 -32.334 35 -47.001c32.667 -30.667 71.667 -46 117 -46h-5h5v-163c-42 0 -83.333 8 -124 24s-76 38 -106 66s-53.667 61.667 -71 101s-26 80.333 -26 123v1123h164z
M486 1498h-472v125h472v-125z" />
    <glyph glyph-name="alefwithhamzaaboveisolated" unicode="&#x623;" horiz-adv-x="497" arabic-form="isolated" 
d="M170 1234h163v-1235h-163v1235zM268 1468c0 -11.333 4.5 -20.167 13.5 -26.5s18.167 -9.5 27.5 -9.5h121v-123h-367v123h82v102v22c3.33301 24 11.666 43.333 24.999 58c16.667 14.667 35.667 22 57 22h123c22.667 -2.66699 41.334 -10 56.001 -22
c16 -16 24 -35.333 24 -58v-63h-41l-10 12c-5.33301 5.33301 -15 8 -29 8h-41c-10 0 -20 -4 -30 -12c-3.33301 -2.66699 -6 -6 -8 -10l-3 -16v-7z" />
    <glyph glyph-name="alefwithhamzaabovefinal" unicode="&#x623;" horiz-adv-x="495" arabic-form="final" 
d="M337 1246v-933c0 -11.333 0.666992 -21.166 2 -29.499s4.33301 -17.833 9 -28.5c8 -16.667 19.667 -32.334 35 -47.001c32.667 -30.667 71.667 -46 117 -46h-5h5v-163c-42 0 -83.333 8 -124 24s-76 38 -106 66s-53.667 61.667 -71 101s-26 80.333 -26 123v933h164z
M268 1470c0 -11.333 4.5 -20.167 13.5 -26.5s18.167 -9.5 27.5 -9.5h121v-123h-367v123h82v102v22c3.33301 24 11.666 43.333 24.999 58c16.667 14.667 35.667 22 57 22h123c22.667 -2.66699 41.334 -10 56.001 -22c16 -16 24 -35.333 24 -58v-63h-41l-10 12
c-5.33301 5.33301 -15 8 -29 8h-41c-10 0 -20 -4 -30 -12c-3.33301 -2.66699 -6 -6 -8 -10l-3 -16v-7z" />
    <glyph glyph-name="wawwithhamzaaboveisolated" unicode="&#x624;" horiz-adv-x="1603" arabic-form="isolated" 
d="M208 1468c0 -12 4.00195 -21 12.002 -27c10 -6 19.667 -9 29 -9h122v-124h-368v123h83v102v24c0 22 7.66699 40.667 23 56c17.333 15.333 36.666 23 57.999 23h123c21.333 0 40.166 -8 56.499 -24s24.5 -34.333 24.5 -55v-65l-41 -1l-12 14c-4.66699 5.33301 -14 8 -28 8
h-41c-10.667 0 -20.667 -4 -30 -12l-8 -12l-3 -15v-6zM374.002 1086c-30.667 -28.667 -46.0029 -63.332 -46.0029 -103.999v-673c0 -22.667 3.83301 -41.834 11.5 -57.501s19.167 -31.167 34.5 -46.5c32.667 -30.667 71.334 -46 116.001 -46h648c20 0 40.333 4 61 12
s39.334 19.333 56.001 34c30 28 45 62.667 45 104v501v161v11c0 20.667 -3.66699 39.5 -11 56.5s-18.666 32.833 -33.999 47.5c-32.667 30.667 -71.667 46 -117 46h-648c-22 0 -43 -3.66699 -63 -11s-37.667 -19 -53 -35zM1463 -15.998c0 -42 -8.16602 -82 -24.499 -120
s-40.166 -71 -71.499 -99c-28.667 -28 -63.167 -50.333 -103.5 -67s-197.5 -22.334 -471.5 -17.001v162c252.667 -1.33301 389 1 409 7s38 16 54 30c30 28 45 62.667 45 104v55c-22.667 -12 -48.334 -22.333 -77.001 -31l-40 -8l-45 -3h-648
c-46 0 -87.5 7.83301 -124.5 23.5s-71 37.834 -102 66.501s-55.167 62.667 -72.5 102s-26 79.333 -26 120v673c0 42 8.16699 81.667 24.5 119s40 71 71 101s65.667 52.833 104 68.5s80.166 23.5 125.499 23.5h648c22.667 0 43.5 -1.66699 62.5 -5s38.833 -9.33301 59.5 -18
c38 -15.333 73.333 -37.666 106 -66.999c28.667 -26.667 52 -59.834 70 -99.501s27 -80.5 27 -122.5v-11v-161v-501v-270v-55z" />
    <glyph glyph-name="wawwithhamzaabovefinal" unicode="&#x624;" horiz-adv-x="1617" arabic-form="final" 
d="M208 1471c0 -12 4.00195 -21 12.002 -27c10 -6 19.667 -9 29 -9h122v-124h-368v123h83v102v24c0 22 7.66699 40.667 23 56c17.333 15.333 36.666 23 57.999 23h123c21.333 0 40.166 -8 56.499 -24s24.5 -34.333 24.5 -55v-65l-41 -1l-12 14c-4.66699 5.33301 -14 8 -28 8
h-41c-10.667 0 -20.667 -4 -30 -12l-8 -12l-3 -15v-6zM374.002 1089c-30.667 -28.667 -46.0029 -63.332 -46.0029 -103.999v-673c0 -22.667 3.83301 -41.834 11.5 -57.501s19.167 -31.167 34.5 -46.5c32.667 -30.667 71.334 -46 116.001 -46h648c20 0 40.333 4 61 12
s39.334 19.333 56.001 34c30 28 45 62.667 45 104v501v161v11c0 20.667 -3.66699 39.5 -11 56.5s-18.666 32.833 -33.999 47.5c-32.667 30.667 -71.667 46 -117 46h-648c-22 0 -43 -3.66699 -63 -11s-37.667 -19 -53 -35zM1463 -12.998c0 -42 -8.16406 -82 -24.4971 -120
s-40.166 -71 -71.499 -99c-28.667 -28 -63.167 -50.333 -103.5 -67s-196.833 -22.334 -469.5 -17.001v162c248 -0.666992 382.833 1.83301 404.5 7.5s40.5 15.5 56.5 29.5c30 28 45 62.667 45 104v55c-22.667 -12 -48.334 -22.333 -77.001 -31l-40 -8l-45 -3h-648
c-46 0 -87.5 7.83301 -124.5 23.5s-71 37.834 -102 66.501s-55.167 62.667 -72.5 102s-26 79.333 -26 120v673c0 42 8.16699 81.667 24.5 119s40 71 71 101s65.667 52.833 104 68.5s80.166 23.5 125.499 23.5h648c22.667 0 43.5 -1.66699 62.5 -5s38.833 -9.33301 59.5 -18
c38 -15.333 73.333 -37.666 106 -66.999c28.667 -26.667 52 -59.834 70 -99.501s27 -80.5 27 -122.5v-11v-161v-501c0 -23.333 3.83301 -43 11.5 -59s19.167 -31 34.5 -45c30.667 -30.667 69 -46 115 -46h-4h4v-162c-28.667 0 -56.334 3.33301 -83.001 10
c-6 1.33301 -11.833 3 -17.5 5s-12.834 4.66699 -21.501 8l-39 19v-55z" />
    <glyph glyph-name="alefwithhamzabelowisolated" unicode="&#x625;" horiz-adv-x="497" arabic-form="isolated" 
d="M170 1634h163v-1535h-163v1535zM237 -170c0 -10.667 4.33301 -19.333 13 -26s18 -10 28 -10h121v-123h-367v123h82v102v22c3.33301 24 11.666 43.333 24.999 58c16.667 14.667 35.667 22 57 22h123c22.667 -2.66699 41.334 -10 56.001 -22c16 -16 24 -35.333 24 -58v-63
h-41l-10 12c-5.33301 5.33301 -15 8 -29 8h-41c-10 0 -20 -4 -30 -12c-3.33301 -2.66699 -6 -6 -8 -10l-3 -16v-7z" />
    <glyph glyph-name="alefwithhamzabelowfinal" unicode="&#x625;" horiz-adv-x="494" arabic-form="final" 
d="M337 1636v-1323c0 -11.333 0.666992 -21.166 2 -29.499s4.33301 -17.833 9 -28.5c8 -16.667 19.667 -32.334 35 -47.001c32.667 -30.667 71.667 -46 117 -46h-5h5v-163c-42 0 -83.333 8 -124 24s-76 38 -106 66s-53.667 61.667 -71 101s-26 80.333 -26 123v1323h164z
M207 -161l3 15.999c2 4 4.66699 7.33301 8 10c10 8 20 12 30 12h41c14 0 23.667 -2.66699 29 -8l10 -12h41v63c0 22.667 -8 42 -24 58c-14.667 12 -33.334 19.333 -56.001 22h-123c-21.333 0 -40.333 -7.33301 -57 -22c-13.333 -14.667 -21.666 -34 -24.999 -58v-22v-102
h-82v-123h367v123h-121c-10 0 -19.333 3.33301 -28 10s-13 15.334 -13 26.001v7z" />
    <glyph glyph-name="yehwithhamzaaboveisolated" unicode="&#x626;" horiz-adv-x="1673" arabic-form="isolated" 
d="M674 1143l-163.995 0.00195312c-46 0 -84.667 -15.167 -116 -45.5s-47 -65.5 -47 -105.5v-679c0 -42 15.667 -77 47 -105c31.333 -31.333 70 -47 116 -47h246h409c46.667 0 85.667 15.667 117 47c14.667 13.333 26 29.5 34 48.5s12 37.833 12 56.5v175v95
c0 41.333 -15.833 76.833 -47.5 106.5s-70.167 44.5 -115.5 44.5h-246v81v84v93c0 42 8.83301 82.5 26.5 121.5s41.667 73.167 72 102.5s65.666 51.833 105.999 67.5s81.5 23.5 123.5 23.5h163v-164h-163h-6h6c-46 0 -85.333 -15.333 -118 -46
c-14.667 -14.667 -26 -30.667 -34 -48s-12 -36.333 -12 -57v-93h82c45.333 0 87.333 -8.33301 126 -25s73.667 -39.834 105 -69.501s54.666 -62.834 69.999 -99.501c6.66699 -12.667 11 -22.334 13 -29.001s4.66699 -18.5 8 -35.5s5 -36.167 5 -57.5v-95v-175
c0 -43.333 -8.66699 -84.333 -26 -123s-41.333 -72.167 -72 -100.5s-65.834 -50.5 -105.501 -66.5s-80.834 -24 -123.501 -24h-409h-246c-43.333 0 -85.333 7.66699 -126 23c-41.333 18 -76 40.667 -104 68c-32 31.333 -56.167 65.666 -72.5 102.999s-24.5 77.333 -24.5 120
v679c0 10.667 0.666992 21 2 31s3 20.667 5 32c4.66699 20.667 10.667 40.334 18 59.001c17.333 38 41.166 71.833 71.499 101.5s65.833 52.334 106.5 68.001s82 23.5 124 23.5h164v-164zM1247 1307h-5h5zM908.005 1468c0 -12 4.00195 -21 12.002 -27c10 -6 19.667 -9 29 -9
h122v-124h-368v123h83v102v24c0 22 7.66699 40.667 23 56c17.333 15.333 36.666 23 57.999 23h123c21.333 0 40.166 -8 56.499 -24s24.5 -34.333 24.5 -55v-65l-41 -1l-12 14c-4.66699 5.33301 -14 8 -28 8h-41c-10.667 0 -20.667 -4 -30 -12l-8 -12l-3 -15v-6z" />
    <glyph glyph-name="yehwithhamzaabovefinal" unicode="&#x626;" horiz-adv-x="2112" arabic-form="final" 
d="M646 1145l-163.003 -0.00390625c-47.333 0 -86.666 -15.167 -117.999 -45.5s-47 -65.5 -47 -105.5v-679c0 -42 16 -77 48 -105c15.333 -15.333 33.166 -27 53.499 -35s41.5 -12 63.5 -12h653c46.667 0 85.667 15.667 117 47c31.333 27.333 47 62.333 47 105v92v494v93
c0 42.667 9.16699 83.834 27.5 123.501s42.5 73.667 72.5 102s64.833 50.333 104.5 66s80.834 23.5 123.501 23.5h-4h4c40.667 0 82.334 -9 125.001 -27s78.667 -41 108 -69s52 -60.667 68 -98c6.66699 -12.667 11 -22.334 13 -29.001s4.66699 -18.5 8 -35.5
s5 -35.833 5 -56.5v-258v-247v-176c0 -40.667 15.333 -75.667 46 -105c15.333 -14.667 33.5 -26 54.5 -34s41.833 -12 62.5 -12h-4h4v-163h-4h4c-43.333 0 -85.333 7.66699 -126 23c-41.333 18 -76 40.667 -104 68c-32 31.333 -56.167 65.5 -72.5 102.5
s-24.5 77.167 -24.5 120.5v176v247v258c0 40.667 -15.333 75.667 -46 105c-15.333 14.667 -33.166 26 -53.499 34s-41.5 12 -63.5 12h-6h6h5h-5c-48 0 -87.333 -15.333 -118 -46c-15.333 -14 -27 -30.5 -35 -49.5s-12 -37.5 -12 -55.5v-93v-494v-92
c0 -43.333 -9 -84.833 -27 -124.5s-42.167 -73.5 -72.5 -101.5s-64.5 -49.667 -102.5 -65c-21.333 -8.66699 -41.5 -14.667 -60.5 -18s-40.5 -5 -64.5 -5h-653c-44.667 0 -87 8 -127 24c-41.333 18.667 -76.333 41.334 -105 68.001c-30.667 30 -54.167 63.833 -70.5 101.5
s-24.5 77.834 -24.5 120.501v679c0 10.667 0.666992 21 2 31s3 20.667 5 32c4.66699 20.667 10.667 40.334 18 59.001c18.667 40.667 43.167 75.334 73.5 104.001s65 50.667 104 66s80.5 23 124.5 23h163v-164zM1018 1470c0 -12 4.00195 -21 12.002 -27
c10 -6 19.667 -9 29 -9h122v-124h-368v123h83v102v24c0 22 7.66699 40.667 23 56c17.333 15.333 36.666 23 57.999 23h123c21.333 0 40.166 -8 56.499 -24s24.5 -34.333 24.5 -55v-65l-41 -1l-12 14c-4.66699 5.33301 -14 8 -28 8h-41c-10.667 0 -20.667 -4 -30 -12l-8 -12
l-3 -15v-6z" />
    <glyph glyph-name="yehwithhamzaaboveinitial" unicode="&#x626;" horiz-adv-x="480" arabic-form="initial" 
d="M320 1257l-0.00195312 -946c0 -42 -9 -82.833 -27 -122.5s-41.667 -73.5 -71 -101.5s-64.166 -50 -104.499 -66s-82.166 -24 -125.499 -24h5h-5v163h6h-6c46 0 85.333 15.333 118 46c16 14.667 27.667 31 35 49s11 36.667 11 56v946h164zM257.998 1468
c0 -12 4.00195 -21 12.002 -27c10 -6 19.667 -9 29 -9h122v-124h-368v123h83v102v24c0 22 7.66699 40.667 23 56c17.333 15.333 36.666 23 57.999 23h123c21.333 0 40.166 -8 56.499 -24s24.5 -34.333 24.5 -55v-65l-41 -1l-12 14c-4.66699 5.33301 -14 8 -28 8h-41
c-10.667 0 -20.667 -4 -30 -12l-8 -12l-3 -15v-6z" />
    <glyph glyph-name="yehwithhamzaabovemedial" unicode="&#x626;" horiz-adv-x="481" arabic-form="medial" 
d="M324 1259l0.000976562 -946c0 -40 15.667 -75 47 -105c15.333 -15.333 32.666 -26.833 51.999 -34.5s41 -11.5 65 -11.5h-5h5v-163h-4h4c-44.667 0 -86.834 8.33301 -126.501 25s-73.834 38.667 -102.501 66l-16 16l-16 -16c-29.333 -28.667 -64.166 -51 -104.499 -67
s-82.166 -24 -125.499 -24v163h4h-4c46 0 84.833 15.333 116.5 46s47.5 65.667 47.5 105v946h163zM266.001 1470c0 -12 4.00195 -21 12.002 -27c10 -6 19.667 -9 29 -9h122v-124h-368v123h83v102v24c0 22 7.66699 40.667 23 56c17.333 15.333 36.666 23 57.999 23h123
c21.333 0 40.166 -8 56.499 -24s24.5 -34.333 24.5 -55v-65l-41 -1l-12 14c-4.66699 5.33301 -14 8 -28 8h-41c-10.667 0 -20.667 -4 -30 -12l-8 -12l-3 -15v-6z" />
    <glyph glyph-name="alefisolated" unicode="&#x627;" horiz-adv-x="497" arabic-form="isolated" 
d="M170 1634h163v-1635h-163v1635z" />
    <glyph glyph-name="aleffinal" unicode="&#x627;" horiz-adv-x="495" arabic-form="final" 
d="M337 1636v-1323c0 -11.333 0.666992 -21.166 2 -29.499s4.33301 -17.833 9 -28.5c8 -16.667 19.667 -32.334 35 -47.001c32.667 -30.667 71.667 -46 117 -46h-5h5v-163c-42 0 -83.333 8 -124 24s-76 38 -106 66s-53.667 61.667 -71 101s-26 80.333 -26 123v1323h164z" />
    <glyph glyph-name="behisolated" unicode="&#x628;" horiz-adv-x="1967" arabic-form="isolated" 
d="M656 1142l-165 -0.000976562c-45.333 0 -84.333 -15.333 -117 -46c-15.333 -14 -27 -30.167 -35 -48.5s-12 -37.166 -12 -56.499v-679c0 -20.667 4.16699 -40.167 12.5 -58.5s20.333 -34.5 36 -48.5s33.167 -25 52.5 -33s40.333 -12 63 -12h982
c46.667 0 85.667 15.667 117 47c31.333 27.333 47 62.333 47 105v994h163v-994c0 -43.333 -8.66699 -84.333 -26 -123s-41.333 -72.334 -72 -101.001s-65.334 -51 -104.001 -67c-21.333 -8.66699 -41.5 -14.667 -60.5 -18s-40.5 -5 -64.5 -5h-982
c-44.667 0 -87 8.33301 -127 25s-75 39.167 -105 67.5s-53.333 61.833 -70 100.5s-25 79 -25 121v679c0 42.667 9 83.667 27 123s41.833 73.333 71.5 102s64.334 50.834 104.001 66.501s81.167 23.5 124.5 23.5h165v-164zM1064 -332.001h-164v164h164v-164z" />
    <glyph glyph-name="behfinal" unicode="&#x628;" horiz-adv-x="1964" arabic-form="final" 
d="M1068 -328h-162v164h162v-164zM659 1146l-164.003 0.00195312c-45.333 0 -84.333 -15.333 -117 -46c-14.667 -14 -26 -29.667 -34 -47s-12 -36.666 -12 -57.999v-679c0 -41.333 15.333 -76.333 46 -105c16 -15.333 33.833 -27 53.5 -35s40.834 -12 63.501 -12h982
c22.667 0 44 4 64 12c22 10 39.667 21.667 53 35c31.333 27.333 47 62.333 47 105v994h163v-996c0 -40 15.667 -75 47 -105c16 -14.667 34.167 -26 54.5 -34s41.166 -12 62.499 -12h-5h5v-163h-4h4c-44.667 0 -86.834 8.33301 -126.501 25s-73.834 38.667 -102.501 66
l-17 17l-15 -15c-29.333 -28.667 -64.166 -51 -104.499 -67s-82.166 -24 -125.499 -24h-982c-43.333 0 -85.166 8.16699 -125.499 24.5s-75.166 38.5 -104.499 66.5c-31.333 30.667 -55.333 64.667 -72 102s-25 77.666 -25 120.999v679c0 42 9 82.667 27 122
s42.5 73.666 73.5 102.999s65.833 51.666 104.5 66.999s79.334 23 122.001 23h164v-164z" />
    <glyph glyph-name="behinitial" unicode="&#x628;" horiz-adv-x="490" arabic-form="initial" 
d="M330 1307l-0.00195312 -996c0 -42 -9 -82.833 -27 -122.5s-41.667 -73.5 -71 -101.5s-64.166 -50 -104.499 -66s-82.166 -24 -125.499 -24h5h-5v163h6h-6c46 0 85.333 15.333 118 46c16 14.667 27.667 31 35 49s11 36.667 11 56v996h164zM165.998 -167h164v-164h-164v164
z" />
    <glyph glyph-name="behmedial" unicode="&#x628;" horiz-adv-x="480" arabic-form="medial" 
d="M323 1309l0.000976562 -996c0 -40 15.667 -75 47 -105c15.333 -15.333 32.666 -26.833 51.999 -34.5s41 -11.5 65 -11.5h-5h5v-163h-4h4c-44.667 0 -86.834 8.33301 -126.501 25s-73.834 38.667 -102.501 66l-16 16l-16 -16c-29.333 -28.667 -64.166 -51 -104.499 -67
s-82.166 -24 -125.499 -24v163h4h-4c46 0 84.833 15.333 116.5 46s47.5 65.667 47.5 105v996h163zM163.001 -165h164v-164h-164v164z" />
    <glyph glyph-name="tehmarbutaisolated" unicode="&#x629;" horiz-adv-x="1659" arabic-form="isolated" 
d="M382 1098c-31.333 -29.333 -47 -64.667 -47 -106v-679c0 -40 15.667 -75.167 47 -105.5s70 -45.5 116 -45.5h656c24.667 0 45.5 3.5 62.5 10.5s34.833 18.167 53.5 33.5c14 14 25.333 30.833 34 50.5s13 38.5 13 56.5v679c0 41.333 -15.667 76.833 -47 106.5
s-70 44.5 -116 44.5h-656c-22.667 0 -43.667 -3.5 -63 -10.5s-37 -18.5 -53 -34.5zM269 88.999c-30 29.333 -53.834 63.8379 -71.501 103.505s-26.5 79.834 -26.5 120.501v679c0 43.333 8.16699 84.166 24.5 122.499s39.5 71.166 69.5 98.499s66.167 49.833 108.5 67.5
s83.833 26.5 124.5 26.5h656c42 0 83 -7.66699 123 -23s75 -37.333 105 -66s54 -62.834 72 -102.501s27 -80.834 27 -123.501v-679c0 -22 -1.5 -40.333 -4.5 -55s-5.16699 -24.334 -6.5 -29.001c-3.33301 -11.333 -8.33301 -24 -15 -38
c-16 -36.667 -38.833 -69.334 -68.5 -98.001s-65.5 -51.667 -107.5 -69s-83.667 -26 -125 -26h-656c-45.333 0 -86.666 7.66699 -123.999 23c-19.333 8 -37.5 17.167 -54.5 27.5s-33.833 23.833 -50.5 40.5zM907.999 1619h163v-164h-163v164zM580.999 1619h163v-164h-163
v164z" />
    <glyph glyph-name="tehmarbutafinal" unicode="&#x629;" horiz-adv-x="1626" arabic-form="final" 
d="M370 1100c-31.333 -29.333 -47 -64.667 -47 -106v-679c0 -40 15.667 -75.167 47 -105.5s70 -45.5 116 -45.5h656c24.667 0 45.5 3.5 62.5 10.5s34.833 18.167 53.5 33.5c14 14 25.333 30.833 34 50.5s13 38.5 13 56.5v667v12c0 41.333 -15.667 76.833 -47 106.5
s-70 44.5 -116 44.5h-656c-22.667 0 -43.667 -3.5 -63 -10.5s-37 -18.5 -53 -34.5zM896 1618h163v-164h-163v164zM569 1618h163v-164h-163v164zM1371 90.999c-28 -28 -62.333 -50.1641 -103 -66.4971s-82.667 -24.5 -126 -24.5h-656c-45.333 0 -86.666 7.66699 -123.999 23
c-19.333 8 -37.5 17.167 -54.5 27.5s-33.833 23.833 -50.5 40.5c-30 29.333 -53.833 63.833 -71.5 103.5s-26.5 79.834 -26.5 120.501v679c0 43.333 8.16699 84.166 24.5 122.499s39.5 71.166 69.5 98.499s66.167 49.833 108.5 67.5s83.833 26.5 124.5 26.5h656
c42 0 83 -7.66699 123 -23s75 -37.333 105 -66s54 -62.834 72 -102.501s27 -80.834 27 -123.501v-12v-667c0 -18.667 4 -37.667 12 -57s19.333 -36 34 -50c32.667 -30.667 72 -46 118 -46h-5h5v-164h-4h4c-44.667 0 -86.334 8 -125.001 24s-74 38.333 -106 67l-16 17z" />
    <glyph glyph-name="tehisolated" unicode="&#x62a;" horiz-adv-x="1967" arabic-form="isolated" 
d="M656 1142l-165 -0.000976562c-45.333 0 -84.333 -15.333 -117 -46c-15.333 -14 -27 -30.167 -35 -48.5s-12 -37.166 -12 -56.499v-679c0 -20.667 4.16699 -40.167 12.5 -58.5s20.333 -34.5 36 -48.5s33.167 -25 52.5 -33s40.333 -12 63 -12h982
c46.667 0 85.667 15.667 117 47c31.333 27.333 47 62.333 47 105v994h163v-994c0 -43.333 -8.66699 -84.333 -26 -123s-41.333 -72.334 -72 -101.001s-65.334 -51 -104.001 -67c-21.333 -8.66699 -41.5 -14.667 -60.5 -18s-40.5 -5 -64.5 -5h-982
c-44.667 0 -87 8.33301 -127 25s-75 39.167 -105 67.5s-53.333 61.833 -70 100.5s-25 79 -25 121v679c0 42.667 9 83.667 27 123s41.833 73.333 71.5 102s64.334 50.834 104.001 66.501s81.167 23.5 124.5 23.5h165v-164zM1227 1619h164v-163h-164v163zM900 1619h164v-163
h-164v163z" />
    <glyph glyph-name="tehfinal" unicode="&#x62a;" horiz-adv-x="1962" arabic-form="final" 
d="M659 1309l0.00488281 -164.001h-164c-45.333 0 -84.333 -15.333 -117 -46c-14.667 -14 -26 -29.667 -34 -47s-12 -36.666 -12 -57.999v-679c0 -41.333 15.333 -76.333 46 -105c33.333 -31.333 72.333 -47 117 -47h982c22.667 0 44 4 64 12c22 10 39.667 21.667 53 35
c31.333 27.333 47 62.333 47 105v994h163v-996c0 -40 15.667 -75 47 -105c16 -14.667 34.167 -26 54.5 -34s41.166 -12 62.499 -12h-5h5v-163h-4h4c-44.667 0 -86.834 8.16699 -126.501 24.5s-73.834 38.5 -102.501 66.5l-17 17l-15 -15c-30 -28.667 -64.833 -51 -104.5 -67
s-81.5 -24 -125.5 -24h-982c-44 0 -85.833 8.16699 -125.5 24.5s-74.5 38.5 -104.5 66.5c-64.667 60.667 -97 135 -97 223v679c0 43.333 9.16699 84.333 27.5 123s42.666 72.5 72.999 101.5s65.166 51.667 104.499 68s80 23.833 122 22.5h164zM1207 1459v163h164v-163h-164z
M900.005 1459v163h164v-163h-164z" />
    <glyph glyph-name="tehinitial" unicode="&#x62a;" horiz-adv-x="490" arabic-form="initial" 
d="M166 1307h164v-996c0 -42 -8.83301 -82.833 -26.5 -122.5s-41.5 -73.5 -71.5 -101.5s-64.833 -50 -104.5 -66s-81.5 -24 -125.5 -24h5h-5v163h6h-6c46 0 85.333 15.333 118 46c16 14.667 27.667 31 35 49s11 36.667 11 56v996zM300 1456v164h163v-164h-163zM32 1456v164
h164v-164h-164z" />
    <glyph glyph-name="tehmedial" unicode="&#x62a;" horiz-adv-x="483" arabic-form="medial" 
d="M163 1309h163.001v-996c0 -40 15.667 -75 47 -105c30.667 -30.667 69.667 -46 117 -46h-5h5v-163h-4h4c-44.667 0 -86.834 8.16699 -126.501 24.5s-73.834 38.5 -102.501 66.5l-16 16l-16 -16c-30 -28.667 -64.833 -51 -104.5 -67s-81.5 -24 -125.5 -24v163h4h-4
c46.667 0 85.334 15.333 116.001 46c32 30.667 48 65.667 48 105v996zM296.001 1457v164h164v-164h-164zM29.001 1457v164h164v-164h-164z" />
    <glyph glyph-name="thehisolated" unicode="&#x62b;" horiz-adv-x="1967" arabic-form="isolated" 
d="M656 1142l-165 -0.000976562c-45.333 0 -84.333 -15.333 -117 -46c-15.333 -14 -27 -30.167 -35 -48.5s-12 -37.166 -12 -56.499v-679c0 -20.667 4.16699 -40.167 12.5 -58.5s20.333 -34.5 36 -48.5s33.167 -25 52.5 -33s40.333 -12 63 -12h982
c46.667 0 85.667 15.667 117 47c31.333 27.333 47 62.333 47 105v994h163v-994c0 -43.333 -8.66699 -84.333 -26 -123s-41.333 -72.334 -72 -101.001s-65.334 -51 -104.001 -67c-21.333 -8.66699 -41.5 -14.667 -60.5 -18s-40.5 -5 -64.5 -5h-982
c-44.667 0 -87 8.33301 -127 25s-75 39.167 -105 67.5s-53.333 61.833 -70 100.5s-25 79 -25 121v679c0 42.667 9 83.667 27 123s41.833 73.333 71.5 102s64.334 50.834 104.001 66.501s81.167 23.5 124.5 23.5h165v-164zM1227 1469h164v-163h-164v163zM1227 1469h-163v164
h163v-164zM900 1469h164v-163h-164v163z" />
    <glyph glyph-name="thehfinal" unicode="&#x62b;" horiz-adv-x="1962" arabic-form="final" 
d="M1233 1472h162v-163h-162v163zM1233 1472h-165v164h165v-164zM906 1472h162v-163h-162v163zM659 1145l-164.003 0.00195312c-45.333 0 -84.333 -15.333 -117 -46c-14.667 -14 -26 -29.667 -34 -47s-12 -36.666 -12 -57.999v-679c0 -41.333 15.333 -76.333 46 -105
c16 -15.333 33.833 -27 53.5 -35s40.834 -12 63.501 -12h982c22.667 0 44 4 64 12c22 10 39.667 21.667 53 35c31.333 27.333 47 62.333 47 105v994h163v-996c0 -40 15.667 -75 47 -105c16 -14.667 34.167 -26 54.5 -34s41.166 -12 62.499 -12h-5h5v-163h-4h4
c-44.667 0 -86.834 8.33301 -126.501 25s-73.834 38.667 -102.501 66l-17 17l-15 -15c-29.333 -28.667 -64.166 -51 -104.499 -67s-82.166 -24 -125.499 -24h-982c-43.333 0 -85.166 8.16699 -125.499 24.5s-75.166 38.5 -104.499 66.5
c-31.333 30.667 -55.333 64.667 -72 102s-25 77.666 -25 120.999v679c0 42 9 82.667 27 122s42.5 73.666 73.5 102.999s65.833 51.666 104.5 66.999s79.334 23 122.001 23h164v-164z" />
    <glyph glyph-name="thehinitial" unicode="&#x62b;" horiz-adv-x="497" arabic-form="initial" 
d="M325 1143l-0.00195312 -832c0 -43.333 -8.83301 -84.5 -26.5 -123.5s-41.167 -72.5 -70.5 -100.5s-64.166 -50 -104.499 -66s-82.166 -24 -125.499 -24v163h4h-4c46 0 84.833 15.333 116.5 46s47.5 65.667 47.5 105v832h163zM324.998 1470h164v-163h-164v163z
M324.998 1470h-163v164h163v-164zM-2.00195 1470h164v-163h-164v163z" />
    <glyph glyph-name="thehmedial" unicode="&#x62b;" horiz-adv-x="488" arabic-form="medial" 
d="M330 1145l-0.000976562 -832.001c0 -42 15.667 -77 47 -105c30.667 -30.667 69.667 -46 117 -46h-5h5v-163h-4h4c-23.333 0 -45.5 2 -66.5 6s-41.167 9.66699 -60.5 17c-39.333 17.333 -73.666 40 -102.999 68l-17 16l-15 -16c-30 -29.333 -64.667 -52 -104 -68
c-21.333 -8.66699 -41.5 -14.667 -60.5 -18s-40.5 -5 -64.5 -5v163h5h-5c47.333 0 86.333 15.333 117 46c15.333 14.667 26.833 30.834 34.5 48.501s11.5 36.5 11.5 56.5v832h164zM329.999 1472h164v-163h-164v163zM329.999 1472h-164v164h164v-164zM2.99902 1472h163v-163
h-163v163z" />
    <glyph glyph-name="jeemisolated" unicode="&#x62c;" horiz-adv-x="1659" arabic-form="isolated" 
d="M350 1304h815.998c43.333 0 84.5 -7.66699 123.5 -23s73.833 -37.666 104.5 -66.999s54.667 -63.333 72 -102s26 -79.334 26 -122.001v-678c0 -22 -2 -42.833 -6 -62.5s-10.667 -39.5 -20 -59.5c-16 -38.667 -39 -71.667 -69 -99s-65.667 -50.333 -107 -69
c-39.333 -16 -80.666 -24 -123.999 -24h-81h-572h-12c-22 0 -41.667 -4 -59 -12s-33 -19.333 -47 -34c-30 -32 -45 -71 -45 -117v-5v5v5v-5v-163h-163v163v4v-4v-4v4c0 42 8 83.5 24 124.5s38.333 76.167 67 105.5s62.334 53 101.001 71c18 7.33301 37.667 13.333 59 18
s42.333 7 63 7h12h572h81c23.333 0 44.5 3.83301 63.5 11.5s36.5 19.167 52.5 34.5c31.333 29.333 47 64.333 47 105v678c0 40.667 -15.667 75.667 -47 105c-14.667 14.667 -32.667 26 -54 34s-42 12 -62 12h-816v163zM839.998 -173h163v-163h-163v163z" />
    <glyph glyph-name="jeemfinal" unicode="&#x62c;" horiz-adv-x="1650" arabic-form="final" 
d="M354 1306l816.001 -0.000976562c43.333 0 84.5 -7.66699 123.5 -23s73.833 -37.666 104.5 -66.999s54.667 -63.333 72 -102s26 -79.334 26 -122.001v-13v-665c0 -11.333 0.666992 -21.166 2 -29.499s4.33301 -17.833 9 -28.5c8.66699 -18.667 20.334 -34.667 35.001 -48
c32.667 -30.667 71.667 -46 117 -46h-4h4v-164c-24 0 -45.5 1.66699 -64.5 5s-39.167 9.33301 -60.5 18c-36.667 15.333 -71.334 38.333 -104.001 69c-6 4 -11.333 9.33301 -16 16l-16 -15c-28.667 -28 -63 -50.167 -103 -66.5s-81.667 -24.5 -125 -24.5h-80h-573h-13
c-20 0 -38.833 -4 -56.5 -12s-33.834 -19.333 -48.501 -34c-30 -32 -45 -71 -45 -117v-5v5v5v-5v-163h-163v163v4v-4v-4v4c0 42 8 83.333 24 124s38 76 66 106s61.5 53.5 100.5 70.5s79.833 25.5 122.5 25.5h13h573h80c22 0 42.833 4 62.5 12s37.5 19.333 53.5 34
c31.333 29.333 47 64.333 47 105v665v13c0 39.333 -15.833 74.333 -47.5 105s-70.167 46 -115.5 46h-816v163zM843.001 -171.001h164v-163h-164v163z" />
    <glyph glyph-name="jeeminitial" unicode="&#x62c;" horiz-adv-x="1470" arabic-form="initial" 
d="M161 1304l816.002 -0.00195312c43.333 0 84.666 -7.83301 123.999 -23.5s74.5 -38.167 105.5 -67.5s55 -63.166 72 -101.499s25.5 -78.833 25.5 -121.5v-678c0 -22 -2 -42.833 -6 -62.5s-10.667 -39.5 -20 -59.5c-16 -37.333 -39.667 -70.666 -71 -99.999
c-28.667 -26.667 -63.667 -49.334 -105 -68.001c-40 -16 -81.667 -24 -125 -24h-979v163h979c24 0 45.667 3.83301 65 11.5s36.666 19.167 51.999 34.5c30.667 28.667 46 63.667 46 105v678c0 18 -4 36.333 -12 55s-19.333 35.334 -34 50.001
c-32.667 30.667 -71.667 46 -117 46h-816v163zM651.002 -173.002h163v-163h-163v163z" />
    <glyph glyph-name="jeemmedial" unicode="&#x62c;" horiz-adv-x="1460" arabic-form="medial" 
d="M162 1305h816c43.333 0 84.5 -7.66699 123.5 -23s73.833 -37.666 104.5 -66.999s54.667 -63.333 72 -102s26 -79.334 26 -122.001v-13v-665c0 -22 4 -41.667 12 -59s19.333 -33 34 -47c32.667 -30.667 71.667 -46 117 -46h-4h4v-164
c-45.333 0 -86.833 7.83301 -124.5 23.5s-72.5 38.5 -104.5 68.5c-6 4 -11.333 9.33301 -16 16l-16 -15c-28.667 -28 -63 -50.167 -103 -66.5s-81.667 -24.5 -125 -24.5h-979v163h979c22 0 42.833 4 62.5 12s37.5 19.333 53.5 34c31.333 29.333 47 64.333 47 105v665v13
c0 40.667 -15.667 75.667 -47 105c-14.667 14.667 -32.667 26 -54 34s-42 12 -62 12h-816v163zM651 -172h164v-163h-164v163z" />
    <glyph glyph-name="hahisolated" unicode="&#x62d;" horiz-adv-x="1659" arabic-form="isolated" 
d="M350 1304h815.998c43.333 0 84.5 -7.66699 123.5 -23s73.833 -37.666 104.5 -66.999s54.667 -63.333 72 -102s26 -79.334 26 -122.001v-678c0 -22 -2 -42.833 -6 -62.5s-10.667 -39.5 -20 -59.5c-16 -38.667 -39 -71.667 -69 -99s-65.667 -50.333 -107 -69
c-39.333 -16 -80.666 -24 -123.999 -24h-81h-572h-12c-22 0 -41.667 -4 -59 -12s-33 -19.333 -47 -34c-30 -32 -45 -71 -45 -117v-5v5v5v-5v-163h-163v163v4v-4v-4v4c0 42 8 83.5 24 124.5s38.333 76.167 67 105.5s62.334 53 101.001 71c18 7.33301 37.667 13.333 59 18
s42.333 7 63 7h12h572h81c23.333 0 44.5 3.83301 63.5 11.5s36.5 19.167 52.5 34.5c31.333 29.333 47 64.333 47 105v678c0 40.667 -15.667 75.667 -47 105c-14.667 14.667 -32.667 26 -54 34s-42 12 -62 12h-816v163z" />
    <glyph glyph-name="hahfinal" unicode="&#x62d;" horiz-adv-x="1653" arabic-form="final" 
d="M354 1306l816.001 -0.000976562c43.333 0 84.5 -7.66699 123.5 -23s73.833 -37.666 104.5 -66.999s54.667 -63.333 72 -102s26 -79.334 26 -122.001v-13v-665c0 -11.333 0.666992 -21.166 2 -29.499s4.33301 -17.833 9 -28.5c8.66699 -18.667 20.334 -34.667 35.001 -48
c32.667 -30.667 71.667 -46 117 -46h-4h4v-164c-24 0 -45.5 1.66699 -64.5 5s-39.167 9.33301 -60.5 18c-36.667 15.333 -71.334 38.333 -104.001 69c-6 4 -11.333 9.33301 -16 16l-16 -15c-28.667 -28 -63 -50.167 -103 -66.5s-81.667 -24.5 -125 -24.5h-80h-573h-13
c-20 0 -38.833 -4 -56.5 -12s-33.834 -19.333 -48.501 -34c-30 -32 -45 -71 -45 -117v-5v5v5v-5v-163h-163v163v4v-4v-4v4c0 42 8 83.333 24 124s38 76 66 106s61.5 53.5 100.5 70.5s79.833 25.5 122.5 25.5h13h573h80c22 0 42.833 4 62.5 12s37.5 19.333 53.5 34
c31.333 29.333 47 64.333 47 105v665v13c0 39.333 -15.833 74.333 -47.5 105s-70.167 46 -115.5 46h-816v163z" />
    <glyph glyph-name="hahinitial" unicode="&#x62d;" horiz-adv-x="1470" arabic-form="initial" 
d="M161 1304l816.002 -0.00195312c43.333 0 84.666 -7.83301 123.999 -23.5s74.5 -38.167 105.5 -67.5s55 -63.166 72 -101.499s25.5 -78.833 25.5 -121.5v-678c0 -22 -2 -42.833 -6 -62.5s-10.667 -39.5 -20 -59.5c-16 -37.333 -39.667 -70.666 -71 -99.999
c-28.667 -26.667 -63.667 -49.334 -105 -68.001c-40 -16 -81.667 -24 -125 -24h-979v163h979c24 0 45.667 3.83301 65 11.5s36.666 19.167 51.999 34.5c30.667 28.667 46 63.667 46 105v678c0 18 -4 36.333 -12 55s-19.333 35.334 -34 50.001
c-32.667 30.667 -71.667 46 -117 46h-816v163z" />
    <glyph glyph-name="hahmedial" unicode="&#x62d;" horiz-adv-x="1458" arabic-form="medial" 
d="M162 1305h816c43.333 0 84.5 -7.66699 123.5 -23s73.833 -37.666 104.5 -66.999s54.667 -63.333 72 -102s26 -79.334 26 -122.001v-13v-665c0 -22 4 -41.667 12 -59s19.333 -33 34 -47c32.667 -30.667 71.667 -46 117 -46h-4h4v-164
c-45.333 0 -86.833 7.83301 -124.5 23.5s-72.5 38.5 -104.5 68.5c-6 4 -11.333 9.33301 -16 16l-16 -15c-28.667 -28 -63 -50.167 -103 -66.5s-81.667 -24.5 -125 -24.5h-979v163h979c22 0 42.833 4 62.5 12s37.5 19.333 53.5 34c31.333 29.333 47 64.333 47 105v665v13
c0 40.667 -15.667 75.667 -47 105c-14.667 14.667 -32.667 26 -54 34s-42 12 -62 12h-816v163z" />
    <glyph glyph-name="khahisolated" unicode="&#x62e;" horiz-adv-x="1659" arabic-form="isolated" 
d="M350 1304h815.998c43.333 0 84.5 -7.66699 123.5 -23s73.833 -37.666 104.5 -66.999s54.667 -63.333 72 -102s26 -79.334 26 -122.001v-678c0 -22 -2 -42.833 -6 -62.5s-10.667 -39.5 -20 -59.5c-16 -38.667 -39 -71.667 -69 -99s-65.667 -50.333 -107 -69
c-39.333 -16 -80.666 -24 -123.999 -24h-81h-572h-12c-22 0 -41.667 -4 -59 -12s-33 -19.333 -47 -34c-30 -32 -45 -71 -45 -117v-5v5v5v-5v-163h-163v163v4v-4v-4v4c0 42 8 83.5 24 124.5s38.333 76.167 67 105.5s62.334 53 101.001 71c18 7.33301 37.667 13.333 59 18
s42.333 7 63 7h12h572h81c23.333 0 44.5 3.83301 63.5 11.5s36.5 19.167 52.5 34.5c31.333 29.333 47 64.333 47 105v678c0 40.667 -15.667 75.667 -47 105c-14.667 14.667 -32.667 26 -54 34s-42 12 -62 12h-816v163zM839.998 1630h163v-163h-163v163z" />
    <glyph glyph-name="khahfinal" unicode="&#x62e;" horiz-adv-x="1653" arabic-form="final" 
d="M354 1306l816.001 -0.000976562c43.333 0 84.5 -7.66699 123.5 -23s73.833 -37.666 104.5 -66.999s54.667 -63.333 72 -102s26 -79.334 26 -122.001v-13v-665c0 -11.333 0.666992 -21.166 2 -29.499s4.33301 -17.833 9 -28.5c8.66699 -18.667 20.334 -34.667 35.001 -48
c32.667 -30.667 71.667 -46 117 -46h-4h4v-164c-24 0 -45.5 1.66699 -64.5 5s-39.167 9.33301 -60.5 18c-36.667 15.333 -71.334 38.333 -104.001 69c-6 4 -11.333 9.33301 -16 16l-16 -15c-28.667 -28 -63 -50.167 -103 -66.5s-81.667 -24.5 -125 -24.5h-80h-573h-13
c-20 0 -38.833 -4 -56.5 -12s-33.834 -19.333 -48.501 -34c-30 -32 -45 -71 -45 -117v-5v5v5v-5v-163h-163v163v4v-4v-4v4c0 42 8 83.333 24 124s38 76 66 106s61.5 53.5 100.5 70.5s79.833 25.5 122.5 25.5h13h573h80c22 0 42.833 4 62.5 12s37.5 19.333 53.5 34
c31.333 29.333 47 64.333 47 105v665v13c0 39.333 -15.833 74.333 -47.5 105s-70.167 46 -115.5 46h-816v163zM843.001 1618h164v-163h-164v163z" />
    <glyph glyph-name="khahinitial" unicode="&#x62e;" horiz-adv-x="1470" arabic-form="initial" 
d="M161 1304l816.002 -0.00195312c43.333 0 84.666 -7.83301 123.999 -23.5s74.5 -38.167 105.5 -67.5s55 -63.166 72 -101.499s25.5 -78.833 25.5 -121.5v-678c0 -22 -2 -42.833 -6 -62.5s-10.667 -39.5 -20 -59.5c-16 -37.333 -39.667 -70.666 -71 -99.999
c-28.667 -26.667 -63.667 -49.334 -105 -68.001c-40 -16 -81.667 -24 -125 -24h-979v163h979c24 0 45.667 3.83301 65 11.5s36.666 19.167 51.999 34.5c30.667 28.667 46 63.667 46 105v678c0 18 -4 36.333 -12 55s-19.333 35.334 -34 50.001
c-32.667 30.667 -71.667 46 -117 46h-816v163zM651.002 1618h163v-163h-163v163z" />
    <glyph glyph-name="khahmedial" unicode="&#x62e;" horiz-adv-x="1460" arabic-form="medial" 
d="M162 1305h816c43.333 0 84.5 -7.66699 123.5 -23s73.833 -37.666 104.5 -66.999s54.667 -63.333 72 -102s26 -79.334 26 -122.001v-13v-665c0 -22 4 -41.667 12 -59s19.333 -33 34 -47c32.667 -30.667 71.667 -46 117 -46h-4h4v-164
c-45.333 0 -86.833 7.83301 -124.5 23.5s-72.5 38.5 -104.5 68.5c-6 4 -11.333 9.33301 -16 16l-16 -15c-28.667 -28 -63 -50.167 -103 -66.5s-81.667 -24.5 -125 -24.5h-979v163h979c22 0 42.833 4 62.5 12s37.5 19.333 53.5 34c31.333 29.333 47 64.333 47 105v665v13
c0 40.667 -15.667 75.667 -47 105c-14.667 14.667 -32.667 26 -54 34s-42 12 -62 12h-816v163zM651 1617h164v-163h-164v163z" />
    <glyph glyph-name="dalisolated" unicode="&#x62f;" horiz-adv-x="973" arabic-form="isolated" 
d="M315 1307l164.997 0.000976562c42.667 0 83.834 -8.16699 123.501 -24.5s74.834 -38.833 105.501 -67.5s54.667 -62.334 72 -101.001s26 -79.334 26 -122.001v-679c0 -21.333 -1.66699 -40.5 -5 -57.5s-6 -28.667 -8 -35s-6.33301 -16.166 -13 -29.499
c-16 -38.667 -39 -72 -69 -100s-65 -50.333 -105 -67s-82.333 -25 -127 -25h-327v162h327c46.667 0 85.334 14.833 116.001 44.5s46 65.5 46 107.5v679c0 20 -4 39 -12 57c-6 17.333 -17 33.333 -33 48c-32.667 30.667 -71.667 46 -117 46h-165v164z" />
    <glyph glyph-name="dalfinal" unicode="&#x62f;" horiz-adv-x="973" arabic-form="final" 
d="M319 1310l164.001 -0.000976562c42 0 83 -8 123 -24s75.667 -38.667 107 -68c29.333 -27.333 52.833 -60.666 70.5 -99.999s26.5 -80.333 26.5 -123v-13v-666c0 -19.333 4 -38.166 12 -56.499s19.333 -35.5 34 -51.5c14 -13.333 31.333 -24.666 52 -33.999
c20 -8 42 -12 66 -12h-5h5v-162h-4h4c-12 0 -23.333 0.333008 -34 1s-23 2.33398 -37 5.00098s-31.333 8.16699 -52 16.5s-39.5 17.666 -56.5 27.999s-33.833 23.833 -50.5 40.5l-17 17l-14 -15c-26.667 -26.667 -61.667 -49.334 -105 -68.001
c-38.667 -15.333 -80.334 -23 -125.001 -23h-327v162h327c46.667 0 85.667 15.667 117 47c30.667 27.333 46 62.333 46 105v666v13c0 20 -3.83301 39.167 -11.5 57.5s-19.167 34.166 -34.5 47.499c-30.667 30.667 -69.667 46 -117 46h-164v164z" />
    <glyph glyph-name="thalisolated" unicode="&#x630;" horiz-adv-x="973" arabic-form="isolated" 
d="M315 1307l164.997 0.000976562c42.667 0 83.834 -8.16699 123.501 -24.5s74.834 -38.833 105.501 -67.5s54.667 -62.334 72 -101.001s26 -79.334 26 -122.001v-679c0 -21.333 -1.66699 -40.5 -5 -57.5s-6 -28.667 -8 -35s-6.33301 -16.166 -13 -29.499
c-16 -38.667 -39 -72 -69 -100s-65 -50.333 -105 -67s-82.333 -25 -127 -25h-327v162h327c46.667 0 85.334 14.833 116.001 44.5s46 65.5 46 107.5v679c0 20 -4 39 -12 57c-6 17.333 -17 33.333 -33 48c-32.667 30.667 -71.667 46 -117 46h-165v164zM314.997 1618h165v-164
h-165v164z" />
    <glyph glyph-name="thalfinal" unicode="&#x630;" horiz-adv-x="965" arabic-form="final" 
d="M319 1310l164.001 -0.000976562c42 0 83 -8 123 -24s75.667 -38.667 107 -68c29.333 -27.333 52.833 -60.666 70.5 -99.999s26.5 -80.333 26.5 -123v-13v-666c0 -19.333 4 -38.166 12 -56.499s19.333 -35.5 34 -51.5c14 -13.333 31.333 -24.666 52 -33.999
c20 -8 42 -12 66 -12h-5h5v-162h-4h4c-12 0 -23.333 0.333008 -34 1s-23 2.33398 -37 5.00098s-31.333 8.16699 -52 16.5s-39.5 17.666 -56.5 27.999s-33.833 23.833 -50.5 40.5l-17 17l-14 -15c-26.667 -26.667 -61.667 -49.334 -105 -68.001
c-38.667 -15.333 -80.334 -23 -125.001 -23h-327v162h327c46.667 0 85.667 15.667 117 47c30.667 27.333 46 62.333 46 105v666v13c0 20 -3.83301 39.167 -11.5 57.5s-19.167 34.166 -34.5 47.499c-30.667 30.667 -69.667 46 -117 46h-164v164zM319.001 1620h164v-164h-164
v164z" />
    <glyph glyph-name="rehisolated" unicode="&#x631;" horiz-adv-x="658" arabic-form="isolated" 
d="M478 1307l-0.000976562 -1322c0 -43.333 -9 -84.5 -27 -123.5s-41.667 -72.667 -71 -101s-64.166 -50.333 -104.499 -66s-81.833 -23.5 -124.5 -23.5h4h-4v163h5h-5c20.667 0 42 4.33301 64 13s39.667 19.667 53 33c31.333 29.333 47 64.333 47 105v1322h163z" />
    <glyph glyph-name="rehfinal" unicode="&#x631;" horiz-adv-x="649" arabic-form="final" 
d="M492 983l-0.000976562 -671.999c0 -40.667 15.667 -75 47 -103c15.333 -14.667 33.5 -26 54.5 -34s41.833 -12 62.5 -12h-4h4v-163c-59.333 0 -114 14 -164 42v-54c0 -43.333 -9 -84.5 -27 -123.5s-41.667 -72.667 -71 -101s-64.166 -50.333 -104.499 -66
s-81.833 -23.5 -124.5 -23.5h4h-4v163h5h-5c9.33301 0 20 1.33301 32 4s22.333 5.66699 31 9c22.667 9.33301 41 20.666 55 33.999s25 29.333 33 48c8.66699 17.333 13 36 13 56v326v670v326h163v-326z" />
    <glyph glyph-name="zainisolated" unicode="&#x632;" horiz-adv-x="658" arabic-form="isolated" 
d="M478 1307l-0.000976562 -1322c0 -43.333 -9 -84.5 -27 -123.5s-41.667 -72.667 -71 -101s-64.166 -50.333 -104.499 -66s-81.833 -23.5 -124.5 -23.5h4h-4v163h5h-5c20.667 0 42 4.33301 64 13s39.667 19.667 53 33c31.333 29.333 47 64.333 47 105v1322h163z
M318.999 1618h163v-164h-163v164z" />
    <glyph glyph-name="zainfinal" unicode="&#x632;" horiz-adv-x="649" arabic-form="final" 
d="M329 1619h163v-164h-163v164zM492 311c0 -40.667 15.666 -74.999 46.999 -102.999c15.333 -14.667 33.5 -26 54.5 -34s41.833 -12 62.5 -12h-4h4v-163c-59.333 0 -114 14 -164 42v-54c0 -43.333 -9 -84.5 -27 -123.5s-41.667 -72.667 -71 -101
s-64.166 -50.333 -104.499 -66s-81.833 -23.5 -124.5 -23.5h4h-4v163h5h-5c9.33301 0 20 1.33301 32 4s22.333 5.66699 31 9c22.667 9.33301 41 20.666 55 33.999s25 29.333 33 48c8.66699 17.333 13 36 13 56v326v996h163v-998z" />
    <glyph glyph-name="seenisolated" unicode="&#x633;" horiz-adv-x="2779" arabic-form="isolated" 
d="M654 1141l-162.997 -0.00585938c-20 0 -40.667 -4 -62 -12c-21.333 -9.33301 -39.333 -20.666 -54 -33.999c-31.333 -29.333 -47 -64.333 -47 -105v-678c0 -40.667 15.667 -75.667 47 -105c16 -15.333 33.333 -26.833 52 -34.5s40 -11.5 64 -11.5h816
c23.333 0 45.166 4.16699 65.499 12.5s37.666 19.5 51.999 33.5s25.5 30.5 33.5 49.5s12 37.5 12 55.5v992h164v-994c0 -40 15.667 -74.667 47 -104c16 -14.667 34.167 -26 54.5 -34s40.833 -12 61.5 -12h5h-5h-5h5c45.333 0 84.333 15.333 117 46
c14.667 14.667 26 30.834 34 48.501s12 36.167 12 55.5v994h163v-994c0 -40 15.667 -74.667 47 -104c15.333 -15.333 32.5 -26.833 51.5 -34.5s40.5 -11.5 64.5 -11.5h5h-5h-4h4c47.333 0 86.333 15.333 117 46c14.667 14.667 26.167 30.834 34.5 48.501
s12.5 36.167 12.5 55.5v994h163v-994c0 -42.667 -8.5 -83.167 -25.5 -121.5s-41.167 -72.166 -72.5 -101.499s-66 -52 -104 -68c-22 -9.33301 -42.333 -15.333 -61 -18c-16 -3.33301 -37.333 -5 -64 -5h4h-4c-20.667 0 -42.167 2.33301 -64.5 7s-42.833 10.667 -61.5 18
c-40.667 18 -74.667 40.333 -102 67c-4.66699 2.66699 -10 8 -16 16c-6.66699 -8.66699 -12 -14 -16 -16c-32 -30 -66.667 -52.833 -104 -68.5s-79 -23.5 -125 -23.5h4h-4c-42.667 0 -85 8.33301 -127 25c-40.667 18 -74.667 40.333 -102 67l-16 16l-15 -16
c-32 -30 -67 -53 -105 -69c-22 -9.33301 -42.333 -15.333 -61 -18c-16 -3.33301 -37.333 -5 -64 -5h-816c-43.333 1.33301 -85 10 -125 26c-41.333 18.667 -76.833 41.834 -106.5 69.501s-52.834 60.334 -69.501 98.001s-25 78.5 -25 122.5v678
c0 42 9.16699 83.167 27.5 123.5s41.5 73.5 69.5 99.5c32 30 67 52.667 105 68s79.333 23 124 23h163v-163z" />
    <glyph glyph-name="seenfinal" unicode="&#x633;" horiz-adv-x="2776" arabic-form="final" 
d="M2521 90c-27.333 -26.667 -61.6641 -49.0029 -102.998 -67.0029c-18.667 -7.33301 -39.167 -13.333 -61.5 -18s-43.833 -7 -64.5 -7h4h-4c-46 0 -87.333 7.66699 -124 23s-71.667 38.333 -105 69c-5.33301 3.33301 -10.333 8.66602 -15 15.999l-17 -16
c-27.333 -26.667 -61.333 -49 -102 -67c-18.667 -7.33301 -39.167 -13.333 -61.5 -18s-43.833 -7 -64.5 -7h-4h4h4h-4c-12 0 -23.333 0.333008 -34 1s-23 2.33398 -37 5.00098s-32 8.33398 -54 17.001c-38 16 -73 39 -105 69l-15 16l-16 -16
c-27.333 -26.667 -61.666 -49 -102.999 -67c-18.667 -7.33301 -39.167 -13.333 -61.5 -18s-43.833 -7 -64.5 -7h-816c-12 1.33301 -23.333 2.33301 -34 3s-23 2.33398 -37 5.00098s-32 8.33398 -54 17.001c-37.333 16 -71.5 38.333 -102.5 67s-55.5 62.667 -73.5 102
c-7.33301 18 -13.333 37.667 -18 59s-7 42.333 -7 63v678c0 42.667 8.16699 83.167 24.5 121.5s39.5 71.166 69.5 98.499s66 49.833 108 67.5s83.333 26.5 124 26.5h163v-163h-163c-20.667 0 -42 -4 -64 -12c-17.333 -8 -35 -19.333 -53 -34
c-30.667 -28.667 -46 -63.667 -46 -105v-678c0 -18 4 -36.5 12 -55.5s19.167 -35.5 33.5 -49.5s31.666 -25.167 51.999 -33.5s42.166 -12.5 65.499 -12.5h816c21.333 0 42.166 4 62.499 12s38.166 19.333 53.499 34c31.333 28 47 62.333 47 103v994h164v-992
c0 -14 0.5 -24.333 1.5 -31s4.16699 -15.667 9.5 -27c8.66699 -18.667 20.334 -34.667 35.001 -48c30.667 -30.667 69.667 -46 117 -46h5h-5h-5h5c24 0 45.5 3.83301 64.5 11.5s36.167 19.167 51.5 34.5c31.333 29.333 47 64 47 104v994h163v-994c0 -20 4 -38.667 12 -56
s19.333 -33.333 34 -48c32.667 -30.667 71.667 -46 117 -46h5h-5h-4h4c20 0 40.333 4 61 12s39.334 19.333 56 34c31.333 30 47 64.667 47 104v994h163v-994c0 -19.333 4 -37.833 12 -55.5s19.333 -33.834 34 -48.501c32.667 -30.667 71.667 -46 117 -46h-5h5v-164h-4h4
c-12 0 -23.333 0.333008 -34 1s-23 2.33398 -37 5.00098s-32 8.33398 -54 17.001c-34.667 14.667 -69.334 37.667 -104 69c-4 2 -9.33301 7.33301 -16 16z" />
    <glyph glyph-name="seeninitial" unicode="&#x633;" horiz-adv-x="1433" arabic-form="initial" 
d="M814 1304v-994c0 -17.333 4 -36 12 -56c8.66699 -18.667 20.334 -34.667 35.001 -48c32.667 -30.667 71.334 -46 116.001 -46h5h-5h-4h4c20.667 0 41.667 4 63 12s39.666 19.333 54.999 34c30.667 29.333 46 64 46 104v994h163v-994c0 -21.333 -1.66699 -40.5 -5 -57.5
s-6 -28.667 -8 -35s-6.33301 -16.166 -13 -29.499c-16 -38 -39 -70.833 -69 -98.5s-65.333 -50.167 -106 -67.5s-82.667 -26 -126 -26h4h-4c-46 0 -86.833 7.5 -122.5 22.5s-70.834 38.167 -105.501 69.5c-4 2 -9.33301 7.33301 -16 16c-6 -8 -11.333 -13.333 -16 -16
c-27.333 -26.667 -61.666 -49 -102.999 -67c-18.667 -7.33301 -39.167 -13.333 -61.5 -18s-43.833 -7 -64.5 -7h4h-4c-42.667 0 -83.834 8.16699 -123.501 24.5s-74.834 38.833 -105.501 67.5l-16 16l-15 -16c-28.667 -26.667 -63.334 -48.667 -104.001 -66
s-82.667 -26 -126 -26h4h-4v164h5h-5c48 0 87.167 15.167 117.5 45.5s45.5 65.166 45.5 104.499v994h164v-994c0 -19.333 4.16699 -37.833 12.5 -55.5s19.833 -33.834 34.5 -48.501c30.667 -30.667 69.334 -46 116.001 -46h5h-5h-5h5c20 0 40.333 4 61 12
s39.334 19.333 56.001 34c30.667 28.667 46 63.334 46 104.001v994h163z" />
    <glyph glyph-name="seenmedial" unicode="&#x633;" horiz-adv-x="1462" arabic-form="medial" 
d="M1207 90c-27.333 -26.667 -61.6709 -49.002 -103.004 -67.002c-18.667 -7.33301 -39.167 -13.333 -61.5 -18s-43.833 -7 -64.5 -7c-12 0 -23.333 0.333008 -34 1s-23 2.33398 -37 5.00098s-32 8.33398 -54 17.001c-34.667 14.667 -69.334 37.667 -104.001 69l-8 7l-8 9
c-6 -8 -11.333 -13.333 -16 -16c-27.333 -26.667 -61.666 -49 -102.999 -67c-18.667 -7.33301 -39.167 -13.333 -61.5 -18s-43.833 -7 -64.5 -7h4h-4c-42 0 -83.667 8 -125 24c-21.333 8.66699 -39.5 18 -54.5 28s-31.167 23.333 -48.5 40l-17 16l-15 -16
c-28.667 -26.667 -63.334 -48.667 -104.001 -66s-82.667 -26 -126 -26h4h-4v164h5h-5c45.333 0 84 15 116 45s48 65 48 105v994h163v-994c0 -19.333 4.16699 -37.833 12.5 -55.5s19.833 -33.834 34.5 -48.501c32.667 -30.667 71.334 -46 116.001 -46h5h-5h-5h5
c20 0 40.333 4 61 12s39.334 19.333 56.001 34c30.667 28.667 46 63.334 46 104.001v994h163v-994c0 -17.333 4 -36 12 -56c8.66699 -18.667 20.334 -34.667 35.001 -48c32.667 -30.667 71.667 -46 117 -46h4h-4h-5h5c20 0 40.333 4 61 12s39.334 19.333 56.001 34
c30.667 28.667 46 63.334 46 104.001v994h163v-994c0 -19.333 4.16699 -37.833 12.5 -55.5s19.833 -33.834 34.5 -48.501c32.667 -30.667 71.334 -46 116.001 -46h-5h5v-164c-42 0 -83.667 8 -125 24c-21.333 8.66699 -39.5 18 -54.5 28s-31.167 23.333 -48.5 40l-17 16z
" />
    <glyph glyph-name="sheenisolated" unicode="&#x634;" horiz-adv-x="2779" arabic-form="isolated" 
d="M1960 1618h163v-163h-163v163zM654 1304l-163.003 0.00585938c-44.667 0 -86 -7.66699 -124 -23s-73 -38 -105 -68c-28 -26 -51.167 -59.167 -69.5 -99.5s-27.5 -81.5 -27.5 -123.5v-678c0 -44 8.33301 -84.833 25 -122.5s39.834 -70.334 69.501 -98.001
s65.167 -50.834 106.5 -69.501c40 -16 81.667 -24.667 125 -26h816c26.667 0 48 1.66699 64 5c18.667 2.66699 39 8.66699 61 18c38 16 73 39 105 69l15 16l16 -16c27.333 -26.667 61.333 -49 102 -67c42 -16.667 84.333 -25 127 -25h4h-4c46 0 87.667 7.83301 125 23.5
s72 38.5 104 68.5c4 2 9.33301 7.33301 16 16c6 -8 11.333 -13.333 16 -16c27.333 -26.667 61.333 -49 102 -67c18.667 -7.33301 39.167 -13.333 61.5 -18s43.833 -7 64.5 -7h4h-4c26.667 0 48 1.66699 64 5c18.667 2.66699 39 8.66699 61 18c38 16 72.667 38.667 104 68
s55.5 63.166 72.5 101.499s25.5 78.833 25.5 121.5v994h-163v-994c0 -19.333 -4.16699 -37.833 -12.5 -55.5s-19.833 -33.834 -34.5 -48.501c-30.667 -30.667 -69.667 -46 -117 -46h-4h4h5h-5c-24 0 -45.5 3.83301 -64.5 11.5s-36.167 19.167 -51.5 34.5
c-31.333 29.333 -47 64 -47 104v994h-163v-994c0 -19.333 -4 -37.833 -12 -55.5s-19.333 -33.834 -34 -48.501c-32.667 -30.667 -71.667 -46 -117 -46h-5h5h5h-5c-20.667 0 -41.167 4 -61.5 12s-38.5 19.333 -54.5 34c-31.333 29.333 -47 64 -47 104v994h-164v-992
c0 -18 -4 -36.5 -12 -55.5s-19.167 -35.5 -33.5 -49.5s-31.666 -25.167 -51.999 -33.5s-42.166 -12.5 -65.499 -12.5h-816c-24 0 -45.333 3.83301 -64 11.5s-36 19.167 -52 34.5c-31.333 29.333 -47 64.333 -47 105v678c0 40.667 15.667 75.667 47 105
c14.667 13.333 32.667 24.666 54 33.999c21.333 8 42 12 62 12h163v163zM1797 1618.01h-163v-163h163v163zM2450 1618.01h-164v-163h164v163z" />
    <glyph glyph-name="sheenfinal" unicode="&#x634;" horiz-adv-x="2775" arabic-form="final" 
d="M1966 1621h163v-163h-163v163zM2521 91c-27.333 -26.667 -61.6641 -49.0039 -102.998 -67.0039c-18.667 -7.33301 -39.167 -13.333 -61.5 -18s-43.833 -7 -64.5 -7h4h-4c-46 0 -87.333 7.66699 -124 23s-71.667 38.333 -105 69
c-5.33301 3.33301 -10.333 8.66602 -15 15.999l-17 -16c-27.333 -26.667 -61.333 -49 -102 -67c-18.667 -7.33301 -39.167 -13.333 -61.5 -18s-43.833 -7 -64.5 -7h-4h4h4h-4c-12 0 -23.333 0.333008 -34 1s-23 2.33398 -37 5.00098s-32 8.33398 -54 17.001
c-38 16 -73 39 -105 69l-15 16l-16 -16c-27.333 -26.667 -61.666 -49 -102.999 -67c-18.667 -7.33301 -39.167 -13.333 -61.5 -18s-43.833 -7 -64.5 -7l-816 1c-12 0.666992 -23.333 1.33398 -34 2.00098s-23 2.33398 -37 5.00098s-32 8.33398 -54 17.001
c-37.333 16 -71.5 38.333 -102.5 67s-55.5 62.667 -73.5 102c-7.33301 18 -13.333 37.667 -18 59s-7 42.333 -7 63v678c0 42.667 8.16699 83.167 24.5 121.5s39.5 71.166 69.5 98.499s66 49.833 108 67.5s83.333 26.5 124 26.5h163v-163h-163c-20.667 0 -42 -4 -64 -12
c-17.333 -8 -35 -19.333 -53 -34c-30.667 -28.667 -46 -63.667 -46 -105v-678c0 -18 4 -36.5 12 -55.5s19.167 -35.5 33.5 -49.5s31.666 -25.167 51.999 -33.5s42.166 -12.5 65.499 -12.5h816c21.333 0 42.166 4 62.499 12s38.166 19.333 53.499 34
c31.333 28 47 62.333 47 103v994h164v-992c0 -14 0.5 -24.333 1.5 -31s4.16699 -15.667 9.5 -27c8.66699 -18.667 20.334 -34.667 35.001 -48c30.667 -30.667 69.667 -46 117 -46h5h-5h-5h5c24 0 45.5 3.83301 64.5 11.5s36.167 19.167 51.5 34.5
c31.333 29.333 47 64 47 104v994h163v-994c0 -20 4 -38.667 12 -56s19.333 -33.333 34 -48c32.667 -30.667 71.667 -46 117 -46h5h-5h-4h4c20 0 40.333 4 61 12s39.334 19.333 56 34c31.333 30 47 64.667 47 104v994h163v-994c0 -19.333 4 -37.833 12 -55.5
s19.333 -33.834 34 -48.501c32.667 -30.667 71.667 -46 117 -46h-5h5v-164h-4h4c-12 0 -23.333 0.333008 -34 1s-23 2.33398 -37 5.00098s-32 8.33398 -54 17.001c-34.667 14.667 -69.334 37.667 -104 69c-4 2 -9.33301 7.33301 -16 16zM2456 1621h-164v-163h164v163z
M1803 1621h-163v-163h163v163z" />
    <glyph glyph-name="sheeninitial" unicode="&#x634;" horiz-adv-x="1400" arabic-form="initial" 
d="M650 1617h163v-163h-163v163zM813 1304v-994c0 -17.333 4 -36 12 -56c8.66699 -18.667 20.334 -34.667 35.001 -48c32.667 -30.667 71.334 -46 116.001 -46h5h-5h-4h4c20.667 0 41.667 4 63 12s39.666 19.333 54.999 34c30.667 29.333 46 64 46 104v994h163v-994
c0 -21.333 -1.66699 -40.5 -5 -57.5s-6 -28.667 -8 -35s-6.33301 -16.166 -13 -29.499c-16 -38 -39 -70.833 -69 -98.5s-65.333 -50.167 -106 -67.5s-82.667 -26 -126 -26h4h-4c-46 0 -86.833 7.5 -122.5 22.5s-70.834 38.167 -105.501 69.5c-4 2 -9.33301 7.33301 -16 16
c-6 -8 -11.333 -13.333 -16 -16c-27.333 -26.667 -61.666 -49 -102.999 -67c-18.667 -7.33301 -39.167 -13.333 -61.5 -18s-43.833 -7 -64.5 -7h4h-4c-42.667 0 -83.834 8.16699 -123.501 24.5s-74.834 38.833 -105.501 67.5l-16 16l-15 -16
c-28.667 -26.667 -63.334 -48.667 -104.001 -66s-82.667 -26 -126 -26h4h-4v164h5h-5c48 0 87.167 15.167 117.5 45.5s45.5 65.166 45.5 104.499v994h164v-994c0 -19.333 4.16699 -37.833 12.5 -55.5s19.833 -33.834 34.5 -48.501c30.667 -30.667 69.334 -46 116.001 -46h5
h-5h-5h5c20 0 40.333 4 61 12s39.334 19.333 56.001 34c30.667 28.667 46 63.334 46 104.001v994h163zM1140 1617h-164v-163h164v163zM487 1617h-163v-163h163v163z" />
    <glyph glyph-name="sheenmedial" unicode="&#x634;" horiz-adv-x="1463" arabic-form="medial" 
d="M652 1620h163v-163h-163v163zM1208 90c-27.333 -26.667 -61.6709 -49.002 -103.004 -67.002c-18.667 -7.33301 -39.167 -13.333 -61.5 -18s-43.833 -7 -64.5 -7c-12 0 -23.333 0.333008 -34 1s-23 2.33398 -37 5.00098s-32 8.33398 -54 17.001
c-34.667 14.667 -69.334 37.667 -104.001 69l-8 7l-8 9c-6 -8 -11.333 -13.333 -16 -16c-27.333 -26.667 -61.666 -49 -102.999 -67c-18.667 -7.33301 -39.167 -13.333 -61.5 -18s-43.833 -7 -64.5 -7h4h-4c-42 0 -83.667 8 -125 24c-21.333 8.66699 -39.5 18 -54.5 28
s-31.167 23.333 -48.5 40l-17 16l-15 -16c-28.667 -26.667 -63.334 -48.667 -104.001 -66s-82.667 -26 -126 -26h4h-4v164h5h-5c45.333 0 84 15 116 45s48 65 48 105v994h163v-994c0 -19.333 4.16699 -37.833 12.5 -55.5s19.833 -33.834 34.5 -48.501
c32.667 -30.667 71.334 -46 116.001 -46h5h-5h-5h5c20 0 40.333 4 61 12s39.334 19.333 56.001 34c30.667 28.667 46 63.334 46 104.001v994h163v-994c0 -17.333 4 -36 12 -56c8.66699 -18.667 20.334 -34.667 35.001 -48c32.667 -30.667 71.667 -46 117 -46h4h-4h-5h5
c20 0 40.333 4 61 12s39.334 19.333 56.001 34c30.667 28.667 46 63.334 46 104.001v994h163v-994c0 -19.333 4.16699 -37.833 12.5 -55.5s19.833 -33.834 34.5 -48.501c32.667 -30.667 71.334 -46 116.001 -46h-5h5v-164c-42 0 -83.667 8 -125 24
c-21.333 8.66699 -39.5 18 -54.5 28s-31.167 23.333 -48.5 40l-17 16zM1142 1620h-163v-163h163v163zM488.995 1620h-163v-163h163v163z" />
    <glyph glyph-name="sadisolated" unicode="&#x635;" horiz-adv-x="3437" arabic-form="isolated" 
d="M660 1143h-163.002c-46 0 -85 -15 -117 -45c-15.333 -14.667 -27 -31.667 -35 -51s-12 -37.666 -12 -54.999v-679c0 -20 4 -39 12 -57c12.667 -22 24.334 -38.333 35.001 -49c16.667 -14.667 34.834 -25.834 54.501 -33.501s40.5 -11.5 62.5 -11.5h819
c46 0 84.667 15.167 116 45.5s47 65.5 47 105.5v106v234v654h164v-162c42 50.667 90.833 90.334 146.5 119.001s113.5 43 173.5 43h993c46.667 0 90.5 -12 131.5 -36s76.167 -56.5 105.5 -97.5s51.166 -85.667 65.5 -134c14.333 -48.333 21.5 -100.833 21.5 -157.5v-459
c0 -29.333 -2 -57 -6 -83c-1.33301 -8 -3.66602 -19.833 -7 -35.5c-3.33301 -15.667 -6.66602 -28.834 -9.99902 -39.501c-14.667 -48.667 -35.667 -92.334 -63 -131.001c-31.333 -43.333 -67 -76.833 -107 -100.5s-83.667 -35.5 -131 -35.5h-1154c-44 0 -86 11 -126 33
s-74 52 -102 90l-20 -23l-9 -9c-18 -17.333 -34.833 -31 -50.5 -41s-33.834 -19 -54.501 -27c-37.333 -15.333 -78.666 -23 -123.999 -23h-819c-44 0 -86 8 -126 24c-41.333 18.667 -76.333 41.334 -105 68.001c-30.667 29.333 -54.334 63.333 -71.001 102s-25 79 -25 121
v679c0 42.667 8.83301 83.667 26.5 123s42 73.5 73 102.5s65.5 51.167 103.5 66.5s79.333 23 124 23h163v-164zM1746 1010c-18.667 -25.333 -33.8359 -50.501 -45.5029 -75.501s-22.167 -53.167 -31.5 -84.5s-16 -62.666 -20 -93.999s-6 -65.666 -6 -102.999v-233
c0 -76 18.667 -140.333 56 -193c16.667 -22.667 33.334 -39.167 50.001 -49.5s34.334 -15.5 53.001 -15.5h1154c18 0 36.333 5.66699 55 17s35 27.333 49 48c18 24.667 31.833 54.667 41.5 90s14.5 70.666 14.5 105.999v459c0 36 -5.5 71.833 -16.5 107.5
s-24.167 65.167 -39.5 88.5c-31.333 43.333 -66 65 -104 65h-993c-40.667 0 -80.167 -12 -118.5 -36s-71.166 -56.333 -98.499 -97z" />
    <glyph glyph-name="sadfinal" unicode="&#x635;" horiz-adv-x="3388" arabic-form="final" 
d="M638 1137l-161.999 -0.00195312c-46.667 0 -85.334 -15.333 -116.001 -46c-15.333 -13.333 -26.833 -28.5 -34.5 -45.5s-11.5 -36.5 -11.5 -58.5v-673c0 -42 15.333 -76.667 46 -104c16 -14.667 34.167 -26 54.5 -34s40.833 -12 61.5 -12h811
c46.667 0 85.334 15.333 116.001 46c16 14 27.667 29.667 35 47s11 36.333 11 57v105v231v649h162v-161c42.667 50.667 91.834 90.167 147.501 118.5s112.167 42.5 169.5 42.5h985c46.667 0 90 -12 130 -36s75 -57 105 -99c18.667 -25.333 34.334 -54.666 47 -87.999
c12.667 -28 22.334 -62 29 -102l9 -97v-454v-111c0 -41.333 15 -76 45 -104c15.333 -15.333 32.5 -26.833 51.5 -34.5s40.5 -11.5 64.5 -11.5h-5h5v-162h-4h4c-42.667 0 -83.667 8.16699 -123 24.5s-74 38.5 -104 66.5l-17 16l-12 15
c-32.667 -40.667 -68 -70.834 -106 -90.501s-77.667 -29.5 -119 -29.5h-1144c-42.667 0 -84 10.333 -124 31c-38 22 -72 52 -102 90l-29 -31c-32.667 -28.667 -67.334 -50.834 -104.001 -66.501s-77.667 -23.5 -123 -23.5h-811c-22.667 0 -42.834 1.83301 -60.501 5.5
s-31 6.83398 -40 9.50098s-16.833 5.33398 -23.5 8.00098c-40 18 -74.333 40.333 -103 67c-32 31.333 -56.167 65.5 -72.5 102.5s-24.5 76.833 -24.5 119.5v673c0 40.667 8.66699 80.834 26 120.501s41.5 74 72.5 103s65.167 51 102.5 66s78.333 22.5 123 22.5h162v-162z
M1714 1005c-33.333 -46.667 -58.998 -100.331 -76.998 -160.998c-8.66699 -28.667 -15.167 -59.5 -19.5 -92.5s-6.5 -66.833 -6.5 -101.5v-230c0 -36 5.33301 -71 16 -105s23.667 -62 39 -84s31.666 -38.667 48.999 -50s35.333 -17 54 -17h1144c18.667 0 37 6 55 18
s33.667 28 47 48c36.667 52.667 55 117 55 193v454c0 37.333 -5 73.166 -15 107.499s-23 62.833 -39 85.5s-32.5 39.5 -49.5 50.5s-34.833 16.5 -53.5 16.5h-985c-39.333 0 -78 -12 -116 -36c-19.333 -12 -36.833 -25.833 -52.5 -41.5s-30.834 -33.834 -45.501 -54.501z" />
    <glyph glyph-name="sadinitial" unicode="&#x635;" horiz-adv-x="2089" arabic-form="initial" 
d="M323 1299l0.000976562 -161c43.333 51.333 92 91 146 119s111 42 171 42h984c46.667 0 90.167 -11.833 130.5 -35.5s75.5 -56.834 105.5 -99.501c15.333 -21.333 27.666 -41.833 36.999 -61.5s17.833 -42.5 25.5 -68.5s13.167 -51.167 16.5 -75.5s5 -51.5 5 -81.5v-454
c0 -52 -7.83301 -104 -23.5 -156s-35.834 -95.333 -60.501 -130c-33.333 -44 -69 -77.5 -107 -100.5s-81 -34.5 -129 -34.5h-1144c-42 0 -83 10.333 -123 31c-40 24.667 -74 54.334 -102 89.001l-13 -16l-16 -15c-30.667 -29.333 -64.667 -51.833 -102 -67.5
s-79 -23.5 -125 -23.5v162h4h-4c44.667 0 83.334 15.333 116.001 46c16 14 27.667 29.667 35 47s11 36.333 11 57v111v227v649h162zM1727 1071c-16.667 22.667 -32.999 39.001 -48.999 49.001c-15.333 11.333 -33.333 17 -54 17h-984c-40 0 -79 -12 -117 -36
c-19.333 -12 -36.833 -25.833 -52.5 -41.5s-30.834 -33.834 -45.501 -54.501c-32.667 -47.333 -58 -101 -76 -161c-8.66699 -28.667 -15.167 -59.5 -19.5 -92.5s-6.5 -66.833 -6.5 -101.5v-227c0 -36 5.33301 -71.667 16 -107s23.667 -64 39 -86
c16.667 -22 33 -38.667 49 -50c17.333 -10.667 35 -16 53 -16h1144c18.667 0 36.667 6 54 18c18.667 11.333 35 27.333 49 48c36.667 52.667 55 117 55 193v454c0 37.333 -5.33301 73.5 -16 108.5s-23.667 63.5 -39 85.5z" />
    <glyph glyph-name="sadmedial" unicode="&#x635;" horiz-adv-x="2097" arabic-form="medial" 
d="M322 1298l-0.00195312 -160.999c43.333 51.333 92 91 146 119s111 42 171 42h985c46.667 0 90 -12 130 -36s75 -57 105 -99c38.667 -53.333 64 -116.666 76 -189.999l8 -50v-47v-454v-111c0 -41.333 15.667 -76 47 -104c16 -14.667 34.167 -26 54.5 -34
s40.833 -12 61.5 -12h-5h5v-162h-4h4c-41.333 0 -82.5 8.5 -123.5 25.5s-75.5 38.833 -103.5 65.5l-16 14l-15 17c-29.333 -38.667 -63.5 -68.334 -102.5 -89.001s-79.5 -31 -121.5 -31h-1144c-43.333 0 -84.666 10.667 -123.999 32s-73 50.666 -101 87.999l-29 -31
c-31.333 -29.333 -65.666 -51.833 -102.999 -67.5s-79 -23.5 -125 -23.5v162h4h-4c46 0 84.333 15.333 115 46c15.333 14.667 27 30.667 35 48s12 36 12 56v111v227v649h162zM1726 1070c-16.667 23.333 -33.3359 40.1699 -50.0029 50.5029s-34 15.5 -52 15.5h-985
c-39.333 0 -77.666 -11.833 -114.999 -35.5s-70.666 -55.834 -99.999 -96.501c-32.667 -47.333 -58 -101 -76 -161c-8.66699 -28.667 -15.167 -59.5 -19.5 -92.5s-6.5 -66.833 -6.5 -101.5v-227c0 -36 5.33301 -71.667 16 -107s23.667 -64 39 -86
c16.667 -22 33.167 -38.5 49.5 -49.5s34.166 -16.5 53.499 -16.5h1144c18 0 36 6 54 18s34 28 48 48c10.667 13.333 18.834 26.5 24.501 39.5s11.167 28.833 16.5 47.5c10 35.333 15 70.666 15 105.999v454c0 22 -1.33301 41.167 -4 57.5s-6.66699 33.5 -12 51.5
c-11.333 35.333 -24.666 63.666 -39.999 84.999z" />
    <glyph glyph-name="dadisolated" unicode="&#x636;" horiz-adv-x="3437" arabic-form="isolated" 
d="M660 1143h-163.002c-46 0 -85 -15 -117 -45c-15.333 -14.667 -27 -31.667 -35 -51s-12 -37.666 -12 -54.999v-679c0 -20 4 -39 12 -57c12.667 -22 24.334 -38.333 35.001 -49c16.667 -14.667 34.834 -25.834 54.501 -33.501s40.5 -11.5 62.5 -11.5h819
c46 0 84.667 15.167 116 45.5s47 65.5 47 105.5v106v234v654h164v-162c42 50.667 90.833 90.334 146.5 119.001s113.5 43 173.5 43h993c46.667 0 90.5 -12 131.5 -36s76.167 -56.5 105.5 -97.5s51.166 -85.667 65.5 -134c14.333 -48.333 21.5 -100.833 21.5 -157.5v-459
c0 -29.333 -2 -57 -6 -83c-1.33301 -8 -3.66602 -19.833 -7 -35.5c-3.33301 -15.667 -6.66602 -28.834 -9.99902 -39.501c-14.667 -48.667 -35.667 -92.334 -63 -131.001c-31.333 -43.333 -67 -76.833 -107 -100.5s-83.667 -35.5 -131 -35.5h-1154c-44 0 -86 11 -126 33
s-74 52 -102 90l-20 -23l-9 -9c-18 -17.333 -34.833 -31 -50.5 -41s-33.834 -19 -54.501 -27c-37.333 -15.333 -78.666 -23 -123.999 -23h-819c-44 0 -86 8 -126 24c-41.333 18.667 -76.333 41.334 -105 68.001c-30.667 29.333 -54.334 63.333 -71.001 102s-25 79 -25 121
v679c0 42.667 8.83301 83.667 26.5 123s42 73.5 73 102.5s65.5 51.167 103.5 66.5s79.333 23 124 23h163v-164zM1746 1010c-18.667 -25.333 -33.8359 -50.501 -45.5029 -75.501s-22.167 -53.167 -31.5 -84.5s-16 -62.666 -20 -93.999s-6 -65.666 -6 -102.999v-233
c0 -76 18.667 -140.333 56 -193c16.667 -22.667 33.334 -39.167 50.001 -49.5s34.334 -15.5 53.001 -15.5h1154c18 0 36.333 5.66699 55 17s35 27.333 49 48c18 24.667 31.833 54.667 41.5 90s14.5 70.666 14.5 105.999v459c0 36 -5.5 71.833 -16.5 107.5
s-24.167 65.167 -39.5 88.5c-31.333 43.333 -66 65 -104 65h-993c-40.667 0 -80.167 -12 -118.5 -36s-71.166 -56.333 -98.499 -97zM2297 1617h164v-164h-164v164z" />
    <glyph glyph-name="dadfinal" unicode="&#x636;" horiz-adv-x="3409" arabic-form="final" 
d="M638 1137l-161.999 -0.00195312c-46.667 0 -85.334 -15.333 -116.001 -46c-15.333 -13.333 -26.833 -28.5 -34.5 -45.5s-11.5 -36.5 -11.5 -58.5v-673c0 -42 15.333 -76.667 46 -104c16 -14.667 34.167 -26 54.5 -34s40.833 -12 61.5 -12h811
c46.667 0 85.334 15.333 116.001 46c16 14 27.667 29.667 35 47s11 36.333 11 57v105v231v649h162v-161c42.667 50.667 91.834 90.167 147.501 118.5s112.167 42.5 169.5 42.5h985c46.667 0 90 -12 130 -36s75 -57 105 -99c18.667 -25.333 34.334 -54.666 47 -87.999
c12.667 -28 22.334 -62 29 -102l9 -97v-454v-111c0 -41.333 15 -76 45 -104c15.333 -15.333 32.5 -26.833 51.5 -34.5s47.167 -11.5 84.5 -11.5h-5h5v-162h-4h4c-56 0 -103.667 8.16699 -143 24.5s-74 38.5 -104 66.5l-17 16l-12 15
c-32.667 -40.667 -68 -70.834 -106 -90.501s-77.667 -29.5 -119 -29.5h-1144c-42.667 0 -84 10.333 -124 31c-38 22 -72 52 -102 90l-29 -31c-32.667 -28.667 -67.334 -50.834 -104.001 -66.501s-77.667 -23.5 -123 -23.5h-811c-22.667 0 -42.834 1.83301 -60.501 5.5
s-31 6.83398 -40 9.50098s-16.833 5.33398 -23.5 8.00098c-40 18 -74.333 40.333 -103 67c-32 31.333 -56.167 65.5 -72.5 102.5s-24.5 76.833 -24.5 119.5v673c0 40.667 8.66699 80.834 26 120.501s41.5 74 72.5 103s65.167 51 102.5 66s78.333 22.5 123 22.5h162v-162z
M1714 1005c-33.333 -46.667 -58.998 -100.331 -76.998 -160.998c-8.66699 -28.667 -15.167 -59.5 -19.5 -92.5s-6.5 -66.833 -6.5 -101.5v-230c0 -36 5.33301 -71 16 -105s23.667 -62 39 -84s31.666 -38.667 48.999 -50s35.333 -17 54 -17h1144c18.667 0 37 6 55 18
s33.667 28 47 48c36.667 52.667 55 117 55 193v454c0 37.333 -5 73.166 -15 107.499s-23 62.833 -39 85.5s-32.5 39.5 -49.5 50.5s-34.833 16.5 -53.5 16.5h-985c-39.333 0 -78 -12 -116 -36c-19.333 -12 -36.833 -25.833 -52.5 -41.5s-30.834 -33.834 -45.501 -54.501z
M2260 1622h161v-162h-161v162z" />
    <glyph glyph-name="dadinitial" unicode="&#x636;" horiz-adv-x="2114" arabic-form="initial" 
d="M972 1622h163v-162h-163v162zM324 1299l0.000976562 -161c43.333 51.333 92 91 146 119s111 42 171 42h984c46.667 0 90.167 -11.833 130.5 -35.5s75.5 -56.834 105.5 -99.501c15.333 -21.333 27.666 -41.833 36.999 -61.5s17.833 -42.5 25.5 -68.5
s13.167 -51.167 16.5 -75.5s5 -51.5 5 -81.5v-454c0 -52 -7.83301 -104 -23.5 -156s-35.834 -95.333 -60.501 -130c-33.333 -44 -69 -77.5 -107 -100.5s-81 -34.5 -129 -34.5h-1144c-42 0 -83 10.333 -123 31c-40 24.667 -74 54.334 -102 89.001l-13 -16l-16 -15
c-30.667 -29.333 -64.667 -51.833 -102 -67.5s-79 -23.5 -125 -23.5v162h4h-4c44.667 0 83.334 15.333 116.001 46c16 14 27.667 29.667 35 47s11 36.333 11 57v111v227v649h162zM1728 1071c-16.667 22.667 -32.999 39.001 -48.999 49.001c-15.333 11.333 -33.333 17 -54 17
h-984c-40 0 -79 -12 -117 -36c-19.333 -12 -36.833 -25.833 -52.5 -41.5s-30.834 -33.834 -45.501 -54.501c-32.667 -47.333 -58 -101 -76 -161c-8.66699 -28.667 -15.167 -59.5 -19.5 -92.5s-6.5 -66.833 -6.5 -101.5v-227c0 -36 5.33301 -71.667 16 -107
s23.667 -64 39 -86c16.667 -22 33 -38.667 49 -50c17.333 -10.667 35 -16 53 -16h1144c18.667 0 36.667 6 54 18c18.667 11.333 35 27.333 49 48c36.667 52.667 55 117 55 193v454c0 37.333 -5.33301 73.5 -16 108.5s-23.667 63.5 -39 85.5z" />
    <glyph glyph-name="dadmedial" unicode="&#x636;" horiz-adv-x="2097" arabic-form="medial" 
d="M970 1618h163v-162h-163v162zM322 1299l-0.00195312 -160.999c43.333 51.333 92 91 146 119s111 42 171 42h985c46.667 0 90 -12 130 -36s75 -57 105 -99c38.667 -53.333 64 -116.666 76 -189.999l8 -97v-454v-111c0 -41.333 15.667 -76 47 -104
c16 -14.667 34.167 -26 54.5 -34s40.833 -12 61.5 -12h-5h5v-162h-4h4c-41.333 0 -82.5 8.5 -123.5 25.5s-75.5 38.833 -103.5 65.5l-16 14l-15 17c-29.333 -38.667 -63.5 -68.334 -102.5 -89.001s-79.5 -31 -121.5 -31h-1144c-43.333 0 -84.666 10.667 -123.999 32
s-73 50.666 -101 87.999l-29 -31c-31.333 -29.333 -65.666 -51.833 -102.999 -67.5s-79 -23.5 -125 -23.5v162h4h-4c46 0 84.333 15.333 115 46c15.333 14.667 27 30.667 35 48s12 36 12 56v111v227v649h162zM1726 1071c-16.667 23.333 -33.3359 40.1699 -50.0029 50.5029
s-34 15.5 -52 15.5h-985c-39.333 0 -77.666 -11.833 -114.999 -35.5s-70.666 -55.834 -99.999 -96.501c-32.667 -47.333 -58 -101 -76 -161c-8.66699 -28.667 -15.167 -59.5 -19.5 -92.5s-6.5 -66.833 -6.5 -101.5v-227c0 -36 5.33301 -71.667 16 -107s23.667 -64 39 -86
c16.667 -22 33.167 -38.5 49.5 -49.5s34.166 -16.5 53.499 -16.5h1144c18 0 36 6 54 18s34 28 48 48c10.667 13.333 18.834 26.5 24.501 39.5s11.167 28.833 16.5 47.5c10 35.333 15 70.666 15 105.999v454c0 22 -1.33301 41.167 -4 57.5s-6.66699 33.5 -12 51.5
c-11.333 35.333 -24.666 63.666 -39.999 84.999z" />
    <glyph glyph-name="tahisolated" unicode="&#x637;" horiz-adv-x="2569" arabic-form="isolated" 
d="M791 1618v-484.999c42.667 50.667 91.667 90.167 147 118.5s112.333 42.5 171 42.5h984c46.667 0 90.167 -11.833 130.5 -35.5s75.5 -56.834 105.5 -99.501c15.333 -21.333 27.666 -41.833 37 -61.5c9.33301 -19.667 17.833 -42.5 25.5 -68.5s13.167 -51.167 16.5 -75.5
s5 -51.5 5 -81.5v-454c0 -52 -7.83301 -104 -23.5 -156s-35.834 -95.333 -60.5 -130c-33.333 -44 -69 -77.5 -107 -100.5s-81 -34.5 -129 -34.5l-1950 -1v161h4h-4h486v261v227v973h162zM2196 1066c-17.333 23.333 -33.999 39.6689 -49.999 49.002
c-17.333 11.333 -35 17 -53 17h-984c-40 0 -79 -12 -117 -36c-19.333 -12 -36.833 -25.833 -52.5 -41.5s-30.834 -33.834 -45.501 -54.501c-33.333 -46.667 -59 -100.334 -77 -161.001c-8.66699 -28.667 -15.167 -59.5 -19.5 -92.5s-6.5 -66.833 -6.5 -101.5v-227
c0 -78.667 19 -143 57 -193c15.333 -22 31.5 -38.5 48.5 -49.5s34.5 -16.5 52.5 -16.5h1144c18.667 0 37 6 55 18s34 28 48 48c36.667 52.667 55 117 55 193v454c0 37.333 -5.33301 73.5 -16 108.5s-23.667 63.5 -39 85.5z" />
    <glyph glyph-name="tahfinal" unicode="&#x637;" horiz-adv-x="2100" arabic-form="final" 
d="M1623 2l-1144 -0.00292969c-43.333 0 -84.333 10.333 -123 31s-72.667 50.334 -102 89.001l-29 -31c-27.333 -27.333 -61.333 -49.333 -102 -66s-82.667 -25 -126 -25h4h-4v162h5h-5c20.667 0 41.167 4 61.5 12s38.5 19.333 54.5 34c31.333 28 47 62.667 47 104v111v227
v973h161v-485c43.333 50 92.333 89.333 147 118s111.667 43 171 43h984c46.667 0 89.5 -11.333 128.5 -34s75.333 -58 109 -106s58.5 -109.667 74.5 -185l8 -97v-454v-111c0 -14 0.5 -24.333 1.5 -31s4.16699 -15.667 9.5 -27c8 -17.333 19.667 -32.666 35 -45.999
c30.667 -30.667 69.667 -46 117.001 -46h-5h5v-162h-4h4c-12 0 -23.333 0.333008 -34 1s-23 2.33398 -37 5.00098s-31.833 8.33398 -53.5 17.001s-40 18 -55 28s-31.167 23.333 -48.5 40l-15 14l-15 17c-28 -34.667 -62 -64.334 -102 -89.001c-40 -20.667 -81 -31 -123 -31z
M1677 1120c-16.667 11.333 -34.6631 17.0049 -53.9961 17.0049h-984c-40 0 -78.333 -11.5 -115 -34.5s-70.334 -55.833 -101.001 -98.5s-55.334 -95.334 -74.001 -158.001s-28 -128 -28 -196v-227c0 -36.667 5 -72 15 -106c5.33301 -17.333 11.166 -32.833 17.499 -46.5
s14.166 -27.167 23.499 -40.5c12.667 -18.667 28.667 -35.334 48 -50.001c19.333 -10.667 37.333 -16 54 -16h1144c18 0 35.667 5.66699 53 17s34 27.666 50 48.999c36.667 52.667 55 117 55 193v454c0 35.333 -4.83301 70.666 -14.5 105.999s-23.167 64.666 -40.5 87.999
c-14 22 -30.333 38.333 -49 49z" />
    <glyph glyph-name="tahinitial" unicode="&#x637;" horiz-adv-x="2111" arabic-form="initial" 
d="M323 1623l-0.000976562 -484.999c41.333 50.667 89.5 90.167 144.5 118.5s112.167 42.5 171.5 42.5h985c46.667 0 90 -12 130 -36s75 -57 105 -99c15.333 -21.333 27.666 -41.833 36.999 -61.5s17.833 -42.5 25.5 -68.5s13.167 -51.167 16.5 -75.5s5 -51.5 5 -81.5v-454
c0 -52 -7.83301 -104 -23.5 -156s-35.834 -95.333 -60.501 -130c-29.333 -42.667 -64.166 -75.834 -104.499 -99.501s-83.833 -35.5 -130.5 -35.5h-1144c-42 0 -83.333 10.667 -124 32c-39.333 22.667 -73 52 -101 88l-29 -31
c-31.333 -29.333 -65.666 -51.833 -102.999 -67.5s-79 -23.5 -125 -23.5h4h-4v162h5h-5c46.667 0 85.334 15.333 116.001 46c16 14 27.667 29.667 35 47s11 36.333 11 57v111v227v973h163zM1726 1071c-16.667 23.333 -33.3389 40.1689 -50.0059 50.502s-34 15.5 -52 15.5
h-985c-39.333 0 -77.666 -11.833 -114.999 -35.5s-70.666 -55.834 -99.999 -96.501c-33.333 -50.667 -58.333 -104.334 -75 -161.001c-6.66699 -21.333 -11.167 -38.666 -13.5 -51.999s-4.5 -27.666 -6.5 -42.999c-4 -32 -6 -65 -6 -99v-227c0 -36.667 5 -72 15 -106
s23 -62.667 39 -86c18.667 -24.667 35.834 -42 51.501 -52s32.834 -15 51.501 -15h1144c18 0 36 6 54 18s34 28 48 48c10.667 13.333 18.834 26.5 24.501 39.5s11.167 28.833 16.5 47.5c10 35.333 15 70.666 15 105.999v454c0 22 -1.33301 41.167 -4 57.5
s-6.66699 33.5 -12 51.5c-11.333 35.333 -24.666 63.666 -39.999 84.999z" />
    <glyph glyph-name="tahmedial" unicode="&#x637;" horiz-adv-x="2409" arabic-form="medial" 
d="M1951 2h-1950v165h486v256v227v973h162v-485c43.333 50 92.333 89.333 147 118s111.667 43 171 43h984c46.667 0 89.5 -11.333 128.5 -34s75.333 -58 109 -106s58.5 -109.667 74.5 -185l8 -97v-454v-111c0 -14 0.5 -24.333 1.5 -31s4.16699 -15.667 9.5 -27
c8 -17.333 19.667 -32.666 35 -45.999c30.667 -30.667 69.334 -46 116 -46h-5h5v-162c-46 0 -87.333 7.66699 -124 23c-21.333 8.66699 -39.5 18 -54.5 28s-31.167 23.333 -48.5 40l-15 12l-15 19c-28 -34.667 -62 -64.334 -102 -89.001c-40 -20.667 -81 -31 -123 -31z
M2005 1120c-16.667 11.333 -34.665 17.0029 -53.998 17.0029h-984c-40 0 -78.333 -11.5 -115 -34.5s-70.334 -55.833 -101.001 -98.5s-55.334 -95.334 -74.001 -158.001s-28 -128 -28 -196v-227c0 -35.333 5.16699 -70.666 15.5 -105.999s23.833 -64.333 40.5 -87
c13.333 -20 29 -36.333 47 -49c18.667 -11.333 37 -17 55 -17h1144c18 0 35.667 5.66699 53 17s34 27.666 50 48.999c36.667 52.667 55 117 55 193v454c0 35.333 -4.83301 70.666 -14.5 105.999s-23.167 64.666 -40.5 87.999c-14 22 -30.333 38.333 -49 49z" />
    <glyph glyph-name="zahisolated" unicode="&#x638;" horiz-adv-x="2569" arabic-form="isolated" 
d="M1440 1618h162v-162h-162v162zM791 1618v-484.999c42.667 50.667 91.667 90.167 147 118.5s112.333 42.5 171 42.5h984c46.667 0 90.167 -11.833 130.5 -35.5s75.5 -56.834 105.5 -99.501c15.333 -21.333 27.666 -41.833 37 -61.5
c9.33301 -19.667 17.833 -42.5 25.5 -68.5s13.167 -51.167 16.5 -75.5s5 -51.5 5 -81.5v-454c0 -52 -7.83301 -104 -23.5 -156s-35.834 -95.333 -60.5 -130c-33.333 -44 -69 -77.5 -107 -100.5s-81 -34.5 -129 -34.5h-1950v164h486v257v227v973h162zM2196 1066
c-17.333 23.333 -33.999 39.6689 -49.999 49.002c-17.333 11.333 -35 17 -53 17h-984c-40 0 -79 -12 -117 -36c-19.333 -12 -36.833 -25.833 -52.5 -41.5s-30.834 -33.834 -45.501 -54.501c-33.333 -46.667 -59 -100.334 -77 -161.001
c-8.66699 -28.667 -15.167 -59.5 -19.5 -92.5s-6.5 -66.833 -6.5 -101.5v-227c0 -78.667 19 -143 57 -193c15.333 -22 31.5 -38.5 48.5 -49.5s34.5 -16.5 52.5 -16.5h1144c18.667 0 37 6 55 18s34 28 48 48c36.667 52.667 55 117 55 193v454
c0 37.333 -5.33301 73.5 -16 108.5s-23.667 63.5 -39 85.5z" />
    <glyph glyph-name="zahfinal" unicode="&#x638;" horiz-adv-x="2106" arabic-form="final" 
d="M972 1456h163v162h-163v-162zM1625 2l-1144 -0.00292969c-43.333 0 -84.333 10.333 -123 31s-72.667 50.334 -102 89.001l-29 -31c-27.333 -27.333 -61.333 -49.333 -102 -66s-82.667 -25 -126 -25h4h-4v162h5h-5c20.667 0 41.167 4 61.5 12s38.5 19.333 54.5 34
c31.333 28 47 62.667 47 104v111v227v973h161v-485c43.333 50 92.333 89.333 147 118s111.667 43 171 43h984c46.667 0 89.5 -11.333 128.5 -34s75.333 -58 109 -106s58.5 -109.667 74.5 -185l8 -97v-454v-111c0 -14 0.5 -24.333 1.5 -31s4.16699 -15.667 9.5 -27
c8 -17.333 19.667 -32.666 35 -45.999c30.667 -30.667 69.667 -46 117.001 -46h-5h5v-162h-4h4c-12 0 -23.333 0.333008 -34 1s-23 2.33398 -37 5.00098s-31.833 8.33398 -53.5 17.001s-40 18 -55 28s-31.167 23.333 -48.5 40l-15 14l-15 17
c-28 -34.667 -62 -64.334 -102 -89.001c-40 -20.667 -81 -31 -123 -31zM1679 1120c-16.667 11.333 -34.6631 17.0049 -53.9961 17.0049h-984c-40 0 -78.333 -11.5 -115 -34.5s-70.334 -55.833 -101.001 -98.5s-55.334 -95.334 -74.001 -158.001s-28 -128 -28 -196v-227
c0 -36.667 5 -72 15 -106c5.33301 -17.333 11.166 -32.833 17.499 -46.5s14.166 -27.167 23.499 -40.5c12.667 -18.667 28.667 -35.334 48 -50.001c19.333 -10.667 37.333 -16 54 -16h1144c18 0 35.667 5.66699 53 17s34 27.666 50 48.999c36.667 52.667 55 117 55 193v454
c0 35.333 -4.83301 70.666 -14.5 105.999s-23.167 64.666 -40.5 87.999c-14 22 -30.333 38.333 -49 49z" />
    <glyph glyph-name="zahinitial" unicode="&#x638;" horiz-adv-x="2114" arabic-form="initial" 
d="M974 1618h162v-162h-162v162zM326 1618l-0.000976562 -484.999c41.333 50.667 89.5 90.167 144.5 118.5s112.167 42.5 171.5 42.5h985c46.667 0 90 -12 130 -36s75 -57 105 -99c15.333 -21.333 27.666 -41.833 36.999 -61.5s17.833 -42.5 25.5 -68.5
s13.167 -51.167 16.5 -75.5s5 -51.5 5 -81.5v-454c0 -52 -7.83301 -104 -23.5 -156s-35.834 -95.333 -60.501 -130c-29.333 -42.667 -64.166 -75.834 -104.499 -99.501s-83.833 -35.5 -130.5 -35.5h-1144c-42 0 -83.333 10.667 -124 32c-39.333 22.667 -73 52 -101 88
l-29 -31c-31.333 -29.333 -65.666 -51.833 -102.999 -67.5s-79 -23.5 -125 -23.5h4h-4v162h5h-5c46.667 0 85.334 15.333 116.001 46c16 14 27.667 29.667 35 47s11 36.333 11 57v111v227v973h163zM1729 1066c-16.667 23.333 -33.3389 40.1689 -50.0059 50.502
s-34 15.5 -52 15.5h-985c-39.333 0 -77.666 -11.833 -114.999 -35.5s-70.666 -55.834 -99.999 -96.501c-33.333 -50.667 -58.333 -104.334 -75 -161.001c-6.66699 -21.333 -11.167 -38.666 -13.5 -51.999s-4.5 -27.666 -6.5 -42.999c-4 -32 -6 -65 -6 -99v-227
c0 -36.667 5 -72 15 -106s23 -62.667 39 -86c18.667 -24.667 35.834 -42 51.501 -52s32.834 -15 51.501 -15h1144c18 0 36 6 54 18s34 28 48 48c10.667 13.333 18.834 26.5 24.501 39.5s11.167 28.833 16.5 47.5c10 35.333 15 70.666 15 105.999v454
c0 22 -1.33301 41.167 -4 57.5s-6.66699 33.5 -12 51.5c-11.333 35.333 -24.666 63.666 -39.999 84.999z" />
    <glyph glyph-name="zahmedial" unicode="&#x638;" horiz-adv-x="2423" arabic-form="medial" 
d="M1293 1455h162v162h-162v-162zM1946 2h-1950v164h486v257v227v973h162v-485c43.333 50 92.333 89.333 147 118s111.667 43 171 43h984c46.667 0 89.5 -11.333 128.5 -34s75.333 -58 109 -106s58.5 -109.667 74.5 -185l8 -97v-454v-111c0 -14 0.5 -24.333 1.5 -31
s4.16699 -15.667 9.5 -27c8 -17.333 19.667 -32.666 35 -45.999c30.667 -30.667 69.334 -46 116 -46h-5h5v-162c-46 0 -87.333 7.66699 -124 23c-21.333 8.66699 -39.5 18 -54.5 28s-31.167 23.333 -48.5 40l-15 12l-15 19c-28 -34.667 -62 -64.334 -102 -89.001
c-40 -20.667 -81 -31 -123 -31zM2000 1120c-16.667 11.333 -34.665 17.0029 -53.998 17.0029h-984c-40 0 -78.333 -11.5 -115 -34.5s-70.334 -55.833 -101.001 -98.5s-55.334 -95.334 -74.001 -158.001s-28 -128 -28 -196v-227c0 -35.333 5.16699 -70.666 15.5 -105.999
s23.833 -64.333 40.5 -87c13.333 -20 29 -36.333 47 -49c18.667 -11.333 37 -17 55 -17h1144c18 0 35.667 5.66699 53 17s34 27.666 50 48.999c36.667 52.667 55 117 55 193v454c0 35.333 -4.83301 70.666 -14.5 105.999s-23.167 64.666 -40.5 87.999
c-14 22 -30.333 38.333 -49 49z" />
    <glyph glyph-name="ainisolated" unicode="&#x639;" horiz-adv-x="1652" arabic-form="isolated" 
d="M1256 1095c-15.333 14.667 -33.1699 25.999 -53.5029 33.999s-41.166 12 -62.499 12h-490c-44.667 0 -83 -15 -115 -45s-48 -65.333 -48 -106v-678c0 -40.667 15.667 -75.667 47 -105c16 -14.667 34.167 -26 54.5 -34s40.833 -12 61.5 -12h410h407v-163h-407h-410h-175
c-41.333 0 -76.666 -15.333 -105.999 -46c-14.667 -15.333 -26 -33.666 -34 -54.999s-12 -42 -12 -62v-5v5v5v-5v-163h-163v163v4v-4v-4v4c0 20.667 2.33301 42.167 7 64.5s10.667 42.833 18 61.5c16.667 40 38.667 74.667 66 104c10 10 19.5 18.667 28.5 26
s18.5 14 28.5 20c21.333 14 43.666 25 66.999 33c-34.667 51.333 -52 107.333 -52 168v678c0 42 9.33301 83 28 123s43.167 74.167 73.5 102.5s64.833 50.166 103.5 65.499s79.334 23 122.001 23h490c40.667 0 82.334 -8.5 125.001 -25.5s77.667 -39.5 105 -67.5
c31.333 -28 55 -61.333 71 -100c17.333 -35.333 26 -75.666 26 -120.999v-259h-164v259c0 40.667 -15.667 75.667 -47 105zM1145 1141h-5h5z" />
    <glyph glyph-name="ainfinal" unicode="&#x639;" horiz-adv-x="1648" arabic-form="final" 
d="M1278 1095c-15.333 14.667 -33.167 26.001 -53.5 34.001s-41.5 12 -63.5 12h-490c-20.667 0 -41.5 -4 -62.5 -12s-39 -19.167 -54 -33.5s-26.5 -30.5 -34.5 -48.5s-12 -37 -12 -57v-678c0 -40.667 15.333 -75.667 46 -105c18 -14.667 35.667 -26 53 -34
c22 -8 43.333 -12 64 -12h410h570v-163h-570h-410h-175c-40.667 0 -75.667 -15.333 -105 -46c-14.667 -15.333 -26 -33.5 -34 -54.5s-12 -41.833 -12 -62.5v-5v5v5v-5v-163h-163v163v4v-4v-4v4c0 44 8.16699 86.333 24.5 127s38.5 75 66.5 103
c35.333 36.667 76.333 63 123 79c-6 8.66699 -9.83301 14.5 -11.5 17.5l-11.5 21.5l-15 42c-8.66699 26 -13 55 -13 87v678c0 42 9.16699 83.167 27.5 123.5s41.5 73.5 69.5 99.5c32 30 67 52.667 105 68s79.333 23 124 23h490h4h-4c40.667 0 82 -8.83301 124 -26.5
s77.833 -40.5 107.5 -68.5s52.5 -60.667 68.5 -98c6.66699 -12.667 11 -22.334 13 -29.001s4.66699 -18.5 8 -35.5s5 -35.833 5 -56.5v-259h-163v259c0 41.333 -15.333 76.333 -46 105zM1166 1141h-5h5z" />
    <glyph glyph-name="aininitial" unicode="&#x639;" horiz-adv-x="1464" arabic-form="initial" 
d="M323 896l-0.000976562 -585.998c0 -39.333 15.667 -73.666 47 -102.999c16 -14.667 34.167 -26 54.5 -34s40.833 -12 61.5 -12h816v-163h-816c-43.333 0 -85.166 8.33301 -125.499 25s-74.5 38.667 -102.5 66l-15 15l-17 -16c-32 -30 -66.667 -52.833 -104 -68.5
s-79 -23.5 -125 -23.5h4h-4v164h5h-5c45.333 0 84.333 15.333 117 46c15.333 13.333 26.833 29.666 34.5 48.999s11.5 38.333 11.5 57v584v94c0 41.333 9.16699 82.166 27.5 122.499s42.166 74.166 71.499 101.499c32 30 66.667 52.5 104 67.5s78.333 22.5 123 22.5h490h4
h-4c40.667 0 82 -8.83301 124 -26.5s77.833 -40.5 107.5 -68.5s52.5 -60.667 68.5 -98c6.66699 -12.667 11 -22.334 13 -29.001s4.66699 -18.5 8 -35.5s5 -35.833 5 -56.5v-259h-163v259c0 41.333 -15.333 76.333 -46 105c-15.333 14.667 -33.166 26 -53.499 34
s-41.5 12 -63.5 12h-490c-9.33301 0 -20 -1.33301 -32 -4s-22.333 -5.66699 -31 -9c-22 -8 -40.167 -19.167 -54.5 -33.5s-25.5 -31.166 -33.5 -50.499s-12 -37.333 -12 -54v-94zM980.999 1141h-5h5z" />
    <glyph glyph-name="ainmedial" unicode="&#x639;" horiz-adv-x="1458" arabic-form="medial" 
d="M319 990l-0.00292969 -94v-586c0 -39.333 15.667 -73.666 47 -102.999c16.667 -14 34.334 -25.333 53.001 -34c22 -8 43.333 -12 64 -12h979v-163h-979c-44 0 -86.167 8.16699 -126.5 24.5s-74.5 38.5 -102.5 66.5l-15 15l-17 -16c-32 -30 -66.667 -52.833 -104 -68.5
s-79 -23.5 -125 -23.5h4h-4v164h5h-5c45.333 0 84.333 15.333 117 46c15.333 13.333 26.833 29.666 34.5 48.999s11.5 38.333 11.5 57v584v94c0 42 9.33301 83 28 123s43 74 73 102c30.667 28.667 65.334 50.667 104.001 66s79.334 23 122.001 23h489h4h-4
c40.667 0 82 -9 124 -27c42 -17.333 78 -39.666 108 -66.999s53 -60.333 69 -99c6.66699 -12.667 11 -22.334 13 -29.001s4.66699 -18.5 8 -35.5s5 -35.833 5 -56.5v-259h-164v259c0 41.333 -15.333 76.333 -46 105c-16.667 16.667 -34.334 28 -53.001 34
c-21.333 8 -42.666 12 -63.999 12h-489c-21.333 0 -42.333 -4 -63 -12c-32 -14 -56.833 -33.667 -74.5 -59s-26.5 -52 -26.5 -80zM976.997 1141h-5h5z" />
    <glyph glyph-name="ghainisolated" unicode="&#x63a;" horiz-adv-x="1652" arabic-form="isolated" 
d="M1256 1095c31.333 -29.333 47.0039 -64.332 47.0039 -104.999v-259h164v259c0 45.333 -8.66699 85.666 -26 120.999c-16 38.667 -39.667 72 -71 100c-27.333 28 -62.333 50.5 -105 67.5s-84.334 25.5 -125.001 25.5h-490c-42.667 0 -83.334 -7.66699 -122.001 -23
s-73.167 -37.166 -103.5 -65.499s-54.833 -62.5 -73.5 -102.5s-28 -81 -28 -123v-678c0 -60.667 17.333 -116.667 52 -168c-23.333 -8 -45.666 -19 -66.999 -33c-10 -6 -19.5 -12.667 -28.5 -20s-18.5 -16 -28.5 -26c-27.333 -29.333 -49.333 -64 -66 -104
c-7.33301 -18.667 -13.333 -39.167 -18 -61.5s-7 -43.833 -7 -64.5v-4v4v4v-4v-163h163v163v5v-5v-5v5c0 20 4 40.667 12 62s19.333 39.666 34 54.999c29.333 30.667 64.666 46 105.999 46h175h410h407v163h-407h-410c-20.667 0 -41.167 4 -61.5 12s-38.5 19.333 -54.5 34
c-31.333 29.333 -47 64.333 -47 105v678c0 40.667 16 76 48 106s70.333 45 115 45h490c21.333 0 42.166 -4 62.499 -12s38.166 -19.333 53.499 -34zM814.004 1618h163v-163h-163v163zM1145 1141h-5h5z" />
    <glyph glyph-name="ghainfinal" unicode="&#x63a;" horiz-adv-x="1645" arabic-form="final" 
d="M1278 1095c30.667 -28.667 46.001 -63.668 46.001 -105.001v-259h163v259c0 20.667 -1.66699 39.5 -5 56.5s-6 28.833 -8 35.5s-6.33301 16.334 -13 29.001c-16 37.333 -38.833 70 -68.5 98s-65.5 50.833 -107.5 68.5s-83.333 26.5 -124 26.5h4h-4h-490
c-44.667 0 -86 -7.66699 -124 -23s-73 -38 -105 -68c-28 -26 -51.167 -59.167 -69.5 -99.5s-27.5 -81.5 -27.5 -123.5v-678c0 -32 4.33301 -61 13 -87l15 -42l11.5 -21.5c1.66699 -3 5.5 -8.83301 11.5 -17.5c-46.667 -16 -87.667 -42.333 -123 -79
c-28 -28 -50.167 -62.333 -66.5 -103s-24.5 -83 -24.5 -127v-4v4v4v-4v-163h163v163v5v-5v-5v5c0 20.667 4 41.5 12 62.5s19.333 39.167 34 54.5c29.333 30.667 64.333 46 105 46h175h410h570v163h-570h-410c-20.667 0 -42 4 -64 12c-17.333 8 -35 19.333 -53 34
c-30.667 29.333 -46 64.333 -46 105v678c0 20 4 39 12 57s19.5 34.167 34.5 48.5s33 25.5 54 33.5s41.833 12 62.5 12h490c22 0 43.167 -4 63.5 -12s38.166 -19.333 53.499 -34zM835.001 1618h163v-163h-163v163zM1166 1141h-5h5z" />
    <glyph glyph-name="ghaininitial" unicode="&#x63a;" horiz-adv-x="1466" arabic-form="initial" 
d="M652 1618h163v-163h-163v163zM325 990c0 16.667 4.00098 34.665 12.001 53.998s19.167 36.166 33.5 50.499s32.5 25.5 54.5 33.5c8.66699 3.33301 19 6.33301 31 9s22.667 4 32 4h490c22 0 43.167 -4 63.5 -12s38.166 -19.333 53.499 -34
c30.667 -28.667 46 -63.667 46 -105v-259h163v259c0 20.667 -1.66699 39.5 -5 56.5s-6 28.833 -8 35.5s-6.33301 16.334 -13 29.001c-16 37.333 -38.833 70 -68.5 98s-65.5 50.833 -107.5 68.5s-83.333 26.5 -124 26.5h4h-4h-490c-44.667 0 -85.667 -7.5 -123 -22.5
s-72 -37.5 -104 -67.5c-29.333 -27.333 -53.166 -61.166 -71.499 -101.499s-27.5 -81.166 -27.5 -122.499v-94v-584c0 -18.667 -3.83301 -37.667 -11.5 -57s-19.167 -35.666 -34.5 -48.999c-32.667 -30.667 -71.667 -46 -117 -46h5h-5v-164h4h-4
c46 0 87.667 7.83301 125 23.5s72 38.5 104 68.5l17 16l15 -15c28 -27.333 62.167 -49.333 102.5 -66s82.166 -25 125.499 -25h816v163h-816c-20.667 0 -41.167 4 -61.5 12s-38.5 19.333 -54.5 34c-31.333 29.333 -47 63.666 -47 102.999v586v94zM983.001 1141h-5h5z" />
    <glyph glyph-name="ghainmedial" unicode="&#x63a;" horiz-adv-x="1467" arabic-form="medial" 
d="M665 1616h163v-163h-163v163zM338 990c0 16.667 4.00098 34.665 12.001 53.998s19.5 36 34.5 50s33.167 25.667 54.5 35c21.333 8 42.333 12 63 12h489c21.333 0 42.666 -4 63.999 -12c18.667 -6 36.334 -17.333 53.001 -34c30.667 -28.667 46 -63.667 46 -105v-259h164
v259c0 20.667 -1.66699 39.5 -5 56.5s-6 28.833 -8 35.5s-6.33301 16.334 -13 29.001c-16 38.667 -39 71.667 -69 99s-66 49.833 -108 67.5s-83.333 26.5 -124 26.5h4h-4h-489c-42.667 0 -83.334 -7.66699 -122.001 -23s-73.167 -37.166 -103.5 -65.499
s-54.833 -62.5 -73.5 -102.5s-28 -81 -28 -123v-94v-584c0 -18.667 -3.83301 -37.667 -11.5 -57s-19.167 -35.666 -34.5 -48.999c-32.667 -30.667 -81.667 -46 -147 -46h5h-5v-164h4h-4c66 0 117.667 7.83301 155 23.5s72 38.5 104 68.5l17 16l15 -15
c28 -27.333 62.167 -49.333 102.5 -66s82.5 -25 126.5 -25h979v163h-979c-20.667 0 -42 4 -64 12c-17.333 8 -35 19.333 -53 34c-31.333 29.333 -47 63.666 -47 102.999v586v94zM996.001 1141h-5h5z" />
    <glyph glyph-name="fehisolated" unicode="&#x641;" horiz-adv-x="3006" arabic-form="isolated" 
d="M738 1133h-164.002c-47.333 0 -86 -15.333 -116 -46c-32 -26.667 -48 -62 -48 -106v-676c0 -19.333 4.5 -38.5 13.5 -57.5s20.5 -34.5 34.5 -46.5c31.333 -30 70 -43 116 -39l815 1l1119 -1c47.333 0 86 15 116 45c31.333 31.333 47 66.666 47 105.999v150
c-25.333 -15.333 -51.333 -26.333 -78 -33s-55 -10 -85 -10h-654c-44.667 0 -86.834 8.16699 -126.501 24.5s-74.167 38.833 -103.5 67.5s-52.833 62.167 -70.5 100.5s-26.5 79.166 -26.5 122.499v256c0 44 8.5 85 25.5 123s40.5 71.333 70.5 100
s64.833 51.334 104.5 68.001s81.834 25 126.501 25h654c43.333 0 84.833 -8.33301 124.5 -25s74.5 -39.334 104.5 -68.001s53.833 -62 71.5 -100s26.5 -79 26.5 -123v-678c0 -43.333 -8.83301 -84.166 -26.5 -122.499s-41.167 -71.833 -70.5 -100.5
s-63.833 -51.167 -103.5 -67.5s-81.834 -24.5 -126.5 -24.5l-1051 1l-883 -1c-43.333 -3.33301 -85.166 3.33398 -125.499 20.001s-74.833 38.667 -103.5 66c-32.667 30 -56.834 63.833 -72.501 101.5s-23.5 77.5 -23.5 119.5v676c0 88.667 32 163 96 223
c32.667 30 67.834 52.833 105.501 68.5s78.834 23.5 123.501 23.5h164v-163zM1854 1143c-47.333 0 -86.667 -14.998 -118 -44.998c-30.667 -28.667 -46 -64.334 -46 -107.001v-256c0 -20 3.83301 -39.333 11.5 -58s19.167 -34.667 34.5 -48c34 -30 73.333 -45 118 -45h654
c47.333 0 86 15 116 45c31.333 31.333 47 66.666 47 105.999v256c0 41.333 -15.667 77 -47 107s-70 45 -116 45h-654v0zM2104 1621h164v-164h-164v164z" />
    <glyph glyph-name="fehfinal" unicode="&#x641;" horiz-adv-x="3000" arabic-form="final" 
d="M2501 463c-25.333 -15.333 -51.335 -26.332 -78.002 -32.999s-55 -10 -85 -10h-654c-44.667 0 -86.834 8.16699 -126.501 24.5s-74.167 38.833 -103.5 67.5s-52.833 62.167 -70.5 100.5s-26.5 79.166 -26.5 122.499v256c0 44 8.5 85 25.5 123s40.5 71.333 70.5 100
s64.833 51.334 104.5 68.001s81.834 25 126.501 25h654c43.333 0 84.833 -8.33301 124.5 -25s74.5 -39.334 104.5 -68.001s53.833 -62 71.5 -100s26.5 -79 26.5 -123v-690c2.66699 -40.667 17.667 -72 45 -94c30 -30 67.667 -45 113 -45h196v-164h-192
c-44.667 0 -85.834 7.5 -123.5 22.5c-37.667 15 -72.834 37.5 -105.5 67.5c-4 2.66699 -9 8 -15 16l-8 -8c-31.333 -31.333 -67.166 -55.5 -107.5 -72.5c-40.333 -17 -83.5 -25.5 -129.5 -25.5l-1051 2h-883c-43.333 -5.33301 -85.166 0.5 -125.499 17.5
s-74.833 39.167 -103.5 66.5c-32.667 30 -56.834 63.833 -72.501 101.5s-23.5 77.5 -23.5 119.5v676c0 88.667 32 163 96 223c32.667 30 67.834 52.833 105.501 68.5s78.834 23.5 123.501 23.5h164v-163h-164c-47.333 0 -86 -15.333 -116 -46c-32 -26.667 -48 -62 -48 -106
v-676c0 -19.333 4.5 -38.5 13.5 -57.5s20.5 -34.5 34.5 -46.5c30 -30 68.667 -43 116 -39h815h1119c47.333 0 86 15 116 45v2c4 4 8.16699 7.66699 12.5 11s7.83301 7.66602 10.5 12.999c13.333 20.667 21.333 43.334 24 68.001v162v0zM1684 1143
c-48.667 0 -88 -14.998 -118 -44.998c-30.667 -28.667 -46 -64.334 -46 -107.001v-256c0 -20 3.83301 -39.333 11.5 -58s19.167 -34.667 34.5 -48c34 -30 73.333 -45 118 -45h654c47.333 0 86 15 116 45c31.333 31.333 47 66.666 47 105.999v256
c0 41.333 -15.667 77 -47 107s-70 45 -116 45h-654v0zM1934 1620h164v-164h-164v164z" />
    <glyph glyph-name="fehinitial" unicode="&#x641;" horiz-adv-x="1588" arabic-form="initial" 
d="M-21 162l1159 0.000976562c47.333 0 86 15 116 45c31.333 31.333 47 66.666 47 105.999v150c-25.333 -15.333 -51.333 -26.333 -78 -33s-55 -10 -85 -10h-654c-44.667 0 -86.834 8.16699 -126.501 24.5s-74.167 38.833 -103.5 67.5s-52.833 62.167 -70.5 100.5
s-26.5 79.166 -26.5 122.499v256c0 44 8.5 85 25.5 123s40.5 71.333 70.5 100s64.833 51.334 104.5 68.001s81.834 25 126.501 25h654c43.333 0 84.833 -8.33301 124.5 -25s74.5 -39.334 104.5 -68.001s53.833 -62 71.5 -100s26.5 -79 26.5 -123v-678
c0 -43.333 -8.83301 -84.166 -26.5 -122.499s-41.167 -71.833 -70.5 -100.5s-63.833 -51.167 -103.5 -67.5s-81.834 -24.5 -126.501 -24.5l-1161 1zM484.001 1143c-47.333 0 -86.667 -14.998 -118 -44.998c-30.667 -28.667 -46 -64.334 -46 -107.001v-256
c0 -20 3.83301 -39.333 11.5 -58s19.167 -34.667 34.5 -48c34 -30 73.333 -45 118 -45h654c47.333 0 86 15 116 45c31.333 31.333 47 66.666 47 105.999v256c0 41.333 -15.667 77 -47 107s-70 45 -116 45h-654v0zM734 1618h164v-164h-164v164z" />
    <glyph glyph-name="fehmedial" unicode="&#x641;" horiz-adv-x="1675" arabic-form="medial" 
d="M1371 463c-25.333 -15.333 -51.332 -26.332 -77.999 -32.999s-55 -10 -85 -10h-654c-44.667 0 -86.834 8.16699 -126.501 24.5s-74.167 38.833 -103.5 67.5s-52.833 62.167 -70.5 100.5s-26.5 79.166 -26.5 122.499v256c0 44 8.5 85 25.5 123s40.5 71.333 70.5 100
s64.833 51.334 104.5 68.001s81.834 25 126.501 25h654c43.333 0 84.833 -8.33301 124.5 -25s74.5 -39.334 104.5 -68.001s53.833 -62 71.5 -100s26.5 -79 26.5 -123v-678v-12c2.66699 -40.667 17.667 -72 45 -94c30 -30 67.667 -45 113 -45h4v-164
c-44.667 0 -85.834 7.5 -123.501 22.5s-72.834 37.5 -105.501 67.5c-4 2.66699 -9 8 -15 16l-8 -8c-31.333 -31.333 -67.166 -55.5 -107.499 -72.5s-83.5 -25.5 -129.5 -25.5l-1227 1l-2 164l1229 -1c47.333 0 86 15 116 45v2c4 4 8.16699 7.66699 12.5 11
s7.83301 7.66602 10.5 12.999c13.333 20.667 21.333 43.334 24 68.001v12v150zM554.001 1143c-48.667 0 -88 -14.998 -118 -44.998c-30.667 -28.667 -46 -64.334 -46 -107.001v-256c0 -20 3.83301 -39.333 11.5 -58s19.167 -34.667 34.5 -48c34 -30 73.333 -45 118 -45h654
c47.333 0 86 15 116 45c31.333 31.333 47 66.666 47 105.999v256c0 41.333 -15.667 77 -47 107s-70 45 -116 45h-654v0zM804.001 1619h164v-164h-164v164z" />
    <glyph glyph-name="qafisolated" unicode="&#x642;" horiz-adv-x="2483" arabic-form="isolated" 
d="M635 1130l-164.003 0.000976562c-48 0 -87.667 -15 -119 -45c-13.333 -13.333 -24.166 -29.166 -32.499 -47.499s-12.5 -37.166 -12.5 -56.499v-997c0 -19.333 4.5 -38.5 13.5 -57.5s19.5 -34.833 31.5 -47.5c34 -30 73.667 -45 119 -45h1536
c44 2.66699 81 17.667 111 45c17.333 15.333 28.666 31.666 33.999 48.999c4.66699 11.333 7.66699 20.666 9 27.999s2 16.666 2 27.999v55c-6 -2.66699 -12.333 -5.66699 -19 -9l-20 -10c-8.66699 -4 -15.667 -6.66699 -21 -8s-11.333 -3.33301 -18 -6
c-23.333 -5.33301 -50.666 -8 -81.999 -8h-649c-36 0 -63.833 3 -83.5 9s-33.5 10.333 -41.5 13c-41.333 18 -76.333 40.667 -105 68c-31.333 28.667 -55.166 62.167 -71.499 100.5s-24.5 78.5 -24.5 120.5v672c0 40.667 8.83301 81.167 26.5 121.5
s40.834 74.166 69.501 101.499c33.333 28.667 69 51.334 107 68.001c20.667 8 40.5 13.667 59.5 17s40.167 5 63.5 5h649c32.667 0 64 -4.66699 94 -14s58.333 -22.666 85 -39.999s49.834 -37.833 69.5 -61.5c19.667 -23.667 35.834 -49.167 48.5 -76.5
c18 -34 27 -74.333 27 -121v-997c0 -44 -9.33301 -84.833 -28 -122.5s-42.667 -70.5 -72 -98.5s-63.5 -50.167 -102.5 -66.5s-78.833 -24.5 -119.5 -24.5h-2v-2h-1532c-43.333 0 -85.166 8.16699 -125.499 24.5s-74.833 38.166 -103.5 65.499
c-64.667 63.333 -97 138 -97 224v997c0 87.333 32.333 161 97 221c32.667 30 67.667 52.833 105 68.5s78.666 23.5 123.999 23.5h164v-164zM1288 1120c-22 -10.667 -39 -22.332 -51 -34.999c-30 -30 -45 -64.667 -45 -104v-672c0 -17.333 3.33301 -36.333 10 -57
c5.33301 -9.33301 10.833 -17.833 16.5 -25.5s11.834 -14.834 18.501 -21.501c31.333 -30 70.333 -45 117 -45h649c22 0 43.167 4 63.5 12s37.5 19 51.5 33c30 30 45 64.667 45 104v672c0 20.667 -3.83301 40.167 -11.5 58.5s-18.834 33.5 -33.501 45.5
c-34.667 32 -73 48 -115 48h-649c-23.333 0 -45.333 -4.33301 -66 -13zM1823 1621h163v-164h-163v164zM1496 1621h163v-164h-163v164z" />
    <glyph glyph-name="qaffinal" unicode="&#x642;" horiz-adv-x="2486" arabic-form="final" 
d="M633 1130h-164.004c-49.333 0 -89 -15 -119 -45c-13.333 -13.333 -24.166 -29.166 -32.499 -47.499s-12.5 -37.166 -12.5 -56.499v-997c0 -19.333 4.5 -38.5 13.5 -57.5s19.5 -34.833 31.5 -47.5c34 -30 73.667 -45 119 -45h1536c40.667 1.33301 77.667 16.333 111 45
c16 12.667 27.333 29 34 49c4.66699 11.333 7.66699 20.666 9 27.999s2 16.666 2 27.999v55c-6 -2.66699 -12.333 -5.66699 -19 -9l-20 -10c-8.66699 -4 -15.667 -6.66699 -21 -8s-11.333 -3.33301 -18 -6c-20.667 -5.33301 -48 -8 -82 -8h-649c-36 0 -63.833 3 -83.5 9
s-33.5 10.333 -41.5 13c-41.333 18 -76.333 40.667 -105 68c-31.333 28.667 -55.166 62.167 -71.499 100.5s-24.5 78.5 -24.5 120.5v672c0 40.667 8.83301 81.167 26.5 121.5s40.834 74.166 69.501 101.499c32.667 28.667 68.334 51.334 107.001 68.001
c20.667 8 40.5 13.667 59.5 17s40.167 5 63.5 5h649c65.333 0 125 -18 179 -54s93.333 -82 118 -138c17.333 -34 26 -74.333 26 -121v-668h3c0 -44.667 15 -80 45 -106c31.333 -30 76.666 -45 136 -45v-164c-72 0 -133.333 13.667 -184 41v-55
c0 -44 -9.16699 -84.833 -27.5 -122.5s-42.166 -70.5 -71.499 -98.5s-63.5 -50.167 -102.5 -66.5s-78.833 -24.5 -119.5 -24.5h-2v-2h-1532c-44 0 -86 8.16699 -126 24.5s-74.333 38.166 -103 65.499c-64.667 64.667 -97 139.334 -97 224.001v997
c0 87.333 32.333 161 97 221c32.667 30 67.667 52.833 105 68.5s78.666 23.5 123.999 23.5h164v-164zM1286 1120c-20.667 -9.33301 -37.667 -21 -51 -35c-30 -30 -45 -64.667 -45 -104v-672c0 -14.667 3.33301 -33.667 10 -57c9.33301 -19.333 21 -35 35 -47
c30 -30 69 -45 117 -45h649c22 0 43.167 4 63.5 12s37.5 19 51.5 33v4c13.333 12 24.666 28.333 34 49c7.33301 18 11 35 11 51v672c0 20.667 -3.83301 40.167 -11.5 58.5s-18.834 33.5 -33.5 45.5c-36 32 -74.333 48 -115 48h-649c-23.333 0 -45.333 -4.33301 -66 -13z
M1821 1618h164v-164h-164v164zM1493 1618h164v-164h-164v164z" />
    <glyph glyph-name="qafinitial" unicode="&#x642;" horiz-adv-x="1581" arabic-form="initial" 
d="M-29 163l1149 -0.999023c47.333 0 86 15 116 45c31.333 31.333 47 66.666 47 105.999v150c-25.333 -15.333 -51.333 -26.333 -78 -33s-55 -10 -85 -10h-654c-44.667 0 -86.834 8.16699 -126.501 24.5s-74.167 38.833 -103.5 67.5s-52.833 62.167 -70.5 100.5
s-26.5 79.166 -26.5 122.499v256c0 44 8.5 85 25.5 123s40.5 71.333 70.5 100s64.833 51.334 104.5 68.001s81.834 25 126.501 25h654c43.333 0 84.833 -8.33301 124.5 -25s74.5 -39.334 104.5 -68.001s53.833 -62 71.5 -100s26.5 -79 26.5 -123v-678
c0 -43.333 -8.83301 -84.166 -26.5 -122.499s-41.167 -71.833 -70.5 -100.5s-63.833 -51.167 -103.5 -67.5s-81.834 -24.5 -126.501 -24.5l-1151 1zM466.001 1143c-47.333 0 -86.667 -14.998 -118 -44.998c-30.667 -28.667 -46 -64.334 -46 -107.001v-256
c0 -20 3.83301 -39.333 11.5 -58s19.167 -34.667 34.5 -48c34 -30 73.333 -45 118 -45h654c47.333 0 86 15 116 45c31.333 31.333 47 66.666 47 105.999v256c0 41.333 -15.667 77 -47 107s-70 45 -116 45h-654v0zM925 1616h164v-164h-164v164zM597 1616h164v-164h-164v164z
" />
    <glyph glyph-name="qafmedial" unicode="&#x642;" horiz-adv-x="1685" arabic-form="medial" 
d="M1371 463c-25.333 -15.333 -51.332 -26.332 -77.999 -32.999s-55 -10 -85 -10h-654c-44.667 0 -86.834 8.16699 -126.501 24.5s-74.167 38.833 -103.5 67.5s-52.833 62.167 -70.5 100.5s-26.5 79.166 -26.5 122.499v256c0 44 8.5 85 25.5 123s40.5 71.333 70.5 100
s64.833 51.334 104.5 68.001s81.834 25 126.501 25h654c43.333 0 84.833 -8.33301 124.5 -25s74.5 -39.334 104.5 -68.001s53.833 -62 71.5 -100s26.5 -79 26.5 -123v-678v-12c2.66699 -40.667 17.667 -72 45 -94c30 -30 67.667 -45 113 -45h4v-164
c-44.667 0 -85.834 7.5 -123.501 22.5s-72.834 37.5 -105.501 67.5c-4 2.66699 -9 8 -15 16l-8 -8c-31.333 -31.333 -67.166 -55.5 -107.499 -72.5s-83.5 -25.5 -129.5 -25.5l-1227 1l-2 164l1229 -1c47.333 0 86 15 116 45v2c4 4 8.16699 7.66699 12.5 11
s7.83301 7.66602 10.5 12.999c13.333 20.667 21.333 43.334 24 68.001v12v150zM554.001 1143c-48.667 0 -88 -14.998 -118 -44.998c-30.667 -28.667 -46 -64.334 -46 -107.001v-256c0 -20 3.83301 -39.333 11.5 -58s19.167 -34.667 34.5 -48c34 -30 73.333 -45 118 -45h654
c47.333 0 86 15 116 45c31.333 31.333 47 66.666 47 105.999v256c0 41.333 -15.667 77 -47 107s-70 45 -116 45h-654v0zM953.001 1618h164v-164h-164v164zM625.001 1618h164v-164h-164v164z" />
    <glyph glyph-name="kafisolated" unicode="&#x643;" horiz-adv-x="1960" arabic-form="isolated" 
d="M647 805h-162.999c-45.333 0 -84.333 -15.333 -117 -46c-14.667 -14 -26 -30.5 -34 -49.5s-12 -37.167 -12 -54.5v-339c0 -20 4 -39 12 -57c12.667 -22 24.334 -38.333 35.001 -49c17.333 -14 34.666 -25 51.999 -33c22 -8 43.333 -12 64 -12h979c14 0 27 1.66699 39 5
s20.667 6 26 8c20.667 8.66699 38.334 19.667 53.001 33c31.333 29.333 47 64.333 47 105v1320h163v-1320c0 -42 -9.33301 -82.667 -28 -122s-43 -73.333 -73 -102s-64 -51 -102 -67c-22 -9.33301 -42.333 -15.333 -61 -18c-16 -3.33301 -37.333 -5 -64 -5h-979
c-44.667 0 -86.834 8.33301 -126.501 25s-73.834 38.667 -102.501 66c-32.667 32.667 -56.667 66.334 -72 101.001c-6.66699 13.333 -11 23.166 -13 29.499s-4.66699 18 -8 35s-5 36.167 -5 57.5v339c0 40.667 9 81 27 121s41.5 74 70.5 102s64 50.167 105 66.5
s82.5 24.5 124.5 24.5h163v-164zM1077 1468c0 -12.667 3.66699 -21 11 -25c7.33301 -7.33301 17.333 -11 30 -11h122v-124h-368v123h81v102v24c0 22 8.33301 40.667 25 56s36 23 58 23h122c21.333 0 40.333 -7.66699 57 -23c9.33301 -10.667 15.833 -20 19.5 -28
s5.5 -17.333 5.5 -28v-65l-41 1l-13 12c-4.66699 5.33301 -14 8 -28 8h-40c-12 0 -22 -4 -30 -12c-7.33301 -5.33301 -11 -14.333 -11 -27v-6z" />
    <glyph glyph-name="arabickaffinal" unicode="&#x643;" horiz-adv-x="1941" arabic-form="final" 
d="M649 805l-163.001 0.00390625c-47.333 0 -86.333 -15.333 -117 -46c-14.667 -14.667 -26 -31 -34 -49s-12 -36.333 -12 -55v-339c0 -40.667 15.333 -75.667 46 -105c15.333 -15.333 32.666 -27 51.999 -35c13.333 -5.33301 25 -8.5 35 -9.5s20 -1.5 30 -1.5h979
c45.333 0 84 15.5 116 46.5s48 65.833 48 104.5v1320h163v-1321c0 -20.667 4 -40 12 -58c10.667 -20 22.334 -35.667 35.001 -47c30.667 -30.667 70 -46 118 -46h-5h5v-164h-5h5c-42.667 0 -84.5 8.33301 -125.5 25s-76.167 38.667 -105.5 66l-16 17l-15 -16
c-30.667 -28.667 -65.667 -51 -105 -67c-22 -9.33301 -42.333 -15.333 -61 -18c-16 -3.33301 -37.333 -5 -64 -5h-979c-44 0 -85.667 7.83301 -125 23.5s-74.166 37.667 -104.499 66s-54.166 62.5 -71.499 102.5c-6.66699 13.333 -11 23.166 -13 29.499s-4.66699 18 -8 35
s-5 36.167 -5 57.5v339c0 41.333 8.66699 81.666 26 120.999s41.166 73.166 71.499 101.499s65.5 50.666 105.5 66.999s81.333 24.5 124 24.5h163v-164zM1078 1468c0 -12 4.00195 -21 12.002 -27c10 -6 19.667 -9 29 -9h122v-124h-368v123h83v102v24
c0 22 7.66699 40.667 23 56c17.333 15.333 36.666 23 57.999 23h123c21.333 0 40.166 -8 56.499 -24s24.5 -34.333 24.5 -55v-65l-41 -1l-12 14c-4.66699 5.33301 -14 8 -28 8h-41c-10.667 0 -20.667 -4 -30 -12l-8 -12l-3 -15v-6z" />
    <glyph glyph-name="kafinitial" unicode="&#x643;" horiz-adv-x="1449" arabic-form="initial" 
d="M168 765l0.000976562 84.001v143c0 42 8 82.167 24 120.5s38.667 71.5 68 99.5s65.666 51.333 108.999 70c18.667 7.33301 39 13.333 61 18c12 2 23 3.66699 33 5s20.667 2 32 2h613v-164h-613h-5h5c-48 0 -87 -15.333 -117 -46c-4 -4 -9.5 -10.833 -16.5 -20.5
s-13.167 -18.834 -18.5 -27.501l-11 -31l-2 -26v-143h655c43.333 0 85 -8.33301 125 -25c21.333 -8 40 -17.667 56 -29c15.333 -9.33301 31.666 -22.333 48.999 -39c28.667 -28 52 -61.333 70 -100s27 -79.667 27 -123v-220c0 -21.333 -1.66699 -40.5 -5 -57.5
s-6 -28.667 -8 -35s-6.33301 -16.166 -13 -29.499c-14.667 -34.667 -38.667 -68.334 -72 -101.001c-27.333 -27.333 -61 -49.333 -101 -66s-82.667 -25 -128 -25h-982v162h982c22.667 0 44 4 64 12s37.667 19.667 53 35c14 12 25.333 27.333 34 46
c4 8.66699 7.33301 18.167 10 28.5s4 20.5 4 30.5v220c0 20.667 -4.16699 40 -12.5 58s-20.166 33.667 -35.499 47c-30.667 30.667 -69.667 46 -117 46h-817v81zM491.001 1307h4h-4z" />
    <glyph glyph-name="kafmedial" unicode="&#x643;" horiz-adv-x="1444" arabic-form="medial" 
d="M1125 535c0 38.667 -15.9971 73.5 -47.9971 104.5s-71 46.5 -117 46.5h-817v81v84v143c0 43.333 8.16699 83.833 24.5 121.5s39.666 71.167 69.999 100.5s66.166 52 107.499 68c18.667 7.33301 39 13.333 61 18c12 2 23 3.66699 33 5s20.667 2 32 2h612v-164h-612h-6h6
c-20 0 -41.667 -4 -65 -12c-18.667 -8 -36.334 -19.333 -53.001 -34c-31.333 -29.333 -47 -64.333 -47 -105v-143h654c44 0 85.667 -8.16699 125 -24.5s74.666 -38.833 105.999 -67.5c28 -28 51.167 -61.333 69.5 -100s27.5 -80 27.5 -124v-95v-125
c0 -21.333 4.16699 -41 12.5 -59s19.833 -34 34.5 -48c30.667 -30.667 69.667 -46 117 -46h-5h5v-163h-4h4c-44 0 -85.833 8 -125.5 24s-74.167 38.333 -103.5 67l-18 17l-14 -15c-28 -28 -62.333 -50.167 -103 -66.5s-83.334 -24.5 -128.001 -24.5h-981v162h981
c22.667 0 44.334 4.16699 65.001 12.5s38.334 19.833 53.001 34.5c31.333 28 47 62.333 47 103v127v95zM466.003 1309h5h-5z" />
    <glyph glyph-name="lamisolated" unicode="&#x644;" horiz-adv-x="1626" arabic-form="isolated" 
d="M651 639l0.000976562 -163.997h-162c-43.333 0 -82 -15.667 -116 -47c-15.333 -13.333 -26.666 -29.333 -33.999 -48s-11 -36.667 -11 -54v-340c0 -44 15 -79 45 -105c34 -31.333 72.667 -47 116 -47h641c44 0 83 15.667 117 47c30 30 45 65 45 105v1650h164v-1650
c0 -44 -8.83301 -85.167 -26.5 -123.5s-41.5 -71.5 -71.5 -99.5s-64.833 -50.167 -104.5 -66.5s-80.834 -24.5 -123.501 -24.5h-641c-35.333 0 -62.833 3.16699 -82.5 9.5l-41.5 13.5c-62 27.333 -111 66.166 -147 116.499s-54 108.5 -54 174.5v340
c0 39.333 8.5 79.166 25.5 119.499s40.5 74.166 70.5 101.499c9.33301 8 18.166 15.167 26.499 21.5l22.5 17.5c19.333 12 38 21.333 56 28c42 16.667 83.333 25 124 25h162z" />
    <glyph glyph-name="lamfinal" unicode="&#x644;" horiz-adv-x="1621" arabic-form="final" 
d="M662 475l-164 0.000976562c-44 0 -83 -15.667 -117 -47c-14 -13.333 -25 -29.333 -33 -48s-12 -36.667 -12 -54v-340c0 -44 15 -79 45 -105c34 -31.333 73 -47 117 -47h641c43.333 0 82 15.667 116 47c32 30 48 65 48 105v307v22v1321h163v-1345
c7.33301 -34 22.333 -60.667 45 -80c34.667 -31.333 73.667 -47 117 -47v-164h-4c-20.667 0 -41.167 2.33301 -61.5 7s-40.166 10.667 -59.499 18c-6.66699 2.66699 -12.667 5.33398 -18 8.00098s-11.666 5.33398 -18.999 8.00098v-55c0 -44 -8.83301 -85.167 -26.5 -123.5
s-41.5 -71.5 -71.5 -99.5s-64.833 -50.167 -104.5 -66.5s-81.167 -24.5 -124.5 -24.5h-641c-36 0 -63.833 3.16699 -83.5 9.5s-32.834 10.833 -39.501 13.5c-61.333 27.333 -110.5 66.166 -147.5 116.499s-55.5 108.5 -55.5 174.5v340c0 39.333 8.5 79.166 25.5 119.499
s40.5 74.166 70.5 101.499l27 21.5l22 17.5c8.66699 5.33301 17.667 10.333 27 15s19.666 9 30.999 13c40.667 16.667 81.667 25 123 25h164v-164z" />
    <glyph glyph-name="laminitial" unicode="&#x644;" horiz-adv-x="497" arabic-form="initial" 
d="M328 1637v-1324c0 -42 -9 -82.833 -27 -122.5s-42.333 -74.167 -73 -103.5s-65.334 -52 -104.001 -68s-80.667 -24 -126 -24v166h5h-5c22 0 43.833 4.5 65.5 13.5s38.834 19.833 51.501 32.5c31.333 28.667 47 64 47 106v1324h166z" />
    <glyph glyph-name="lammedial" unicode="&#x644;" horiz-adv-x="479" arabic-form="medial" 
d="M320 1638v-1324c0 -42.667 16 -78 48 -106c30 -30.667 69 -46 117 -46h-5h5v-166h-4h4c-44 0 -86 8 -126 24c-43.333 19.333 -78.666 42 -105.999 68l-15 16l-16 -16c-8.66699 -8.66699 -17.334 -16.334 -26.001 -23.001s-17 -12.334 -25 -17.001
c-16 -10.667 -34.333 -20 -55 -28c-41.333 -16 -83 -24 -125 -24v166h4h-4c48 0 87.333 15.333 118 46c15.333 13.333 26.833 29.666 34.5 48.999s11.5 38.333 11.5 57v1324h165z" />
    <glyph glyph-name="meemisolated" unicode="&#x645;" horiz-adv-x="2128" arabic-form="isolated" 
d="M865 1097c-30.667 -29.333 -46.002 -64.3311 -46.002 -104.998v-501v-175c0 -18.667 4 -38 12 -58c8.66699 -18.667 20.5 -34.834 35.5 -48.501s32.167 -24.5 51.5 -32.5c20.667 -7.33301 42.334 -11 65.001 -11h650c22 0 43 4 63 12s38 19 54 33
c30.667 27.333 46 62.333 46 105v676c0 20 -3.83301 39.167 -11.5 57.5s-19.167 34.166 -34.5 47.499c-13.333 13.333 -31 24.333 -53 33s-43.333 13 -64 13h-650c-21.333 0 -42.166 -3.83301 -62.499 -11.5s-38.833 -19.167 -55.5 -34.5zM1633 1306
c22.667 0 43.499 -1.66895 62.499 -5.00195s38.833 -9.33301 59.5 -18c37.333 -14.667 71.833 -36.334 103.5 -65.001s56.334 -62.667 74.001 -102s26.5 -80.666 26.5 -123.999v-676c0 -21.333 -1.66699 -40.5 -5 -57.5s-6 -28.667 -8 -35s-6.33301 -16.166 -13 -29.499
c-16 -38 -38.833 -70.833 -68.5 -98.5s-65.167 -50.834 -106.5 -69.501c-40 -16 -81.667 -24 -125 -24h-650c-12 0 -23.333 0.333008 -34 1s-23 2.33398 -37 5.00098s-32 8.33398 -54 17.001c-36.667 15.333 -70.834 38 -102.501 68s-56.167 64.5 -73.5 103.5
s-26 78.833 -26 119.5v175v501c0 19.333 -4 38 -12 56c-6.66699 18 -18 34.333 -34 49c-32.667 30.667 -71.334 46 -116.001 46h-6h6h4h-4c-21.333 0 -42.166 -4 -62.499 -12s-38.5 -19.333 -54.5 -34c-31.333 -29.333 -47 -64.333 -47 -105v-1315h-162v1315
c0 42.667 8.33301 83.167 25 121.5s40 71.5 70 99.5s65.833 50.5 107.5 67.5s82.834 25.5 123.501 25.5h-5h5h1139z" />
    <glyph glyph-name="meemfinal" unicode="&#x645;" horiz-adv-x="2123" arabic-form="final" 
d="M871 1096c-31.333 -30 -47.001 -65.001 -47.001 -105.001v-501v-175c0 -18 4 -37 12 -57c8.66699 -18.667 20.334 -34.667 35.001 -48c31.333 -30 70.333 -45 117 -45h651c22 0 43 4 63 12s38 19 54 33c30.667 28.667 46 63.667 46 105v664v12
c0 20.667 -3.5 39.334 -10.5 56.001s-17.833 32 -32.5 46s-33.667 26 -57 36c-8.66699 3.33301 -19 6.33301 -31 9s-22.667 4 -32 4h-651c-20.667 0 -41.5 -4 -62.5 -12s-39.167 -19.333 -54.5 -34zM1868 91.999c-28 -28 -62.335 -50.1689 -103.002 -66.502
s-82.667 -24.5 -126 -24.5h-651c-45.333 0 -86.666 7.66699 -123.999 23c-19.333 8 -37.5 17.167 -54.5 27.5s-33.833 23.833 -50.5 40.5c-30 29.333 -53.833 63.333 -71.5 102s-26.5 79 -26.5 121v175v501c0 42 -15.667 77.667 -47 107s-69.666 44 -114.999 44h-4h4h5h-5
c-20.667 0 -42 -4 -64 -12c-17.333 -8 -35 -19.333 -53 -34c-30 -30 -45 -65 -45 -105v-1315h-164v1315c0 42.667 8.33301 83.167 25 121.5s40 71.5 70 99.5s65.833 50.5 107.5 67.5s82.834 25.5 123.501 25.5h1140c22.667 0 43.5 -1.66699 62.5 -5
s38.833 -9.33301 59.5 -18c36.667 -14.667 71.334 -36.667 104.001 -66c30 -27.333 54.333 -61.166 73 -101.499s28 -81.5 28 -123.5v-12v-664c0 -18.667 4 -38 12 -58c8 -17.333 19 -33.666 33 -48.999c31.333 -30 70.333 -45 116.999 -45h-6h6v-163h-5h5
c-46 0 -87.833 7.83301 -125.5 23.5s-71.834 38.167 -102.501 67.5l-17 16z" />
    <glyph glyph-name="meeminitial" unicode="&#x645;" horiz-adv-x="1553" arabic-form="initial" 
d="M422 1130c-21.333 -10 -38.666 -21.332 -51.999 -33.999c-30 -28 -45 -63 -45 -105v-12v-664c0 -20.667 3.66699 -40.334 11 -59.001c8.66699 -18.667 20 -34 34 -46c33.333 -30 72 -45 116 -45h652c21.333 0 42.333 3.66699 63 11c21.333 8.66699 39 20 53 34
c31.333 27.333 47 62.333 47 105v676c0 40.667 -15.667 75.667 -47 105c-18.667 15.333 -36.334 26.333 -53.001 33c-19.333 8.66699 -40.333 13 -63 13h-652c-22.667 0 -44 -4 -64 -12zM243 107.001l-16 -15.999c-8.66699 -8.66699 -17.334 -16.334 -26.001 -23.001
s-17 -12.334 -25 -17.001c-16 -10.667 -34.333 -20 -55 -28c-36.667 -15.333 -78 -23 -124 -23h4h-4v163h4h-4c46.667 0 86 15 118 45c14.667 14.667 26 31.334 34 50.001s12 37.667 12 57v664v12c0 42.667 9.16699 84.167 27.5 124.5s41.5 73.5 69.5 99.5
c32.667 29.333 68 51.666 106 66.999c20.667 8.66699 40.5 14.667 59.5 18s39.833 5 62.5 5h652c40.667 0 81.834 -8.5 123.501 -25.5s77.5 -39.5 107.5 -67.5s53.167 -61 69.5 -99s24.5 -78.667 24.5 -122v-676c0 -43.333 -9 -84.166 -27 -122.499s-41.833 -72 -71.5 -101
s-63.334 -51.333 -101.001 -67s-79.5 -23.5 -125.5 -23.5h-652c-43.333 0 -84.666 8.16699 -123.999 24.5s-74 38.5 -104 66.5z" />
    <glyph glyph-name="meemmedial" unicode="&#x645;" horiz-adv-x="1610" arabic-form="medial" 
d="M361 1096c-30 -28 -45.002 -63.001 -45.002 -105.001v-12v-664c0 -42 15.667 -77.667 47 -107c16.667 -14.667 34.334 -25.667 53.001 -33c20 -6.66699 41 -10 63 -10h652c24.667 0 46 3.83301 64 11.5s35.333 18.834 52 33.501c31.333 28 47 63 47 105v664v12
c0 38.667 -16 73.5 -48 104.5s-70.333 46.5 -115 46.5h-652c-21.333 0 -42.166 -3.83301 -62.499 -11.5s-38.833 -19.167 -55.5 -34.5zM1358 91.999c-26.667 -26.667 -60.832 -48.502 -102.499 -65.502s-83.167 -25.5 -124.5 -25.5h-652c-44.667 0 -86.334 8 -125.001 24
s-73.334 38.333 -104.001 67l-14 15l-17 -16c-28 -28 -62.333 -50.167 -103 -66.5s-82.667 -24.5 -126 -24.5h4h-4v163h5h-5c48 0 87.167 15.167 117.5 45.5s45.5 65.166 45.5 104.499v666v12c0 42.667 8.33301 83.167 25 121.5s40 71.5 70 99.5s65.833 50.5 107.5 67.5
s82.834 25.5 123.501 25.5h652c44 0 85.5 -7.66699 124.5 -23s73.167 -34.666 102.5 -57.999c29.333 -34 53 -70.333 71 -109s27 -80 27 -124v-12v-664c0 -42.667 15.667 -78.667 47 -108s70.333 -44 117 -44h-5h5v-163h-4h4c-12 0 -23.333 0.333008 -34 1
s-23 2.33398 -37 5.00098s-32 8.33398 -54 17.001c-39.333 16 -74 38.667 -104 68l-18 16z" />
    <glyph glyph-name="noonisolated" unicode="&#x646;" horiz-adv-x="1603" arabic-form="isolated" 
d="M636 1147l-163.996 -0.000976562c-46.667 0 -85.334 -15.333 -116.001 -46c-16.667 -16.667 -28.834 -33.667 -36.501 -51s-11.5 -35.666 -11.5 -54.999v-680c0 -18 4.33301 -37.333 13 -58c13.333 -21.333 25 -37.333 35 -48c17.333 -14 34.666 -25 51.999 -33
c22 -8 43.333 -12 64 -12h656c45.333 0 84 15.5 116 46.5s48 65.833 48 104.5v995h164v-995c0 -42 -9 -82.5 -27 -121.5s-42 -73.167 -72 -102.5s-64.667 -52 -104 -68c-22 -9.33301 -42.333 -15.333 -61 -18c-16 -3.33301 -37.333 -5 -64 -5h-656c-44 0 -86 8 -126 24
c-41.333 18.667 -76.333 41.334 -105 68.001c-30.667 29.333 -54.334 63.333 -71.001 102s-25 79 -25 121v680c0 42.667 8.83301 83.667 26.5 123s41.167 72.666 70.5 99.999c17.333 16.667 33.666 29.667 48.999 39c16.667 11.333 35.334 21 56.001 29
c42 16 83.667 24 125 24h164v-163zM882.004 1618h164v-164h-164v164z" />
    <glyph glyph-name="noonfinal" unicode="&#x646;" horiz-adv-x="1642" arabic-form="final" 
d="M913 1618h164v-164h-164v164zM667 1147l-163.999 0.00292969c-45.333 0 -84.333 -15.333 -117 -46c-16.667 -16.667 -28.667 -32.334 -36 -47.001c-4.66699 -10 -7.66699 -19 -9 -27s-2 -18.667 -2 -32v-680c0 -40.667 15.667 -75.667 47 -105
c18 -14.667 35.667 -26 53 -34c22 -8 43.333 -12 64 -12h655c14 0 27 1.66699 39 5s20.667 6 26 8c21.333 9.33301 39.5 20.666 54.5 33.999s26.167 29 33.5 47s11 37 11 57v998h164v-998c0 -40.667 15.667 -75.667 47 -105c15.333 -15.333 32.666 -27 51.999 -35
c13.333 -5.33301 25 -8.5 35 -9.5s20 -1.5 30 -1.5h-4h4v-164h-4h4c-20.667 0 -42.167 2.33301 -64.5 7s-42.833 10.667 -61.5 18c-40 16.667 -74.667 38.667 -104 66l-16 16l-16 -16c-16.667 -16 -33.167 -29.167 -49.5 -39.5s-35.166 -20 -56.499 -29
s-41.333 -14.833 -60 -17.5c-16 -3.33301 -37.333 -5 -64 -5h-655c-44 0 -86.167 8.33301 -126.5 25s-74.5 38.667 -102.5 66c-32 28.667 -56.5 62.334 -73.5 101.001s-25.5 79.667 -25.5 123v680c0 42 9.16699 83.167 27.5 123.5s42.666 74.666 72.999 102.999
s64.5 50.166 102.5 65.499s79.667 23 125 23h164v-163z" />
    <glyph glyph-name="nooninitial" unicode="&#x646;" horiz-adv-x="480" arabic-form="initial" 
d="M320 1307l-0.00195312 -996c0 -42 -9 -82.833 -27 -122.5s-41.667 -73.5 -71 -101.5s-64.166 -50 -104.499 -66s-82.166 -24 -125.499 -24h5h-5v163h6h-6c46 0 85.333 15.333 118 46c16 14.667 27.667 31 35 49s11 36.667 11 56v996h164zM155.998 1618h164v-164h-164v164
z" />
    <glyph glyph-name="noonmedial" unicode="&#x646;" horiz-adv-x="473" arabic-form="medial" 
d="M316 1309l0.000976562 -996c0 -40 15.667 -75 47 -105c15.333 -15.333 32.666 -26.833 51.999 -34.5s41 -11.5 65 -11.5h-5h5v-163h-4h4c-44.667 0 -86.834 8.33301 -126.501 25s-73.834 38.667 -102.501 66l-16 16l-16 -16c-29.333 -28.667 -64.166 -51 -104.499 -67
s-82.166 -24 -125.499 -24v163h4h-4c46 0 84.833 15.333 116.5 46s47.5 65.667 47.5 105v996h163zM156.001 1618h164v-164h-164v164z" />
    <glyph glyph-name="hehisolated" unicode="&#x647;" horiz-adv-x="1659" arabic-form="isolated" 
d="M382 1098c-31.333 -29.333 -47 -64.667 -47 -106v-679c0 -40 15.667 -75.167 47 -105.5s70 -45.5 116 -45.5h656c24.667 0 45.5 3.5 62.5 10.5s34.833 18.167 53.5 33.5c14 14 25.333 30.833 34 50.5s13 38.5 13 56.5v679c0 41.333 -15.667 76.833 -47 106.5
s-70 44.5 -116 44.5h-656c-22.667 0 -43.667 -3.5 -63 -10.5s-37 -18.5 -53 -34.5zM269 88.999c-30 29.333 -53.834 63.8379 -71.501 103.505s-26.5 79.834 -26.5 120.501v679c0 43.333 8.16699 84.166 24.5 122.499s39.5 71.166 69.5 98.499s66.167 49.833 108.5 67.5
s83.833 26.5 124.5 26.5h656c42 0 83 -7.66699 123 -23s75 -37.333 105 -66s54 -62.834 72 -102.501s27 -80.834 27 -123.501v-679c0 -22 -1.5 -40.333 -4.5 -55s-5.16699 -24.334 -6.5 -29.001c-3.33301 -11.333 -8.33301 -24 -15 -38
c-16 -36.667 -38.833 -69.334 -68.5 -98.001s-65.5 -51.667 -107.5 -69s-83.667 -26 -125 -26h-656c-45.333 0 -86.666 7.66699 -123.999 23c-19.333 8 -37.5 17.167 -54.5 27.5s-33.833 23.833 -50.5 40.5z" />
    <glyph glyph-name="hehfinal" unicode="&#x647;" horiz-adv-x="1626" arabic-form="final" 
d="M370 1100c-31.333 -29.333 -47 -64.667 -47 -106v-679c0 -40 15.667 -75.167 47 -105.5s70 -45.5 116 -45.5h656c24.667 0 45.5 3.5 62.5 10.5s34.833 18.167 53.5 33.5c14 14 25.333 30.833 34 50.5s13 38.5 13 56.5v667v12c0 41.333 -15.667 76.833 -47 106.5
s-70 44.5 -116 44.5h-656c-22.667 0 -43.667 -3.5 -63 -10.5s-37 -18.5 -53 -34.5zM1371 90.999c-28 -28 -62.333 -50.1641 -103 -66.4971s-82.667 -24.5 -126 -24.5h-656c-45.333 0 -86.666 7.66699 -123.999 23c-19.333 8 -37.5 17.167 -54.5 27.5
s-33.833 23.833 -50.5 40.5c-30 29.333 -53.833 63.833 -71.5 103.5s-26.5 79.834 -26.5 120.501v679c0 43.333 8.16699 84.166 24.5 122.499s39.5 71.166 69.5 98.499s66.167 49.833 108.5 67.5s83.833 26.5 124.5 26.5h656c42 0 83 -7.66699 123 -23s75 -37.333 105 -66
s54 -62.834 72 -102.501s27 -80.834 27 -123.501v-12v-667c0 -18.667 4 -37.667 12 -57s19.333 -36 34 -50c32.667 -30.667 72 -46 118 -46h-5h5v-164h-4h4c-44.667 0 -86.334 8 -125.001 24s-74 38.333 -106 67l-16 17z" />
    <glyph glyph-name="hehinitial" unicode="&#x647;" horiz-adv-x="1789" arabic-form="initial" 
d="M315 489l-0.000976562 -177.998v-16c0 -14 4 -30.667 12 -50c8.66699 -16.667 19.334 -30.667 32.001 -42c32.667 -28.667 72.334 -43 119.001 -43h303h24c48.667 0 88.667 14.333 120 43c29.333 26 44 56.667 44 92v384c0 7.33301 -0.5 14.666 -1.5 21.999
s-4.16699 16.333 -9.5 27c-6.66699 16 -17.334 30 -32.001 42s-33 23 -55 33c-21.333 8 -43.333 12 -66 12h-327c-22.667 0 -44 -3.66699 -64 -11s-37.333 -17.333 -52 -30s-26.167 -27.334 -34.5 -44.001s-12.5 -33.667 -12.5 -51v-190zM769.999 1096
c-30.667 -29.333 -46 -64.333 -46 -105v-13h81c44 0 84.833 -7 122.5 -21s72.834 -35.333 105.501 -64c29.333 -25.333 53.333 -56.666 72 -93.999s28 -77.333 28 -120v-384c0 -22.667 -3 -45.334 -9 -68.001s-15 -45 -27 -67h199c20.667 0 41.667 4 63 12
s39.666 19.333 54.999 34c30.667 28.667 46 63.667 46 105v680c0 17.333 -4 35.5 -12 54.5s-19.167 35.5 -33.5 49.5s-32.5 25.333 -54.5 34s-43.333 13 -64 13h-408c-21.333 0 -43 -4 -65 -12c-17.333 -8 -35 -19.333 -53 -34zM780.999 -3.99805l-303.001 0.00292969
c-42 0 -82.333 7.16699 -121 21.5s-74 35.5 -106 63.5l-21 20l-13 -14c-28 -28 -62.333 -50.167 -103 -66.5s-82.667 -24.5 -126 -24.5v164h4h-4c20.667 0 41.167 4 61.5 12s38.5 19.333 54.5 34c31.333 29.333 47 63.666 47 102.999v180v190c0 42 8.16699 80.667 24.5 116
s41.5 68.333 75.5 99c28 26 62.5 46.5 103.5 61.5s82.167 22.5 123.5 22.5h82v13c0 42.667 8.16699 83 24.5 121s39.833 71.333 70.5 100s66.334 51.667 107.001 69c18.667 7.33301 39 13.333 61 18c12 2 23 3.66699 33 5s20.667 2 32 2h408c44.667 0 86 -7.66699 124 -23
s72.5 -37.5 103.5 -66.5s55.5 -63 73.5 -102s27 -80.167 27 -123.5v-680c0 -22 -1.66699 -41.5 -5 -58.5s-6 -28.833 -8 -35.5s-6.33301 -16.334 -13 -29.001c-16 -38 -39.167 -70.833 -69.5 -98.5s-65.833 -50.834 -106.5 -69.501c-40 -16 -82 -24 -126 -24h-491h-24z" />
    <glyph glyph-name="hehmedial" unicode="&#x647;" horiz-adv-x="1790" arabic-form="medial" 
d="M318 491l-0.000976562 -178.001v-16c0 -14 4 -30.667 12 -50c8.66699 -16.667 19.334 -30.667 32.001 -42c32.667 -28.667 72.667 -43 120 -43h304h24c46 0 85.667 14.333 119 43c29.333 26 44 56.667 44 92v384c0 7.33301 -0.5 14.666 -1.5 21.999s-4.5 17.333 -10.5 30
s-16.167 25.5 -30.5 38.5s-32 23.833 -53 32.5s-43.5 13 -67.5 13h-328c-22 0 -44 -4 -66 -12c-19.333 -8 -36.333 -18.167 -51 -30.5s-26.167 -26.666 -34.5 -42.999s-12.5 -33.166 -12.5 -50.499v-190zM1530 88.999c-28 -28 -62.332 -50.1699 -102.999 -66.5029
s-82.667 -24.5 -126 -24.5h-819c-42.667 0 -83.334 7.5 -122.001 22.5s-74 35.833 -106 62.5l-20 20l-13 -14c-28.667 -26.667 -63.834 -48.5 -105.501 -65.5s-83.167 -25.5 -124.5 -25.5h4h-4v164h5h-5c20 0 40.333 4 61 12s39.334 19.333 56.001 34
c31.333 28 47 62.333 47 103v180v190c0 42.667 8.16699 81.834 24.5 117.501s41.166 68.167 74.499 97.5c29.333 25.333 64.333 45.666 105 60.999s81.667 23 123 23h82v13c0 43.333 8.16699 83.833 24.5 121.5s40 71.5 71 101.5s67 52.833 108 68.5s82.167 23.5 123.5 23.5
h410c22.667 0 43.5 -1.66699 62.5 -5s38.833 -9.33301 59.5 -18c38 -15.333 72.333 -37.5 103 -66.5s55.334 -63 74.001 -102s28 -80.167 28 -123.5v-11v-669c0 -19.333 4 -38.166 12 -56.499s19.333 -34.5 34 -48.5c32.667 -30.667 71.667 -46 117 -46h-5h5v-164
c-12 0 -23.333 0.333008 -34 1s-23 2.33398 -37 5.00098s-32 8.33398 -54 17.001c-38 16 -72.667 38.667 -104 68l-16 16zM774 1098c-30.667 -29.333 -46 -64.332 -46 -104.999v-13h82c43.333 0 83.833 -7 121.5 -21s72.334 -35.167 104.001 -63.5
s56.5 -60.666 74.5 -96.999s27 -75.5 27 -117.5v-384c0 -22.667 -3 -45.334 -9 -68.001s-15 -45 -27 -67h200c22 0 43.167 4 63.5 12s38.166 19.333 53.499 34c30.667 29.333 46 64.333 46 105v669v11c0 20 -4 39.167 -12 57.5s-19.333 34.166 -34 47.499
c-32.667 30.667 -71.667 46 -117 46h-410c-20.667 0 -42 -4 -64 -12c-17.333 -8 -35 -19.333 -53 -34z" />
    <glyph glyph-name="wawisolated" unicode="&#x648;" horiz-adv-x="1624" arabic-form="isolated" 
d="M374 1086c-30.667 -28.667 -46.0029 -63.332 -46.0029 -103.999v-673c0 -22.667 3.83301 -41.834 11.5 -57.501s19.167 -31.167 34.5 -46.5c32.667 -30.667 71.334 -46 116.001 -46h648c20 0 40.333 4 61 12s39.334 19.333 56.001 34c30 28 45 62.667 45 104v501v161v11
c0 20.667 -3.66699 39.5 -11 56.5s-18.666 32.833 -33.999 47.5c-32.667 30.667 -71.667 46 -117 46h-648c-22 0 -43 -3.66699 -63 -11s-37.667 -19 -53 -35zM1463 -15.998c0 -42 -8.16602 -82.001 -24.499 -120.001s-40.166 -71 -71.499 -99
c-28.667 -28 -63.167 -50.333 -103.5 -67s-197.5 -23 -471.5 -19v164c252.667 -2 389 0.166992 409 6.5s38 16.5 54 30.5c30 28 45 62.667 45 104v55c-22.667 -12 -48.334 -22.333 -77.001 -31l-40 -8l-45 -3h-648c-46 0 -87.5 7.83301 -124.5 23.5s-71 37.834 -102 66.501
s-55.167 62.667 -72.5 102s-26 79.333 -26 120v673c0 42 8.16699 81.667 24.5 119s40 71 71 101s65.667 52.833 104 68.5s80.166 23.5 125.499 23.5h648c22.667 0 43.5 -1.66699 62.5 -5s38.833 -9.33301 59.5 -18c38 -15.333 73.333 -37.666 106 -66.999
c28.667 -26.667 52 -59.834 70 -99.501s27 -80.5 27 -122.5v-11v-161v-501v-270v-55z" />
    <glyph glyph-name="wawfinal" unicode="&#x648;" horiz-adv-x="1618" arabic-form="final" 
d="M374 1089c-30.667 -28.667 -46.0029 -63.332 -46.0029 -103.999v-673c0 -22.667 3.83301 -41.834 11.5 -57.501s19.167 -31.167 34.5 -46.5c32.667 -30.667 71.334 -46 116.001 -46h648c20 0 40.333 4 61 12s39.334 19.333 56.001 34c30 28 45 62.667 45 104v501v161v11
c0 20.667 -3.66699 39.5 -11 56.5s-18.666 32.833 -33.999 47.5c-32.667 30.667 -71.667 46 -117 46h-648c-22 0 -43 -3.66699 -63 -11s-37.667 -19 -53 -35zM1463 -12.998c0 -42 -8.16504 -82.001 -24.498 -120.001s-40.166 -71 -71.499 -99
c-28.667 -28 -63.167 -50.167 -103.5 -66.5s-197.166 -21.5 -470.499 -15.5v159c252 -1.33301 388 1.16699 408 7.5s38 16.5 54 30.5c30 28 45 62.667 45 104v55c-22.667 -12 -48.334 -22.333 -77.001 -31l-40 -8l-45 -3h-648c-46 0 -87.5 7.83301 -124.5 23.5
s-71 37.834 -102 66.501s-55.167 62.667 -72.5 102s-26 79.333 -26 120v673c0 42 8.16699 81.667 24.5 119s40 71 71 101s65.667 52.833 104 68.5s80.166 23.5 125.499 23.5h648c22.667 0 43.5 -1.66699 62.5 -5s38.833 -9.33301 59.5 -18
c38 -15.333 73.333 -37.666 106 -66.999c28.667 -26.667 52 -59.834 70 -99.501s27 -80.5 27 -122.5v-11v-161v-501c0 -23.333 3.83301 -43 11.5 -59s19.167 -31 34.5 -45c30.667 -30.667 69 -46 115 -46h-4h4v-162c-28.667 0 -56.334 3.33301 -83.001 10
c-6 1.33301 -11.833 3 -17.5 5s-12.834 4.66699 -21.501 8l-39 19v-55z" />
    <glyph glyph-name="alefmaksuraisolated" unicode="&#x649;" horiz-adv-x="1673" arabic-form="isolated" 
d="M674 1143l-163.995 0.00195312c-46 0 -84.667 -15.167 -116 -45.5s-47 -65.5 -47 -105.5v-679c0 -42 15.667 -77 47 -105c31.333 -31.333 70 -47 116 -47h246h409c46.667 0 85.667 15.667 117 47c14.667 13.333 26 29.5 34 48.5s12 37.833 12 56.5v175v95
c0 41.333 -15.833 76.833 -47.5 106.5s-70.167 44.5 -115.5 44.5h-246v81v84v93c0 42 8.83301 82.5 26.5 121.5s41.667 73.167 72 102.5s65.666 51.833 105.999 67.5s81.5 23.5 123.5 23.5h163v-164h-163h-6h6c-46 0 -85.333 -15.333 -118 -46
c-14.667 -14.667 -26 -30.667 -34 -48s-12 -36.333 -12 -57v-93h82c45.333 0 87.333 -8.33301 126 -25s73.667 -39.834 105 -69.501s54.666 -62.834 69.999 -99.501c6.66699 -12.667 11 -22.334 13 -29.001s4.66699 -18.5 8 -35.5s5 -36.167 5 -57.5v-95v-175
c0 -43.333 -8.66699 -84.333 -26 -123s-41.333 -72.167 -72 -100.5s-65.834 -50.5 -105.501 -66.5s-80.834 -24 -123.501 -24h-409h-246c-43.333 0 -85.333 7.66699 -126 23c-41.333 18 -76 40.667 -104 68c-32 31.333 -56.167 65.666 -72.5 102.999s-24.5 77.333 -24.5 120
v679c0 10.667 0.666992 21 2 31s3 20.667 5 32c4.66699 20.667 10.667 40.334 18 59.001c17.333 38 41.166 71.833 71.499 101.5s65.833 52.334 106.5 68.001s82 23.5 124 23.5h164v-164zM1247 1307h-5h5z" />
    <glyph glyph-name="alefmaksurafinal" unicode="&#x649;" horiz-adv-x="2111" arabic-form="final" 
d="M646 1145l-163.003 -0.00390625c-47.333 0 -86.666 -15.167 -117.999 -45.5s-47 -65.5 -47 -105.5v-679c0 -42 16 -77 48 -105c15.333 -15.333 33.166 -27 53.499 -35s41.5 -12 63.5 -12h653c46.667 0 85.667 15.667 117 47c31.333 27.333 47 62.333 47 105v92v494v93
c0 42.667 9.16699 83.834 27.5 123.501s42.5 73.667 72.5 102s64.833 50.333 104.5 66s80.834 23.5 123.501 23.5h-4h4c40.667 0 82.334 -9 125.001 -27s78.667 -41 108 -69s52 -60.667 68 -98c6.66699 -12.667 11 -22.334 13 -29.001s4.66699 -18.5 8 -35.5
s5 -35.833 5 -56.5v-258v-247v-176c0 -40.667 15.333 -75.667 46 -105c15.333 -14.667 33.5 -26 54.5 -34s41.833 -12 62.5 -12h-4h4v-163h-4h4c-43.333 0 -85.333 7.66699 -126 23c-41.333 18 -76 40.667 -104 68c-32 31.333 -56.167 65.5 -72.5 102.5
s-24.5 77.167 -24.5 120.5v176v247v258c0 40.667 -15.333 75.667 -46 105c-15.333 14.667 -33.166 26 -53.499 34s-41.5 12 -63.5 12h-6h6h5h-5c-48 0 -87.333 -15.333 -118 -46c-15.333 -14 -27 -30.5 -35 -49.5s-12 -37.5 -12 -55.5v-93v-494v-92
c0 -43.333 -9 -84.833 -27 -124.5s-42.167 -73.5 -72.5 -101.5s-64.5 -49.667 -102.5 -65c-21.333 -8.66699 -41.5 -14.667 -60.5 -18s-40.5 -5 -64.5 -5h-653c-44.667 0 -87 8 -127 24c-41.333 18.667 -76.333 41.334 -105 68.001c-30.667 30 -54.167 63.833 -70.5 101.5
s-24.5 77.834 -24.5 120.501v679c0 10.667 0.666992 21 2 31s3 20.667 5 32c4.66699 20.667 10.667 40.334 18 59.001c18.667 40.667 43.167 75.334 73.5 104.001s65 50.667 104 66s80.5 23 124.5 23h163v-164z" />
    <glyph glyph-name="yehisolated" unicode="&#x64a;" horiz-adv-x="1673" arabic-form="isolated" 
d="M674 1143l-163.995 0.00195312c-46 0 -84.667 -15.167 -116 -45.5s-47 -65.5 -47 -105.5v-679c0 -42 15.667 -77 47 -105c31.333 -31.333 70 -47 116 -47h246h409c46.667 0 85.667 15.667 117 47c14.667 13.333 26 29.5 34 48.5s12 37.833 12 56.5v175v95
c0 41.333 -15.833 76.833 -47.5 106.5s-70.167 44.5 -115.5 44.5h-246v81v84v93c0 42 8.83301 82.5 26.5 121.5s41.667 73.167 72 102.5s65.666 51.833 105.999 67.5s81.5 23.5 123.5 23.5h163v-164h-163h-6h6c-46 0 -85.333 -15.333 -118 -46
c-14.667 -14.667 -26 -30.667 -34 -48s-12 -36.333 -12 -57v-93h82c45.333 0 87.333 -8.33301 126 -25s73.667 -39.834 105 -69.501s54.666 -62.834 69.999 -99.501c6.66699 -12.667 11 -22.334 13 -29.001s4.66699 -18.5 8 -35.5s5 -36.167 5 -57.5v-95v-175
c0 -43.333 -8.66699 -84.333 -26 -123s-41.333 -72.167 -72 -100.5s-65.834 -50.5 -105.501 -66.5s-80.834 -24 -123.501 -24h-409h-246c-43.333 0 -85.333 7.66699 -126 23c-41.333 18 -76 40.667 -104 68c-32 31.333 -56.167 65.666 -72.5 102.999s-24.5 77.333 -24.5 120
v679c0 10.667 0.666992 21 2 31s3 20.667 5 32c4.66699 20.667 10.667 40.334 18 59.001c17.333 38 41.166 71.833 71.499 101.5s65.833 52.334 106.5 68.001s82 23.5 124 23.5h164v-164zM1247 1307h-5h5zM906.005 -166.998h164v-164h-164v164zM579.005 -166.998h164v-164
h-164v164z" />
    <glyph glyph-name="yehfinal" unicode="&#x64a;" horiz-adv-x="2112" arabic-form="final" 
d="M646 1145l-163.003 -0.00390625c-47.333 0 -86.666 -15.167 -117.999 -45.5s-47 -65.5 -47 -105.5v-679c0 -42 16 -77 48 -105c15.333 -15.333 33.166 -27 53.499 -35s41.5 -12 63.5 -12h653c46.667 0 85.667 15.667 117 47c31.333 27.333 47 62.333 47 105v92v494v93
c0 42.667 9.16699 83.834 27.5 123.501s42.5 73.667 72.5 102s64.833 50.333 104.5 66s80.834 23.5 123.501 23.5h-4h4c40.667 0 82.334 -9 125.001 -27s78.667 -41 108 -69s52 -60.667 68 -98c6.66699 -12.667 11 -22.334 13 -29.001s4.66699 -18.5 8 -35.5
s5 -35.833 5 -56.5v-258v-247v-176c0 -40.667 15.333 -75.667 46 -105c15.333 -14.667 33.5 -26 54.5 -34s41.833 -12 62.5 -12h-4h4v-163h-4h4c-43.333 0 -85.333 7.66699 -126 23c-41.333 18 -76 40.667 -104 68c-32 31.333 -56.167 65.5 -72.5 102.5
s-24.5 77.167 -24.5 120.5v176v247v258c0 40.667 -15.333 75.667 -46 105c-15.333 14.667 -33.166 26 -53.499 34s-41.5 12 -63.5 12h-6h6h5h-5c-48 0 -87.333 -15.333 -118 -46c-15.333 -14 -27 -30.5 -35 -49.5s-12 -37.5 -12 -55.5v-93v-494v-92
c0 -43.333 -9 -84.833 -27 -124.5s-42.167 -73.5 -72.5 -101.5s-64.5 -49.667 -102.5 -65c-21.333 -8.66699 -41.5 -14.667 -60.5 -18s-40.5 -5 -64.5 -5h-653c-44.667 0 -87 8 -127 24c-41.333 18.667 -76.333 41.334 -105 68.001c-30.667 30 -54.167 63.833 -70.5 101.5
s-24.5 77.834 -24.5 120.501v679c0 10.667 0.666992 21 2 31s3 20.667 5 32c4.66699 20.667 10.667 40.334 18 59.001c18.667 40.667 43.167 75.334 73.5 104.001s65 50.667 104 66s80.5 23 124.5 23h163v-164zM905.997 -165.004h164v-164h-164v164zM578.997 -165.004h164
v-164h-164v164z" />
    <glyph glyph-name="yehinitial" unicode="&#x64a;" horiz-adv-x="490" arabic-form="initial" 
d="M166 1307h164v-996c0 -42 -8.83301 -82.833 -26.5 -122.5s-41.5 -73.5 -71.5 -101.5s-64.833 -50 -104.5 -66s-81.5 -24 -125.5 -24h5h-5v163h6h-6c46 0 85.333 15.333 118 46c16 14.667 27.667 31 35 49s11 36.667 11 56v996zM280 -331v164h163v-164h-163zM22 -331v164
h164v-164h-164z" />
    <glyph glyph-name="yehmedial" unicode="&#x64a;" horiz-adv-x="582" arabic-form="medial" 
d="M205 1309h163v-996c0 -40 15.667 -75 47 -105c15.333 -15.333 32.666 -27 51.999 -35c22 -7.33301 63.667 -11 125 -11v-163h-64h64c-87.333 0 -149.666 8.33301 -186.999 25c-39.333 16.667 -73.333 38.667 -102 66l-16 16l-16 -16
c-28.667 -28.667 -63.667 -51 -105 -67c-40 -16 -102.333 -24 -187 -24v163h4h-4c88 0 147.333 15.333 178 46c32 30.667 48 65.667 48 105v996zM348 -329v164h164v-164h-164zM61 -329v164h164v-164h-164z" />
    <glyph glyph-name=".notdef" horiz-adv-x="1024" 
d="M128 0v1450h768v-1450h-768zM256 128h512v1194h-512v-1194z" />
    <glyph glyph-name="space" unicode=" " horiz-adv-x="500" 
 />
    <glyph glyph-name="exclam" unicode="!" horiz-adv-x="614" 
d="M373 238c52.667 0 91.668 -23.999 117.001 -71.999c9.33301 -20 14 -40 14 -60c0 -54 -24 -93.333 -72 -118c-19.333 -10 -39 -15 -59 -15c-54 0 -93.667 24.667 -119 74c-9.33301 20 -14 39.667 -14 59c0 51.333 23 89.666 69 114.999
c21.333 11.333 42.666 17 63.999 17zM406.001 356.001h-74.002v66l-10 176c-7.33301 70.667 -14.333 125.334 -21 164.001l-45 268l-24 156v28c0 138 49 207 147 207c76.667 0 123.667 -41.667 141 -125v-2l7 -61c0 -20.667 -2.5 -48.167 -7.5 -82.5
s-12.167 -76.5 -21.5 -126.5l-58 -279l-20 -143c-3.33301 -28.667 -6.16602 -55.334 -8.49902 -80.001s-4.16602 -47.667 -5.49902 -69v-33v-64z" />
    <glyph glyph-name="quotedbl" unicode="&#x22;" horiz-adv-x="778" 
d="M234 911l-57 346.001l-2 29c-1.33301 1.33301 -2 9.66602 -2 24.999c0 62.667 23 98.667 69 108c3.33301 0.666992 6.83301 1.16699 10.5 1.5s7.16699 0.5 10.5 0.5c44.667 0 72 -23 82 -69l2 -2l2 -29l-2 -31v-2l-4 -26l-64 -351h-45zM605 911.001l-57.999 346.001
l-2 29c-1.33301 1.33301 -2 9.66602 -2 24.999c0 63.333 23.333 99.333 70 108h2c3.33301 0.666992 6.5 1.16699 9.5 1.5s5.83301 0.5 8.5 0.5c45.333 0 72.666 -23 81.999 -69l2 -2l3 -29l-3 -31v-2l-4 -26l-63 -351h-45z" />
    <glyph glyph-name="numbersign" unicode="#" 
d="M990 831l-41 -272h206v-117h-223l-67 -442h-123l67 442h-268l-65 -442h-123l65 442h-217v117h236l41 272h-226v117h242l63 416h123l-63 -416h268l62 416h122l-61 -416h199v-117h-217zM867 831h-267l-40 -272h266z" />
    <glyph glyph-name="dollar" unicode="$" 
d="M637 1620l75.999 0.00488281v-250c137.333 -11.333 243.666 -44 318.999 -98c88.667 -62.667 134 -132.334 136 -209.001c0 -61.333 -26.667 -101 -80 -119l-2 -2l-45 -6c-56.667 0 -92.334 25.333 -107.001 76l-4 39v16l2 16l4 35v6c0 72.667 -47.667 122 -143 148
l-80 14v-471l184 -33c64.667 -12.667 115.334 -27 152.001 -43c132 -54.667 198.667 -150.667 200 -288c0 -148 -76.333 -260 -229 -336c-84 -42.667 -186.333 -69.334 -307 -80.001v-260h-76v260c-353.333 34 -530.666 144 -531.999 330c0 69.333 28 115.666 84 138.999
c18.667 8 39 12 61 12c56 0 93.667 -24.667 113 -74c2.66699 -6.66699 4.83398 -14.334 6.50098 -23.001s2.83398 -18.667 3.50098 -30l-8 -67l-6 -60c0 -83.333 92.667 -131 278 -143v504c-250.667 35.333 -406.334 102.666 -467.001 201.999
c-24.667 40.667 -37 90.667 -37 150c0 137.333 64.333 242.333 193 315c85.333 49.333 189 76 311 80v250zM636.999 1286h-19.998c-26 0 -56 -4 -90 -12c-18.667 -4.66699 -36.167 -10.167 -52.5 -16.5s-31.166 -13.166 -44.499 -20.499c-58.667 -34 -92 -84 -100 -150
c-0.666992 -3.33301 -1.16699 -6.83301 -1.5 -10.5s-0.5 -7.5 -0.5 -11.5c0 -72.667 30.667 -128 92 -166l4 -2l29 -16c11.333 -6.66699 23.666 -12.334 36.999 -17.001s27.666 -8.66699 42.999 -12c8 -2 16.667 -3.83301 26 -5.5s19.666 -3.16699 30.999 -4.5l47 -8v452z
M713.001 608.005v-489c143.333 4 244.333 48.333 303 133c26 36.667 39 79 39 127c0 84 -51.333 145.333 -154 184l-75 23z" />
    <glyph glyph-name="percent" unicode="%" horiz-adv-x="567" 
d="M197 762h-166v167h166v-167zM520 929l-411 -966h-93l411 966h93zM508 -51h-167v166h167v-166z" />
    <glyph glyph-name="ampersand" unicode="&#x26;" horiz-adv-x="1638" 
d="M1616 938l0.000976562 -61.0029l-33 -7c-68.667 -14.667 -115 -37 -139 -67c-15.333 -22.667 -29 -54.667 -41 -96l-27 -101l-8 -28c-24.667 -91.333 -55.334 -168.666 -92.001 -231.999l-27 -43c50.667 -73.333 96.334 -127.333 137.001 -162
c53.333 -43.333 122.333 -65 207 -65l66 2v-78h-199c-91.333 0 -152 6 -182 18l-2 2l-39 19c-12.667 7.33301 -24.334 15.333 -35.001 24s-20.334 17.667 -29.001 27c-7.33301 8.66699 -15.166 18.667 -23.499 30s-16.833 24 -25.5 38c-64 -56 -122.667 -97.667 -176 -125
c-77.333 -40 -166.666 -60 -267.999 -60h-17c-138.667 4.66699 -254 39.667 -346 105c-90 62.667 -146.667 147.334 -170 254.001c-3.33301 13.333 -5.33301 27 -6 41c-0.666992 5.33301 -1.16699 11 -1.5 17s-0.5 12.667 -0.5 20c0 107.333 45 204 135 290l27 23
c43.333 37.333 98.666 67.333 165.999 90c9.33301 3.33301 19.666 6.83301 30.999 10.5s23.333 7.83398 36 12.501c-95.333 87.333 -143 184 -143 290c0 97.333 45.667 174.666 137 231.999c66.667 42 143.334 63 230.001 63c115.333 0 202.666 -38.667 261.999 -116
c31.333 -45.333 47 -94.666 47 -147.999c0 -98 -49.333 -182 -148 -252c-40.667 -30.667 -86.334 -53.667 -137.001 -69c50.667 -38.667 187.334 -182 410.001 -430l-244 282c44 -44 86.167 -89.5 126.5 -136.5s79.5 -95.5 117.5 -145.5
c62.667 110.667 95.334 224.667 98.001 342c0 46.667 -15.667 78.667 -47 96c-9.33301 4.66699 -21 9 -35 13s-30.333 8.33301 -49 13l-35 7v61h492zM713.001 898.997l61 27l4 2l10 6c67.333 38 110.333 97.333 129 178l7 59c0 70.667 -31 120.667 -93 150
c-26 12 -54 18 -84 18c-69.333 0 -120.333 -30 -153 -90l-2 -2c-12.667 -24.667 -19.667 -53.334 -21 -86.001c0 -27.333 4.33301 -52.666 13 -75.999c16 -53.333 59 -115.333 129 -186zM594.001 769.997c-163.333 -48 -245.333 -156 -246 -324c0 -146 52 -253 156 -321
c58.667 -38 127.667 -57 207 -57c137.333 0 258 55 362 165l8 11c-79.333 116 -160.333 219 -243 309c-42 46 -83.167 86.667 -123.5 122s-80.5 67 -120.5 95z" />
    <glyph glyph-name="quotesingle" unicode="'" horiz-adv-x="450" 
d="M212 975l-23 44.999l19 12c66.667 46.667 102.667 105.334 108 176.001c-18.667 -14.667 -34.334 -23.334 -47.001 -26.001c-6.66699 -1.33301 -12 -2 -16 -2c-53.333 0 -88.333 24.333 -105 73l-6 43c0 48.667 22.667 85.667 68 111c20.667 9.33301 40.334 14 59.001 14
c56 0 97.667 -28 125 -84c12.667 -24.667 19 -52.667 19 -84c0 -105.333 -52.667 -190.666 -158 -255.999z" />
    <glyph glyph-name="parenleft" unicode="(" horiz-adv-x="645" 
d="M538 -224c-39.333 20 -75.333 41.335 -108 64.002s-62 47 -88 73c-38 39.333 -71.833 82 -101.5 128s-54.834 96 -75.501 150c-42.667 105.333 -64 215.666 -64 330.999c0 84 10.333 164 31 240s51.334 148.333 92.001 217c40 67.333 86.167 125.5 138.5 174.5
s110.833 88.167 175.5 117.5v-18c-66 -38.667 -120.5 -90 -163.5 -154s-75.167 -145 -96.5 -243c-11.333 -50 -19.5 -100.667 -24.5 -152s-7.5 -104 -7.5 -158c0 -56.667 2.33301 -112.167 7 -166.5s11.334 -104.833 20.001 -151.5c6.66699 -36 14.167 -69.333 22.5 -100
s17.833 -57.334 28.5 -80.001c10 -22 22.333 -44.667 37 -68s29.667 -44.666 45 -63.999c16 -19.333 35.167 -39.333 57.5 -60s47.166 -40.334 74.499 -59.001v-21z" />
    <glyph glyph-name="parenright" unicode=")" horiz-adv-x="625" 
d="M102 1232c39.333 -20 75.333 -41.335 108 -64.002s62 -47 88 -73c38 -39.333 71.833 -82 101.5 -128s54.834 -96 75.501 -150c42.667 -105.333 64 -215.666 64 -330.999c0 -84 -10.333 -164 -31 -240s-51.334 -148.333 -92.001 -217
c-40 -67.333 -86.167 -125.5 -138.5 -174.5s-110.833 -88.167 -175.5 -117.5v18c66 38.667 120.5 90 163.5 154s75.167 145 96.5 243c11.333 50 19.5 100.667 24.5 152s7.5 104 7.5 158c0 56.667 -2.33301 112.167 -7 166.5s-11.334 104.833 -20.001 151.5
c-6.66699 36 -14.167 69.333 -22.5 100s-17.833 57.334 -28.5 80.001c-10 22 -22.333 44.667 -37 68s-29.667 44.666 -45 63.999c-16 19.333 -35.167 39.333 -57.5 60s-47.166 40.334 -74.499 59.001v21z" />
    <glyph glyph-name="asterisk" unicode="*" horiz-adv-x="901" 
d="M511 738l-61 160.001c-10.667 26 -16 47.333 -16 64c0 19.333 5.5 34.833 16.5 46.5s26.167 19.5 45.5 23.5l19 2c40.667 0 66 -15 76 -45l-1 2l4 -23c-0.666992 -9.33301 -2.16699 -20 -4.5 -32s-6.16602 -24.667 -11.499 -38l-55 -158l55 -40l108 133
c16 22 31 37 45 45c12.667 8 25.667 12 39 12c29.333 0 53 -19 71 -57c5.33301 -9.33301 8 -21.333 8 -36c0 -18 -8.83301 -33.333 -26.5 -46s-42.5 -22.334 -74.5 -29.001l-160 -31l-11 -66c12.667 -2 26.167 -4.33301 40.5 -7s29 -5.16699 44 -7.5l44.5 -7l41 -6.5
c32 -5.33301 56.667 -14.333 74 -27s26 -28 26 -46c0 -38 -16 -66.333 -48 -85c-10 -6.66699 -20.333 -10 -31 -10c-6.66699 0 -15.667 2.33301 -27 7c-0.666992 0 -1.16699 0.166992 -1.5 0.5s-0.833008 0.5 -1.5 0.5h1c-16.667 6 -35.334 22.333 -56.001 49l-110 126
l-61 -26l30.5 -80l29.5 -81c5.33301 -13.333 9.66602 -26.166 12.999 -38.499s5 -21.5 5 -27.5c0 -18.667 -5.16699 -33.5 -15.5 -44.5s-24.5 -18.5 -42.5 -22.5l-21 -2c-42 0 -68 15.667 -78 47l1 -3c-0.666992 3.33301 -1.5 6.83301 -2.5 10.5s-1.83301 7.16699 -2.5 10.5
c0.666992 7.33301 2.33398 17.333 5.00098 30s6.66699 26 12 40l54 158l-55 41l-108 -133h1c-19.333 -24 -37 -40.333 -53 -49h1c-8.66699 -5.33301 -19.334 -8 -32.001 -8c-30 0 -53 17.333 -69 52c-6.66699 12.667 -10 26 -10 40c0 38.667 33.333 63.667 100 75l161 32
l11 66l-41 6.5c-14.667 2.33301 -29.5 4.83301 -44.5 7.5s-29.833 5.16699 -44.5 7.5l-41 6.5c-32 5.33301 -56.5 14 -73.5 26s-25.5 27.333 -25.5 46c0 39.333 16 67.666 48 84.999c9.33301 6.66699 20.333 10 33 10l10 -2c9.33301 -1.33301 20.333 -6.83301 33 -16.5
s26.334 -22.5 41.001 -38.5l108 -126z" />
    <glyph glyph-name="plus" unicode="+" horiz-adv-x="875" 
d="M365 414v266h107v-266h267v-107h-267v-268h-107v268h-267v107h267z" />
    <glyph glyph-name="comma" unicode="," horiz-adv-x="383" 
d="M118 -175c25.333 18.667 48.668 40.332 70.001 64.999s37.5 49 48.5 73s15.833 46.167 14.5 66.5s-11.666 35.166 -30.999 44.499l-2 -1c-5.33301 -4.66699 -10.5 -8.5 -15.5 -11.5l-14.5 -8.5l-2 -2c-2.66699 -1.33301 -4.33398 -2.33301 -5.00098 -3l-8.5 -3.5
c-2.33301 -1 -4.5 -2.16699 -6.5 -3.5l-5 -1h-1c-1.33301 -0.666992 -5.33301 -1 -12 -1c-4.66699 0 -9 0.333008 -13 1s-7.66699 1.66699 -11 3c-2 0.666992 -4.33301 1.66699 -7 3c-0.666992 0.666992 -1.33398 1 -2.00098 1c-2 1.33301 -3.83301 2.66602 -5.5 3.99902
s-3.5 2.66602 -5.5 3.99902c-2.66699 2.66699 -4.33398 4.66699 -5.00098 6c-0.666992 0.666992 -1.16699 1.33398 -1.5 2.00098s-0.833008 1.33398 -1.5 2.00098s-1.66699 2.33398 -3 5.00098c-2 2.66699 -4.33301 7.33398 -7 14.001l-8 38v3
c0 3.33301 0.166992 6.16602 0.5 8.49902s0.833008 4.83301 1.5 7.5c0 2.66699 0.666992 6.66699 2 12c0.666992 1.33301 1 2.33301 1 3l1 2c0 1.33301 0.333008 2.33301 1 3c0 1.33301 0.666992 3.33301 2 6c0.666992 1.33301 1.16699 2.5 1.5 3.5
s0.833008 2.16699 1.5 3.5c1.33301 2.66699 3.33301 6 6 10c2 4 4.66699 7.66699 8 11l6 6c2 2 4 3.66699 6 5c1.33301 0.666992 2.16602 1.16699 2.49902 1.5s1.16602 0.833008 2.49902 1.5c1.33301 1.33301 2.83301 2.5 4.5 3.5s3.5 1.83301 5.5 2.5
c0.666992 0.666992 1 4.33398 1 11.001s0.333008 10 1 10v-20c1.33301 1.33301 3 2.16602 5 2.49902s3.66699 0.833008 5 1.5c0.666992 0.666992 1.66699 1 3 1l5 2h3c1.33301 0.666992 3 1 5 1c3.33301 0.666992 8.33301 1 15 1h13l9 -2
c7.33301 -1.33301 14 -3.33301 20 -6l6 -3c0.666992 -0.666992 2.33398 -1.66699 5.00098 -3c0.666992 -0.666992 2.33398 -1.66699 5.00098 -3c0.666992 -0.666992 1.33398 -1.16699 2.00098 -1.5s1.66699 -1.16602 3 -2.49902c12 -10 22 -23 30 -39l4 -11v1l2 -3
c1.33301 -5.33301 2.33301 -9 3 -11l7 -25l1 -10c0.666992 -1.33301 1 -4 1 -8c0 -0.666992 0.166992 -1.16699 0.5 -1.5s0.5 -1.16602 0.5 -2.49902v-33c0 -3.33301 -0.333008 -6 -1 -8v-5c-4 -24.667 -11.333 -49.334 -22 -74.001s-23.334 -48 -38.001 -70
s-31.167 -42 -49.5 -60s-37.166 -33 -56.499 -45z" />
    <glyph glyph-name="hyphenminus" unicode="-" horiz-adv-x="821" 
d="M739 414v-107h-641v107h641z" />
    <glyph glyph-name="period" unicode="." horiz-adv-x="375" 
d="M210 134l10 -24l6 -28c0 -30 -10.667 -53.333 -32 -70l-24 -11l-31 -5c-32 0 -55.333 9.33301 -70 28c-6.66699 12 -13.334 31.333 -20.001 58c0 34 11.667 58.333 35 73c10.667 8 28.334 13.333 53.001 16c30 0 54.333 -12.333 73 -37z" />
    <glyph glyph-name="slash" unicode="/" horiz-adv-x="878" 
d="M741 985l-460 -1057h-89l457 1057h92z" />
    <glyph glyph-name="zero" unicode="0" 
d="M680 1421c179.333 0 321.334 -76.334 426.001 -229.001c90 -133.333 135 -301.333 135 -504c0 -234 -63.333 -418.333 -190 -553c-101.333 -108 -225 -162 -371 -162c-176 0 -316 76 -420 228c-91.333 133.333 -137 300.333 -137 501l2 54
c11.333 178.667 63.333 332.334 156 461.001l41 51c84 90 190.333 140.333 319 151c6 0.666992 12.167 1.16699 18.5 1.5s13.166 0.5 20.499 0.5zM688.001 1323c-102 0 -181.001 -44.332 -237.001 -132.999l-2 -2l-27 -53c-32.667 -80 -56 -181.333 -70 -304
c-2.66699 -26.667 -4.66699 -52.5 -6 -77.5s-2 -49.5 -2 -73.5c0 -144 16.333 -267 49 -369c36 -112.667 100.333 -186.334 193 -221.001c30.667 -12 63.334 -18 98.001 -18c89.333 0 163.666 38.667 222.999 116c10.667 12.667 19.834 26 27.501 40s14.167 28.667 19.5 44
c44 108.667 66 252 66 430c0 238 -36.333 405.333 -109 502c-56 79.333 -130.333 119 -223 119z" />
    <glyph glyph-name="one" unicode="1" 
d="M943 1395l0.00195312 -1110c0 -96 14.333 -156.333 43 -181c23.333 -21.333 70.666 -34 141.999 -38l65 -5v-61h-698v61l67 5c71.333 4 124.666 23.667 159.999 59c18 18 27 72.667 27 164v784c0 86 -11.667 140 -35 162c-22 18 -67 28.333 -135 31l-82 4v61l190 25
c12.667 2 34.667 6.16699 66 12.5l125 26.5l-119 -27l119 27h65z" />
    <glyph glyph-name="two" unicode="2" 
d="M1180 383l-99.0029 -382.999h-995v143c138 82.667 246 155.667 324 219c56.667 46.667 111.667 98.667 165 156l29 31c163.333 181.333 245.333 348.666 246 501.999c0 110.667 -43 189.667 -129 237c-28 16.667 -62.333 27 -103 31l-47 4
c-96.667 0 -175.667 -28.667 -237 -86c-33.333 -31.333 -50.333 -65.333 -51 -102l4 -35c0.666992 -2 1.33398 -3.83301 2.00098 -5.5s1.33398 -3.16699 2.00098 -4.5l35 -50l18 -36l6 -29c0 -41.333 -20.333 -73.333 -61 -96c-18 -10 -36.667 -15 -56 -15
c-54 0 -94 28.667 -120 86c-5.33301 12.667 -9.66602 26 -12.999 40s-5.33301 29.333 -6 46c0 109.333 52.667 203 158 281c97.333 69.333 209.333 104 336 104c177.333 0 313 -51.667 407 -155c60 -66 92.333 -147.333 97 -244c0 -174 -119.667 -361.667 -359 -563l-37 -31
l-32 -25c-34 -25.333 -79.667 -57.333 -137 -96l-214 -139h465c102.667 0 173.667 15.667 213 47c22 18 42.667 45.333 62 82l28 59l21 47z" />
    <glyph glyph-name="three" unicode="3" 
d="M494 717l0.00390625 91.9971l102 -4h12c102.667 2.66699 184 30 244 82c38 34 63.333 96 76 186l-2 -35l2 35c0 108 -45.667 183.667 -137 227c-42.667 19.333 -90.667 29 -144 29c-99.333 0 -173 -26 -221 -78c-20.667 -20.667 -31 -45 -31 -73v-11l25 -61l10 -49
c0 -40 -21 -69.333 -63 -88c-16.667 -7.33301 -33.334 -11 -50.001 -11c-51.333 0 -87.333 25.333 -108 76c-6.66699 15.333 -10 34 -10 56l2 32c13.333 84.667 63.666 156.334 150.999 215.001c82 56 184.333 84 307 84c174.667 0 308.667 -45 402 -135
c48 -46 76.667 -99.333 86 -160c0.666992 -6 1.16699 -12.167 1.5 -18.5s0.5 -13.166 0.5 -20.499v-18c-6.66699 -79.333 -45.667 -147.666 -117 -204.999c-20.667 -15.333 -44.5 -29.5 -71.5 -42.5s-58.5 -24.167 -94.5 -33.5c-5.33301 -1.33301 -11 -2.83301 -17 -4.5
l-20 -5.5l-10 -2l-10 -2l76 -16c56.667 -14 103 -30.333 139 -49c2.66699 -1.33301 6 -3.66602 10 -6.99902c3.33301 -2.66699 8.33301 -5.33398 15 -8.00098l4 -2c95.333 -56.667 150.666 -138.667 165.999 -246c0.666992 -6.66699 1.16699 -13.667 1.5 -21
s0.5 -15.333 0.5 -24c0 -136 -64.333 -244.333 -193 -325c-106.667 -68.667 -239 -103 -397 -103c-154 0 -280.333 35 -379 105c-76.667 54.667 -119 118 -127 190l-2 21c0 58.667 23.333 101 70 127c17.333 9.33301 35.666 14 54.999 14c54.667 0 90 -24 106 -72l9 -43v-20
l-15 -49l-4 -23c0 -12.667 4 -26.334 12 -41.001c14 -24.667 33.333 -45 58 -61c56.667 -36.667 131.667 -55 225 -55c161.333 0 268 58.667 320 176c20 44.667 30 96.334 30 155.001c0 104.667 -30.667 186.667 -92 246l-2 2l-12 10c-51.333 40 -133.333 64 -246 72l33 -2
l-33 2z" />
    <glyph glyph-name="four" unicode="4" 
d="M944 1395v-897h311l-45 -117h-266v-86c0 -79.333 6 -134 18 -164c19.333 -39.333 57 -61 113 -65l67 -5v-61h-592v61l68 5c56 4 93.667 25.667 113 65c12 26 18 80.667 18 164v86h-641l-31 84l322 428l313 453l37 49h195zM749 498v723l-184 -256l-183 -250l-127 -172
l-32 -45h526z" />
    <glyph glyph-name="five" unicode="5" 
d="M1127 1468l-34.9971 -241h-700v-410c47.333 38 91.666 66.667 132.999 86c59.333 28.667 131.666 43 216.999 43c180 0 318 -57.333 414 -172c50 -59.333 82 -128.333 96 -207c4 -26 6 -54 6 -84c0 -169.333 -65.667 -301.666 -197 -396.999
c-103.333 -75.333 -230.333 -113 -381 -113c-172 0 -306.333 41 -403 123c-60 51.333 -90.667 110.666 -92 177.999c0 53.333 22.333 92.333 67 117c18 10 37.333 15 58 15c48 0 83.333 -21.333 106 -64c8.66699 -16.667 13 -33.667 13 -51v-8l-19 -68l-2 -22
c0 -42.667 34.333 -77 103 -103c42 -16 89 -24 141 -24c145.333 0 251.666 55 318.999 165c37.333 63.333 56 137.333 56 222c0 154.667 -54.667 263.667 -164 327c-53.333 31.333 -116.333 47 -189 47c-96 0 -175.667 -30.667 -239 -92
c-12.667 -11.333 -25.167 -24.5 -37.5 -39.5l-38.5 -48.5l-6 -8l-88 20v736h618c68.667 0 113 10 133 30l19 21l6.5 10.5l7.5 11.5h78z" />
    <glyph glyph-name="six" unicode="6" 
d="M362 682c90.667 122.667 201.333 191 332 205c11.333 1.33301 22.666 2.33301 33.999 3s22.666 1 33.999 1c164 0 293 -54 387 -162c70.667 -80.667 106 -177 106 -289c0 -140.667 -58.667 -256.667 -176 -348c-103.333 -79.333 -227.666 -119 -372.999 -119
c-156.667 0 -286.334 50 -389.001 150l-25.5 27.5c-8.33301 9 -16.166 18.167 -23.499 27.5c-86 116.667 -129 274.334 -129 473.001c0 181.333 35 337.666 105 468.999c70.667 130 177.667 219.667 321 269c62.667 21.333 126.334 32 191.001 32
c140.667 0 256.667 -36 348 -108c60 -46.667 90.667 -98.667 92 -156c0 -46.667 -22.667 -78 -68 -94l-39 -6c-60 0 -99.333 31.333 -118 94c-7.33301 23.333 -11 46 -11 68c-1.33301 26 -8 45 -20 57c-43.333 42 -107 63 -191 63c-208.667 0 -332 -147.333 -370 -442
l-6 -43l-2 -35zM714.999 784c-137.333 0 -234.334 -55.999 -291.001 -167.999c-28.667 -54.667 -43 -121.334 -43 -200.001c0 -152.667 54.667 -256.667 164 -312c48 -21.333 100.333 -32 157 -32c131.333 0 225 54.667 281 164c27.333 56 41 120.667 41 194
c0 146 -48.667 249 -146 309c-47.333 30 -101.666 45 -162.999 45z" />
    <glyph glyph-name="seven" unicode="7" 
d="M1246 1395l16 -129.002c-48 -54 -93 -110.167 -135 -168.5s-83 -119.833 -123 -184.5l-65.5 -113c-22.333 -39.333 -44.833 -81.333 -67.5 -126c-44.667 -92 -78.667 -175.333 -102 -250c-36.667 -114.667 -62.667 -256 -78 -424h-264c24.667 143.333 73 293 145 449
c128.667 282.667 309 542 541 778h-537c-102.667 0 -173.667 -11.667 -213 -35c-2.66699 -1.33301 -5.16699 -2.66602 -7.5 -3.99902s-4.5 -2.66602 -6.5 -3.99902l-11 -8c-29.333 -23.333 -52.333 -56.333 -69 -99l-2 -2l-17 -45h-65l65 365h996z" />
    <glyph glyph-name="eight" unicode="8" 
d="M873 791c66.667 -24.667 117.332 -45.333 151.999 -62c21.333 -11.333 41.333 -23.5 60 -36.5s36.334 -26.833 53.001 -41.5l4 -4c65.333 -59.333 98 -136.333 98 -231c0 -136 -60.667 -246.667 -182 -332c-105.333 -74 -233.666 -111 -384.999 -111
c-182 0 -324.667 48.667 -428 146c-72.667 68 -109 147.667 -109 239v21c4.66699 82.667 38 155 100 217c40 38.667 92 70.667 156 96l88 29l-106 49c-34.667 18 -63.334 40 -86.001 66c-52 56.667 -78 124.667 -78 204c0 128.667 58 229 174 301
c87.333 53.333 191 80 311 80c180.667 0 316.667 -45.667 408 -137l2 -2c52 -53.333 78 -115.333 78 -186c0 -85.333 -34.333 -156.333 -103 -213l-10 -9c-34 -24.667 -75.667 -45.667 -125 -63zM616.998 872.001l152.001 -47c126.667 28.667 205 91 235 187
c7.33301 25.333 11 50.333 11 75c0 92 -41.667 161.667 -125 209c-50.667 28.667 -108 43 -172 43c-120.667 0 -212.334 -36 -275.001 -108c-35.333 -41.333 -53 -87 -53 -137c0 -100 75.667 -174 227 -222zM815.999 610.001l-235 74c-160 -62.667 -247.667 -157 -263 -283
l-2 -45c0 -118.667 54.667 -204.667 164 -258c57.333 -28.667 127 -43 209 -43c138 0 241.667 41 311 123c40 46.667 60 100 60 160c0 129.333 -81.333 220 -244 272z" />
    <glyph glyph-name="nine" unicode="9" 
d="M1005 735c-20.667 -36 -40.667 -65.332 -60 -87.999c-20.667 -28 -48 -52.667 -82 -74c-72 -46 -160 -69 -264 -69c-164 0 -292.333 54 -385 162c-58.667 68.667 -91.334 150.334 -98.001 245.001l-1.5 28c-0.333008 6 -0.5 44 -0.5 114s58.667 151.667 176 245
c102.667 82 226.334 123 371.001 123c157.333 0 287.666 -51 390.999 -153c36.667 -36.667 66 -77.667 88 -123c52 -112 78 -250 78 -414c0 -178.667 -28.667 -327.334 -86 -446.001c-74 -151.333 -194.333 -248.333 -361 -291c-53.333 -14 -109.333 -21 -168 -21
c-136 0 -249.333 35 -340 105c-59.333 44.667 -89.333 93.667 -90 147c0 45.333 20 76.666 60 93.999c12.667 6 26.334 9 41.001 9c48.667 0 86 -24.667 112 -74l8 -23l9 -59c1.33301 -22.667 14 -43.667 38 -63l-14 10l14 -10c35.333 -23.333 83.333 -37 144 -41l31 -2
c143.333 0 247 62.667 311 188l14 31c36.667 87.333 58 221 64 401v49zM667 1329c-129.333 0 -223.667 -52.667 -283 -158l-2 -2c-31.333 -57.333 -47 -124.666 -47 -201.999c0 -150.667 49.667 -256.667 149 -318c49.333 -31.333 106 -47 170 -47
c133.333 0 227.666 56.667 282.999 170c28.667 56.667 43 125 43 205c0 151.333 -52 255.666 -156 312.999c-45.333 26 -97.666 39 -156.999 39z" />
    <glyph glyph-name="colon" unicode=":" horiz-adv-x="536" 
d="M259 748c36 0 63.667 -17.667 83 -53c8.66699 -16 13 -31 13 -45c0 -38 -17 -66.667 -51 -86c-18 -8 -34 -12 -48 -12c-39.333 0 -68.333 18 -87 54v-1c-3.33301 8 -6 15.5 -8 22.5s-3 14.5 -3 22.5c0 40 18.667 69 56 87c13.333 7.33301 28.333 11 45 11zM259 199
c36 0 63.666 -18.001 82.999 -54.001c8.66699 -16 13 -31 13 -45c0 -39.333 -18.333 -68.333 -55 -87c-7.33301 -3.33301 -14.666 -6.16602 -21.999 -8.49902s-14.666 -3.5 -21.999 -3.5c-38.667 0 -67.334 17.667 -86.001 53c-8 14.667 -12 30.667 -12 48
c0 38.667 18.667 67 56 85c12.667 8 27.667 12 45 12z" />
    <glyph glyph-name="semicolon" unicode=";" horiz-adv-x="655" 
d="M479 771c-25.333 -18.667 -48.667 -40.333 -70 -65s-37.5 -49 -48.5 -73s-15.833 -46.167 -14.5 -66.5s11.666 -35.166 30.999 -44.499l2 1c5.33301 4.66699 10.5 8.5 15.5 11.5l14.5 8.5l2 2c2.66699 1.33301 4.33398 2.33301 5.00098 3l8.5 3.5
c2.33301 1 4.5 2.16699 6.5 3.5l5 1h1c1.33301 0.666992 5.33301 1 12 1c4.66699 0 9 -0.333008 13 -1s7.66699 -1.66699 11 -3c2 -0.666992 4.33301 -1.66699 7 -3c0.666992 -0.666992 1.33398 -1 2.00098 -1c2 -1.33301 3.83301 -2.66602 5.5 -3.99902
s3.5 -2.66602 5.5 -3.99902c2.66699 -2.66699 4.33398 -4.66699 5.00098 -6c0.666992 -0.666992 1.16699 -1.33398 1.5 -2.00098s0.833008 -1.33398 1.5 -2.00098s1.66699 -2.33398 3 -5.00098c2 -2.66699 4.33301 -7.33398 7 -14.001l8 -38v-3
c0 -3.33301 -0.166992 -6.16602 -0.5 -8.49902s-0.833008 -4.83301 -1.5 -7.5c0 -2.66699 -0.666992 -6.66699 -2 -12c-0.666992 -1.33301 -1 -2.33301 -1 -3l-1 -2c0 -1.33301 -0.333008 -2.33301 -1 -3c0 -1.33301 -0.666992 -3.33301 -2 -6
c-0.666992 -1.33301 -1.16699 -2.5 -1.5 -3.5s-0.833008 -2.16699 -1.5 -3.5c-1.33301 -2.66699 -3.33301 -6 -6 -10c-2 -4 -4.66699 -7.66699 -8 -11l-6 -6c-2 -2 -4 -3.66699 -6 -5c-1.33301 -0.666992 -2.16602 -1.16699 -2.49902 -1.5s-1.16602 -0.833008 -2.49902 -1.5
c-1.33301 -1.33301 -2.83301 -2.5 -4.5 -3.5s-3.5 -1.83301 -5.5 -2.5c-0.666992 -0.666992 -1.33398 -1 -2.00098 -1c-1.33301 -1.33301 -3 -2.16602 -5 -2.49902s-3.66699 -0.833008 -5 -1.5c-0.666992 -0.666992 -1.66699 -1 -3 -1l-5 -2h-3
c-1.33301 -0.666992 -3 -1 -5 -1c-3.33301 -0.666992 -8.33301 -1 -15 -1h-13l-9 2c-7.33301 1.33301 -14 3.33301 -20 6l-6 3c-0.666992 0.666992 -2.33398 1.66699 -5.00098 3c-0.666992 0.666992 -2.33398 1.66699 -5.00098 3
c-0.666992 0.666992 -1.33398 1.16699 -2.00098 1.5s-1.66699 1.16602 -3 2.49902c-12 10 -22 23 -30 39l-4 11v-1l-2 3c-1.33301 5.33301 -2.33301 9 -3 11l-7 25l-1 10c-0.666992 1.33301 -1 4 -1 8c0 0.666992 -0.166992 1.16699 -0.5 1.5s-0.5 1.16602 -0.5 2.49902v33
c0 3.33301 0.333008 6 1 8v5c4 24.667 11.333 49.334 22 74.001s23.334 48 38.001 70s31.167 42 49.5 60s37.166 33 56.499 45zM413.999 46.001c-35.333 0 -62.668 17.667 -82.001 53c-9.33301 15.333 -14 30.333 -14 45c0 38 17.333 66.667 52 86
c16.667 8 32.334 12 47.001 12c38.667 0 67.667 -18 87 -54v1c3.33301 -8 6 -15.5 8 -22.5s3 -14.5 3 -22.5c0 -40 -18.667 -69 -56 -87c-13.333 -7.33301 -28.333 -11 -45 -11z" />
    <glyph glyph-name="less" unicode="&#x3c;" horiz-adv-x="1228" 
d="M151 737l1043 490v-178l-826 -385l826 -388v-176l-1043 490v147z" />
    <glyph glyph-name="equal" unicode="=" horiz-adv-x="932" 
d="M804 549v-122h-701v122h701zM804 301v-124h-701v124h701z" />
    <glyph glyph-name="greater" unicode="&#x3e;" horiz-adv-x="1228" 
d="M1191 737v-147l-1043 -490v176l826 388l-826 385v178z" />
    <glyph glyph-name="question" unicode="?" horiz-adv-x="1105" 
d="M511 238c50.667 0 88.333 -23.333 113 -70c10.667 -16.667 16 -37.334 16 -62.001c0 -53.333 -23.667 -92.666 -71 -117.999c-17.333 -9.33301 -37.333 -14.333 -60 -15c-54 0 -93.667 24.667 -119 74c-9.33301 20 -14 39.667 -14 59c0 52.667 24 91.667 72 117
c20.667 10 41.667 15 63 15zM555.999 356l-92.002 0.00292969l-3 59c-0.666992 12.667 -1 18.334 -1 17.001v14c0 89.333 22 157 66 203c2.66699 3.33301 5.5 6.66602 8.5 9.99902s6.83301 7 11.5 11h2l4 4l49 37l117 80c93.333 64 140.333 153.333 141 268
c0 142 -60 230.667 -180 266c-23.333 7.33301 -48.666 11.333 -75.999 12l-34 2c-112 0 -196 -29.333 -252 -88l-2 -2c-24.667 -24.667 -37 -53.334 -37 -86.001l2 -24l16 -41c6.66699 -14.667 12.167 -28.334 16.5 -41.001s7.16602 -24.334 8.49902 -35.001v10v-10
c0 -38 -20.667 -66.667 -62 -86c-15.333 -8 -31.666 -12 -48.999 -12c-55.333 0 -93.333 27.333 -114 82v2c-8.66699 17.333 -13 39 -13 65c0 24.667 4.33301 48.667 13 72c21.333 62.667 64.333 119.334 129 170.001c73.333 57.333 173 91.333 299 102l65 4l43 -2
c106.667 -6.66699 202.334 -35.334 287.001 -86.001c86 -52 138.667 -129.667 158 -233c1.33301 -9.33301 2.33301 -19 3 -29s1 -20.333 1 -31l-2 -26c-6 -75.333 -31.333 -142.333 -76 -201c-45.333 -53.333 -111.666 -95 -198.999 -125l-67 -24
c-83.333 -32 -136 -78 -158 -138c-16.667 -37.333 -24.334 -94 -23.001 -170z" />
    <glyph glyph-name="at" unicode="@" horiz-adv-x="1679" 
d="M1138 1118l147.999 0.000976562l-96 -520l-11 -86c0 -38 17.333 -63.333 52 -76h2l22 -4c30 0 61.333 12.333 94 37c26.667 20.667 52.667 46.667 78 78c58.667 78.667 88 168 88 268c0 147.333 -60 273 -180 377c-117.333 99.333 -258 149 -422 149
c-176 0 -327 -62 -453 -186c-127.333 -121.333 -191.333 -270 -192 -446c0 -180 63.333 -332.333 190 -457c124.667 -124 275.667 -186 453 -186l86 6c150 18.667 274.333 72.334 373 161.001l4 5l20 20c19.333 19.333 36.666 39.666 51.999 60.999l41 66h94l-33 -66
c-20 -40.667 -44.667 -76 -74 -106l-14 -14c-113.333 -116 -256 -187.667 -428 -215c-15.333 -3.33301 -30.166 -5.83301 -44.499 -7.5s-28.833 -2.83398 -43.5 -3.50098h-33c-200 0 -371.333 67 -514 201c-142 134.667 -217.667 298 -227 490v36c0 196 68 364.667 204 506
c138 140.667 306 216.667 504 228h39c192.667 0 356.667 -61 492 -183c128 -117.333 192.667 -258.666 194 -423.999c0 -124.667 -40.333 -234.334 -121 -329.001c-51.333 -61.333 -112 -108 -182 -140c-45.333 -20 -87 -30 -125 -30c-54.667 0 -96.334 27.333 -125.001 82
c-13.333 28.667 -20 58.667 -20 90v22c-91.333 -125.333 -198.666 -190 -321.999 -194c-109.333 0 -188.333 45 -237 135c-24.667 44.667 -37 98 -37 160c0 145.333 50.333 269.333 151 372c88.667 92 191.334 138 308.001 138c94.667 0 171.667 -31.667 231 -95z
M1112 971.001l-8.00098 8c-45.333 52 -104.333 78 -177 78c-99.333 0 -183.333 -54 -252 -162c-32.667 -50.667 -57 -114 -73 -190c-10 -43.333 -15 -83.666 -15 -120.999c0 -86 30.333 -142 91 -168c16.667 -8.66699 36.334 -13 59.001 -13c23.333 0 49.333 5.66699 78 17
c64 25.333 118.667 70.333 164 135l4 6c37.333 57.333 67.333 131.666 90 222.999l8.5 40l9.5 46l15 72z" />
    <glyph glyph-name="A" unicode="A" horiz-adv-x="1392" 
d="M759 1395l434 -1098c12.667 -32 23.834 -59.167 33.501 -81.5s18.167 -40.166 25.5 -53.499c26 -45.333 63 -74 111 -86h2c7.33301 -2 15.833 -4 25.5 -6l33.5 -7v-63h-575v63l59 11c30 5.33301 50 12 60 20c27.333 16.667 41.666 40.667 42.999 72
c0 16.667 -6.33301 42.667 -19 78l-4 10l-102 264h-529l-65 -176c-26 -65.333 -39 -116 -39 -152c0 -40 17 -71.333 51 -94c16.667 -8.66699 44 -16.667 82 -24l49 -9v-63h-549v63l23 5c64 12 112.333 38.333 145 79l8 11c17.333 22.667 38.833 61.667 64.5 117
s55.5 127.666 89.5 216.999l352 903h191zM388 606h461l-234 615z" />
    <glyph glyph-name="B" unicode="B" horiz-adv-x="1515" 
d="M63 1395l721 -0.00195312c194.667 0 336.667 -26 426 -78c80.667 -47.333 129.334 -115.666 146.001 -204.999c1.33301 -6.66699 2.33301 -14.167 3 -22.5s1 -17.166 1 -26.499c0 -84.667 -32.667 -151.667 -98 -201l-19 -14
c-7.33301 -5.33301 -14.833 -10.5 -22.5 -15.5s-15.834 -9.5 -24.501 -13.5c-11.333 -5.33301 -24.166 -10.5 -38.499 -15.5s-30.166 -10.167 -47.499 -15.5c-11.333 -4 -27 -8 -47 -12l82 -20l2 -2h2c38.667 -12.667 72 -26.334 100 -41.001l33 -21
c99.333 -61.333 151.333 -154.666 156 -279.999c0 -108 -39 -199 -117 -273l-2 -2l-35 -28c-98.667 -72.667 -256.334 -109 -473.001 -109h-748v63l52 7c61.333 8 99.333 32.333 114 73h2c11.333 32 17 82.667 17 152v805c0 103.333 -15.667 168 -47 194
c-16.667 14 -39.334 23.667 -68.001 29c-2.66699 0 -5.5 0.166992 -8.5 0.5s-6.16699 0.833008 -9.5 1.5l-52 6v64zM453 804.998l237 -0.00195312c229.333 0 372 41 428 123v2l2 2c20.667 32.667 31 74.334 31 125.001c0 172 -140.667 258 -422 258
c-129.333 0 -209.333 -14.333 -240 -43l-4 -4h-2c-20 -23.333 -30 -65.666 -30 -126.999v-336zM453 716.996l0.000976562 -402c0 -87.333 8 -142.333 24 -165c28.667 -44 109.334 -66 242.001 -66c171.333 0 295.666 28.667 372.999 86c69.333 52 107.333 128.333 114 229
v23c0 121.333 -46.333 206 -139 254l-14 6c-56.667 23.333 -176.334 35 -359.001 35h-241z" />
    <glyph glyph-name="C" unicode="C" horiz-adv-x="1515" 
d="M1342 1376l98.999 -493.002h-66l-98 170l-10 16l-2 2v2l-17 25c-80.667 116 -184.334 187.667 -311.001 215c-26 6.66699 -55.333 10 -88 10c-142 0 -258 -65 -348 -195c-82 -117.333 -123 -262.666 -123 -435.999c0 -193.333 48.333 -343.333 145 -450l4 -4
c68.667 -76.667 156 -128 262 -154c34.667 -8 68.334 -12 101.001 -12c46 0 95 8 147 24c73.333 23.333 137 55.666 191 96.999l16 12c15.333 12.667 30 25.5 44 38.5s27.333 26.833 40 41.5c10.667 11.333 21.5 24.5 32.5 39.5l35.5 50.5l88 -49
c-150.667 -234 -359 -351.667 -625 -353c-210 0 -384 70.333 -522 211c-134 134.667 -201 303.334 -201 506.001c0 200.667 64.333 369.334 193 506.001c90 97.333 250.333 172.333 481 225l-150 -22c50 14.667 100 22 150 22c166.667 0 305.334 -42.333 416.001 -127l6 -4
l43 86h67z" />
    <glyph glyph-name="D" unicode="D" horiz-adv-x="1638" 
d="M280 295l-0.000976562 805c0 103.333 -15.667 168 -47 194c-16.667 14 -39.334 23.667 -68.001 29c-2.66699 0 -5.5 0.166992 -8.5 0.5s-6.16699 0.833008 -9.5 1.5l-52 6v64h625c274.667 0 479.667 -54.667 615 -164l32 -29c100 -96 164.333 -224.333 193 -385
c2.66699 -13.333 4.83398 -26.666 6.50098 -39.999s2.83398 -26.666 3.50098 -39.999l2 -51c0 -171.333 -50.333 -319.333 -151 -444c-24 -28 -47.333 -52 -70 -72c-102.667 -88.667 -239.334 -142 -410.001 -160c-25.333 -2.66699 -52.166 -4.83398 -80.499 -6.50098
s-58.833 -2.83398 -91.5 -3.50098h-49h-625v63l52 7c61.333 8 99.333 32.333 114 73h2c11.333 32 17 82.667 17 152zM484.999 1122v-857.999c0 -72 9.33301 -117 28 -135c30.667 -30 101.667 -45 213 -45c212 0 369.667 64 473 192c87.333 109.333 131 250.666 131 423.999
c0 156 -37.333 287.333 -112 394c-102.667 144.667 -266 217 -490 217c-113.333 0 -186.333 -17 -219 -51c-16 -18 -24 -64 -24 -138z" />
    <glyph glyph-name="E" unicode="E" horiz-adv-x="1474" 
d="M1265 1395l141.001 -369l-65 -27c-20.667 24.667 -40.667 47.334 -60 68.001s-38.333 39.667 -57 57c-108.667 102.667 -237 161.334 -385 176.001l-121 7c-114 0 -184.333 -21.333 -211 -64c-14.667 -22.667 -22 -58 -22 -106v-349h155c92.667 0 155.667 20.667 189 62
v2c26 34 45.667 99.667 59 197h70v-613h-70c-12.667 131.333 -55.667 212.666 -129 243.999h-2c-32.667 13.333 -73 20 -121 20h-151v-432c0 -58.667 8.66699 -99.667 26 -123c32.667 -38 101 -57 205 -57c178 0 324.667 39.667 440 119c12.667 8 25 16.667 37 26
s24.333 19.666 37 30.999c58 53.333 118.667 120.333 182 201l64 -29l-187 -436h-1194v63l52 7c61.333 8 99.333 32.333 114 73h2c11.333 32 17 82.667 17 152v805c0 103.333 -15.667 168 -47 194c-16.667 14 -39.334 23.667 -68.001 29c-2.66699 0 -5.5 0.166992 -8.5 0.5
s-6.16699 0.833008 -9.5 1.5l-52 6v64h1170z" />
    <glyph glyph-name="F" unicode="F" horiz-adv-x="1310" 
d="M1224 1395l147.001 -351l-65 -32l-70 78c-124 125.333 -264.667 197 -422 215l-100 4c-100 0 -165 -15 -195 -45c-22.667 -22.667 -34 -74.667 -34 -156v-320h135c100.667 0 169 20.667 205 62l20 29c15.333 30.667 27 73.667 35 129v4v2l4 30h63v-606h-63l-4 31
c-11.333 70.667 -29 122 -53 154c-43.333 51.333 -112.333 77 -207 77h-135v-405c0 -108 17.667 -175 53 -201c17.333 -12 44 -20 80 -24l67 -7v-63h-590v63l52 7c61.333 8 99.333 32.333 114 73h2c11.333 32 17 82.667 17 152v805c0 103.333 -15.667 168 -47 194
c-16.667 14 -39.334 23.667 -68.001 29c-2.66699 0 -5.5 0.166992 -8.5 0.5s-6.16699 0.833008 -9.5 1.5l-52 6v64h1129z" />
    <glyph glyph-name="G" unicode="G" horiz-adv-x="1638" 
d="M1326 1395l125 -433.998l-78 -23c-34 48 -68.667 92.833 -104 134.5s-72.333 81.5 -111 119.5l49 -45c-4 2.66699 -7.33301 6 -10 10l-39 35c-105.333 87.333 -213.333 131 -324 131c-153.333 0 -272.666 -71.667 -357.999 -215c-61.333 -107.333 -94 -239 -98 -395v-25
c0 -218.667 61.333 -385.334 184 -500.001c87.333 -77.333 190.333 -116 309 -116h23c116 4.66699 213 40.667 291 108c12.667 12 22.667 22.333 30 31c44 56 66 122.333 66 199c0 83.333 -28.667 137.666 -86 162.999l-2 2c-27.333 13.333 -65 22.333 -113 27v62h559v-64
l-37 -6c-56.667 -8.66699 -91.334 -25 -104.001 -49v-2l-2 -2v-2l-2 -2c-16.667 -37.333 -25 -93.333 -25 -168v-369h-96l-65 141c-23.333 -17.333 -46.166 -33.5 -68.499 -48.5s-44.166 -28.167 -65.499 -39.5l-6 -2c-98 -52 -206.333 -78 -325 -78
c-203.333 0 -372 70.333 -506 211c-134 138 -201 310.667 -201 518c0 196 62 362.667 186 500c113.333 121.333 252.666 192.333 417.999 213c20.667 2.66699 42 4.66699 64 6h18c145.333 0 278.666 -41.667 399.999 -125l41 99h63z" />
    <glyph glyph-name="H" unicode="H" horiz-adv-x="1638" 
d="M485 795l733 -0.00195312v305c0 103.333 -15.667 168 -47 194c-16.667 14 -39.334 23.667 -68.001 29l-18 2l-52 6v64h574v-64l-51 -6c-61.333 -8 -99.666 -32.667 -114.999 -74c-12 -30 -18 -80.333 -18 -151v-805c0 -104 15.667 -169 47 -195
c16.667 -13.333 39.667 -22.666 69 -27.999h2l15 -2l51 -7v-63h-574v63l52 7c61.333 8 99.333 32.333 114 73h2c11.333 32 17 82.667 17 152v412h-733v-412c0 -104 15.667 -169 47 -195c16.667 -13.333 39.667 -22.666 69 -27.999l17 -2l51 -7v-63h-574v63l52 7
c61.333 8 99.333 32.333 114 73h2c11.333 32 17 82.667 17 152v805c0 103.333 -15.667 168 -47 194c-16.667 14 -39.334 23.667 -68.001 29c-2.66699 0 -5.5 0.166992 -8.5 0.5s-6.16699 0.833008 -9.5 1.5l-52 6v64h574v-64l-51 -6
c-61.333 -8 -99.666 -32.667 -114.999 -74c-12 -30 -18 -80.333 -18 -151v-305z" />
    <glyph glyph-name="I" unicode="I" horiz-adv-x="696" 
d="M474 1100v-805.002c0 -101.333 13.667 -165 41 -191c18 -16 48.667 -27.333 92 -34l41 -7v-63h-553v63l41 7c60 8.66699 98.333 31 115 67c12.667 27.333 19 80 19 158v805c0 100.667 -13.667 164 -41 190c-17.333 16.667 -48.333 28.334 -93 35.001l-41 6v64h553v-64
l-41 -6c-60 -9.33301 -98 -32 -114 -68c-12.667 -27.333 -19 -79.666 -19 -156.999z" />
    <glyph glyph-name="J" unicode="J" horiz-adv-x="1228" 
d="M953 1100l-0.000976562 -568c0 -161.333 -12.333 -267 -37 -317c-7.33301 -16 -16.333 -31.667 -27 -47l-4 -6l-4 -6c-65.333 -87.333 -169 -144 -311 -170c-20.667 -4.66699 -41.667 -8 -63 -10s-42.666 -3 -63.999 -3c-131.333 0 -242 30 -332 90
c-88.667 60.667 -146 140.667 -172 240l-2 10.5l-2 10.5c-4 18.667 -6 37.667 -6 57c0 80 29.333 135.333 88 166c20.667 10.667 44.667 16 72 16c59.333 0 95.333 -25.333 108 -76l4 -34c0 -25.333 -7.33301 -47.333 -22 -66l-29 -33l-29 -32
c-7.33301 -11.333 -11.333 -28 -12 -50c0 -64 39 -116.333 117 -157c52.667 -28.667 112 -43 178 -43c133.333 0 226.333 42.333 279 127c36.667 60 57.667 157.667 63 293l1.5 109c0.333008 24 0.5 190.333 0.5 499c0 103.333 -15.667 168 -47 194
c-16.667 14 -39.334 23.667 -68.001 29l-18 2l-51 6v64h573v-64l-51 -6c-61.333 -8 -99.666 -32.667 -114.999 -74c-12 -30 -18 -80.333 -18 -151z" />
    <glyph glyph-name="K" unicode="K" horiz-adv-x="1474" 
d="M1568 0l-631.003 -0.000976562v63l37 5c80.667 6.66699 122.334 34 125.001 82c0 24.667 -15.667 62.667 -47 114l-330 527l-237 -211v-285c0 -109.333 19 -177 57 -203c18 -12 43.333 -19.333 76 -22l84 -7v-63h-607v63l52 7c61.333 8 99.333 32.333 114 73h2
c11.333 32 17 82.667 17 152v805c0 103.333 -15.667 168 -47 194c-16.667 14 -39.334 23.667 -68.001 29c-2.66699 0 -5.5 0.166992 -8.5 0.5s-6.16699 0.833008 -9.5 1.5l-52 6v64h607v-64l-84 -6c-61.333 -5.33301 -100.333 -32.666 -117 -81.999
c-10.667 -29.333 -16 -77 -16 -143v-393l360 325l12 10l47 41c70 62 109 105 117 129v2l4 31c0 40.667 -23.667 66.667 -71 78c-13.333 2.66699 -29.333 4.66699 -48 6l-20 2v64h586v-64l-15 -4c-87.333 -16 -195.666 -78.667 -324.999 -188l-246 -215l389 -635
c18.667 -28 35.834 -52.5 51.501 -73.5s29.834 -38.833 42.501 -53.5c46 -48 112.333 -81.667 199 -101v-61z" />
    <glyph glyph-name="L" unicode="L" horiz-adv-x="1228" 
d="M1320 438l-164 -438h-1061v63l52 7c61.333 8 99.333 32.333 114 73h2c11.333 32 17 82.667 17 152v805c0 103.333 -15.667 168 -47 194c-16.667 14 -39.334 23.667 -68.001 29c-2.66699 0 -5.5 0.166992 -8.5 0.5s-6.16699 0.833008 -9.5 1.5l-52 6v64h588v-64l-65 -6
c-61.333 -5.33301 -100.333 -31.333 -117 -78c-10.667 -28 -16 -77 -16 -147v-848c0 -61.333 8 -102.333 24 -123c26.667 -34 77.334 -51 152.001 -51c44 0 89.667 6 137 18c84.667 22 164.667 61.667 240 119l6 4c32 24.667 58.667 48.667 80 72c18 18 38.5 41.5 61.5 70.5
s48.833 63.5 77.5 103.5z" />
    <glyph glyph-name="M" unicode="M" horiz-adv-x="1884" 
d="M955 0l-92.001 -0.000976562l-469 1274v-979c0 -108 17.667 -175 53 -201c17.333 -12 44 -20 80 -24l71 -7v-63h-518v63l64 7c61.333 5.33301 100 31 116 77c2.66699 6.66699 4.83398 13.5 6.50098 20.5s3.16699 14.5 4.5 22.5l6 105v805c0 103.333 -15.667 168 -47 194
c-16.667 14 -39.334 23.667 -68.001 29c-2.66699 0 -5.5 0.166992 -8.5 0.5s-6.16699 0.833008 -9.5 1.5l-51 6v64h477l393 -1055l428 1055h467v-64l-51 -6c-61.333 -8 -99.666 -32.667 -114.999 -74c-12 -30 -18 -80.333 -18 -151v-805c0 -104 15.667 -169 47 -195
c16.667 -13.333 39.667 -22.666 69 -27.999h2l15 -2l51 -7v-63h-574v63l52 7c61.333 8 99.333 32.333 114 73h2c11.333 32 17 82.667 17 152v954z" />
    <glyph glyph-name="N" unicode="N" horiz-adv-x="1515" 
d="M381 1241l0.000976562 -946c0 -108 18 -175 54 -201c17.333 -12 43.666 -20 78.999 -24l72 -7v-63h-506v63l51 7c62 8 100.333 32.333 115 73h2c11.333 32 17 82.667 17 152v805c0 103.333 -16 168 -48 194c-16 14 -38.333 23.667 -67 29l-19 2l-51 6v64h457l668 -1104
v809c0 108 -18 174.667 -54 200h-2c-16.667 12.667 -42.667 21 -78 25l-71 6v64h506v-64l-52 -6c-60.667 -8 -98.667 -32.667 -114 -74c-12.667 -28 -19 -78.333 -19 -151v-1100h-180z" />
    <glyph glyph-name="O" unicode="O" horiz-adv-x="1638" 
d="M873 1421c214.667 0 391 -71.666 529 -214.999c130.667 -136.667 196 -308 196 -514c0 -177.333 -50.333 -327.333 -151 -450c-106.667 -130 -247.334 -214 -422.001 -252c-28 -5.33301 -55.167 -9.5 -81.5 -12.5s-52.5 -4.5 -78.5 -4.5
c-207.333 0 -380.666 69.667 -519.999 209s-209 312.666 -209 519.999c0 196.667 69 364.667 207 504c138 138 307.333 209.667 508 215h22zM869 1323c-170.667 0 -301 -72.334 -391 -217.001c0 -1.33301 -0.666992 -2.66602 -2 -3.99902
c-65.333 -107.333 -98 -241.333 -98 -402c0 -237.333 64.667 -412 194 -524c83.333 -69.333 181.666 -104 294.999 -104c172 0 303 72.333 393 217c64.667 104.667 97 235 97 391c0 249.333 -66.333 430.333 -199 543c-1.33301 0 -2.66602 0.666992 -3.99902 2l-2 2h-2
c-78 64 -171.667 96 -281 96z" />
    <glyph glyph-name="P" unicode="P" 
d="M485 596l0.000976562 -301c0 -109.333 19 -177 57 -203c18 -12 43.333 -19.333 76 -22l76 -7v-63h-599v63l52 7c61.333 8 99.333 32.333 114 73h2c11.333 32 17 82.667 17 152v805c0 103.333 -15.667 168 -47 194c-16.667 14 -39.334 23.667 -68.001 29
c-2.66699 0 -5.5 0.166992 -8.5 0.5s-6.16699 0.833008 -9.5 1.5l-52 6v64h680c212 0 361 -59.333 447 -178c43.333 -61.333 65 -132.333 65 -213c0 -113.333 -40 -209 -120 -287l-2 -2l-27 -22.5c-8.66699 -7 -17.667 -13.167 -27 -18.5c-85.333 -52 -198 -78 -338 -78
h-288zM485.001 684h256.001c114.667 0 200 30.667 256 92l2 2l2 2c52 56.667 78 129 78 217c0 90.667 -26 164 -78 220c-56 61.333 -150.333 92 -283 92c-114.667 0 -184.334 -13 -209.001 -39c-16 -17.333 -24 -48 -24 -92v-494z" />
    <glyph glyph-name="Q" unicode="Q" horiz-adv-x="1679" 
d="M1428 186c44 -54.667 70.665 -103.001 79.998 -145.001l6 -55c0 -115.333 -67.333 -208.333 -202 -279c-121.333 -64 -270.333 -96 -447 -96c-195.333 0 -355.666 36.667 -480.999 110c-83.333 48.667 -125.666 102.667 -126.999 162c0 45.333 24.667 74.666 74 87.999
l43 6c64 0 103.333 -26.333 118 -79l7 -41c0.666992 -38.667 13.667 -66 39 -82h2l4 -2v-2l34 -17c51.333 -26 125.333 -42.333 222 -49l63 -2c172 0 302.333 40.333 391 121c52 46.667 78.667 100.667 80 162l-4 34c-4 16.667 -13 38.667 -27 66
c-127.333 -75.333 -268.333 -113 -423 -113c-205.333 0 -379.666 67.667 -522.999 203c-140.667 133.333 -214.334 295.333 -221.001 486v24c0 204.667 70.333 377.334 211 518.001s321 213 541 217c219.333 0 398 -72.333 536 -217
c131.333 -137.333 197 -308.666 197 -513.999c0 -177.333 -52 -331 -156 -461zM1299 284.999l18.998 49.001c40.667 107.333 61 228.666 61 363.999c0 224 -61.333 393.333 -184 508c-85.333 78 -187.666 117 -306.999 117c-166 0 -296.333 -70.333 -391 -211
c-1.33301 -1.33301 -2 -2.66602 -2 -3.99902c-78 -115.333 -117 -259.333 -117 -432c0 -145.333 30.667 -271.666 92 -378.999l4 -6v-2c52 -86 116.333 -146 193 -180h2c15.333 -7.33301 31.333 -13.833 48 -19.5s34.667 -10.834 54 -15.501
c6.66699 -2.66699 14.334 -4.66699 23.001 -6c5.33301 -1.33301 2.5 1.5 -8.5 8.5s-30.167 40.167 -57.5 99.5l20 -63c-13.333 17.333 -20 38.333 -20 63c0 65.333 43.667 113 131 143c45.333 16.667 99.333 25 162 25l86 -4c20.667 -2.66699 45 -7.83398 73 -15.501
s60.333 -18.167 97 -31.5zM1215 172l-16 8c-50.667 26 -106 41 -166 45h-29c-87.333 0 -143 -20.333 -167 -61c-7.33301 -9.33301 -11 -19.666 -11 -30.999c0 -34.667 29.333 -56.334 88 -65.001l41 -2l56 4c80 12.667 148 46.667 204 102z" />
    <glyph glyph-name="R" unicode="R" horiz-adv-x="1474" 
d="M1023 678l340.002 -480.999l29 -35c48 -51.333 111.333 -84.333 190 -99v-63h-342l-460 657h-295v-362c0 -108 17.667 -175 53 -201c17.333 -12 44 -20 80 -24l73 -7v-63h-596v63l52 7c61.333 8 99.333 32.333 114 73h2c11.333 32 17 82.667 17 152v805
c0 103.333 -15.667 168 -47 194c-16.667 14 -39.334 23.667 -68.001 29c-2.66699 0 -5.5 0.166992 -8.5 0.5s-6.16699 0.833008 -9.5 1.5l-52 6v64h834c207.333 0 348.666 -58.667 423.999 -176c32.667 -50.667 49 -109.667 49 -177c0 -110 -42.333 -199.333 -127 -268
l-26 -20c-14.667 -10.667 -29.667 -19.834 -45 -27.501s-31.333 -14.167 -48 -19.5s-36 -10.5 -58 -15.5s-47 -9.5 -75 -13.5zM485.002 745.001l343.999 -0.000976562c110.667 0 192.334 21.333 245.001 64c70 55.333 105.667 130.333 107 225c0 184.667 -131 277 -393 277
c-116 0 -199.333 -11 -250 -33c-34 -15.333 -51.667 -44.666 -53 -87.999v-445z" />
    <glyph glyph-name="S" unicode="S" horiz-adv-x="1351" 
d="M1104 1395l125.004 -370.999l-65 -25c-141.333 216 -309.333 324 -504 324c-114 0 -199.333 -34 -256 -102c-30 -35.333 -45 -74.333 -45 -117c0 -80.667 49 -141.334 147 -182.001c5.33301 -2.66699 11.166 -5 17.499 -7l19.5 -6l94 -28l256 -62
c172 -40.667 288 -94 348 -160c13.333 -12 25 -26.333 35 -43l2 -4c28.667 -42.667 45 -100 49 -172v-26c0 -128.667 -59.333 -236 -178 -322l-4 -4c-106.667 -76.667 -235.667 -115 -387 -115c-162 0 -303.333 43 -424 129l-39 -102h-76l-133 469l76 25
c122.667 -236.667 283 -374 481 -412c31.333 -6.66699 66.333 -10 105 -10c130.667 0 231.667 41.667 303 125c45.333 51.333 68 111.333 68 180c0 80.667 -37.667 140 -113 178c-18.667 10.667 -41.334 20.5 -68.001 29.5s-57.334 17.5 -92.001 25.5l-274 70
c-159.333 40.667 -270 92 -332 154c-48 50 -77.333 110 -88 180c-0.666992 6.66699 -1.16699 13.334 -1.5 20.001s-0.5 13.667 -0.5 21v18c6.66699 97.333 53.667 180.666 141 249.999c85.333 65.333 194.666 98 327.999 98c147.333 0 276.333 -33.333 387 -100l24 74h74z
" />
    <glyph glyph-name="T" unicode="T" 
d="M1191 1395l114 -360.998l-71 -24c-116.667 204 -267 306.333 -451 307c-45.333 0 -71.333 -13 -78 -39l-6 -51v-932c0 -109.333 19.333 -177 58 -203l2 -2c16.667 -10.667 41 -17.334 73 -20.001l80 -7v-63h-631v63l80 7c62 5.33301 101 32.666 117 81.999
c10.667 29.333 16 77 16 143v940c0 44.667 -17 70.667 -51 78l-39 4c-169.333 0 -308.333 -84 -417 -252l-33 -55l-68 24l117 361h1188z" />
    <glyph glyph-name="U" unicode="U" horiz-adv-x="1597" 
d="M1386 1100v-682c0 -125.333 -28.667 -221.666 -86 -288.999c-84.667 -94.667 -223.334 -146.667 -416.001 -156h-55c-163.333 0 -292.333 31 -387 93c-93.333 58.667 -149.333 131.667 -168 219c-7.33301 30 -11.333 63.333 -12 100v29v686c0 103.333 -16 168 -48 194
c-16 14 -38.333 23.667 -67 29l-19 2l-51 6v64h598v-64l-76 -6c-61.333 -5.33301 -100 -32.666 -116 -81.999c-11.333 -32.667 -17 -80.334 -17 -143.001v-547c0 -156.667 14.333 -263.334 43 -320.001c0.666992 -2.66699 2.66699 -6 6 -10
c54.667 -100.667 169.667 -151 345 -151c156.667 0 267.667 38 333 114c40.667 48 64.667 122 72 222l3 112c0.666992 24.667 1 218 1 580c0 108 -17.667 174.667 -53 200h-2c-16.667 12.667 -42.667 21 -78 25l-68 6v64h502v-64l-51 -6
c-61.333 -8 -99.666 -32.667 -114.999 -74c-12 -30 -18 -80.333 -18 -151z" />
    <glyph glyph-name="V" unicode="V" horiz-adv-x="1433" 
d="M723 227l351.999 893.003l6 17c9.33301 28 14 51 14 69c0 70.667 -51.667 111.667 -155 123l-33 2v64h547v-64c-81.333 -8 -137.333 -27 -168 -57c-6.66699 -6.66699 -12.834 -13.667 -18.501 -21s-11.167 -15.333 -16.5 -24l-2 -2v-2
c-9.33301 -14 -19.666 -32.5 -30.999 -55.5s-23.666 -50.5 -36.999 -82.5l-448 -1087h-123l-461 1118c-18.667 46 -35.667 82.333 -51 109c-29.333 48.667 -70.333 79.334 -123 92.001c-6.66699 1.33301 -13.834 2.66602 -21.501 3.99902s-16.167 2.66602 -25.5 3.99902
l-20 4v64h612v-64c-26.667 -0.666992 -50.167 -2.33398 -70.5 -5.00098s-37.166 -6.33398 -50.499 -11.001l6 2h-2l-4 -2c-32.667 -10 -51 -34.667 -55 -74l8 -51l10 -33z" />
    <glyph glyph-name="W" unicode="W" horiz-adv-x="1966" 
d="M1353 0l-119.999 0.00195312l-301 895l-299 -895h-121l-385 1106l-45 113c-22.667 43.333 -52.667 72.666 -90 87.999c-5.33301 2 -11.5 4.16699 -18.5 6.5l-22.5 7.5l-43 10v64h557v-64c-83.333 -5.33301 -131.333 -24.333 -144 -57l-4 -33
c0 -22.667 4 -44.334 12 -65.001l299 -902l244 781l-4 12c-32.667 112 -74.334 185.667 -125.001 221h-2c-27.333 18 -63.333 32.333 -108 43v64h561v-64l-56 -8c-2 0 -4.33301 -0.166992 -7 -0.5s-5.66699 -0.833008 -9 -1.5l-14 -4
c-41.333 -11.333 -62.666 -38 -63.999 -80c0 -17.333 2.66699 -33 8 -47l299 -911l275 851l8 37l4 39c0 47.333 -22.333 82.333 -67 105l-7 2l-2 2c-2.66699 0 -4.66699 0.666992 -6 2l-10 2l-78 12v64h516v-64c-72 -4 -123.667 -25 -155 -63
c-6.66699 -7.33301 -12.834 -16 -18.501 -26s-11.167 -20.667 -16.5 -32l-2 -2l-41 -102z" />
    <glyph glyph-name="X" unicode="X" horiz-adv-x="1474" 
d="M827 760l393.001 -512.001c17.333 -22.667 33.5 -42.667 48.5 -60s28.833 -31.666 41.5 -42.999c48.667 -43.333 117 -70.666 205 -81.999v-63h-672v63l19 3l12 2c89.333 8 134.333 34.333 135 79v9c-2.66699 24.667 -19 58 -49 100l-286 383l-314 -389l-20 -39l-9 -39
c0 -66 47.333 -102.333 142 -109h12v-63h-577v63l24 9c84.667 28.667 153 64.667 205 108c40.667 34 91 87.333 151 160l324 383l-352 448c-24.667 34 -49.334 62 -74.001 84c-44.667 42.667 -106 68 -184 76v64h635v-64c-96.667 -4 -148.667 -25.667 -156 -65l-2 -13
c0 -18.667 8.33301 -40.334 25 -65.001v-2l12 -15l254 -331l239 307l19 29c6.66699 10.667 12 21.334 16 32.001l6 35c0 57.333 -47.667 86.666 -143 87.999v64h551v-64c-82 -13.333 -145 -35 -189 -65c-40 -28 -98 -86.667 -174 -176z" />
    <glyph glyph-name="Y" unicode="Y" horiz-adv-x="1310" 
d="M696 586l0.000976562 -290.998c0 -109.333 19 -177 57 -203l2 -2c18 -10.667 42.667 -17.334 74 -20.001l84 -7v-63h-639v63l84 7c61.333 5.33301 100.333 32.666 117 81.999c10.667 29.333 16 77 16 143v287l-342 544c-36.667 62 -67.334 105 -92.001 129
c-34 36 -83.667 61.333 -149 76v64h583v-64c-94 -12 -146.333 -32.333 -157 -61l-3 -2l-2 -21c0 -16 10.333 -40.333 31 -73l289 -467l291 446c4 4.66699 8 10.667 12 18c6.66699 14.667 12 27.667 16 39l5 31c0 34 -24 58 -72 72l-2 2l-76 16v64h510v-64
c-84 -16 -183.667 -91.667 -299 -227l102 135c-27.333 -27.333 -61.333 -72.333 -102 -135z" />
    <glyph glyph-name="Z" unicode="Z" horiz-adv-x="1310" 
d="M1353 420l-146.999 -420.001h-1137l-39 63l965 1221l-127 21l-119 4c-174.667 0 -316.667 -43.667 -426 -131c-37.333 -31.333 -74 -68.333 -110 -111c-2 -2 -4 -4.16699 -6 -6.5s-4.33301 -4.83301 -7 -7.5c-4.66699 -5.33301 -9.33398 -11.166 -14.001 -17.499
l-14 -19.5l-12 -17l-68 25l149 371h1014l23 -76l-959 -1215l168 -14c13.333 -0.666992 28 -1.16699 44 -1.5s32.667 -0.5 50 -0.5c256 0 442.333 51.333 559 154c58.667 50.667 108.667 118.667 150 204z" />
    <glyph glyph-name="bracketleft" unicode="[" horiz-adv-x="571" 
d="M459 -284h-319v1465h319v-53h-208v-1360h208v-52z" />
    <glyph glyph-name="backslash" unicode="\" horiz-adv-x="704" 
d="M185 985l457 -1057h-89l-460 1057h92z" />
    <glyph glyph-name="bracketright" unicode="]" horiz-adv-x="614" 
d="M141 1182h319v-1465h-319v52h208v1360h-208v53z" />
    <glyph glyph-name="asciicircum" unicode="^" horiz-adv-x="1228" 
d="M1189 651h-177l-337 637l-338 -637h-177l429 828h172z" />
    <glyph glyph-name="underscore" unicode="_" horiz-adv-x="1024" 
d="M0 -195h1024v-122h-1024v122z" />
    <glyph glyph-name="grave" unicode="`" horiz-adv-x="450" 
d="M343 1421l22.002 -45l-16 -12c-68 -48 -105 -106.667 -111 -176c19.333 14 33.666 22.667 42.999 26c3.33301 0 11 1 23 3c50.667 0 84 -24 100 -72l2 -2v-2l7 -43c0 -48.667 -22.667 -85.667 -68 -111c-20.667 -9.33301 -40.334 -14 -59.001 -14
c-53.333 0 -94.333 28 -123 84c-14 26 -21 54.667 -21 86c0 104 49.333 187.333 148 250c8 5.33301 16.5 10.333 25.5 15s18.167 9 27.5 13z" />
    <glyph glyph-name="a" unicode="a" horiz-adv-x="1187" 
d="M798 582l-0.00292969 162.998c0 83.333 -42.333 139.333 -127 168c-35.333 11.333 -72.333 17 -111 17c-90 0 -153.333 -21.333 -190 -64c-11.333 -13.333 -17 -27.666 -17 -42.999l2 -57c0 -43.333 -19.667 -74.666 -59 -93.999c-13.333 -6.66699 -28.333 -10 -45 -10
c-42 0 -72 18.333 -90 55l-8 35c0 17.333 4 35.666 12 54.999c26 62.667 77.333 111 154 145c23.333 10.667 47.833 19.834 73.5 27.501s52.834 14.167 81.501 19.5c43.333 8.66699 85 13 125 13l82 -6c38 -5.33301 73 -13.5 105 -24.5s62 -24.167 90 -39.5
c66.667 -36.667 104 -94.667 112 -174l4 -59v-435c0 -67.333 5.66699 -114.333 17 -141l2 -2c16.667 -38 48.667 -57 96 -57c16.667 0 32.334 2.66699 47.001 8c12.667 6.66699 27.667 17.667 45 33l39 -54c-54.667 -52.667 -125 -79 -211 -79c-108 0 -181 44.333 -219 133
l-10 24c-69.333 -57.333 -132.333 -98.333 -189 -123c-54 -22.667 -116 -34 -186 -34c-120 0 -209.333 38 -268 114c-31.333 41.333 -47 88 -47 140c0 138.667 114.667 236.667 344 294l57 15l22.5 4l22.5 4c12.667 1.33301 26.334 3.33301 41.001 6zM797.997 230.998v279
c-278.667 -24.667 -436.334 -93 -473.001 -205c-5.33301 -17.333 -8 -33.666 -8 -48.999c0 -68.667 29.333 -119.334 88 -152.001c26.667 -16 56.667 -24 90 -24c36.667 0 72 6 106 18c58.667 20.667 124.334 65 197.001 133z" />
    <glyph glyph-name="b" unicode="b" 
d="M367 1468v-604.001l44.5 38c14.333 12 28.833 22.667 43.5 32c76 52 165.333 78 268 78c154 0 275.667 -58.667 365 -176c68 -91.333 102 -200.666 102 -327.999c0 -177.333 -58.667 -316 -176 -416c-89.333 -73.333 -196 -110 -320 -110c-60 0 -116.667 8.66699 -170 26
c-54 21.333 -116.667 58.333 -188 111l-49 -119h-115v1102c0 108 -13.667 174 -41 198l-2 3c-16.667 14.667 -46.667 24 -90 28l-45 4v64l49 6c54.667 6.66699 101 15.667 139 27l103 36h82zM367 753.999l0.000976562 -559.002c76.667 -76.667 170 -115 280 -115
c130 0 224.333 59.333 283 178c34 66.667 51 148 51 244c0 178 -52 300.667 -156 368c-42.667 28.667 -94.334 43 -155.001 43c-71.333 0 -134.333 -18.333 -189 -55c-17.333 -11.333 -35.333 -25.666 -54 -42.999s-38.667 -37.666 -60 -60.999z" />
    <glyph glyph-name="c" unicode="c" horiz-adv-x="1064" 
d="M999 258l58.9971 -37.001c-95.333 -149.333 -227.666 -228.333 -396.999 -237l-43 -2c-175.333 0 -310 62.667 -404 188c-66.667 88.667 -100 197.334 -100 326.001c0 148.667 44.333 271.334 133 368.001l12 13c86 90 204 135 354 135
c120.667 0 221.334 -29.333 302.001 -88c66.667 -51.333 104.667 -107.333 114 -168l2 -25c0 -50.667 -20.333 -85.334 -61 -104.001c-14 -6 -28.333 -9 -43 -9c-46.667 0 -78.667 20.667 -96 62l-9 41v2l2 72c0 44 -30 80.667 -90 110c-32.667 16.667 -70 25 -112 25
c-113.333 0 -193.333 -49.333 -240 -148c-39.333 -82 -59 -180.333 -59 -295c0 -163.333 50.333 -283.333 151 -360c56.667 -42.667 123.667 -64 201 -64c70.667 0 133.334 19.333 188.001 58c42.667 31.333 88 77 136 137z" />
    <glyph glyph-name="d" unicode="d" 
d="M904 903l0.000976562 198.999c0 108 -13.667 174 -41 198c-16.667 16.667 -47.334 27 -92.001 31l-43 4v64l49 6c28 3.33301 53.667 7.33301 77 12s44.333 10.334 63 17.001l100 34h82v-1232c0 -77.333 21 -127.333 63 -150c8.66699 -4 18 -7.66699 28 -11
s21.333 -6.33301 34 -9l24 -5v-61h-344v137c-29.333 -31.333 -54.333 -54.333 -75 -69l-54 -31l-20 -10l-82 -29c-40.667 -10.667 -81.667 -16 -123 -16c-114.667 0 -211.667 38.667 -291 116c-12 12.667 -23 25.667 -33 39c-59.333 78 -95.333 173 -108 285l-4 72
c0 165.333 52.333 298.333 157 399c83.333 79.333 181 119 293 119c96 0 184.333 -21.333 265 -64zM904.001 241.999l0.00195312 554.999c-66 54.667 -121.333 89.334 -166 104.001c-32 12.667 -69.333 19 -112 19c-118.667 0 -202 -53.333 -250 -160
c-29.333 -65.333 -46.333 -138.333 -51 -219c-0.666992 -7.33301 -1.16699 -14.5 -1.5 -21.5s-0.5 -14.167 -0.5 -21.5l2 -54c3.33301 -40.667 9.33301 -78.667 18 -114s20.334 -69 35.001 -101c39.333 -87.333 105.666 -136.333 198.999 -147
c5.33301 -0.666992 10.666 -1.16699 15.999 -1.5s10.666 -0.5 15.999 -0.5c96 0 182 40.333 258 121z" />
    <glyph glyph-name="e" unicode="e" horiz-adv-x="1064" 
d="M976 270l67.999 -32c-90.667 -152.667 -211 -236.667 -361 -252c-10.667 -1.33301 -21.167 -2.33301 -31.5 -3s-20.833 -1 -31.5 -1c-156 0 -279.667 51.667 -371 155c-86 96.667 -131 219.667 -135 369c0 168 57.333 300.333 172 397
c86.667 72.667 190.334 109 311.001 109c147.333 0 264 -50 350 -150l17 -18c52 -66 78.667 -150 80 -252h-711c0 -138.667 13.667 -241 41 -307c56.667 -140.667 159 -211 307 -211c124 0 222.333 65.333 295 196zM338.999 674h491.999v6l-5 49l-8 37l-4 12
c-39.333 101.333 -114.333 152 -225 152c-83.333 0 -147 -30 -191 -90l-10 -15c-9.33301 -15.333 -17.333 -30.333 -24 -45c-3.33301 -9.33301 -6.66602 -20.333 -9.99902 -33s-6.33301 -26.667 -9 -42l-2 -3v-2v-4z" />
    <glyph glyph-name="f" unicode="f" horiz-adv-x="655" 
d="M239 926l-171.999 0.000976562v67h172v97c0 115.333 24.667 200.666 74 255.999c10.667 12 23.667 24 39 36c69.333 57.333 153.333 95 252 113l88 8c78.667 0 132.667 -23 162 -69l2 -2c8 -14 12 -29.333 12 -46c0 -36 -18.333 -62.333 -55 -79
c-13.333 -6 -26.333 -9 -39 -9c-34.667 0 -66.334 19.333 -95.001 58c-31.333 39.333 -63.333 59 -96 59l-31 -4c-25.333 -6.66699 -49 -21 -71 -43c-31.333 -33.333 -47 -86 -47 -158v-217h202v-67h-202v-690c0 -88.667 28.667 -142.667 86 -162l41 -8l51 -5v-61h-551v61
l51 5c68.667 8 109 43.333 121 106l6 64v690z" />
    <glyph glyph-name="g" unicode="g" horiz-adv-x="1105" 
d="M418 143l391.996 -53c133.333 -19.333 220 -54 260 -104c32.667 -40.667 49 -90 49 -148c0 -118.667 -67.667 -208.667 -203 -270c-96 -41.333 -210.667 -62 -344 -62c-148 0 -273.667 23.333 -377 70c-73.333 31.333 -119 77.666 -137 138.999l-6 41
c0 82 49.667 147.667 149 197c20.667 8 42.667 17 66 27c-99.333 34 -149.333 91.333 -150 172c0 90 63 156.667 189 200c1.33301 0.666992 3 1.33398 5 2.00098s4.33301 1.33398 7 2.00098c-109.333 74.667 -164.666 171.667 -165.999 291c0 112.667 50 205.667 150 279
c77.333 57.333 168 86 272 86l55 -4h2c7.33301 -0.666992 15.5 -1.83398 24.5 -3.50098s18.167 -4.16699 27.5 -7.5l84 -26c23.333 44 42.333 74.667 57 92l14 14l2 2l4 4c33.333 35.333 77 57.333 131 66c11.333 2.66699 25 4 41 4c56.667 0 92.334 -20.333 107.001 -61
l4 -27c0 -39.333 -18.333 -64 -55 -74l-23 -4l-20 2c-12.667 2.66699 -26.334 9 -41.001 19l-37 18h-2h-8c-8.66699 0 -15.667 -1.33301 -21 -4c-27.333 -8 -56.666 -36 -87.999 -84c104 -69.333 160.667 -158 170 -266v-25l-8 -67
c-15.333 -64 -44.666 -118.667 -87.999 -164c-79.333 -75.333 -190.666 -113 -333.999 -113l-76 4c-27.333 4 -66.333 13.667 -117 29c-42 -22.667 -70.667 -48 -86 -76l-8 -33c0 -43.333 43 -71.333 129 -84h4zM583.996 946c-107.333 0 -177 -55.333 -209 -166
c-5.33301 -22 -9.33301 -46.333 -12 -73l-2 -48c0 -193.333 72.333 -290 217 -290c72 0 126.667 23.667 164 71l4 4c31.333 45.333 47 116.333 47 213c0 192.667 -69.667 289 -209 289zM764.996 -90l-419.999 51c-112 -40.667 -168.667 -102 -170 -184
c0 -70 52.333 -123.333 157 -160c68.667 -23.333 148.667 -35 240 -35c147.333 0 253.666 22 318.999 66c54.667 34 82.667 75.667 84 125c0 58.667 -38.667 99 -116 121z" />
    <glyph glyph-name="h" unicode="h" horiz-adv-x="1351" 
d="M434 1468l0.000976562 -626c24.667 21.333 49.167 40.5 73.5 57.5s48.166 31.833 71.499 44.5c83.333 45.333 169.333 68 258 68c94 0 170.667 -20 230 -60c51.333 -35.333 81.333 -90 90 -164v-4l1.5 -48.5c0.333008 -11 0.5 -177.5 0.5 -499.5
c0 -88.667 28.667 -142.667 86 -162l41 -8l51 -5v-61h-551v61l51 5c68.667 8 109 43.333 121 106l6 64v471c0 137.333 -58.667 206 -176 206c-46 0 -93 -8.66699 -141 -26c-71.333 -26 -142.333 -73.333 -213 -142v-509c0 -88.667 28.667 -142.667 86 -162l41 -8l51 -5v-61
h-551v61l51 5c68.667 8 109 43.333 121 106l6 64v866c0 108 -13.667 174 -41 198l-2 3c-16.667 14.667 -46.667 24 -90 28l-45 4v64l49 6c54.667 6.66699 101 15.667 139 27l103 36h82z" />
    <glyph glyph-name="i" unicode="i" horiz-adv-x="614" 
d="M434 993l-0.000976562 -757c0 -86.667 26 -140 78 -160h2c6.66699 -2.66699 13.834 -4.83398 21.501 -6.50098s16.167 -2.83398 25.5 -3.50098l49 -5v-61h-549v61l51 5c68.667 8 109 43.333 121 106l6 64v481c0 78 -17 127 -51 147c-16.667 10 -39.334 17 -68.001 21
c-3.33301 0.666992 -6.33301 1.16699 -9 1.5s-5 0.5 -7 0.5l-41 4v61l121 13c22.667 2.66699 48.834 6.33398 78.501 11.001s63.5 10.334 101.5 17.001h70zM338.999 1339c50.667 0 87 -23 109 -69c9.33301 -17.333 14 -36 14 -56c0 -50 -22.333 -86 -67 -108
c-20 -9.33301 -39.333 -14 -58 -14c-50 0 -86 22.333 -108 67c-9.33301 20 -14 39.333 -14 58c0 50 22.333 86 67 108c20 9.33301 39 14 57 14z" />
    <glyph glyph-name="j" unicode="j" horiz-adv-x="614" 
d="M302 993l0.000976562 -1089c0 -109.333 -22.667 -190.666 -68 -243.999c-10.667 -12.667 -24.334 -26.334 -41.001 -41.001l-2 -2c-1.33301 -1.33301 -3 -2.83301 -5 -4.5s-4.33301 -3.5 -7 -5.5c-83.333 -67.333 -182.333 -101 -297 -101
c-106.667 0 -175.667 26.667 -207 80c-8 14 -12 29 -12 45c0 35.333 19 60.666 57 75.999c10.667 4 23 6 37 6c13.333 0 27 -2.66699 41 -8c14 -8.66699 30.333 -23.667 49 -45c19.333 -23.333 36.333 -39 51 -47c15.333 -9.33301 36 -14 62 -14c40 0 72.667 13 98 39l2 2
l2 2c12.667 16 21.667 33 27 51c12 38.667 18 144.334 18 317.001v707c0 80.667 -19 131 -57 151c-19.333 10 -45.333 16.333 -78 19l-49 4v61l133 13c24.667 2.66699 51.667 6.33398 81 11.001s61 10.334 95 17.001h70zM201.001 1339c50.667 0 87 -23 109 -69
c9.33301 -17.333 14 -36 14 -56c0 -50 -22.333 -86 -67 -108c-20 -9.33301 -39.333 -14 -58 -14c-50 0 -86 22.333 -108 67c-10 18 -15 37.333 -15 58c0 50 22.667 86 68 108c20 9.33301 39 14 57 14z" />
    <glyph glyph-name="k" unicode="k" 
d="M753 672l305 -435.999c74 -97.333 156.667 -154 248 -170v-66h-553v61l55 5c38.667 4 58.667 19.667 60 47c0 32.667 -17.667 73.667 -53 123l-215 311l-166 -141v-170c0 -92 30.667 -146.667 92 -164c2.66699 -0.666992 5.5 -1.33398 8.5 -2.00098
s6.16699 -1.33398 9.5 -2.00098l15 -2l53 -5v-61h-551v61l51 5c68.667 8 109 43.333 121 106l6 64v866c0 108 -13.667 174 -41 198l-2 3c-16.667 14.667 -46.667 24 -90 28l-45 4v64l49 6c54.667 6.66699 101 15.667 139 27l103 36h82v-958l319 278
c30 26 47.667 46.667 53 62l2 18c0 38.667 -38 60.667 -114 66v59h545v-61c-122 -18 -219.667 -51.667 -293 -101c-14.667 -8.66699 -29.5 -18.667 -44.5 -30s-30.167 -23.666 -45.5 -36.999l-11 -10z" />
    <glyph glyph-name="l" unicode="l" horiz-adv-x="614" 
d="M432 1468l-0.000976562 -1232c0 -86.667 25.667 -140 77 -160h3c6.66699 -2.66699 13.834 -4.83398 21.501 -6.50098s16.167 -2.83398 25.5 -3.50098l47 -5v-61h-545v61l49 5c66.667 6.66699 107 40 121 100l6 70v866c0 108 -13.667 174 -41 198l-2 3
c-16.667 14.667 -46.667 24 -90 28l-43 4v64l49 6c28 3.33301 53.5 7.33301 76.5 12s43.833 10.334 62.5 17.001l101 34h82z" />
    <glyph glyph-name="m" unicode="m" horiz-adv-x="1925" 
d="M1082 764l0.00390625 -527.999c0 -84.667 25.333 -137.334 76 -158.001l51 -12l43 -5v-61h-535v61l43 5c67.333 8.66699 107.666 40.667 120.999 96c4 18.667 6 43.334 6 74.001v452c0 130 -43.667 201.667 -131 215l-37 2l-69 -8
c-63.333 -15.333 -138.333 -59.666 -225 -132.999v-528c0 -57.333 9.33301 -98.333 28 -123l17 -17c6.66699 -6.66699 12.667 -11.334 18 -14.001c6.66699 -4 15 -6.66699 25 -8l2 -2h2l35 -6l36 -5v-61h-536v61l51 5c68 8 108.333 43.333 121 106l6 64v481
c0 78 -17 127 -51 147c-16.667 10 -39.334 17 -68.001 21c-3.33301 0.666992 -6.33301 1.16699 -9 1.5s-5 0.5 -7 0.5l-43 4v61l43 4l112 13l148 24h70v-137c28 24.667 54.667 46.167 80 64.5s49.666 33.166 72.999 44.499c66 31.333 139 47 219 47
c113.333 0 194.666 -35 243.999 -105v-2l37 -63c84 70 213.667 126.667 389 170l-164 -27c48 16.667 102.667 25.667 164 27c128 0 212 -51.333 252 -154c8 -22 14 -46 18 -72l2 -49v-501c0 -88.667 28.667 -142.667 86 -162l41 -8l52 -5v-61h-537v61l37 5
c46 8 80.667 27 104 57l-6 -8l2 2l4 6c15.333 21.333 23 59 23 113v446c0 148.667 -54 223 -162 223c-22 0 -42.333 -2 -61 -6c-50.667 -8.66699 -106 -34.667 -166 -78z" />
    </font>
</defs>
</svg>
