<?xml version="1.0" standalone="no"?> <!DOCTYPE svg PUBLIC "-//W3C//DTD SVG 1.0//EN" "http://www.w3.org/TR/2001/REC-SVG-20010904/DTD/svg10.dtd" > <svg xmlns="http://www.w3.org/2000/svg" width="100%" height="100%">
<defs >
<font id="kacsttitle" horiz-adv-x="982" ><font-face
    font-family="KacstTitle"
    units-per-em="2048"
    panose-1="2 0 0 0 0 0 0 0 0 0"
    ascent="1600"
    descent="-600"
    alphabetic="0" />
<missing-glyph horiz-adv-x="1024" d="M128 0V1450H896V0H128ZM256 128H768V1322H256V128Z" />
<glyph unicode=" " glyph-name="space" horiz-adv-x="500" />
<glyph unicode="!" glyph-name="exclam" horiz-adv-x="614" d="M373 238Q452 238 490 166Q504 136 504 106Q504 25 432 -12Q403 -27 373 -27Q292 -27 254 47Q240 77 240 106Q240 183 309 221Q341 238 373 238ZM406 356H332V422L322 598Q311 704 301 762L256 1030L232
1186V1214Q232 1421 379 1421Q494 1421 520 1296V1294L527 1233Q527 1202 520 1151T498 1024L440 745L420 602Q415 559 412 522T406 453V420V356Z" />
<glyph unicode="&quot;" glyph-name="quotedbl" horiz-adv-x="778" d="M234 911L177 1257L175 1286Q173 1288 173 1311Q173 1405 242 1419Q247 1420 252 1420T263 1421Q330 1421 345 1352L347 1350L349 1321L347 1290V1288L343 1262L279 911H234ZM605 911L547
1257L545 1286Q543 1288 543 1311Q543 1406 613 1419H615Q620 1420 624 1420T633 1421Q701 1421 715 1352L717 1350L720 1321L717 1290V1288L713 1262L650 911H605Z" />
<glyph unicode="#" glyph-name="numbersign" horiz-adv-x="1269" d="M990 831L949 559H1155V442H932L865 0H742L809 442H541L476 0H353L418 442H201V559H437L478 831H252V948H494L557 1364H680L617 948H885L947 1364H1069L1008 948H1207V831H990ZM867 831H600L560
559H826L867 831Z" />
<glyph unicode="$" glyph-name="dollar" horiz-adv-x="1269" d="M637 1620H713V1370Q919 1353 1032 1272Q1165 1178 1168 1063Q1168 971 1088 944L1086 942L1041 936Q956 936 934 1012L930 1051V1067L932 1083L936 1118V1124Q936 1233 793 1272L713 1286V815L897
782Q994 763 1049 739Q1247 657 1249 451Q1249 229 1020 115Q894 51 713 35V-225H637V35Q107 86 105 365Q105 469 189 504Q217 516 250 516Q334 516 363 442Q367 432 369 419T373 389L365 322L359 262Q359 137 637 119V623Q261 676 170 825Q133 886 133 975Q133
1181 326 1290Q454 1364 637 1370V1620ZM637 1286H617Q578 1286 527 1274Q499 1267 475 1258T430 1237Q342 1186 330 1087Q329 1082 329 1077T328 1065Q328 956 420 899L424 897L453 881Q470 871 490 864T533 852Q545 849 559 847T590 842L637 834V1286ZM713 608V119Q928
125 1016 252Q1055 307 1055 379Q1055 505 901 563L826 586L713 608Z" />
<glyph unicode="%" glyph-name="percent" horiz-adv-x="567" d="M197 762H31V929H197V762ZM520 929L109 -37H16L427 929H520ZM508 -51H341V115H508V-51Z" />
<glyph unicode="&amp;" glyph-name="ampersand" horiz-adv-x="1638" d="M1616 938V877L1583 870Q1480 848 1444 803Q1421 769 1403 707L1376 606L1368 578Q1331 441 1276 346L1249 303Q1325 193 1386 141Q1466 76 1593 76L1659 78V0H1460Q1323 0 1278 18L1276
20L1237 39Q1218 50 1202 63T1173 90Q1162 103 1150 120T1124 158Q1028 74 948 33Q832 -27 680 -27H663Q455 -20 317 78Q182 172 147 332Q142 352 141 373Q140 381 140 390T139 410Q139 571 274 700L301 723Q366 779 467 813Q481 818 498 823T534 836Q391 967 391
1126Q391 1272 528 1358Q628 1421 758 1421Q931 1421 1020 1305Q1067 1237 1067 1157Q1067 1010 919 905Q858 859 782 836Q858 778 1192 406L948 688Q1014 622 1074 552T1192 406Q1286 572 1290 748Q1290 818 1243 844Q1229 851 1208 857T1159 870L1124 877V938H1616ZM713
899L774 926L778 928L788 934Q889 991 917 1112L924 1171Q924 1277 831 1321Q792 1339 747 1339Q643 1339 594 1249L592 1247Q573 1210 571 1161Q571 1120 584 1085Q608 1005 713 899ZM594 770Q349 698 348 446Q348 227 504 125Q592 68 711 68Q917 68 1073 233L1081
244Q962 418 838 553Q775 622 715 675T594 770Z" />
<glyph unicode="&apos;" glyph-name="quotesingle" horiz-adv-x="450" d="M212 975L189 1020L208 1032Q308 1102 316 1208Q288 1186 269 1182Q259 1180 253 1180Q173 1180 148 1253L142 1296Q142 1369 210 1407Q241 1421 269 1421Q353 1421 394 1337Q413 1300
413 1253Q413 1095 255 997L212 975Z" />
<glyph unicode="(" glyph-name="parenleft" horiz-adv-x="645" d="M538 -224Q479 -194 430 -160T342 -87Q285 -28 241 41T165 191Q101 349 101 522Q101 648 132 762T224 979Q284 1080 362 1153T538 1271V1253Q439 1195 375 1099T278 856Q261 781 254 704T246 546Q246
461 253 380T273 228Q283 174 295 128T324 48Q339 15 361 -20T406 -84Q430 -113 463 -144T538 -203V-224Z" />
<glyph unicode=")" glyph-name="parenright" horiz-adv-x="625" d="M102 1232Q161 1202 210 1168T298 1095Q355 1036 399 967T475 817Q539 659 539 486Q539 360 508 246T416 29Q356 -72 278 -145T102 -263V-245Q201 -187 265 -91T362 152Q379 227 386 304T394
462Q394 547 387 628T367 780Q357 834 345 880T316 960Q301 993 279 1028T234 1092Q210 1121 177 1152T102 1211V1232Z" />
<glyph unicode="*" glyph-name="asterisk" horiz-adv-x="901" d="M511 738L450 898Q434 937 434 962Q434 991 450 1008T496 1032L515 1034Q576 1034 591 989L590 991L594 968Q593 954 590 936T578 898L523 740L578 700L686 833Q710 866 731 878Q750 890 770 890Q814
890 841 833Q849 819 849 797Q849 770 823 751T748 722L588 691L577 625Q596 622 617 618T661 611T706 604T747 597Q795 589 821 570T847 524Q847 467 799 439Q784 429 768 429Q758 429 741 436Q740 436 740 436T738 437H739Q714 446 683 486L573 612L512 586Q526
551 542 506T572 425Q580 405 585 387T590 359Q590 331 575 315T532 292L511 290Q448 290 433 337L434 334Q433 339 432 344T429 355Q430 366 434 385T446 425L500 583L445 624L337 491H338Q309 455 285 442H286Q273 434 254 434Q209 434 185 486Q175 505 175 526Q175
584 275 601L436 633L447 699Q428 702 406 705T362 713T317 720T276 727Q228 735 203 753T177 799Q177 858 225 884Q239 894 258 894L268 892Q282 890 301 876T342 837L450 711L511 738Z" />
<glyph unicode="+" glyph-name="plus" horiz-adv-x="875" d="M365 414V680H472V414H739V307H472V39H365V307H98V414H365Z" />
<glyph unicode="," glyph-name="comma" horiz-adv-x="383" d="M118 -175Q156 -147 188 -110T236 -37T251 29T220 74L218 73Q210 66 203 62T188 53L186 51Q182 49 181 48Q176 46 173 45T166 41L161 40H160Q158 39 148 39Q141 39 135 40T124 43Q121 44 117 46Q116
47 115 47Q112 49 110 51T104 55Q100 59 99 61Q98 62 98 63T96 65Q95 66 93 70Q90 74 86 84L78 122V125Q78 130 78 133T80 141Q80 145 82 153Q83 155 83 156L84 158Q84 160 85 161Q85 163 87 167Q88 169 88 170T90 174Q92 178 96 184Q99 190 104 195Q104 195 110
201Q113 204 116 206Q118 207 118 207T121 209Q123 211 125 212T131 215Q132 216 132 226Q132 236 133 236V216Q135 218 138 218T143 220Q144 221 146 221L151 223H154Q156 224 159 224Q164 225 174 225H187L196 223Q207 221 216 217L222 214Q223 213 227 211Q228
210 232 208Q233 207 234 207T237 204Q255 189 267 165L271 154V155L273 152Q275 144 276 141L283 116L284 106Q285 104 285 98Q285 97 285 97T286 94V61Q286 56 285 53V48Q279 11 263 -26T225 -96T176 -156T119 -201L118 -175Z" />
<glyph unicode="-" glyph-name="hyphenminus" horiz-adv-x="821" d="M739 414V307H98V414H739Z" />
<glyph unicode="." glyph-name="period" horiz-adv-x="375" d="M210 134L220 110L226 82Q226 37 194 12L170 1L139 -4Q91 -4 69 24Q59 42 49 82Q49 133 84 155Q100 167 137 171Q182 171 210 134Z" />
<glyph unicode="/" glyph-name="slash" horiz-adv-x="878" d="M741 985L281 -72H192L649 985H741Z" />
<glyph unicode="0" glyph-name="zero" horiz-adv-x="1269" d="M680 1421Q949 1421 1106 1192Q1241 992 1241 688Q1241 337 1051 135Q899 -27 680 -27Q416 -27 260 201Q123 401 123 702L125 756Q142 1024 281 1217L322 1268Q448 1403 641 1419Q650 1420 659 1420T680
1421ZM688 1323Q535 1323 451 1190L449 1188L422 1135Q373 1015 352 831Q348 791 346 754T344 680Q344 464 393 311Q447 142 586 90Q632 72 684 72Q818 72 907 188Q923 207 934 228T954 272Q1020 435 1020 702Q1020 1059 911 1204Q827 1323 688 1323Z" />
<glyph unicode="1" glyph-name="one" horiz-adv-x="1269" d="M943 1395V285Q943 141 986 104Q1021 72 1128 66L1193 61V0H495V61L562 66Q669 72 722 125Q749 152 749 289V1073Q749 1202 714 1235Q681 1262 579 1266L497 1270V1331L687 1356Q706 1359 753 1368T878
1395L759 1368L878 1395H943Z" />
<glyph unicode="2" glyph-name="two" horiz-adv-x="1269" d="M1180 383L1081 0H86V143Q293 267 410 362Q495 432 575 518L604 549Q849 821 850 1051Q850 1217 721 1288Q679 1313 618 1319L571 1323Q426 1323 334 1237Q284 1190 283 1135L287 1100Q288 1097 289
1095T291 1090L326 1040L344 1004L350 975Q350 913 289 879Q262 864 233 864Q152 864 113 950Q105 969 100 990T94 1036Q94 1200 252 1317Q398 1421 588 1421Q854 1421 995 1266Q1085 1167 1092 1022Q1092 761 733 459L696 428L664 403Q613 365 527 307T313 168H778Q932
168 991 215Q1024 242 1053 297L1081 356L1102 403L1180 383Z" />
<glyph unicode="3" glyph-name="three" horiz-adv-x="1269" d="M494 717V809L596 805H608Q762 809 852 887Q909 938 928 1073L926 1038L928 1073Q928 1235 791 1300Q727 1329 647 1329Q498 1329 426 1251Q395 1220 395 1178V1167L420 1106L430 1057Q430 997 367
969Q342 958 317 958Q240 958 209 1034Q199 1057 199 1090L201 1122Q221 1249 352 1337Q475 1421 659 1421Q921 1421 1061 1286Q1133 1217 1147 1126Q1148 1117 1148 1108T1149 1087V1069Q1139 950 1032 864Q1001 841 961 822T866 788Q858 786 849 784T829 778Q829
778 819 776L809 774L885 758Q970 737 1024 709Q1028 707 1034 702Q1039 698 1049 694L1053 692Q1196 607 1219 446Q1220 436 1220 425T1221 401Q1221 197 1028 76Q868 -27 631 -27Q400 -27 252 78Q137 160 125 268L123 289Q123 377 193 416Q219 430 248 430Q330
430 354 358L363 315V295L348 246L344 223Q344 204 356 182Q377 145 414 121Q499 66 639 66Q881 66 959 242Q989 309 989 397Q989 554 897 643L895 645L883 655Q806 715 637 727L670 725L637 727L494 717Z" />
<glyph unicode="4" glyph-name="four" horiz-adv-x="1269" d="M944 1395V498H1255L1210 381H944V295Q944 176 962 131Q991 72 1075 66L1142 61V0H550V61L618 66Q702 72 731 131Q749 170 749 295V381H108L77 465L399 893L712 1346L749 1395H944ZM749 498V1221L565
965L382 715L255 543L223 498H749Z" />
<glyph unicode="5" glyph-name="five" horiz-adv-x="1269" d="M1127 1468L1092 1227H392V817Q463 874 525 903Q614 946 742 946Q1012 946 1156 774Q1231 685 1252 567Q1258 528 1258 483Q1258 229 1061 86Q906 -27 680 -27Q422 -27 277 96Q187 173 185 274Q185
354 252 391Q279 406 310 406Q382 406 416 342Q429 317 429 291V283L410 215L408 193Q408 129 511 90Q574 66 652 66Q870 66 971 231Q1027 326 1027 453Q1027 685 863 780Q783 827 674 827Q530 827 435 735Q416 718 398 696T359 647L353 639L265 659V1395H883Q986
1395 1016 1425L1035 1446Q1038 1451 1041 1456T1049 1468H1127Z" />
<glyph unicode="6" glyph-name="six" horiz-adv-x="1269" d="M362 682Q498 866 694 887Q711 889 728 890T762 891Q1008 891 1149 729Q1255 608 1255 440Q1255 229 1079 92Q924 -27 706 -27Q471 -27 317 123Q304 137 292 150T268 178Q139 353 139 651Q139 923 244
1120Q350 1315 565 1389Q659 1421 756 1421Q967 1421 1104 1313Q1194 1243 1196 1157Q1196 1087 1128 1063L1089 1057Q999 1057 971 1151Q960 1186 960 1219Q958 1258 940 1276Q875 1339 749 1339Q436 1339 379 897L373 854L371 819L362 682ZM715 784Q509 784 424
616Q381 534 381 416Q381 187 545 104Q617 72 702 72Q899 72 983 236Q1024 320 1024 430Q1024 649 878 739Q807 784 715 784Z" />
<glyph unicode="7" glyph-name="seven" horiz-adv-x="1269" d="M1246 1395L1262 1266Q1190 1185 1127 1098T1004 913Q972 859 939 800T871 674Q804 536 769 424Q714 252 691 0H427Q464 215 572 449Q765 873 1113 1227H576Q422 1227 363 1192Q359 1190 356 1188T349
1184L338 1176Q294 1141 269 1077L267 1075L250 1030H185L250 1395H1246Z" />
<glyph unicode="8" glyph-name="eight" horiz-adv-x="1269" d="M873 791Q973 754 1025 729Q1057 712 1085 693T1138 651L1142 647Q1240 558 1240 416Q1240 212 1058 84Q900 -27 673 -27Q400 -27 245 119Q136 221 136 358V379Q143 503 236 596Q296 654 392 692L480
721L374 770Q322 797 288 836Q210 921 210 1040Q210 1233 384 1341Q515 1421 695 1421Q966 1421 1103 1284L1105 1282Q1183 1202 1183 1096Q1183 968 1080 883L1070 874Q1019 837 945 811L873 791ZM617 872L769 825Q959 868 1004 1012Q1015 1050 1015 1087Q1015
1225 890 1296Q814 1339 718 1339Q537 1339 443 1231Q390 1169 390 1094Q390 944 617 872ZM816 610L581 684Q341 590 318 401L316 356Q316 178 480 98Q566 55 689 55Q896 55 1000 178Q1060 248 1060 338Q1060 532 816 610Z" />
<glyph unicode="9" glyph-name="nine" horiz-adv-x="1269" d="M1005 735Q974 681 945 647Q914 605 863 573Q755 504 599 504Q353 504 214 666Q126 769 116 911Q115 930 115 939T114 1053T290 1298Q444 1421 661 1421Q897 1421 1052 1268Q1107 1213 1140 1145Q1218
977 1218 731Q1218 463 1132 285Q1021 58 771 -6Q691 -27 603 -27Q399 -27 263 78Q174 145 173 225Q173 293 233 319Q252 328 274 328Q347 328 386 254L394 231L403 172Q405 138 441 109L427 119L441 109Q494 74 585 68L616 66Q831 66 927 254L941 285Q996 416
1005 686V735ZM667 1329Q473 1329 384 1171L382 1169Q335 1083 335 967Q335 741 484 649Q558 602 654 602Q854 602 937 772Q980 857 980 977Q980 1204 824 1290Q756 1329 667 1329Z" />
<glyph unicode=":" glyph-name="colon" horiz-adv-x="536" d="M259 748Q313 748 342 695Q355 671 355 650Q355 593 304 564Q277 552 256 552Q197 552 169 606V605Q164 617 161 627T158 650Q158 710 214 737Q234 748 259 748ZM259 199Q313 199 342 145Q355 121
355 100Q355 41 300 13Q289 8 278 5T256 1Q198 1 170 54Q158 76 158 102Q158 160 214 187Q233 199 259 199Z" />
<glyph unicode=";" glyph-name="semicolon" horiz-adv-x="655" d="M479 771Q441 743 409 706T361 633T346 567T377 522Q377 522 379 523Q387 530 394 534T409 543L411 545Q415 547 416 548Q421 550 424 551T431 555L436 556H437Q439 557 449 557Q456 557 462 556T473
553Q476 552 480 550Q481 549 482 549Q485 547 487 545T493 541Q497 537 498 535Q499 534 499 533T501 531Q502 530 504 526Q507 522 511 512L519 474V471Q519 466 519 463T517 455Q517 451 515 443Q514 441 514 440Q514 440 513 438Q513 436 512 435Q512 433 510
429Q509 427 509 426T507 422Q505 418 501 412Q498 406 493 401Q493 401 487 395Q484 392 481 390Q479 389 479 389T476 387Q474 385 472 384T466 381Q465 380 464 380Q462 378 459 378T454 376Q453 375 451 375L446 373H443Q441 372 438 372Q433 371 423 371H410L401
373Q390 375 381 379L375 382Q374 383 370 385Q369 386 365 388Q364 389 363 389T360 392Q342 407 330 431L326 442V441L324 444Q322 452 321 455L314 480L313 490Q312 492 312 498Q312 499 312 499T311 502V535Q311 540 312 543V548Q318 585 334 622T372 692T421
752T478 797L479 771ZM414 46Q361 46 332 99Q318 122 318 144Q318 201 370 230Q395 242 417 242Q475 242 504 188V189Q509 177 512 167T515 144Q515 84 459 57Q439 46 414 46Z" />
<glyph unicode="&lt;" glyph-name="less" horiz-adv-x="1228" d="M151 737L1194 1227V1049L368 664L1194 276V100L151 590V737Z" />
<glyph unicode="=" glyph-name="equal" horiz-adv-x="932" d="M804 549V427H103V549H804ZM804 301V177H103V301H804Z" />
<glyph unicode="&gt;" glyph-name="greater" horiz-adv-x="1228" d="M1191 737V590L148 100V276L974 664L148 1049V1227L1191 737Z" />
<glyph unicode="?" glyph-name="question" horiz-adv-x="1105" d="M511 238Q587 238 624 168Q640 143 640 106Q640 26 569 -12Q543 -26 509 -27Q428 -27 390 47Q376 77 376 106Q376 185 448 223Q479 238 511 238ZM556 356H464Q462 396 461 415T460 432V446Q460
580 526 649Q530 654 534 659T546 670H548L552 674L601 711L718 791Q858 887 859 1059Q859 1272 679 1325Q644 1336 603 1337L569 1339Q401 1339 317 1251L315 1249Q278 1212 278 1163L280 1139L296 1098Q306 1076 312 1057T321 1022V1032V1022Q321 965 259 936Q236
924 210 924Q127 924 96 1006V1008Q83 1034 83 1073Q83 1110 96 1145Q128 1239 225 1315Q335 1401 524 1417L589 1421L632 1419Q792 1409 919 1333Q1048 1255 1077 1100Q1079 1086 1080 1071T1081 1040L1079 1014Q1070 901 1003 813Q935 733 804 688L737 664Q612
616 579 526Q554 470 556 356Z" />
<glyph unicode="@" glyph-name="at" horiz-adv-x="1679" d="M1138 1118H1286L1190 598L1179 512Q1179 455 1231 436H1233L1255 432Q1300 432 1349 469Q1389 500 1427 547Q1515 665 1515 815Q1515 1036 1335 1192Q1159 1341 913 1341Q649 1341 460 1155Q269 973
268 709Q268 439 458 252Q645 66 911 66L997 72Q1222 100 1370 233L1374 238L1394 258Q1423 287 1446 319L1487 385H1581L1548 319Q1518 258 1474 213L1460 199Q1290 25 1032 -16Q1009 -21 988 -23T944 -27H911Q611 -27 397 174Q184 376 170 664V700Q170 994 374
1206Q581 1417 878 1434H917Q1206 1434 1409 1251Q1601 1075 1603 827Q1603 640 1482 498Q1405 406 1300 358Q1232 328 1175 328Q1093 328 1050 410Q1030 453 1030 500V522Q893 334 708 328Q544 328 471 463Q434 530 434 623Q434 841 585 995Q718 1133 893 1133Q1035
1133 1124 1038L1138 1118ZM1112 971L1104 979Q1036 1057 927 1057Q778 1057 675 895Q626 819 602 705Q587 640 587 584Q587 455 678 416Q703 403 737 403Q772 403 815 420Q911 458 979 555L983 561Q1039 647 1073 784Q1077 803 1081 824T1091 870Q1098 903 1106
942L1112 971Z" />
<glyph unicode="A" glyph-name="A" horiz-adv-x="1392" d="M759 1395L1193 297Q1212 249 1226 216T1252 162Q1291 94 1363 76H1365Q1376 73 1390 70T1424 63V0H849V63L908 74Q953 82 968 94Q1009 119 1011 166Q1011 191 992 244L988 254L886 518H357L292 342Q253
244 253 190Q253 130 304 96Q329 83 386 72L435 63V0H-114V63L-91 68Q5 86 54 147L62 158Q88 192 126 275T216 492L568 1395H759ZM388 606H849L615 1221L388 606Z" />
<glyph unicode="B" glyph-name="B" horiz-adv-x="1515" d="M63 1395H784Q1076 1395 1210 1317Q1331 1246 1356 1112Q1358 1102 1359 1090T1360 1063Q1360 936 1262 862L1243 848Q1232 840 1221 833T1196 819Q1179 811 1158 804T1110 788Q1093 782 1063 776L1145
756L1147 754H1149Q1207 735 1249 713L1282 692Q1431 600 1438 412Q1438 250 1321 139L1319 137L1284 109Q1136 0 811 0H63V63L115 70Q207 82 229 143H231Q248 191 248 295V1100Q248 1255 201 1294Q176 1315 133 1323Q129 1323 125 1323T115 1325L63 1331V1395ZM453
805H690Q1034 805 1118 928V930L1120 932Q1151 981 1151 1057Q1151 1315 729 1315Q535 1315 489 1272L485 1268H483Q453 1233 453 1141V805ZM453 717V315Q453 184 477 150Q520 84 719 84Q976 84 1092 170Q1196 248 1206 399V422Q1206 604 1067 676L1053 682Q968
717 694 717H453Z" />
<glyph unicode="C" glyph-name="C" horiz-adv-x="1515" d="M1342 1376L1441 883H1375L1277 1053L1267 1069L1265 1071V1073L1248 1098Q1127 1272 937 1313Q898 1323 849 1323Q636 1323 501 1128Q378 952 378 692Q378 402 523 242L527 238Q630 123 789 84Q841 72
890 72Q959 72 1037 96Q1147 131 1228 193L1244 205Q1267 224 1288 243T1328 285Q1344 302 1360 324T1396 375L1484 326Q1258 -25 859 -27Q544 -27 337 184Q136 386 136 690Q136 991 329 1196Q464 1342 810 1421L660 1399Q735 1421 810 1421Q1060 1421 1226 1294L1232
1290L1275 1376H1342Z" />
<glyph unicode="D" glyph-name="D" horiz-adv-x="1638" d="M280 295V1100Q280 1255 233 1294Q208 1315 165 1323Q161 1323 157 1323T147 1325L95 1331V1395H720Q1132 1395 1335 1231Q1351 1217 1367 1202Q1517 1058 1560 817Q1564 797 1566 777T1570 737L1572
686Q1572 429 1421 242Q1385 200 1351 170Q1197 37 941 10Q903 6 861 4T769 0H720H95V63L147 70Q239 82 261 143H263Q280 191 280 295ZM485 1122V264Q485 156 513 129Q559 84 726 84Q1044 84 1199 276Q1330 440 1330 700Q1330 934 1218 1094Q1064 1311 728 1311Q558
1311 509 1260Q485 1233 485 1122Z" />
<glyph unicode="E" glyph-name="E" horiz-adv-x="1474" d="M1265 1395L1406 1026L1341 999Q1310 1036 1281 1067T1224 1124Q1061 1278 839 1300L718 1307Q547 1307 507 1243Q485 1209 485 1137V788H640Q779 788 829 850V852Q868 903 888 1049H958V436H888Q869
633 759 680H757Q708 700 636 700H485V268Q485 180 511 145Q560 88 716 88Q983 88 1156 207Q1175 219 1193 233T1230 264Q1317 344 1412 465L1476 436L1289 0H95V63L147 70Q239 82 261 143H263Q280 191 280 295V1100Q280 1255 233 1294Q208 1315 165 1323Q161 1323
157 1323T147 1325L95 1331V1395H1265Z" />
<glyph unicode="F" glyph-name="F" horiz-adv-x="1310" d="M1224 1395L1371 1044L1306 1012L1236 1090Q1050 1278 814 1305L714 1309Q564 1309 519 1264Q485 1230 485 1108V788H620Q771 788 825 850L845 879Q868 925 880 1008V1012V1014L884 1044H947V438H884L880
469Q863 575 827 623Q762 700 620 700H485V295Q485 133 538 94Q564 76 618 70L685 63V0H95V63L147 70Q239 82 261 143H263Q280 191 280 295V1100Q280 1255 233 1294Q208 1315 165 1323Q161 1323 157 1323T147 1325L95 1331V1395H1224Z" />
<glyph unicode="G" glyph-name="G" horiz-adv-x="1638" d="M1326 1395L1451 961L1373 938Q1322 1010 1269 1072T1158 1192L1207 1147Q1201 1151 1197 1157L1158 1192Q1000 1323 834 1323Q604 1323 476 1108Q384 947 378 713V688Q378 360 562 188Q693 72 871 72H894Q1068
79 1185 180Q1204 198 1215 211Q1281 295 1281 410Q1281 535 1195 573L1193 575Q1152 595 1080 602V664H1639V600L1602 594Q1517 581 1498 545V543L1496 541V539L1494 537Q1469 481 1469 369V0H1373L1308 141Q1273 115 1240 93T1174 53L1168 51Q1021 -27 843 -27Q538
-27 337 184Q136 391 136 702Q136 996 322 1202Q492 1384 740 1415Q771 1419 804 1421H822Q1040 1421 1222 1296L1263 1395H1326Z" />
<glyph unicode="H" glyph-name="H" horiz-adv-x="1638" d="M485 795H1218V1100Q1218 1255 1171 1294Q1146 1315 1103 1323L1085 1325L1033 1331V1395H1607V1331L1556 1325Q1464 1313 1441 1251Q1423 1206 1423 1100V295Q1423 139 1470 100Q1495 80 1539 72H1541L1556
70L1607 63V0H1033V63L1085 70Q1177 82 1199 143H1201Q1218 191 1218 295V707H485V295Q485 139 532 100Q557 80 601 72L618 70L669 63V0H95V63L147 70Q239 82 261 143H263Q280 191 280 295V1100Q280 1255 233 1294Q208 1315 165 1323Q161 1323 157 1323T147 1325L95
1331V1395H669V1331L618 1325Q526 1313 503 1251Q485 1206 485 1100V795Z" />
<glyph unicode="I" glyph-name="I" horiz-adv-x="696" d="M474 1100V295Q474 143 515 104Q542 80 607 70L648 63V0H95V63L136 70Q226 83 251 137Q270 178 270 295V1100Q270 1251 229 1290Q203 1315 136 1325L95 1331V1395H648V1331L607 1325Q517 1311 493 1257Q474
1216 474 1100Z" />
<glyph unicode="J" glyph-name="J" horiz-adv-x="1228" d="M953 1100V532Q953 290 916 215Q905 191 889 168Q889 168 885 162L881 156Q783 25 570 -14Q539 -21 507 -24T443 -27Q246 -27 111 63Q-22 154 -61 303Q-62 308 -63 313T-65 324Q-71 352 -71 381Q-71 501
17 547Q48 563 89 563Q178 563 197 487L201 453Q201 415 179 387L150 354L121 322Q110 305 109 272Q109 176 226 115Q305 72 404 72Q604 72 683 199Q738 289 746 492Q747 565 747 601T748 1100Q748 1255 701 1294Q676 1315 633 1323L615 1325L564 1331V1395H1137V1331L1086
1325Q994 1313 971 1251Q953 1206 953 1100Z" />
<glyph unicode="K" glyph-name="K" horiz-adv-x="1474" d="M1568 0H937V63L974 68Q1095 78 1099 150Q1099 187 1052 264L722 791L485 580V295Q485 131 542 92Q569 74 618 70L702 63V0H95V63L147 70Q239 82 261 143H263Q280 191 280 295V1100Q280 1255 233 1294Q208
1315 165 1323Q161 1323 157 1323T147 1325L95 1331V1395H702V1331L618 1325Q526 1317 501 1243Q485 1199 485 1100V707L845 1032L857 1042L904 1083Q1009 1176 1021 1212V1214L1025 1245Q1025 1306 954 1323Q934 1327 906 1329L886 1331V1395H1472V1331L1457 1327Q1326
1303 1132 1139L886 924L1275 289Q1303 247 1326 216T1369 162Q1438 90 1568 61V0Z" />
<glyph unicode="L" glyph-name="L" horiz-adv-x="1228" d="M1320 438L1156 0H95V63L147 70Q239 82 261 143H263Q280 191 280 295V1100Q280 1255 233 1294Q208 1315 165 1323Q161 1323 157 1323T147 1325L95 1331V1395H683V1331L618 1325Q526 1317 501 1247Q485
1205 485 1100V252Q485 160 509 129Q549 78 661 78Q727 78 798 96Q925 129 1038 215L1044 219Q1092 256 1124 291Q1151 318 1185 361T1263 465L1320 438Z" />
<glyph unicode="M" glyph-name="M" horiz-adv-x="1884" d="M955 0H863L394 1274V295Q394 133 447 94Q473 76 527 70L598 63V0H80V63L144 70Q236 78 260 147Q264 157 266 167T271 190L277 295V1100Q277 1255 230 1294Q205 1315 162 1323Q158 1323 154 1323T144
1325L93 1331V1395H570L963 340L1391 1395H1858V1331L1807 1325Q1715 1313 1692 1251Q1674 1206 1674 1100V295Q1674 139 1721 100Q1746 80 1790 72H1792L1807 70L1858 63V0H1284V63L1336 70Q1428 82 1450 143H1452Q1469 191 1469 295V1249L955 0Z" />
<glyph unicode="N" glyph-name="N" horiz-adv-x="1515" d="M381 1241V295Q381 133 435 94Q461 76 514 70L586 63V0H80V63L131 70Q224 82 246 143H248Q265 191 265 295V1100Q265 1255 217 1294Q193 1315 150 1323L131 1325L80 1331V1395H537L1205 291V1100Q1205
1262 1151 1300H1149Q1124 1319 1071 1325L1000 1331V1395H1506V1331L1454 1325Q1363 1313 1340 1251Q1321 1209 1321 1100V0H1141L381 1241Z" />
<glyph unicode="O" glyph-name="O" horiz-adv-x="1638" d="M873 1421Q1195 1421 1402 1206Q1598 1001 1598 692Q1598 426 1447 242Q1287 47 1025 -10Q983 -18 944 -22T865 -27Q554 -27 345 182Q136 391 136 702Q136 997 343 1206Q550 1413 851 1421H873ZM869 1323Q613
1323 478 1106Q478 1104 476 1102Q378 941 378 700Q378 344 572 176Q697 72 867 72Q1125 72 1260 289Q1357 446 1357 680Q1357 1054 1158 1223Q1156 1223 1154 1225L1152 1227H1150Q1033 1323 869 1323Z" />
<glyph unicode="P" glyph-name="P" horiz-adv-x="1269" d="M485 596V295Q485 131 542 92Q569 74 618 70L694 63V0H95V63L147 70Q239 82 261 143H263Q280 191 280 295V1100Q280 1255 233 1294Q208 1315 165 1323Q161 1323 157 1323T147 1325L95 1331V1395H775Q1093
1395 1222 1217Q1287 1125 1287 1004Q1287 834 1167 717L1165 715Q1151 703 1138 693T1111 674Q983 596 773 596H485ZM485 684H741Q913 684 997 776L999 778L1001 780Q1079 865 1079 997Q1079 1133 1001 1217Q917 1309 718 1309Q546 1309 509 1270Q485 1244 485
1178V684Z" />
<glyph unicode="Q" glyph-name="Q" horiz-adv-x="1679" d="M1428 186Q1494 104 1508 41L1514 -14Q1514 -187 1312 -293Q1130 -389 865 -389Q572 -389 384 -279Q259 -206 257 -117Q257 -49 331 -29L374 -23Q470 -23 492 -102L499 -143Q500 -201 538 -225H540L544
-227V-229L578 -246Q655 -285 800 -295L863 -297Q1121 -297 1254 -176Q1332 -106 1334 -14L1330 20Q1324 45 1303 86Q1112 -27 880 -27Q572 -27 357 176Q146 376 136 662V686Q136 993 347 1204Q558 1415 888 1421Q1217 1421 1424 1204Q1621 998 1621 690Q1621 424
1465 229L1428 186ZM1299 285L1318 334Q1379 495 1379 698Q1379 1034 1195 1206Q1067 1323 888 1323Q639 1323 497 1112Q495 1110 495 1108Q378 935 378 676Q378 458 470 297L474 291V289Q552 160 667 109H669Q692 98 717 90T771 74Q781 70 794 68Q802 66 786 76T728
176L748 113Q728 139 728 176Q728 274 859 319Q927 344 1021 344L1107 340Q1138 336 1180 325T1277 293L1299 285ZM1215 172L1199 180Q1123 219 1033 225H1004Q873 225 837 164Q826 150 826 133Q826 81 914 68L955 66L1011 70Q1131 89 1215 172Z" />
<glyph unicode="R" glyph-name="R" horiz-adv-x="1474" d="M1023 678L1363 197L1392 162Q1464 85 1582 63V0H1240L780 657H485V295Q485 133 538 94Q564 76 618 70L691 63V0H95V63L147 70Q239 82 261 143H263Q280 191 280 295V1100Q280 1255 233 1294Q208 1315
165 1323Q161 1323 157 1323T147 1325L95 1331V1395H929Q1240 1395 1353 1219Q1402 1143 1402 1042Q1402 877 1275 774L1249 754Q1227 738 1204 727T1156 707Q1131 699 1098 692T1023 678ZM485 745H829Q995 745 1074 809Q1179 892 1181 1034Q1181 1311 788 1311Q614
1311 538 1278Q487 1255 485 1190V745Z" />
<glyph unicode="S" glyph-name="S" horiz-adv-x="1351" d="M1104 1395L1229 1024L1164 999Q952 1323 660 1323Q489 1323 404 1221Q359 1168 359 1104Q359 983 506 922Q514 918 523 915T543 909L637 881L893 819Q1151 758 1241 659Q1261 641 1276 616Q1276 616
1278 612Q1321 548 1327 440V414Q1327 221 1149 92L1145 88Q985 -27 758 -27Q515 -27 334 102L295 0H219L86 469L162 494Q346 139 643 82Q690 72 748 72Q944 72 1051 197Q1119 274 1119 377Q1119 498 1006 555Q978 571 938 584T846 610L572 680Q333 741 240 834Q168
909 152 1014Q151 1024 151 1034T150 1055V1073Q160 1219 291 1323Q419 1421 619 1421Q840 1421 1006 1321L1030 1395H1104Z" />
<glyph unicode="T" glyph-name="T" horiz-adv-x="1269" d="M1191 1395L1305 1034L1234 1010Q1059 1316 783 1317Q715 1317 705 1278L699 1227V295Q699 131 757 92L759 90Q784 74 832 70L912 63V0H281V63L361 70Q454 78 478 152Q494 196 494 295V1235Q494 1302
443 1313L404 1317Q150 1317 -13 1065L-46 1010L-114 1034L3 1395H1191Z" />
<glyph unicode="U" glyph-name="U" horiz-adv-x="1597" d="M1386 1100V418Q1386 230 1300 129Q1173 -13 884 -27H829Q584 -27 442 66Q302 154 274 285Q263 330 262 385V414V1100Q262 1255 214 1294Q190 1315 147 1323L128 1325L77 1331V1395H675V1331L599 1325Q507
1317 483 1243Q466 1194 466 1100V553Q466 318 509 233Q510 229 515 223Q597 72 860 72Q1095 72 1193 186Q1254 258 1265 408Q1267 483 1268 520T1269 1100Q1269 1262 1216 1300H1214Q1189 1319 1136 1325L1068 1331V1395H1570V1331L1519 1325Q1427 1313 1404 1251Q1386
1206 1386 1100Z" />
<glyph unicode="V" glyph-name="V" horiz-adv-x="1433" d="M723 227L1075 1120L1081 1137Q1095 1179 1095 1206Q1095 1312 940 1329L907 1331V1395H1454V1331Q1332 1319 1286 1274Q1276 1264 1268 1253T1251 1229L1249 1227V1225Q1235 1204 1218 1170T1181 1087L733
0H610L149 1118Q121 1187 98 1227Q54 1300 -25 1319Q-35 1321 -46 1323T-72 1327L-92 1331V1395H520V1331Q480 1330 450 1326T399 1315L405 1317H403L399 1315Q350 1300 344 1241L352 1190L362 1157L723 227Z" />
<glyph unicode="W" glyph-name="W" horiz-adv-x="1966" d="M1353 0H1233L932 895L633 0H512L127 1106L82 1219Q48 1284 -8 1307Q-16 1310 -26 1313T-49 1321L-92 1331V1395H465V1331Q340 1323 321 1274L317 1241Q317 1207 329 1176L628 274L872 1055L868 1067Q819
1235 743 1288H741Q700 1315 633 1331V1395H1194V1331L1138 1323Q1135 1323 1131 1323T1122 1321L1108 1317Q1046 1300 1044 1237Q1044 1211 1052 1190L1351 279L1626 1130L1634 1167L1638 1206Q1638 1277 1571 1311L1564 1313L1562 1315Q1558 1315 1556 1317L1546
1319L1468 1331V1395H1984V1331Q1876 1325 1829 1268Q1819 1257 1811 1242T1794 1210L1792 1208L1751 1106L1353 0Z" />
<glyph unicode="X" glyph-name="X" horiz-adv-x="1474" d="M827 760L1220 248Q1246 214 1268 188T1310 145Q1383 80 1515 63V0H843V63L862 66L874 68Q1008 80 1009 147V156Q1005 193 960 256L674 639L360 250L340 211L331 172Q331 73 473 63H485V0H-92V63L-68
72Q59 115 137 180Q198 231 288 340L612 723L260 1171Q223 1222 186 1255Q119 1319 2 1331V1395H637V1331Q492 1325 481 1266L479 1253Q479 1225 504 1188V1186Q508 1181 516 1171L770 840L1009 1147L1028 1176Q1038 1192 1044 1208L1050 1243Q1050 1329 907 1331V1395H1458V1331Q1335
1311 1269 1266Q1209 1224 1095 1090L827 760Z" />
<glyph unicode="Y" glyph-name="Y" horiz-adv-x="1310" d="M696 586V295Q696 131 753 92L755 90Q782 74 829 70L913 63V0H274V63L358 70Q450 78 475 152Q491 196 491 295V582L149 1126Q94 1219 57 1255Q6 1309 -92 1331V1395H491V1331Q350 1313 334 1270L331 1268L329
1247Q329 1223 360 1174L649 707L940 1153Q946 1160 952 1171Q962 1193 968 1210L973 1241Q973 1292 901 1313L899 1315L823 1331V1395H1333V1331Q1207 1307 1034 1104L1136 1239Q1095 1198 1034 1104L696 586Z" />
<glyph unicode="Z" glyph-name="Z" horiz-adv-x="1310" d="M1353 420L1206 0H69L30 63L995 1284L868 1305L749 1309Q487 1309 323 1178Q267 1131 213 1067Q210 1064 207 1061T200 1053Q193 1045 186 1036T172 1016L160 999L92 1024L241 1395H1255L1278 1319L319
104L487 90Q507 89 531 89T581 88Q965 88 1140 242Q1228 318 1290 446L1353 420Z" />
<glyph unicode="[" glyph-name="bracketleft" horiz-adv-x="571" d="M459 -284H140V1181H459V1128H251V-232H459V-284Z" />
<glyph unicode="\" glyph-name="backslash" horiz-adv-x="704" d="M185 985L642 -72H553L93 985H185Z" />
<glyph unicode="]" glyph-name="bracketright" horiz-adv-x="614" d="M141 1182H460V-283H141V-231H349V1129H141V1182Z" />
<glyph unicode="^" glyph-name="asciicircum" horiz-adv-x="1228" d="M1189 651H1012L675 1288L337 651H160L589 1479H761L1189 651Z" />
<glyph unicode="_" glyph-name="underscore" horiz-adv-x="1024" d="M0 -195H1024V-317H0V-195Z" />
<glyph unicode="`" glyph-name="grave" horiz-adv-x="450" d="M343 1421L365 1376L349 1364Q247 1292 238 1188Q267 1209 281 1214Q286 1214 304 1217Q380 1217 404 1145L406 1143V1141L413 1098Q413 1025 345 987Q314 973 286 973Q206 973 163 1057Q142 1096
142 1143Q142 1299 290 1393Q302 1401 315 1408T343 1421Z" />
<glyph unicode="a" glyph-name="a" horiz-adv-x="1187" d="M798 582V745Q798 870 671 913Q618 930 560 930Q425 930 370 866Q353 846 353 823L355 766Q355 701 296 672Q276 662 251 662Q188 662 161 717L153 752Q153 778 165 807Q204 901 319 952Q354 968 392
979T474 999Q539 1012 599 1012L681 1006Q738 998 786 982T876 942Q976 887 988 768L992 709V274Q992 173 1009 133L1011 131Q1036 74 1107 74Q1132 74 1154 82Q1173 92 1199 115L1238 61Q1156 -18 1027 -18Q865 -18 808 115L798 139Q694 53 609 16Q528 -18 423
-18Q243 -18 155 96Q108 158 108 236Q108 444 452 530L509 545Q520 547 531 549T554 553Q573 555 595 559L798 582ZM798 231V510Q380 473 325 305Q317 279 317 256Q317 153 405 104Q445 80 495 80Q550 80 601 98Q689 129 798 231Z" />
<glyph unicode="b" glyph-name="b" horiz-adv-x="1269" d="M367 1468V864Q390 884 411 902T455 934Q569 1012 723 1012Q954 1012 1088 836Q1190 699 1190 508Q1190 242 1014 92Q880 -18 694 -18Q604 -18 524 8Q443 40 336 119L287 0H172V1102Q172 1264 131 1300L129
1303Q104 1325 39 1331L-6 1335V1399L43 1405Q125 1415 182 1432L285 1468H367ZM367 754V195Q482 80 647 80Q842 80 930 258Q981 358 981 502Q981 769 825 870Q761 913 670 913Q563 913 481 858Q455 841 427 815T367 754Z" />
<glyph unicode="c" glyph-name="c" horiz-adv-x="1064" d="M999 258L1058 221Q915 -3 661 -16L618 -18Q355 -18 214 170Q114 303 114 496Q114 719 247 864L259 877Q388 1012 613 1012Q794 1012 915 924Q1015 847 1029 756L1031 731Q1031 655 970 627Q949 618 927
618Q857 618 831 680L822 721V723L824 795Q824 861 734 905Q685 930 622 930Q452 930 382 782Q323 659 323 487Q323 242 474 127Q559 63 675 63Q781 63 863 121Q927 168 999 258Z" />
<glyph unicode="d" glyph-name="d" horiz-adv-x="1269" d="M904 903V1102Q904 1264 863 1300Q838 1325 771 1331L728 1335V1399L777 1405Q819 1410 854 1417T917 1434L1017 1468H1099V236Q1099 120 1162 86Q1175 80 1190 75T1224 66L1248 61V0H904V137Q860 90
829 68L775 37L755 27L673 -2Q612 -18 550 -18Q378 -18 259 98Q241 117 226 137Q137 254 118 422L114 494Q114 742 271 893Q396 1012 564 1012Q708 1012 829 948L904 903ZM904 242V797Q805 879 738 901Q690 920 626 920Q448 920 376 760Q332 662 325 541Q324 530
324 520T323 498L325 444Q330 383 343 330T378 229Q437 98 577 82Q585 81 593 81T609 80Q753 80 867 201L904 242Z" />
<glyph unicode="e" glyph-name="e" horiz-adv-x="1064" d="M976 270L1044 238Q908 9 683 -14Q667 -16 652 -17T620 -18Q386 -18 249 137Q120 282 114 506Q114 758 286 903Q416 1012 597 1012Q818 1012 947 862L964 844Q1042 745 1044 592H333Q333 384 374 285Q459
74 681 74Q867 74 976 270ZM339 674H831V680L826 729L818 766L814 778Q755 930 589 930Q464 930 398 840L388 825Q374 802 364 780Q359 766 354 747T345 705L343 702V700V696L339 674Z" />
<glyph unicode="f" glyph-name="f" horiz-adv-x="655" d="M239 926H67V993H239V1090Q239 1263 313 1346Q329 1364 352 1382Q456 1468 604 1495L692 1503Q810 1503 854 1434L856 1432Q868 1411 868 1386Q868 1332 813 1307Q793 1298 774 1298Q722 1298 679 1356Q632
1415 583 1415L552 1411Q514 1401 481 1368Q434 1318 434 1210V993H636V926H434V236Q434 103 520 74L561 66L612 61V0H61V61L112 66Q215 78 233 172L239 236V926Z" />
<glyph unicode="g" glyph-name="g" horiz-adv-x="1105" d="M418 143L810 90Q1010 61 1070 -14Q1119 -75 1119 -162Q1119 -340 916 -432Q772 -494 572 -494Q350 -494 195 -424Q85 -377 58 -285L52 -244Q52 -121 201 -47Q232 -35 267 -20Q118 31 117 152Q117 287
306 352Q308 353 311 354T318 356Q154 468 152 647Q152 816 302 926Q418 1012 574 1012L629 1008H631Q642 1007 655 1005T683 997L767 971Q802 1037 824 1063L838 1077L840 1079L844 1083Q894 1136 975 1149Q992 1153 1016 1153Q1101 1153 1123 1092L1127 1065Q1127
1006 1072 991L1049 987L1029 989Q1010 993 988 1008L951 1026H949H941Q928 1026 920 1022Q879 1010 832 938Q988 834 1002 672V647L994 580Q971 484 906 416Q787 303 572 303L496 307Q455 313 379 336Q316 302 293 260L285 227Q285 162 414 143H418ZM584 946Q423
946 375 780Q367 747 363 707L361 659Q361 369 578 369Q686 369 742 440L746 444Q793 512 793 657Q793 946 584 946ZM765 -90L345 -39Q177 -100 175 -223Q175 -328 332 -383Q435 -418 572 -418Q793 -418 891 -352Q973 -301 975 -227Q975 -139 859 -106L765 -90Z"
/>
<glyph unicode="h" glyph-name="h" horiz-adv-x="1351" d="M434 1468V842Q471 874 507 899T579 944Q704 1012 837 1012Q978 1012 1067 952Q1144 899 1157 788V784Q1158 752 1158 736T1159 236Q1159 103 1245 74L1286 66L1337 61V0H786V61L837 66Q940 78 958 172L964
236V707Q964 913 788 913Q719 913 647 887Q540 848 434 745V236Q434 103 520 74L561 66L612 61V0H61V61L112 66Q215 78 233 172L239 236V1102Q239 1264 198 1300L196 1303Q171 1325 106 1331L61 1335V1399L110 1405Q192 1415 249 1432L352 1468H434Z" />
<glyph unicode="i" glyph-name="i" horiz-adv-x="614" d="M434 993V236Q434 106 512 76H514Q524 72 535 70T561 66L610 61V0H61V61L112 66Q215 78 233 172L239 236V717Q239 834 188 864Q163 879 120 885Q115 886 111 886T104 887L63 891V952L184 965Q218 969 262
976T364 993H434ZM339 1339Q415 1339 448 1270Q462 1244 462 1214Q462 1139 395 1106Q365 1092 337 1092Q262 1092 229 1159Q215 1189 215 1217Q215 1292 282 1325Q312 1339 339 1339Z" />
<glyph unicode="j" glyph-name="j" horiz-adv-x="614" d="M302 993V-96Q302 -260 234 -340Q218 -359 193 -381L191 -383Q189 -385 186 -387T179 -393Q54 -494 -118 -494Q-278 -494 -325 -414Q-337 -393 -337 -369Q-337 -316 -280 -293Q-264 -287 -243 -287Q-223
-287 -202 -295Q-181 -308 -153 -340Q-124 -375 -102 -387Q-79 -401 -40 -401Q20 -401 58 -362L60 -360L62 -358Q81 -334 89 -307Q107 -249 107 10V717Q107 838 50 868Q21 883 -28 887L-77 891V952L56 965Q93 969 137 976T232 993H302ZM201 1339Q277 1339 310 1270Q324
1244 324 1214Q324 1139 257 1106Q227 1092 199 1092Q124 1092 91 1159Q76 1186 76 1217Q76 1292 144 1325Q174 1339 201 1339Z" />
<glyph unicode="k" glyph-name="k" horiz-adv-x="1269" d="M753 672L1058 236Q1169 90 1306 66V0H753V61L808 66Q866 72 868 113Q868 162 815 236L600 547L434 406V236Q434 98 526 72Q530 71 534 70T544 68L559 66L612 61V0H61V61L112 66Q215 78 233 172L239 236V1102Q239
1264 198 1300L196 1303Q171 1325 106 1331L61 1335V1399L110 1405Q192 1415 249 1432L352 1468H434V510L753 788Q798 827 806 850L808 868Q808 926 694 934V993H1239V932Q1056 905 946 831Q924 818 902 801T856 764L845 754L753 672Z" />
<glyph unicode="l" glyph-name="l" horiz-adv-x="614" d="M432 1468V236Q432 106 509 76H512Q522 72 533 70T559 66L606 61V0H61V61L110 66Q210 76 231 166L237 236V1102Q237 1264 196 1300L194 1303Q169 1325 104 1331L61 1335V1399L110 1405Q152 1410 186 1417T249
1434L350 1468H432Z" />
<glyph unicode="m" glyph-name="m" horiz-adv-x="1925" d="M1082 764V236Q1082 109 1158 78L1209 66L1252 61V0H717V61L760 66Q861 79 881 162Q887 190 887 236V688Q887 883 756 903L719 905L650 897Q555 874 425 764V236Q425 150 453 113L470 96Q480 86 488 82Q498
76 513 74L515 72H517L552 66L588 61V0H52V61L103 66Q205 78 224 172L230 236V717Q230 834 179 864Q154 879 111 885Q106 886 102 886T95 887L52 891V952L95 956L207 969L355 993H425V856Q467 893 505 920T578 965Q677 1012 797 1012Q967 1012 1041 907V905L1078
842Q1204 947 1467 1012L1303 985Q1375 1010 1467 1012Q1659 1012 1719 858Q1731 825 1737 786L1739 737V236Q1739 103 1825 74L1866 66L1918 61V0H1381V61L1418 66Q1487 78 1522 123L1516 115L1518 117L1522 123Q1545 155 1545 236V682Q1545 905 1383 905Q1350
905 1322 899Q1246 886 1156 821L1082 764Z" />
<glyph unicode="n" glyph-name="n" horiz-adv-x="1351" d="M440 993V831Q528 909 862 1012L614 954Q726 1012 862 1012Q1081 1012 1148 858Q1171 804 1171 741V236Q1171 103 1257 74L1298 66L1349 61V0H798V61L849 66Q952 78 970 172L976 236V709Q976 901 802
913Q630 913 440 741V236Q440 103 526 74L567 66L618 61V0H67V61L118 66Q221 78 239 172L245 236V717Q245 838 188 868Q159 883 110 887L61 891V952L194 965Q231 969 275 976T370 993H440Z" />
<glyph unicode="o" glyph-name="o" horiz-adv-x="1146" d="M609 1012Q857 1012 992 852Q1109 709 1115 508V489Q1115 221 931 80Q800 -18 618 -18Q342 -18 206 178Q114 309 114 494L116 545Q134 737 247 868L257 879Q386 1012 609 1012ZM611 930Q448 930 370 754Q323
646 323 498Q323 172 503 88Q552 63 620 63Q805 63 876 264Q906 354 906 479Q906 790 747 891Q687 930 611 930Z" />
<glyph unicode="p" glyph-name="p" horiz-adv-x="1269" d="M434 993V858Q569 1012 768 1012Q948 1012 1071 889L1101 854Q1198 726 1212 551Q1213 540 1213 528T1214 502Q1214 253 1054 102Q929 -18 757 -18Q571 -18 434 86V-231Q434 -373 530 -397Q537 -398 545
-399L561 -401L612 -406V-467H61V-406L112 -401Q221 -391 235 -283Q237 -257 238 -244T239 717Q239 834 188 864Q163 879 120 885Q115 886 111 886T104 887L61 891V952L104 956L217 969L364 993H434ZM434 756V186Q552 74 706 74Q858 74 944 223Q1005 329 1005 477Q1005
753 862 866Q791 920 704 920Q582 920 485 817L434 756Z" />
<glyph unicode="q" glyph-name="q" horiz-adv-x="1187" d="M1066 993V-231Q1066 -373 1162 -397H1164H1166H1168Q1175 -398 1181 -399L1193 -401L1244 -406V-467H693V-406L745 -401Q853 -391 867 -283Q869 -257 870 -244T872 104Q753 18 663 -6Q616 -18 560 -18L495
-12Q365 10 267 98Q114 236 114 481Q114 694 228 838Q336 973 503 1004Q513 1006 515 1006Q546 1012 577 1012Q751 1012 906 877L960 993H1066ZM872 203V795L831 840Q748 920 636 920Q508 920 419 819L386 772Q323 662 323 485Q323 252 452 137Q522 74 616 74L656
78Q751 94 872 203Z" />
<glyph unicode="r" glyph-name="r" horiz-adv-x="901" d="M440 993V829L483 866Q529 906 559 929T604 961L622 971L641 979Q710 1012 786 1012Q894 1012 927 938L935 899V897Q935 819 864 793Q843 784 819 784Q785 784 749 801Q740 805 731 809T714 821L669 846L628
852L595 848Q526 835 440 737V236Q440 103 526 74L567 66L618 61V0H67V61L118 66Q221 78 239 172L245 236V717Q245 838 188 868Q159 883 110 887L61 891V952L194 965Q231 969 275 976T370 993H440Z" />
<glyph unicode="s" glyph-name="s" horiz-adv-x="1064" d="M899 985L965 670H899Q821 856 653 911Q600 930 541 930Q408 930 354 846Q334 814 334 776Q334 712 397 678L422 668L494 647L778 578Q1010 523 1034 360Q1036 350 1037 339T1038 313Q1038 147 883 51Q770
-18 612 -18Q482 -18 391 27Q337 53 283 94L260 8H193L123 373H193L219 305Q230 280 243 259T272 217L279 211Q382 84 563 66Q585 63 606 63Q759 63 836 156Q870 199 870 252Q870 348 721 387L459 453Q211 516 166 637Q154 670 154 713Q154 858 295 948Q395 1012
528 1012Q693 1012 821 911L842 985H899Z" />
<glyph unicode="t" glyph-name="t" horiz-adv-x="778" d="M720 993V926H428V334Q428 73 581 63Q617 63 649 78Q696 98 759 170L815 125Q705 -18 526 -18H505Q408 -12 327 35Q233 92 233 240V926H61V993Q286 1001 333 1204Q350 1277 350 1366H428V993H720Z" />
<glyph unicode="u" glyph-name="u" horiz-adv-x="1392" d="M985 0V172Q823 40 702 2Q628 -18 550 -18Q393 -18 311 76Q245 149 245 289V717Q245 838 188 868Q159 883 110 887L61 891V952L137 958Q219 965 272 973Q292 976 316 981T370 993H440V305Q440 106 581
84L626 80Q779 80 985 260V717Q985 838 927 868H925Q899 883 849 887L800 891V952L913 961L1013 973Q1049 979 1099 991H1101L1110 993H1179V236Q1179 103 1265 74L1306 66L1357 61V0H985Z" />
<glyph unicode="v" glyph-name="v" horiz-adv-x="1064" d="M545 180L758 741L767 762Q772 779 777 803L779 827Q779 896 709 918L648 932V993H1070V928Q948 899 875 762L857 725L543 0H422L97 788L66 848Q32 907 -38 924L-71 930V993H429V932L394 928Q299 920
298 858L308 809L314 788L545 180Z" />
<glyph unicode="w" glyph-name="w" horiz-adv-x="1597" d="M1128 184L1312 725L1322 766Q1323 775 1324 787T1327 813Q1327 909 1206 928Q1201 929 1195 930L1183 932H1175V993H1628V932Q1522 905 1472 834Q1466 823 1460 812T1445 788V786L1443 784V782Q1437
771 1431 757T1417 725L1130 0H987L782 588L540 0H407L102 793Q57 905 -27 926Q-42 931 -58 932V993H425V932Q311 924 309 862L313 827L321 793L538 182L737 707L702 793L683 834Q653 897 593 918L548 930H546L540 932V993H1028V932Q921 918 907 870V868L905 848L909
811L915 793L1128 184Z" />
<glyph unicode="x" glyph-name="x" horiz-adv-x="1146" d="M646 571L926 213Q981 145 1020 115Q1043 98 1069 86Q1086 79 1110 73T1164 61V0H596V61Q705 77 717 111L719 129L713 160Q711 164 709 168T703 176Q703 176 701 180L699 184L514 442L310 213L289 188Q273
163 273 139Q273 88 361 72Q374 67 394 66L410 61V0H-49V61Q29 75 84 109Q128 137 195 213L455 506L215 807Q172 859 144 881Q95 920 7 932V993H514V932L494 930Q411 922 410 881Q410 863 435 829L596 633L770 829L781 846Q781 846 783 850L785 854L787 856V858L791
879Q791 911 758 922L713 930H711L699 932V993H1131V932Q1012 909 940 860Q890 828 824 762L646 571Z" />
<glyph unicode="y" glyph-name="y" horiz-adv-x="1105" d="M560 193L750 676Q789 772 789 831Q789 888 730 911L650 932V993H1100V930Q984 901 930 819L891 743L537 -88Q484 -219 441 -289Q410 -342 363 -389Q262 -494 140 -494Q15 -494 -34 -416Q-53 -388 -53
-354Q-53 -293 9 -264Q29 -254 56 -254Q77 -254 99 -262Q123 -273 169 -322Q207 -360 236 -360Q266 -360 304 -330Q365 -280 408 -174L459 -55L93 801L74 840Q46 897 1 913Q-28 924 -71 930V993H406V932Q299 918 295 856L298 836L304 815L560 193Z" />
<glyph unicode="z" glyph-name="z" horiz-adv-x="983" d="M982 324L871 0H54L21 59L693 915L597 930Q587 931 577 931T556 932H527Q363 924 259 852Q206 817 171 764Q158 747 145 723T118 670L54 692L169 993H935L957 942L271 90L365 68Q382 64 407 63T466 61Q677
61 804 188Q843 227 884 283Q894 297 904 312T925 344L982 324Z" />
<glyph unicode="{" glyph-name="braceleft" horiz-adv-x="573" d="M545 -273Q406 -252 318 -159Q276 -111 253 -57T229 55Q229 116 250 200Q260 242 265 273T270 330Q270 393 214 451Q163 504 70 519V545Q162 559 214 612Q270 668 270 734Q270 779 250 864Q229
948 229 1009Q229 1066 252 1120T318 1222Q360 1264 420 1295T545 1338V1320Q442 1294 395 1238T347 1112Q347 1060 368 975Q388 890 388 834Q388 791 372 749T323 666Q260 583 116 534Q188 508 239 475T322 399Q388 315 388 230Q388 174 368 88Q347 4 347 -48Q347
-82 358 -114T394 -173T455 -221T545 -255V-273Z" />
<glyph unicode="|" glyph-name="bar" horiz-adv-x="1228" d="M976 1479V0H817V1479H976Z" />
<glyph unicode="}" glyph-name="braceright" horiz-adv-x="697" d="M71 1338Q210 1317 297 1224Q387 1128 387 1009Q387 949 366 865Q356 823 351 791T346 735Q346 703 359 673T401 614Q454 561 546 546V520Q500 513 464 497T401 453Q372 424 359 394T346 331Q346
286 366 201Q387 117 387 55Q387 -61 297 -157Q209 -252 71 -273V-255Q174 -229 221 -173T269 -47Q269 3 249 89Q228 173 228 231Q228 316 292 398Q356 482 500 530Q429 557 377 590T293 666Q261 708 245 749T228 835Q228 893 249 976Q259 1019 264 1053T269 1113Q269
1147 258 1179T222 1238T161 1286T71 1320V1338Z" />
<glyph unicode="~" glyph-name="asciitilde" horiz-adv-x="1228" d="M1105 680L1193 584Q1088 381 941 356Q931 355 923 355T906 354Q842 354 716 408L605 453Q559 473 527 483T478 496H476H455Q376 496 318 424L306 406L304 403Q291 385 277 362T247 311L160
408Q194 466 224 509T283 580Q356 653 455 653Q525 653 611 614L744 559Q801 536 840 525T904 512H908Q951 512 990 539Q1004 550 1019 565T1051 600Q1064 617 1077 637T1105 680Z" />
<glyph unicode="" glyph-name="delete" horiz-adv-x="1600" d="M1520 129H1154V715H1232V198H1520V129ZM1080 129H642V715H1066V646H720V467H1044V398H720V198H1080V129ZM572 425Q572 299 516 222Q469 158 393 139Q356 129 298 129H87V715H289Q353 715 393 707Q506
681 549 565Q572 501 572 425ZM492 427Q492 593 388 634Q356 646 288 646H164V198H290Q392 198 433 239Q492 298 492 427Z" />
</font>
</defs>
</svg>
